<svg width="90" height="126" viewBox="0 0 90 126" fill="none" xmlns="http://www.w3.org/2000/svg">
<mask id="mask0" maskUnits="userSpaceOnUse" x="0" y="0" width="90" height="126">
<path fill-rule="evenodd" clip-rule="evenodd" d="M0.80719 0.181641H89.796V125.174H0.80719V0.181641Z" fill="white"/>
</mask>
<g mask="url(#mask0)">
<path fill-rule="evenodd" clip-rule="evenodd" d="M84.8222 47.576C84.6797 47.2503 84.5438 46.883 84.4035 46.5037L84.4035 46.5036C84.0895 45.655 83.7534 44.7464 83.2713 44.109C83.6065 42.4671 83.8208 41.8112 84.6499 40.2947C85.6146 38.5309 86.8371 37.7357 88.4998 36.8281C88.336 37.2232 88.1795 37.5851 88.0295 37.9322C87.6062 38.9114 87.2337 39.7729 86.8899 40.9309C86.6518 41.7306 86.4756 42.4687 86.3062 43.1787C85.9512 44.6661 85.6257 46.0297 84.8222 47.576ZM83.738 56.459C83.6342 56.8792 83.5555 57.2847 83.4798 57.6847C83.1358 58.2918 82.8275 58.9216 82.5854 59.5721C82.3993 60.0708 82.2538 60.5824 82.1581 61.1003C81.9133 59.7724 81.7549 58.4593 81.686 57.0544C81.7478 56.2881 81.8616 55.505 81.9756 54.7216L81.9756 54.7215V54.7214C82.1276 53.6765 82.2796 52.6313 82.308 51.6251C82.3742 49.2865 81.9594 46.1528 81.0166 43.9688C80.72 43.2824 80.2912 42.5513 79.8603 41.8166L79.8603 41.8165C79.4696 41.1504 79.0773 40.4814 78.7803 39.8404C77.8531 37.8392 78.8745 35.3429 79.7301 33.2517L79.8027 33.0743C79.9376 33.7596 80.133 34.4761 80.3266 35.1861L80.3267 35.1861L80.3268 35.1866C80.4929 35.7955 80.6576 36.3995 80.7817 36.975C80.9161 37.6003 81.0547 38.1466 81.188 38.6715L81.188 38.6716C81.4419 39.6723 81.6762 40.5954 81.8238 41.8408C81.9849 43.1986 82.1218 44.4517 82.0865 45.8629C82.2064 45.5618 82.5509 44.9176 82.7241 44.832C82.8136 44.7881 82.9689 44.8961 83.1013 44.9933C84.6356 49.02 84.7783 52.2666 83.738 56.459ZM80.4766 57.5691C78.9731 55.0962 77.9914 52.8445 77.1941 49.9993C77.1609 49.8808 77.1274 49.7627 77.094 49.6448C76.7708 48.5032 76.4526 47.3796 76.4307 46.1805C76.4043 44.7205 76.5551 43.2511 76.8321 41.8327V41.8309C76.9135 41.4089 76.9921 41.0299 77.0682 40.6631L77.1144 40.4399L77.1434 40.3012C77.2996 39.5533 77.4543 38.813 77.5816 38.0489C77.6311 38.4418 77.6784 38.8349 77.7258 39.2279L77.726 39.2295L77.726 39.2298C77.885 40.5501 78.0438 41.8687 78.2854 43.1753C78.599 44.8695 79.0502 46.4898 79.4988 48.1006C80.1856 50.5668 80.8662 53.0107 81.0372 55.6629C80.9778 55.8757 80.9288 56.0636 80.8826 56.2404C80.7673 56.6817 80.6702 57.0535 80.4766 57.5691ZM79.8301 23.3106L79.8301 23.3107C79.7878 23.8573 79.745 24.4109 79.7463 24.9077C79.749 26.085 79.7526 27.3085 80.0698 28.6431C80.1378 28.93 80.2065 29.1878 80.2708 29.4288C80.5168 30.3517 80.6976 31.0299 80.5195 32.1631L79.7951 30.9727L79.702 30.7993L78.9575 33.383C77.246 29.9773 76.8285 24.0336 79.8859 21.2677C79.9449 21.8262 79.888 22.5618 79.8301 23.3106ZM77.8831 17.2411C77.6106 16.2322 77.5323 15.1668 77.6536 14.0338C77.7657 12.986 78.133 11.8311 78.4902 10.708L78.4926 10.7007L78.5118 10.6401C78.6927 10.0686 78.8713 9.50465 79.0152 8.94993C79.0769 8.71251 79.1915 8.44244 79.3049 8.17518C79.3263 8.12473 79.3477 8.07438 79.3687 8.02437C79.3776 8.06273 79.3867 8.10063 79.3958 8.1388L79.4152 8.22014C79.8179 9.94036 79.8255 11.6139 79.8332 13.3091V13.3092C79.8436 15.605 79.8541 17.9408 80.8466 20.4864C80.6403 20.4743 80.4443 20.3766 80.264 20.227C80.0837 20.0774 79.919 19.8758 79.775 19.6576C79.6009 19.3941 79.4931 18.9648 79.4087 18.6287C79.3735 18.4887 79.3424 18.3649 79.3123 18.276C79.2353 18.5967 79.0595 19.232 78.9418 19.5917C78.4545 18.8292 78.1096 18.086 77.8831 17.2411ZM81.0699 9.6981C81.0988 9.48499 81.109 9.2666 81.1191 9.04818C81.1394 8.61137 81.1597 8.17444 81.3303 7.77931L82.0816 6.05317C82.0905 5.90578 82.2132 5.59015 82.3655 5.19856C82.6419 4.48798 83.0156 3.52729 82.9827 2.86789L83.0785 2.89298C83.3036 3.56229 83.4794 4.27864 83.6293 5.19077C84.0602 7.80664 84.0051 11.2222 83.7398 13.8412C83.7033 14.2018 83.6647 14.5727 83.6253 14.9512V14.9513C83.3786 17.3204 83.1009 19.9887 83.1009 22.3272C84.7443 20.2136 85.2224 17.1785 85.5827 14.891L85.5828 14.891C85.6238 14.6306 85.6633 14.3799 85.7028 14.1414C85.8821 13.0597 85.8951 12.096 85.9061 11.2789C85.9188 10.3323 85.9289 9.58235 86.1918 9.07358L87.293 8.03826L87.3764 8.62407L87.4478 9.1251C87.9106 12.3373 87.1224 15.2168 86.2859 18.273L86.2859 18.2731C86.2424 18.432 86.1987 18.5914 86.1551 18.7513C85.2016 22.2528 83.7179 25.3261 82.1156 28.5481C81.9894 28.8022 81.673 26.5416 81.8717 24.78L82.5733 18.5564C82.4921 18.5612 82.4011 18.6646 82.2917 18.7889C82.1034 19.0029 81.8605 19.279 81.5187 19.2212C79.7802 18.927 80.7734 11.8215 81.0341 9.95631C81.0484 9.85372 81.0606 9.76698 81.0699 9.6981ZM88.5248 20.7668C85.4075 26.3543 84.3291 31.7419 84.087 38.1685C84.0815 38.3194 84.0986 38.5408 84.1151 38.7535C84.1474 39.1716 84.1772 39.5556 84.0262 39.301C83.3393 38.1461 83.0686 35.4626 83.0767 34.0912L83.0928 31.2836C83.7702 27.6719 84.2942 25.1796 85.841 23.2066C86.8721 21.8918 87.3024 21.6206 87.7538 21.3361C87.9795 21.1938 88.2106 21.0481 88.5248 20.7668ZM73.7084 84.0258C73.7084 86.6923 72.9397 89.5877 71.4211 91.9101C70.1181 93.9042 68.2616 95.4753 65.8669 96.1101C64.008 96.6023 61.4552 96.5667 58.8557 96.5304L58.8527 96.5304C54.3719 96.4667 49.7484 96.4018 47.7058 99.0212L47.2049 99.6633L47.1998 99.6698C46.7239 100.28 46.2472 100.891 45.7719 101.5C45.7098 101.581 45.6474 101.66 45.585 101.74L45.5849 101.74C45.5251 101.816 45.4652 101.893 45.4055 101.97C45.1498 101.654 44.894 101.338 44.6383 101.023L44.6345 101.019L44.188 100.468L42.5839 98.4845C40.6227 96.0605 36.2236 96.1746 31.908 96.2866H31.9077L31.9059 96.2867C28.765 96.3678 25.6663 96.4477 23.7954 95.5425C21.6642 94.5117 20.0199 92.9257 18.8986 90.998C17.7227 88.9771 17.1155 86.5713 17.1155 84.0258V11.5497H73.7084V84.0258ZM10.1268 57.5691C9.9323 57.0512 9.83495 56.6785 9.71902 56.2346C9.67331 56.0595 9.6247 55.8734 9.5661 55.6629C9.73683 53.0116 10.4172 50.5686 11.1037 48.1033C11.5526 46.4916 12.004 44.8704 12.3175 43.1753C12.5585 41.8718 12.7171 40.5564 12.8759 39.2392L12.876 39.2391C12.9238 38.8424 12.9716 38.4456 13.0218 38.0489C13.1476 38.8045 13.3002 39.5368 13.4543 40.2762L13.4884 40.4399L13.5367 40.6728C13.6122 41.0366 13.6902 41.4127 13.7712 41.8309V41.8327C14.0478 43.2511 14.1994 44.7205 14.1726 46.1805C14.1507 47.3772 13.8334 48.4988 13.5111 49.6381C13.4771 49.7582 13.443 49.8786 13.4092 49.9993C12.6114 52.8445 11.6302 55.0962 10.1268 57.5691ZM8.44524 61.1003C8.34949 60.5824 8.20362 60.0708 8.01793 59.5721C7.77586 58.9216 7.46712 58.2918 7.12348 57.6847C7.04786 57.2847 6.96911 56.8792 6.86485 56.459C5.82498 52.2666 5.96727 49.02 7.50157 44.9933C7.63446 44.8961 7.78928 44.7881 7.87922 44.832C8.05238 44.9176 8.39692 45.5618 8.51639 45.8629C8.48104 44.4517 8.61796 43.1986 8.77949 41.8408C8.92699 40.594 9.16151 39.6702 9.4159 38.6682C9.5489 38.1443 9.68733 37.599 9.8216 36.975C9.9459 36.3987 10.1108 35.7938 10.2771 35.1841C10.4705 34.4748 10.6656 33.759 10.8006 33.0743L10.8726 33.2503C11.7283 35.3418 12.75 37.8388 11.823 39.8404C11.5262 40.4811 11.134 41.1497 10.7435 41.8154L10.7435 41.8154C10.3124 42.5505 9.88323 43.2821 9.58669 43.9688C8.64391 46.1528 8.22868 49.2865 8.29535 51.6251C8.32373 52.6313 8.47575 53.6766 8.62772 54.7215C8.74166 55.5049 8.85556 56.2881 8.9173 57.0544C8.84839 58.4593 8.69 59.7724 8.44524 61.1003ZM2.57183 37.9281L2.57181 37.928L2.57179 37.928C2.42227 37.5822 2.26637 37.2216 2.10309 36.8281C3.76626 37.7357 4.98825 38.5309 5.95339 40.2947C6.78207 41.8112 6.99685 42.4671 7.33199 44.109C6.84915 44.747 6.51275 45.6567 6.19869 46.506C6.05873 46.8845 5.9232 47.2509 5.78113 47.576C4.97718 46.029 4.65162 44.6648 4.29644 43.1765L4.29643 43.1765C4.12717 42.4672 3.95117 41.7297 3.71346 40.9309C3.36876 39.7713 2.99593 38.909 2.57183 37.9281ZM2.07803 20.7668C2.39227 21.048 2.6234 21.1937 2.84917 21.3359C3.30074 21.6205 3.73088 21.8916 4.76184 23.2066C6.30867 25.1796 6.83308 27.6719 7.51007 31.2836L7.52663 34.0912C7.53468 35.4626 7.26397 38.1461 6.57714 39.301C6.42587 39.5555 6.45568 39.1716 6.48815 38.7535C6.50467 38.5409 6.52187 38.3194 6.51629 38.1685C6.27422 31.7419 5.19542 26.3543 2.07803 20.7668ZM3.15505 9.1251L3.23784 8.54568L3.31031 8.03826L4.41148 9.07358C4.67422 9.58238 4.68431 10.3324 4.69704 11.2791C4.70804 12.0962 4.721 13.0598 4.9001 14.1414C4.93978 14.3806 4.97943 14.6321 5.02062 14.8934C5.38123 17.1805 5.85956 20.2143 7.50202 22.3272C7.50202 19.9865 7.22406 17.3153 6.97735 14.9446L6.97735 14.9446C6.93821 14.5684 6.89985 14.1997 6.86351 13.8412C6.59817 11.2222 6.54313 7.80664 6.97358 5.19077C7.12392 4.27864 7.29932 3.56229 7.52529 2.89298L7.62059 2.86789C7.58771 3.52729 7.96138 4.48799 8.23777 5.19857C8.39009 5.59015 8.51285 5.90578 8.52176 6.05317L9.27302 7.77931C9.44379 8.17478 9.46397 8.61212 9.48414 9.0493C9.4942 9.26735 9.50425 9.48535 9.53299 9.6981C9.54221 9.76597 9.55414 9.85118 9.56822 9.95181C9.82834 11.81 10.8245 18.9267 9.08465 19.2212C8.74231 19.2791 8.49924 19.0027 8.31099 18.7886C8.20177 18.6644 8.111 18.5612 8.03001 18.5564L8.73161 24.78C8.93028 26.5416 8.61393 28.8022 8.4873 28.5481C6.88499 25.3261 5.40169 22.2528 4.44773 18.7513C4.40394 18.5905 4.36011 18.4303 4.31641 18.2706L4.31637 18.2705C3.48046 15.2152 2.69284 12.3364 3.15505 9.1251ZM11.1881 8.22014C11.2038 8.15384 11.219 8.08978 11.2346 8.02437C11.2569 8.07758 11.2796 8.13118 11.3023 8.18488C11.4142 8.44897 11.5271 8.71538 11.5881 8.94993C11.7317 9.50492 11.9107 10.0691 12.0922 10.6409L12.0922 10.6409L12.1112 10.7007L12.12 10.7284C12.4743 11.8451 12.8383 12.9923 12.9493 14.0338C13.0705 15.1668 12.9922 16.2322 12.7197 17.2411C12.4938 18.086 12.1488 18.8292 11.6611 19.5917C11.5438 19.232 11.3675 18.5967 11.291 18.276C11.2609 18.3649 11.2298 18.4887 11.1945 18.6287L11.1945 18.6288C11.11 18.9648 11.0021 19.3941 10.8284 19.6576C10.6843 19.8758 10.5192 20.0774 10.3393 20.227C10.159 20.3766 9.96299 20.4743 9.75627 20.4864C10.7487 17.941 10.7593 15.6054 10.7698 13.3098C10.7775 11.6143 10.7851 9.9406 11.1881 8.22014ZM11.6454 33.383L10.9013 30.7993L10.8082 30.9727L10.0838 32.1631C9.90527 31.0294 10.0863 30.351 10.3327 29.4275C10.3969 29.1868 10.4656 28.9295 10.5335 28.6431C10.8503 27.3085 10.8539 26.085 10.857 24.9077C10.8583 24.4107 10.8154 23.8569 10.773 23.3102C10.715 22.5616 10.658 21.8261 10.7169 21.2677C13.7744 24.0336 13.3569 29.9773 11.6454 33.383ZM89.8981 51.7165L90.1603 50.424L89.1141 51.2308C88.362 51.8096 87.698 52.3737 87.0872 52.9628C87.1642 52.4159 87.2485 51.8282 87.3363 51.2167C87.7178 48.559 88.164 45.451 88.3517 43.277C88.3869 42.8706 88.4159 42.4595 88.445 42.0465L88.445 42.0458V42.0457C88.5735 40.2201 88.7048 38.3555 89.3951 36.6722L89.8189 35.8729C89.7993 35.8818 89.7089 35.9071 89.5826 35.9426L89.5823 35.9427C89.5484 35.9522 89.5119 35.9624 89.4734 35.9733C89.4228 35.9876 89.3689 36.0029 89.3132 36.019C89.3079 36.0199 89.3038 36.0208 89.2985 36.0226L89.2882 36.0253C88.9463 36.101 88.5025 36.2103 88.0658 36.4092C87.6417 36.6023 87.249 36.8658 86.9546 37.0632C86.7129 37.2254 86.5375 37.343 86.4657 37.3406C86.3777 37.3374 86.4253 37.2332 86.5523 36.9555C86.7269 36.5735 87.0516 35.8635 87.3798 34.6369C87.9467 32.5188 88.4295 27.0948 88.7656 23.0834C88.9401 21.9137 89.3813 20.6871 89.7871 19.5787C89.4252 19.8733 88.9807 20.0986 88.5272 20.3285C88.084 20.5531 87.6323 20.782 87.2411 21.084C87.2031 20.3974 87.4338 19.7717 87.665 19.1448C87.7877 18.8122 87.9104 18.4792 87.9933 18.1366C88.9302 14.2605 88.4139 10.8535 87.7065 7.054L86.2075 8.14174C86.0146 6.99486 85.7757 5.90846 85.3444 4.84312C84.7761 3.44581 84.0638 2.28549 83.1997 1.37381L81.6068 -0.217041C81.6392 0.0242463 81.6923 0.311271 81.7509 0.627908L81.751 0.628245C81.9539 1.72488 82.2225 3.1766 81.9236 4.31358C81.7196 5.08997 81.4337 5.90174 81.2457 6.36901C80.9863 7.01233 80.7479 7.33569 80.5809 7.56217C80.5195 7.64544 80.4678 7.71562 80.4282 7.78379C80.4185 7.80053 80.3743 7.7189 80.3014 7.58432L80.3014 7.58423C80.187 7.3731 80.0022 7.03173 79.7691 6.73547C79.4787 6.36794 79.0859 6.07989 78.85 5.90686C78.7554 5.83755 78.6861 5.7867 78.6586 5.75659C78.7293 6.3027 78.7557 6.89182 78.6939 7.51454C78.6492 7.96837 78.5821 8.42533 78.4805 8.81733C78.34 9.35851 78.1735 9.94539 77.9847 10.5408L77.9782 10.5614C77.616 11.7014 77.243 12.8752 77.1252 13.9778C76.9967 15.1798 77.08 16.3074 77.3686 17.3786C77.6259 18.3351 78.0236 19.6401 78.5964 20.6051C77.3552 24.1389 76.3229 28.235 77.5529 31.9252C77.8004 32.6671 78.2004 33.7333 78.5897 34.5424C78.2818 35.5325 78.0049 36.5306 77.859 37.5458C77.8098 37.4347 77.7592 37.3249 77.7082 37.2214C77.6147 37.0306 77.5127 36.8348 77.3923 36.6601L77.0433 37.7635C76.9272 38.3562 76.8749 38.7042 76.8255 39.0324L76.8255 39.0327C76.7715 39.3915 76.7211 39.7266 76.5949 40.3319L76.5528 40.5344L76.5526 40.5352C76.4672 40.9455 76.3824 41.3533 76.309 41.7301V41.7319C76.0267 43.1843 75.8714 44.6918 75.8983 46.1881C75.9233 47.5536 76.1005 48.9156 76.4679 50.2295C76.8741 51.6788 77.5077 53.3664 78.2545 54.9927C78.8259 56.2381 79.4685 57.4509 80.124 58.4911L74.6951 54.0264V11.056V10.5618H74.2015H16.6219H16.1288V11.056V59.1107L16.0926 53.8749L10.4793 58.4911C11.1349 57.4509 11.7774 56.2381 12.3483 54.9927C13.0956 53.3664 13.7287 51.6788 14.1355 50.2295C14.5024 48.9156 14.68 47.5536 14.7046 46.1881C14.7315 44.6918 14.5766 43.1843 14.2939 41.7319V41.7301C14.2161 41.3288 14.125 40.8923 14.0337 40.4552L14.0079 40.3319C13.8822 39.7277 13.8319 39.3927 13.7781 39.0346C13.7287 38.7058 13.6763 38.3575 13.56 37.7635L13.211 36.6601C13.0907 36.8348 12.9886 37.0306 12.8947 37.2214C12.8441 37.3249 12.7931 37.4347 12.7443 37.5458C12.5985 36.5306 12.321 35.5325 12.0137 34.5424C12.4029 33.7333 12.8025 32.6671 13.0499 31.9252C14.2804 28.235 13.2482 24.1389 12.0069 20.6051C12.5792 19.6401 12.9775 18.3351 13.2343 17.3786C13.5229 16.3074 13.6066 15.1798 13.4782 13.9778C13.3599 12.8753 12.9869 11.7015 12.6248 10.5616L12.6248 10.5616L12.6182 10.5408C12.4298 9.94539 12.2633 9.35851 12.1228 8.81733C12.0213 8.42533 11.9541 7.96837 11.9094 7.51454C11.8472 6.89182 11.874 6.3027 11.9443 5.75659C11.9168 5.7867 11.8475 5.83754 11.753 5.90683C11.5172 6.07985 11.1246 6.36792 10.8342 6.73547C10.6011 7.03177 10.4162 7.37319 10.3019 7.58431C10.229 7.7189 10.1848 7.80053 10.1751 7.78379C10.1355 7.71562 10.0838 7.64545 10.0224 7.56218L10.0224 7.56217C9.85541 7.33569 9.61703 7.01233 9.35759 6.36901C9.16966 5.90174 8.88374 5.08997 8.67926 4.31358C8.3805 3.17585 8.64949 1.72298 8.85257 0.626085C8.91106 0.31017 8.96408 0.0237832 8.9965 -0.217041L7.40358 1.37381C6.53911 2.28549 5.82677 3.44581 5.25895 4.84312C4.82761 5.90846 4.58912 6.99486 4.39582 8.14174L2.89687 7.054C2.18945 10.8535 1.67265 14.2605 2.61005 18.1366C2.69279 18.4795 2.81566 18.8127 2.9384 19.1456C3.16944 19.7722 3.40005 20.3976 3.36177 21.084C2.97067 20.7819 2.51898 20.553 2.07575 20.3283C1.62244 20.0985 1.17798 19.8732 0.816227 19.5787C1.22206 20.6871 1.6628 21.9137 1.8382 23.0834C2.17424 27.0948 2.65614 32.5188 3.22306 34.6369C3.55118 35.8631 3.87586 36.5731 4.05056 36.9551C4.1777 37.2331 4.2254 37.3374 4.1372 37.3406C4.06534 37.343 3.88986 37.2253 3.64801 37.063C3.35374 36.8656 2.96122 36.6022 2.53757 36.4092C2.10041 36.2103 1.65698 36.101 1.31513 36.0253L1.30484 36.0226C1.29947 36.0208 1.29545 36.0199 1.29008 36.019C1.192 35.9907 1.09952 35.9647 1.02095 35.9427C0.894469 35.9072 0.804054 35.8818 0.784458 35.8729L1.20819 36.6722C1.89807 38.3553 2.02933 40.2199 2.15784 42.0453C2.18695 42.4587 2.21592 42.8702 2.2512 43.277C2.43865 45.4481 2.88418 48.5509 3.26547 51.2063C3.35381 51.8215 3.4387 52.4128 3.51614 52.9628C2.90537 52.3737 2.24091 51.8096 1.48919 51.2308L0.443054 50.424L0.704812 51.7165L1.20998 54.2015C1.68028 56.5367 1.52288 59.2513 1.37412 61.8168L1.3733 61.831C1.34849 62.26 1.31473 62.6893 1.28098 63.1185C1.16138 64.6396 1.04196 66.1584 1.32185 67.6518C1.95364 69.4407 4.07276 71.3384 5.497 72.4974C5.53995 72.3294 5.56188 72.1556 5.57709 71.9894C5.69745 70.6807 5.60125 67.0045 4.78197 62.1244C4.32513 59.4019 3.60071 55.7897 2.01271 52.9225C2.45568 53.3046 2.8642 53.6868 3.25348 54.0886C3.94793 54.8054 4.58151 55.5849 5.22137 56.515C5.94937 57.5709 6.65142 58.7192 7.09663 59.9149C7.5311 61.0792 7.72485 62.2996 7.46398 63.5401C7.40646 63.8161 7.33473 64.1007 7.26348 64.3833L7.25279 64.4258L7.24815 64.4442C7.16064 64.7906 7.07309 65.1373 7.00714 65.4705V65.4723C6.52613 67.9063 6.30912 70.6494 6.68766 73.1492C7.12277 73.3591 7.56736 73.5506 8.01209 73.7422L8.01229 73.7423C8.61251 74.0008 9.21298 74.2594 9.79072 74.5636C9.89945 74.6209 10.0095 74.6774 10.12 74.7338L9.8641 70.7807C9.69085 68.107 9.68828 65.4174 9.68571 62.7219V62.7216C9.68483 61.7972 9.68394 60.8721 9.67618 59.9467C9.70103 59.8187 9.70518 59.684 9.70924 59.5519C9.7125 59.4461 9.7157 59.342 9.72942 59.2442C9.88066 59.548 10.0404 59.8503 10.2033 60.1554C10.5456 60.7952 10.891 61.4448 11.1313 62.1132C11.4257 62.9353 11.7076 63.7936 11.9443 64.6426V64.6453C12.1582 65.4055 12.3398 66.1685 12.4727 66.905C12.7613 68.5147 12.794 70.0827 12.6329 71.6319C12.4938 72.9691 12.1976 74.3266 11.8078 75.6652C11.8479 75.6894 11.888 75.7134 11.9279 75.7373C12.1841 75.8906 12.4362 76.0415 12.6692 76.2283C13.1215 74.7347 13.4535 73.2433 13.6115 71.7322C13.7193 70.6928 13.7426 69.6472 13.6679 68.5828L16.1288 66.7437V84.0258C16.1288 86.7415 16.7821 89.3176 18.0475 91.4921C19.2668 93.5865 21.0526 95.3096 23.3677 96.43C25.46 97.442 28.674 97.3592 31.9314 97.2745L31.9354 97.2744C36.0126 97.1687 40.1668 97.061 41.8209 99.1059L43.4251 101.089C43.9598 101.75 44.4963 102.413 45.0301 103.072L45.418 103.552L45.7988 103.065L46.0741 102.712L46.0749 102.711C46.2321 102.509 46.3895 102.308 46.546 102.107C47.0539 101.455 47.5635 100.802 48.0718 100.15L48.0775 100.143L48.4799 99.6269C50.2191 97.3959 54.5983 97.4582 58.8419 97.5186L58.8452 97.5187C61.5069 97.5559 64.1195 97.5923 66.117 97.063C68.7717 96.3592 70.8188 94.634 72.2457 92.4504C73.8718 89.9631 74.6951 86.871 74.6951 84.0258V66.9086L76.9354 68.5828C76.8607 69.6472 76.884 70.6928 76.9918 71.7322C77.1498 73.2433 77.4818 74.7347 77.9337 76.2283C78.1661 76.0424 78.4171 75.8919 78.6718 75.7393L78.6719 75.7392C78.7129 75.7146 78.7539 75.69 78.7951 75.6652C78.4053 74.3266 78.1096 72.9691 77.9704 71.6319C77.8093 70.0827 77.8415 68.5147 78.1306 66.905C78.2635 66.1685 78.4451 65.4055 78.6586 64.6453V64.6426C78.8953 63.7936 79.1772 62.9353 79.4716 62.1132C79.7123 61.4448 80.0578 60.7952 80.3996 60.1554C80.5625 59.8503 80.7227 59.548 80.8739 59.2442C80.8874 59.3418 80.8906 59.4457 80.8938 59.5513C80.8979 59.6836 80.9021 59.8186 80.9267 59.9467C80.9192 60.8643 80.9184 61.7817 80.9176 62.6984V62.6986V62.6988C80.9153 65.402 80.913 68.0993 80.7392 70.7807L80.4833 74.7338L80.5211 74.7144C80.6186 74.6644 80.7163 74.6143 80.8126 74.5636C81.3903 74.2593 81.9908 74.0006 82.5912 73.742L82.5915 73.7419C83.036 73.5504 83.4803 73.359 83.9152 73.1492C84.2942 70.6494 84.0767 67.9063 83.5962 65.4723V65.4705C83.5314 65.1455 83.4465 64.8077 83.3616 64.4698L83.3614 64.4691L83.3505 64.4258C83.2754 64.1292 83.1997 63.8299 83.1393 63.5401C82.8785 62.2996 83.0722 61.0792 83.5067 59.9149C83.9519 58.7192 84.654 57.5709 85.382 56.515C86.0214 55.5849 86.6554 54.8054 87.3494 54.0886C87.7391 53.6868 88.1476 53.3046 88.5902 52.9225C87.0026 55.7897 86.2782 59.4019 85.8214 62.1244C85.0021 67.0045 84.9059 70.6807 85.0262 71.9894C85.0414 72.1556 85.0634 72.3294 85.1059 72.4974C86.5306 71.3384 88.6497 69.4407 89.2815 67.6518C89.5615 66.1576 89.4418 64.638 89.3219 63.1161V63.116C89.2882 62.6877 89.2544 62.2592 89.2296 61.831L89.2291 61.8226V61.8226C89.0802 59.2553 88.9227 56.5384 89.3933 54.2015L89.8981 51.7165ZM1.73229 76.4404C1.40207 74.1296 1.14076 71.8215 0.891085 69.5009C2.32874 71.6289 3.23885 72.58 5.51727 73.9012C6.21269 74.3044 6.95227 74.6228 7.69224 74.9414L7.69235 74.9414L7.69249 74.9415C8.29316 75.2001 8.89408 75.4588 9.47183 75.763C9.68128 75.8735 9.89352 75.9813 10.1062 76.0894C10.9781 76.5323 11.8576 76.9792 12.5838 77.6249C13.1785 78.1536 13.634 78.8874 13.8461 79.6557C14.2246 81.0285 14.2923 82.5099 14.3602 83.9927C14.4149 85.1883 14.4696 86.3848 14.6873 87.5257C14.8271 88.2567 15.0549 88.9671 15.2827 89.6778L15.2827 89.678C15.3961 90.0317 15.5096 90.3855 15.6122 90.7419L13.9298 89.8105C12.7587 89.1641 11.4408 88.8845 10.1231 88.6051L10.123 88.6051C9.09755 88.3876 8.07225 88.1701 7.11645 87.7797C5.34813 87.0571 4.73423 86.3847 3.66706 84.9027C2.2039 82.8705 2.0963 81.1191 1.96821 79.0342C1.91885 78.2309 1.86645 77.378 1.73229 76.4404ZM89.4485 69.987C89.1988 72.3076 88.9375 74.6157 88.6073 76.9265C88.4732 77.8639 88.4208 78.7167 88.3714 79.52C88.2433 81.605 88.1357 83.3565 86.6721 85.3888C85.6054 86.8708 84.991 87.5432 83.2231 88.2654C82.2669 88.6561 81.2412 88.8738 80.2153 89.0915C78.898 89.371 77.5805 89.6506 76.4098 90.2966L74.7274 91.228C74.83 90.8717 74.9434 90.518 75.0568 90.1643C75.2846 89.4535 75.5125 88.7428 75.6523 88.0114C75.87 86.8706 75.9247 85.6742 75.9794 84.4785V84.4785C76.0472 82.9957 76.115 81.5143 76.4935 80.1418C76.7056 79.3735 77.1611 78.6396 77.7558 78.1106C78.4818 77.4653 79.3611 77.0186 80.2327 76.5758L80.2328 76.5757C80.4457 76.4676 80.6581 76.3596 80.8678 76.2491C81.446 75.9445 82.0476 75.6855 82.6491 75.4267C83.3884 75.1085 84.1275 74.7904 84.8223 74.3877C87.1007 73.0661 88.0104 72.115 89.4485 69.987ZM10.9106 90.2222C6.72959 89.2774 4.34155 88.1968 1.74142 84.4739L2.23809 88.2792C2.32784 88.965 2.57095 89.3192 2.90823 89.8104C3.17793 90.2033 3.50784 90.6838 3.8677 91.4918C4.12064 92.0598 4.42211 92.8326 4.75989 93.6986C5.50364 95.6053 6.42341 97.9633 7.38868 99.5782C8.96683 102.219 11.1584 103.742 14.2986 103.522C16.0914 103.396 17.3823 102.51 18.6921 101.611C19.4082 101.12 20.1299 100.624 20.9424 100.247C21.5787 99.9514 22.2721 99.8122 22.9656 99.673L22.9657 99.673C23.3123 99.6034 23.6589 99.5338 23.9985 99.4447L22.1384 98.4426C20.2518 97.426 19.0116 95.9154 17.7879 94.425C17.0805 93.5633 16.3786 92.7084 15.5605 91.9595C14.494 90.983 12.9745 90.6617 11.5694 90.3645C11.3461 90.3173 11.1258 90.2707 10.9106 90.2222ZM88.5982 84.96C85.998 88.6829 83.6096 89.7635 79.429 90.7078C79.2134 90.7565 78.9926 90.8032 78.769 90.8506C77.364 91.1479 75.8453 91.4694 74.7791 92.4456C73.961 93.1945 73.259 94.0494 72.5516 94.9111L72.5515 94.9112C71.3278 96.4016 70.0875 97.9121 68.2012 98.9286L66.3407 99.9308C66.6803 100.02 67.0271 100.09 67.3738 100.159C68.0674 100.299 68.7609 100.438 69.3972 100.733C70.2094 101.11 70.9309 101.606 71.6469 102.097C72.9568 102.996 74.248 103.882 76.0409 104.008C79.1812 104.228 81.3723 102.705 82.9505 100.065C83.9159 98.4497 84.8356 96.0919 85.5794 94.1853L85.5794 94.1853C85.9173 93.319 86.2189 92.5459 86.4719 91.9779C86.8317 91.1699 87.1617 90.6894 87.4314 90.2965C87.7686 89.8052 88.0117 89.4511 88.1015 88.7653L88.5982 84.96ZM9.13633 104.643C8.83833 104.073 8.76092 103.397 8.72781 102.754C8.72542 102.705 9.32704 103.032 10.0103 103.402C10.7374 103.796 11.557 104.241 11.8394 104.337C13.5871 104.932 15.6176 104.554 17.5524 103.418C17.8632 103.235 18.2166 103.01 18.6013 102.766L18.6015 102.766L18.6025 102.765L18.6027 102.765C21.0727 101.193 24.8318 98.8019 26.8965 101.528C27.3484 102.123 27.4858 102.87 27.6012 103.673C28.0585 106.857 24.6163 108.953 22.2201 110.412L22.2194 110.412C22.0154 110.537 21.819 110.656 21.6331 110.772C21.0908 111.108 20.5172 111.43 19.8988 111.589C18.1046 112.051 16.496 111.272 15.257 110.057C14.9548 109.76 14.6792 109.471 14.4103 109.189L14.4102 109.189C13.7608 108.509 13.1502 107.869 12.2985 107.248C12.0286 107.052 11.7252 106.86 11.4131 106.664C10.536 106.111 9.59112 105.515 9.13633 104.643ZM81.4694 103.425C81.4367 104.068 81.3588 104.744 81.0613 105.315C80.6064 106.186 79.6624 106.781 78.7857 107.334C78.4732 107.531 78.1693 107.722 77.8992 107.919C77.0476 108.54 76.4374 109.179 75.7886 109.859L75.7884 109.859C75.5192 110.141 75.2432 110.43 74.9406 110.728C73.7016 111.943 72.0931 112.722 70.2988 112.26C69.68 112.101 69.1063 111.779 68.564 111.443C68.3783 111.327 68.1818 111.208 67.9778 111.084L67.9775 111.083C65.5813 109.625 62.1391 107.529 62.5964 104.344C62.7118 103.541 62.8492 102.795 63.3007 102.199C65.3656 99.4728 69.1255 101.865 71.5954 103.436C71.9803 103.681 72.3338 103.906 72.6448 104.089C74.58 105.225 76.6105 105.604 78.3578 105.008C78.6403 104.912 79.4593 104.468 80.1862 104.073L80.1863 104.073L80.1869 104.073L80.1871 104.073L80.1875 104.073C80.8705 103.702 81.4717 103.376 81.4694 103.425ZM55.6934 107.907C55.6831 108.153 55.6773 108.351 55.6773 108.504V112.271C55.6773 113.159 55.544 114.158 55.2791 115.271C55.0527 116.191 54.7905 117.011 54.4857 117.738C54.3524 118.083 54.1443 118.255 53.8696 118.255C53.6557 118.255 53.4477 118.244 53.2414 118.222C53.0284 118.201 52.8839 118.193 52.8042 118.193C52.721 118.193 52.6091 118.201 52.4673 118.222C52.3308 118.244 52.2194 118.255 52.1313 118.255C51.7518 118.255 51.5594 118.164 51.5594 117.979C51.5594 117.787 51.784 117.541 52.2324 117.244C52.6038 116.976 52.8951 116.645 53.108 116.249C53.2821 115.831 53.389 115.581 53.4289 115.498C52.9801 115.378 52.6141 115.124 52.3264 114.738C52.0292 114.356 51.7885 113.869 51.6073 113.281C51.5541 113.107 51.4954 112.669 51.4261 111.963C51.2654 110.257 51.1375 109.155 51.044 108.658C50.9907 108.351 50.9343 108.1 50.8708 107.907C50.8037 107.725 50.729 107.56 50.6435 107.412C50.5558 107.262 50.5119 107.131 50.5119 107.022C50.5119 106.786 50.6408 106.669 50.9021 106.669L51.5916 106.701L52.406 106.669C52.6593 106.669 52.8279 106.806 52.9053 107.075C52.9479 107.233 52.9698 107.551 52.9698 108.033C52.9698 109.305 52.9881 110.233 53.0306 110.813C53.074 111.389 53.1242 111.776 53.1881 111.979C53.2557 112.183 53.3407 112.362 53.445 112.514C53.5546 112.658 53.6504 112.733 53.7354 112.733C53.8347 112.733 53.9094 112.653 53.9627 112.498C54.0137 112.334 54.0401 112.051 54.0401 111.642C54.0401 110.551 54.0029 109.669 53.9305 108.995C53.8535 108.332 53.6955 107.84 53.4611 107.522C53.3456 107.351 53.2897 107.187 53.2897 107.038C53.2897 106.792 53.4181 106.669 53.6718 106.669C53.9282 106.69 54.147 106.701 54.3314 106.701L55.3565 106.669C55.4983 106.669 55.5941 106.728 55.6455 106.848C55.6876 106.963 55.7095 107.153 55.7095 107.412C55.7095 107.498 55.7037 107.661 55.6934 107.907ZM48.8031 118.701C48.7736 118.8 48.7235 118.851 48.6564 118.851C48.4877 118.851 48.3306 118.749 48.1785 118.543C48.0156 118.351 47.7829 118.255 47.4733 118.255H43.1335C42.5966 118.255 42.2256 118.394 42.0229 118.669C41.9294 118.8 41.8252 118.867 41.7102 118.867C41.6117 118.867 41.5446 118.821 41.5133 118.733C41.4726 118.648 41.4515 118.528 41.4515 118.364C41.4515 118.303 41.4676 118.158 41.4999 117.934L41.5061 117.855C41.5204 117.676 41.5294 117.564 41.5294 117.519L41.4999 116.875C41.4999 116.736 41.5178 116.634 41.5607 116.57C41.5925 116.508 41.6833 116.476 41.8359 116.476C41.9075 116.476 42.031 116.487 42.2019 116.508C42.3648 116.508 42.4605 116.46 42.4928 116.361C42.5137 116.292 42.5476 116.193 42.5918 116.062L42.648 115.896C42.7169 115.693 42.7814 115.457 42.8427 115.193C43.0776 114.185 43.2431 113.383 43.3366 112.786C43.478 111.899 43.5478 111.059 43.5478 110.265C43.5478 109.295 43.5098 108.621 43.4378 108.244C43.406 108.084 43.3152 107.837 43.1635 107.509C43.0905 107.335 43.0534 107.185 43.0534 107.054C43.0534 106.819 43.193 106.701 43.4704 106.701C43.7344 106.712 44.0127 106.725 44.2982 106.738C44.5814 106.75 44.9765 106.755 45.4866 106.755C45.5614 106.755 45.8312 106.741 46.301 106.717C46.7605 106.707 47.2384 106.701 47.7324 106.701C47.9087 106.701 47.9995 106.871 47.9995 107.216C47.9995 107.495 47.9619 107.805 47.8899 108.15C47.8689 108.308 47.8313 108.533 47.7798 108.824C47.7592 109.048 47.7485 109.529 47.7485 110.265L47.7646 115.771C47.7646 116.131 47.8416 116.361 47.9995 116.46C48.0554 116.492 48.1405 116.508 48.2559 116.508C48.3199 116.508 48.4103 116.503 48.5306 116.492C48.702 116.492 48.787 116.594 48.787 116.797V116.861C48.7982 116.901 48.8031 116.944 48.8031 116.985V117.182C48.8031 117.316 48.7982 117.409 48.787 117.455C48.7982 117.58 48.8085 117.709 48.8192 117.843C48.8295 117.977 48.8349 118.128 48.8349 118.303C48.8349 118.485 48.8246 118.618 48.8031 118.701ZM39.6649 117.707C39.3262 118.072 38.9118 118.255 38.4232 118.255C38.1561 118.244 37.9104 118.228 37.6858 118.206C37.4455 118.199 37.2267 118.193 37.0289 118.193C36.8768 118.193 36.679 118.201 36.4338 118.222C36.1909 118.244 36.0517 118.255 36.0195 118.255C35.6539 118.255 35.4723 118.089 35.4723 117.76C35.4723 117.65 35.5148 117.346 35.5976 116.845C35.6853 116.343 35.7309 115.893 35.7309 115.498V109.043C35.7309 108.918 35.6964 108.624 35.6298 108.166C35.5653 107.707 35.5336 107.375 35.5336 107.169C35.5336 106.835 35.6002 106.669 35.7309 106.669H36.1291C36.1502 106.669 36.3081 106.679 36.6016 106.704C36.8983 106.728 37.1171 106.738 37.2639 106.738L38.5776 106.669C38.9543 106.669 39.2031 106.679 39.3261 106.704C39.4483 106.728 39.5311 106.77 39.5714 106.835C39.6139 106.907 39.6353 107.03 39.6353 107.201V107.397L39.6237 107.536L39.6131 107.663L39.6036 107.781C39.5928 107.854 39.5928 107.923 39.6036 107.984V108.166L39.6649 109.174C39.6649 109.513 39.5714 109.685 39.3848 109.685C39.3069 109.685 39.2349 109.669 39.1736 109.637C39.1096 109.607 39.008 109.5 38.8689 109.316C38.7167 109.134 38.519 109.043 38.2738 109.043C38.0277 109.043 37.8326 109.168 37.6858 109.418C37.5337 109.663 37.4589 109.965 37.4589 110.326C37.4589 110.519 37.667 110.805 38.0863 111.179C39.0666 112.07 39.6429 112.752 39.8143 113.234C39.9857 113.725 40.1029 114.169 40.1665 114.565C40.2282 114.963 40.26 115.42 40.26 115.944C40.26 116.69 40.0622 117.279 39.6649 117.707ZM64.2477 111.201L64.2476 111.201C63.2759 109.684 62.3135 108.182 61.8472 106.383C61.2449 104.063 61.874 102.973 63.2195 101.04C62.523 101.269 61.825 101.507 61.1247 101.746L61.1246 101.746C58.1251 102.768 55.0846 103.805 51.9424 104.162C49.958 104.387 47.8953 104.562 45.8348 104.616C43.7765 104.67 41.7187 104.604 39.7445 104.35C35.4987 103.804 31.6774 102.616 27.7171 101.101C27.7743 101.207 27.8307 101.311 27.8861 101.413C28.7217 102.954 29.3349 104.085 29.0894 106.023C28.8616 107.829 27.6942 109.571 26.5573 111.268C25.9236 112.214 25.2993 113.145 24.8525 114.066C23.9113 116.007 23.8649 117.249 23.7872 119.33L23.7786 119.558C26.1899 119.053 28.3967 118.771 30.8792 119.228C32.7684 119.577 34.4137 120.239 36.0675 120.905L36.0677 120.905C37.1918 121.357 38.3198 121.811 39.5311 122.169C40.5324 122.465 41.4527 122.491 42.4662 122.519H42.4663L42.4688 122.519L42.471 122.52L42.4727 122.52L42.4744 122.52L42.476 122.52L42.4775 122.52C42.588 122.523 42.6997 122.526 42.8127 122.53C42.6735 119.063 48.4752 119.086 47.825 122.77C50.2695 122.822 51.5793 122.231 53.2216 121.491C53.9719 121.152 54.7915 120.783 55.8205 120.429C59.8216 119.055 63.0217 118.978 67.0984 119.468C67.0485 119.152 67.0021 118.838 66.956 118.524C66.6858 116.69 66.4227 114.902 65.4872 113.225C65.0995 112.531 64.6729 111.865 64.248 111.202L64.248 111.202L64.2479 111.201L64.2479 111.201L64.2479 111.201L64.2478 111.201L64.2478 111.201L64.2477 111.201L64.2477 111.201ZM37.4268 113.172C37.3973 113.172 37.3812 113.364 37.3812 113.749C37.3709 114.132 37.3651 114.506 37.3651 114.87V115.961C37.3651 116.163 37.3973 116.287 37.4586 116.327C37.523 116.37 37.6698 116.391 37.9047 116.391C38.068 116.391 38.196 116.337 38.2899 116.233C38.3879 116.124 38.4363 115.979 38.4363 115.802V115.669C38.4363 115.017 38.3298 114.434 38.1159 113.923C37.9025 113.42 37.6725 113.172 37.4268 113.172ZM45.4727 109.38C45.5237 109.155 45.6253 109.043 45.7774 109.043C45.8812 109.043 45.9371 109.263 45.9488 109.701C45.9591 110.15 45.9644 110.444 45.9644 110.586V115.771C45.9644 116.121 45.9488 116.327 45.9165 116.391C45.8758 116.458 45.7698 116.492 45.5957 116.492H44.7836C44.6427 116.492 44.5729 116.426 44.5729 116.297C44.5729 116.211 44.5975 116.038 44.6503 115.771C44.8131 114.848 44.9416 114.067 45.0404 113.429C45.1872 112.409 45.2597 111.618 45.2597 111.049C45.3393 110.177 45.4091 109.618 45.4727 109.38ZM48.8254 93.9289C49.8018 93.9033 50.7982 93.8771 51.8138 93.8587C39.1689 93.8305 34.7713 79.5317 48.4118 81.8707C52.7897 82.6215 58.3193 82.3491 60.5972 78.4403C62.0899 75.8791 62.294 73.0769 60.9037 70.4005C60.0039 68.6681 58.0588 67.8416 56.3062 67.6135C54.8426 67.4231 52.1964 68.096 51.6057 70.4005C51.2795 71.6733 52.0093 72.8506 53.3427 72.7588C55.563 72.606 54.8578 69.7697 53.6492 69.5431C55.6775 66.9384 60.5391 69.819 59.7274 74.3349C59.2043 77.2401 58.0253 78.865 55.5903 80.0487C53.1058 81.2564 51.0555 81.1327 48.6804 80.9894C48.2229 80.9618 47.7534 80.9334 47.2664 80.9137C44.5915 80.8062 41.3444 81.0983 39.5801 83.4526C38.0516 85.4959 38.5635 87.8022 39.3599 90.0337C35.7678 88.786 32.1153 83.1591 37.8306 78.5147C41.3869 76.5489 45.051 74.153 44.3696 68.695C43.5331 70.1421 42.1151 70.6008 40.5564 71.105C37.7301 72.0191 34.4411 73.083 33.3167 80.4599C33.3483 72.8195 36.431 71.6183 40.0204 70.2196C43.1417 69.0033 46.6462 67.6378 48.8606 61.7586C46.5823 64.3676 43.9572 64.854 41.4192 65.3244C37.9874 65.9604 34.7149 66.5668 32.6741 72.3511C34.1637 66.0995 36.5372 65.3252 40.8712 63.9114C41.405 63.7373 41.9684 63.5535 42.5637 63.3486C48.8396 61.3823 55.4287 57.8691 57.6897 51.4344C55.3383 53.2014 52.284 54.0973 49.1897 55.005C46.1638 55.8926 43.0998 56.7913 40.6177 58.5267C38.1727 60.2376 36.71 62.0647 34.993 64.2094C34.6126 64.6846 34.2197 65.1754 33.8008 65.684C37.7265 57.6853 44.2727 55.3533 50.3144 53.2011C55.1228 51.4882 59.6116 49.8891 62.2054 45.6378C62.943 44.4287 63.1423 43.1334 63.3507 41.7782C63.4074 41.4096 63.4648 41.0366 63.5338 40.6596C61.3369 44.5783 58.5721 45.4514 54.1728 46.5064C48.2021 47.9392 45.0038 50.6477 40.6607 54.3258C40.4543 54.5006 40.2453 54.6776 40.0333 54.8567L41.7703 52.9272C45.5468 48.7317 49.9305 46.5105 55.2574 44.6728C60.6661 43.021 68.1842 38.153 67.7229 31.2731C67.3878 34.354 63.6497 36.2416 59.5083 38.3329C56.1064 40.0507 52.4325 41.9059 50.1488 44.6728C52.283 41.3731 55.6989 39.5423 59.0669 37.7372C63.9762 35.106 68.7839 32.5292 69.3731 25.5374C67.8311 28.8727 65.5196 31.7735 60.8509 33.9548C66.5304 30.5258 70.1082 24.0128 70.1458 19.5884C70.1686 16.8515 69.1386 14.4789 66.7855 14.5072C66.5201 14.5103 66.2172 14.5815 65.9241 14.745C65.4811 14.9928 65.065 15.4027 64.8623 15.8364C64.2766 17.0863 64.891 18.5629 66.5989 18.1946C67.0239 18.1032 67.3788 17.7283 67.6146 17.2995C67.6535 17.2283 67.6593 16.6405 67.4566 16.0348C67.2691 15.4737 66.3359 15.2149 66.1836 15.1984C72.414 15.5852 66.1366 27.7864 62.4676 29.1111C64.4189 26.3496 62.758 23.1061 61.0022 21.9359C63.1173 24.9161 61.2086 27.3742 58.5332 30.8197C57.314 32.3898 55.9356 34.1649 54.7063 36.288C55.5286 34.8312 55.8608 33.5818 56.1813 32.376C56.7257 30.3278 57.2367 28.4054 60.0598 25.8062C51.4191 30.452 50.6611 34.7896 50.0148 38.4882C49.6288 40.6969 49.2826 42.6777 47.3214 44.3601C48.7207 42.3723 48.8021 40.8615 48.8859 39.3056C48.9939 37.3002 49.106 35.2201 52.0492 31.9473C45.4348 35.5812 44.845 38.9889 44.2088 42.6649C43.7708 45.1959 43.3107 47.8541 40.8473 50.801C42.5489 47.8952 42.6935 45.9556 42.8297 44.1287C42.9744 42.1871 43.1097 40.3729 45.0949 37.6616C37.5649 43.3318 37.1976 46.8925 36.7494 51.2365C36.5225 53.4366 36.2748 55.8376 35.0653 58.8152C35.6805 56.8214 35.8511 54.4944 36.0194 52.1984C36.2312 49.309 36.4393 46.4689 37.5254 44.404C30.8608 49.5266 31.1499 53.8049 31.4495 58.2377C31.6161 60.7035 31.786 63.2171 30.764 65.9505C31.4115 61.8763 30.8942 59.658 30.4832 57.8958C29.9968 55.8101 29.6594 54.3633 31.5788 51.2346C25.1867 59.8429 26.3856 63.3536 27.5935 66.8911C28.0811 68.3191 28.5702 69.7513 28.5621 71.525C27.9013 68.7468 27.0516 67.2895 26.3906 66.1558C25.3267 64.331 24.7515 63.3445 26.2394 59.0375C20.7496 64.9564 22.3184 72.3413 24.4004 77.1541C23.1305 76.3294 22.0034 76.7406 20.6776 78.1671C23.3322 77.1082 23.918 79.0592 24.7614 81.8679C25.1624 83.2031 25.6215 84.7322 26.3888 86.2239C31.3283 94.3888 39.0787 94.1851 48.8254 93.9289ZM54.6077 36.4596C54.6404 36.4021 54.6733 36.3449 54.7063 36.288C54.6742 36.3448 54.6413 36.4021 54.6077 36.4596ZM66.1698 15.1975C66.1732 15.1975 66.1779 15.1977 66.1836 15.1984C66.179 15.1981 66.1744 15.1978 66.1698 15.1975Z" fill="#0A3470"/>
</g>
</svg>