<?xml version="1.0" encoding="UTF-8" standalone="no"?>
<svg xmlns:dc="http://purl.org/dc/elements/1.1/" xmlns:cc="http://creativecommons.org/ns#" xmlns:rdf="http://www.w3.org/1999/02/22-rdf-syntax-ns#" xmlns:svg="http://www.w3.org/2000/svg" xmlns="http://www.w3.org/2000/svg" xmlns:sodipodi="http://sodipodi.sourceforge.net/DTD/sodipodi-0.dtd" xmlns:inkscape="http://www.inkscape.org/namespaces/inkscape" width="251.99706" height="418.8721" viewBox="0 0 201.59764 335.09767" version="1.1" id="svg2" inkscape:version="0.91 r13725" sodipodi:docname="Converted_file_40ecf173.svg">
  <metadata id="metadata43">
    <rdf:RDF>
      <cc:Work rdf:about="">
        <dc:format>image/svg+xml</dc:format>
        <dc:type rdf:resource="http://purl.org/dc/dcmitype/StillImage"/>
        <dc:title/>
      </cc:Work>
    </rdf:RDF>
  </metadata>
  <defs id="defs41"/>
  <sodipodi:namedview pagecolor="#ffffff" bordercolor="#666666" borderopacity="1" objecttolerance="10" gridtolerance="10" guidetolerance="10" inkscape:pageopacity="0" inkscape:pageshadow="2" inkscape:window-width="1280" inkscape:window-height="961" id="namedview39" showgrid="false" units="px" fit-margin-top="0" fit-margin-left="0" fit-margin-right="0" fit-margin-bottom="0" inkscape:zoom="1.0797765" inkscape:cx="50.122629" inkscape:cy="219.53992" inkscape:window-x="-8" inkscape:window-y="-8" inkscape:window-maximized="1" inkscape:current-layer="svg2"/>
  <g id="surface1" transform="translate(-188.88672,-125.77342)">
    <path style="fill:#1c57a8;fill-opacity:1;fill-rule:evenodd;stroke:none" d="m 390.48437,360.07812 c -0.004,55.66407 -45.13281,100.78907 -100.80468,100.79297 -55.66797,0 -100.79297,-45.12109 -100.79297,-100.78515 l 0.0117,-120.27344 201.58203,-0.008 z m 0,0" id="path5" inkscape:connector-curvature="0"/>
    <path style="fill:#fac705;fill-opacity:1;fill-rule:evenodd;stroke:none" d="m 317.86719,309.73437 10.53125,8.23047 -55.03125,70.45313 -10.53125,-8.23047 z m 0,0" id="path7" inkscape:connector-curvature="0"/>
    <path style="fill:#fac705;fill-opacity:1;fill-rule:evenodd;stroke:none" d="m 249.19922,427.64844 c -1.82813,2.18359 -5.10156,2.48437 -7.01953,1.01172 l -10.6836,-8.34375 c -1.90625,-1.49219 -2.58984,-4.61329 -0.77343,-6.9375 l 1.54687,-1.98047 c 1.85547,-2.375 5.00781,-2.41016 6.92188,-0.86719 l 10.67187,8.32031 c 1.9375,1.53516 2.40625,4.80078 0.92188,6.76563 z m 0,0" id="path9" inkscape:connector-curvature="0"/>
    <path style="fill:#fac705;fill-opacity:1;fill-rule:evenodd;stroke:none" d="m 328.25781,273.61719 -3.30078,7.13281 c -0.15625,0.30859 -0.0352,1.03125 0.33203,1.33594 2.73438,2.34375 4.07031,6.15234 3.8125,9.30859 0.004,3.44141 -1.15625,5.875 -4.16406,9.29297 l 10.57422,8.26172 c 2.58984,-3.7461 4.67187,-5.45703 8.01172,-6.28906 3,-1.01172 7.01953,-0.63672 9.95312,1.44921 0.38281,0.28125 1.11328,0.22657 1.375,0 l 6.125,-4.92578 z m 0,0" id="path11" inkscape:connector-curvature="0"/>
    <path style="fill:#fac705;fill-opacity:1;fill-rule:evenodd;stroke:none" d="m 362.57812,297.84375 16.62891,-12.93359 c 0.25,-0.19922 0.17969,-1.17579 -0.73828,-0.99219 l -10.22266,0.95312 0.0742,-7.27734 c 0.0274,-0.46875 -0.66797,-1.09375 -1.15234,-0.94141 l -7.01563,1.9375 3.40625,-15.5039 c 0.0742,-0.28516 -0.0703,-0.58203 -0.18359,-0.69141 -0.13672,-0.082 -0.46094,-0.15234 -0.72266,-0.0117 l -14.21484,7.05469 0.17969,-7.27734 c 0.0312,-0.50782 -0.74219,-1.03125 -1.19141,-0.89063 l -7.04297,1.83203 -1.54687,-10.14844 c -0.0469,-0.93359 -1.01172,-0.76562 -1.14063,-0.47656 l -8.52734,19.26172 z m 0,0" id="path13" inkscape:connector-curvature="0"/>
    <path style="fill:#fac705;fill-opacity:1;fill-rule:evenodd;stroke:none" d="m 335.3125,311.46875 c 2.94141,2.25 -1.5,8.17578 -4.55469,5.83594 l -12.77344,-9.98047 c -3.00781,-2.39844 1.66407,-8.14063 4.55469,-5.83594 z m 0,0" id="path15" inkscape:connector-curvature="0"/>
    <path style="fill:#fac705;fill-opacity:1;fill-rule:evenodd;stroke:none" d="m 273.17187,391.00781 c 2.9375,2.25 -1.5039,8.17188 -4.55859,5.83203 l -12.77344,-9.97656 c -3.00781,-2.39844 1.66407,-8.14062 4.5586,-5.83594 z m 0,0" id="path17" inkscape:connector-curvature="0"/>
    <path style="fill:#fac705;fill-opacity:1;fill-rule:evenodd;stroke:none" d="m 255.66406,389.4375 10.55078,8.24609 -15.20312,19.45313 -10.55078,-8.24219 z m 0,0" id="path19" inkscape:connector-curvature="0"/>
    <path style="fill:#fac705;fill-opacity:1;fill-rule:evenodd;stroke:none" d="m 299.46094,358.24609 17.3125,22.16016 -10.53125,8.23437 -15.26172,-19.53515 z m -38.0625,-48.73437 27.05859,34.64453 -8.48047,10.85547 -29.11328,-37.26953 z m 0,0" id="path21" inkscape:connector-curvature="0"/>
    <path style="fill:#fac705;fill-opacity:1;fill-rule:evenodd;stroke:none" d="m 330.41016,427.87109 c 1.82812,2.1836 5.10156,2.48438 7.01953,1.01172 l 10.68359,-8.34765 c 1.90625,-1.48829 2.58984,-4.60938 0.77344,-6.9375 l -1.54688,-1.97657 c -1.85547,-2.3789 -5.00781,-2.41406 -6.92187,-0.86718 l -10.67188,8.3164 c -1.9375,1.53516 -2.40625,4.80469 -0.92187,6.76563 z m 0,0" id="path23" inkscape:connector-curvature="0"/>
    <path style="fill:#fac705;fill-opacity:1;fill-rule:evenodd;stroke:none" d="m 251.00781,273.39844 3.30078,7.13281 c 0.15235,0.30859 0.0312,1.03125 -0.33593,1.33203 -2.73047,2.34766 -4.07032,6.15234 -3.8125,9.30859 -0.004,3.44532 1.15625,5.87891 4.16406,9.29297 L 243.75,308.72656 c -2.58594,-3.74219 -4.66797,-5.45703 -8.00781,-6.28906 -3,-1.01172 -7.01953,-0.63672 -9.95703,1.44922 -0.38282,0.28515 -1.11329,0.22656 -1.375,0 l -6.125,-4.92578 z m 0,0" id="path25" inkscape:connector-curvature="0"/>
    <path style="fill:#fac705;fill-opacity:1;fill-rule:evenodd;stroke:none" d="m 216.68359,297.62109 -16.625,-12.93359 c -0.25,-0.19531 -0.18359,-1.17188 0.73438,-0.98828 l 10.22265,0.94922 -0.0703,-7.27735 c -0.0312,-0.46484 0.66797,-1.09375 1.15235,-0.9375 l 7.01562,1.9336 -3.40625,-15.5 c -0.0742,-0.28516 0.0703,-0.58203 0.18359,-0.69141 0.13282,-0.0859 0.46094,-0.15625 0.71875,-0.0156 l 14.21875,7.05468 -0.18359,-7.27734 c -0.0312,-0.50391 0.74609,-1.03125 1.19141,-0.88672 l 7.04297,1.82813 1.55078,-10.14844 c 0.043,-0.9336 1.00781,-0.76563 1.14062,-0.47266 l 8.52735,19.26172 z m 0,0" id="path27" inkscape:connector-curvature="0"/>
    <path style="fill:#fac705;fill-opacity:1;fill-rule:evenodd;stroke:none" d="m 243.94922,311.25 c -2.9375,2.25 1.5039,8.17187 4.55859,5.83203 l 12.77344,-9.98047 c 3.00781,-2.39453 -1.66406,-8.14062 -4.55859,-5.83203 z m 0,0" id="path29" inkscape:connector-curvature="0"/>
    <path style="fill:#fac705;fill-opacity:1;fill-rule:evenodd;stroke:none" d="m 306.4375,391.23047 c -2.9375,2.25 1.50391,8.17187 4.55859,5.83203 l 12.77344,-9.98047 c 3.00781,-2.39844 -1.66406,-8.13672 -4.55859,-5.83203 z m 0,0" id="path31" inkscape:connector-curvature="0"/>
    <path style="fill:#fac705;fill-opacity:1;fill-rule:evenodd;stroke:none" d="m 323.94531,389.66016 -10.55078,8.24218 15.19922,19.45703 10.55469,-8.24609 z m 0,0" id="path33" inkscape:connector-curvature="0"/>
    <path style="fill:#1c57a8;fill-opacity:1;fill-rule:nonzero;stroke:none" d="m 228.42187,230.50391 -5.04296,-13.61719 -10.28516,-27.06641 C 205.63281,170.17578 198.125,150.39453 197.81641,149.76953 l -0.66797,-1.95312 c 0,0 0.30078,-0.91407 0.97265,-1.15625 0.48438,-0.30469 3.89063,1.51953 7.25391,2.58593 2.34766,0.74219 5.16797,1.9961 8.53906,2.75 3.5586,0.83203 5.02735,1.48047 7.50781,4.88282 1.13672,1.80468 1.125,4.65625 1.05469,6.57812 3.25391,-5.94922 7.9336,-9.80078 15.42578,-8.67578 8.87891,1.10937 12.48438,13.09375 7.38672,17.96484 -1.5664,1.86719 -5.07812,5.1875 -1.6289,7.17188 0.71875,0.28515 1.57031,0.0859 1.57031,0.0859 0,0 -0.35156,1.85546 -0.9336,2.6914 -1.66796,2.44531 -7.9414,5.19922 -11.21093,0.51563 -1.38672,-2.16407 -1.62891,-3.39453 -1.06641,-5.81641 l 0.51563,-2.11719 c -0.0508,-1.30468 -1.7461,-2.12109 -3.46094,-1.61718 -0.64453,0.23046 -1.97656,1.26562 -2.21485,5.08593 -0.6914,9.48047 5.1211,21.92188 17.98047,18.4961 6.47266,-1.72266 8.19532,-4.17969 8.42969,-7.76563 -2.83984,-0.95703 -4.88672,-3.64062 -4.88672,-6.80469 0,-3.96484 2.72266,-7.17968 6.6875,-7.17968 3.96875,0 7.1836,3.21484 7.1836,7.17968 0,2.22657 -1.01172,4.21094 -2.59766,5.52735 1.5,3.4375 3.40234,5.39844 10.30469,4.78515 13.2539,-1.17968 14.85547,-14.92578 10.96484,-23.59765 -1.55469,-3.57031 -3.19141,-4.03906 -3.85547,-4.01953 -1.76562,0.1289 -3.05859,1.46875 -2.66406,2.70312 l 1.21094,1.8125 c 1.35547,2.08203 1.54687,3.32031 0.98828,5.82813 -1.47266,5.51953 -8.3086,5.07812 -10.71485,3.35156 -1.01953,-0.76563 -1.82421,-2.375 -1.82421,-2.375 0,0 1.25781,-0.0508 1.47265,-0.45313 2.57813,-3.0625 -1.91797,-4.98046 -4.03125,-6.21093 -6.40625,-2.87891 -7.11719,-15.33203 0.85938,-19.38672 6.36718,-3.46094 10.89062,-1.88281 15.51953,1.46484 0.47265,0.34375 0.89062,0.85938 1.19922,1.20313 -0.26953,-0.625 -0.36328,-0.72657 -0.67578,-1.35547 -0.32422,-0.69531 -0.69922,-1.48828 -0.76172,-2.36719 -0.4336,-2.70312 0.043,-5.52344 1.21093,-7.63672 1.17188,-2.01562 2.82422,-3.66015 4.26172,-5.47656 1.55469,-1.96875 3.31641,-4.39063 4.90625,-8.33594 0.2461,-0.4414 0.77344,-1.92968 1.16016,-2.15234 0.125,-0.10547 0.26953,-0.17188 0.56641,-0.20703 0.30078,0.0352 0.48437,0.10156 0.60937,0.20703 0.38672,0.22266 0.91016,1.71094 1.16016,2.15234 1.58593,3.94531 3.35156,6.36719 4.90625,8.33594 1.43359,1.81641 3.08984,3.46094 4.25781,5.47656 1.17187,2.11328 1.64844,4.9336 1.21484,7.63672 -0.0625,0.87891 -0.4414,1.67188 -0.76172,2.36719 -0.3164,0.6289 -0.41015,0.73047 -0.67968,1.35547 0.3125,-0.34375 0.72656,-0.85938 1.19922,-1.20313 4.63281,-3.34765 9.15625,-4.92578 15.51953,-1.46484 7.97656,4.05469 7.26562,16.50781 0.85937,19.38672 -2.10937,1.23047 -6.60937,3.14843 -4.03125,6.21093 0.21875,0.40235 1.47266,0.45313 1.47266,0.45313 0,0 -0.80078,1.60937 -1.82422,2.375 -2.40234,1.72656 -9.23828,2.16797 -10.71094,-3.35156 -0.5625,-2.50782 -0.37109,-3.7461 0.98828,-5.82813 l 1.21094,-1.8125 c 0.39453,-1.23437 -0.90234,-2.57422 -2.66797,-2.70312 -0.66015,-0.0195 -2.29687,0.44922 -3.85156,4.01953 -3.89453,8.67187 -2.28906,22.41797 10.96484,23.59765 6.89844,0.61329 8.80469,-1.34765 10.30078,-4.78515 -1.58203,-1.31641 -2.59375,-3.30078 -2.59375,-5.52735 0,-3.96484 3.21485,-7.17968 7.17969,-7.17968 3.96485,0 6.6875,3.21484 6.6875,7.17968 0,3.16407 -2.04297,5.84766 -4.88281,6.80469 0.23437,3.58594 1.95703,6.04297 8.42969,7.76563 12.85937,3.42578 18.66797,-9.01563 17.97656,-18.4961 -0.23438,-3.82031 -1.57031,-4.85547 -2.21484,-5.08593 -1.71094,-0.50391 -3.41016,0.3125 -3.46094,1.61718 l 0.51953,2.11719 c 0.5625,2.42188 0.31641,3.65234 -1.06641,5.81641 -3.26953,4.68359 -9.54297,1.92968 -11.21484,-0.51563 -0.58203,-0.83594 -0.92969,-2.6914 -0.92969,-2.6914 0,0 0.85156,0.19921 1.56641,-0.0859 3.45312,-1.98438 -0.0586,-5.30469 -1.625,-7.17188 -5.09766,-4.87109 -1.49219,-16.85547 7.38281,-17.96484 7.49609,-1.125 12.17578,2.72656 15.42578,8.67578 -0.0664,-1.92187 -0.082,-4.77344 1.0586,-6.57812 2.47656,-3.40235 3.94531,-4.05079 7.50781,-4.88282 3.36719,-0.7539 6.1875,-2.00781 8.53906,-2.75 3.36328,-1.0664 6.76563,-2.89062 7.25391,-2.58593 0.66797,0.24218 0.97265,1.15625 0.97265,1.15625 l -0.67187,1.95312 c -0.30469,0.625 -7.81641,20.40625 -15.27735,40.05078 l -10.28125,27.06641 -5.04687,13.61719 z m 0,0" id="path35" inkscape:connector-curvature="0"/>
    <path style="fill:#fac705;fill-opacity:1;fill-rule:nonzero;stroke:none" d="m 229.78516,228.15625 c -0.16016,-0.17188 -29.5625,-77.88672 -30.17188,-79.13672 1.94531,0.60156 6.89063,3.38672 13.83203,4.94531 2.29297,0.53516 3.81641,0.64844 6.29688,4.05469 1.33593,2.11719 1.07812,5.39844 0.69922,7.26953 0.30078,0.92969 1.92968,1.625 2.76171,0.5625 2.08985,-3.6289 5.11719,-10.46094 14.24219,-9.08984 7.46094,0.91015 10.07422,11.07812 6.21094,14.61719 -1.40625,1.69921 -6.74219,6.92968 -1.17188,10.1289 -1.33984,1.96094 -5.87109,3.50391 -7.94921,0.53125 -1.52735,-2.39062 -1.12891,-2.75 -0.21875,-6.57031 0.17968,-3.75391 -4.08594,-4.24219 -5.92579,-3.69922 -1.71484,0.55859 -3.30859,2.54297 -3.57031,6.77344 -0.71094,9.73047 5.98828,24.54297 20.89063,20.57031 8.375,-2.23047 9.19922,-6.32422 9.26953,-11.33984 -2.73828,-0.15235 -4.91016,-2.42188 -4.91016,-5.19922 0,-2.875 2.33203,-5.20703 5.20703,-5.20703 2.875,0 5.20703,2.33203 5.20703,5.20703 0,2.07422 -1.21093,3.86328 -2.96484,4.69922 0.11328,0.48828 0.41016,1.22265 0.60156,1.70703 1.73047,3.97265 4.27735,6.77344 12.02344,6.08594 15.36328,-1.36719 16.58984,-17.57813 12.59375,-26.47657 -1.69141,-3.88672 -3.86719,-5.20312 -5.67187,-5.14453 -1.91407,0.1211 -5.75391,2.03516 -4.30079,5.50391 2.16016,3.27734 2.65625,3.48047 2.03907,6.24609 -0.9336,3.50391 -5.72266,3.60547 -7.64844,2.22266 4.13672,-4.91016 -2.66406,-8.00391 -4.56641,-9.11719 -4.84375,-2.00391 -5.86328,-12.45312 0.83594,-15.86328 8.10938,-4.40625 13.28516,0.97656 16.49219,3.67187 1.14453,0.71875 2.4375,-0.49609 2.40234,-1.47265 -0.80859,-1.32422 -2.60937,-3.10938 -2.6914,-5.20703 -0.38282,-2.3125 0.0273,-4.67969 0.97265,-6.38672 1.91406,-3.30078 5.77735,-5.78125 9.17969,-13.83203 3.40625,8.05078 7.25391,10.53125 9.16797,13.83203 0.9414,1.70703 1.35547,4.07422 0.96875,6.38672 -0.0781,2.09765 -1.88281,3.88281 -2.6875,5.20703 -0.0352,0.97656 1.2539,2.1914 2.39844,1.47265 3.20703,-2.69531 8.38671,-8.07812 16.49218,-3.67187 6.70313,3.41016 5.67969,13.85937 0.83985,15.86328 -1.90235,1.11328 -8.70313,4.20703 -4.56641,9.11719 -1.92969,1.38281 -6.71484,1.28125 -7.64844,-2.22266 -0.61718,-2.76562 -0.125,-2.96875 2.03516,-6.24609 1.45703,-3.46875 -2.38281,-5.38281 -4.29688,-5.50391 -1.80468,-0.0586 -3.98437,1.25781 -5.67187,5.14453 -3.99609,8.89844 -2.76953,25.10938 12.59375,26.47657 7.74609,0.6875 10.28906,-2.11329 12.01953,-6.08594 0.19531,-0.48438 0.48828,-1.21875 0.60547,-1.70703 -1.75391,-0.83594 -2.96484,-2.625 -2.96484,-4.69922 0,-2.875 2.33203,-5.20703 5.20703,-5.20703 2.875,0 5.20703,2.33203 5.20703,5.20703 0,2.77734 -2.17578,5.04687 -4.91406,5.19922 0.0742,5.01562 0.89843,9.10937 9.27343,11.33984 14.90235,3.97266 21.59766,-10.83984 20.88672,-20.57031 -0.25781,-4.23047 -1.85156,-6.21485 -3.57031,-6.77344 -1.83984,-0.54297 -6.10547,-0.0547 -5.92188,3.69922 0.91016,3.82031 1.30469,4.17969 -0.22265,6.57031 -2.07813,2.97266 -6.60547,1.42969 -7.94531,-0.53125 5.5664,-3.19922 0.23437,-8.42969 -1.17579,-10.1289 -3.86328,-3.53907 -1.25,-13.70704 6.21485,-14.61719 9.125,-1.3711 12.14844,5.46094 14.24219,9.08984 0.82812,1.0625 2.45703,0.36719 2.75781,-0.5625 -0.375,-1.87109 -0.63281,-5.15234 0.70312,-7.26953 2.47657,-3.40625 4,-3.51953 6.29297,-4.05469 6.94141,-1.55859 11.88672,-4.34375 13.83594,-4.94531 -0.61328,1.25 -30.01563,78.96484 -30.17188,79.13672 z m 0,0" id="path37" inkscape:connector-curvature="0"/>
  </g>
</svg>