<?xml version="1.0" encoding="UTF-8" standalone="no"?>
<svg xmlns:svg="http://www.w3.org/2000/svg" xmlns="http://www.w3.org/2000/svg" version="1.1" width="516.09583" height="284.86594" id="svg3582">
  <defs id="defs3584"/>
  <g transform="translate(-91.95217,-389.92921)" id="layer1">
    <path d="m 568.3219,582.09706 9.78122,0 1.98562,-13.09352 11.27259,0 1.7408,13.09352 9.94587,0 -10.85858,-60.58368 -12.84417,0 -11.02335,60.58368 z m 13.34287,-22.5408 3.98015,-28.18156 4.22501,28.18156 -8.20516,0 z m -30.73847,22.54215 10.11064,0 0,-60.58368 -10.11064,0 0,60.58368 z m -10.2958,-10e-4 -8.28975,-26.77026 c 5.47159,-3.2322 8.28975,-8.61919 8.28975,-15.99626 0,-6.54454 -2.40415,-11.8514 -5.88563,-14.58496 -3.89556,-2.98289 -8.28529,-3.2322 -14.00619,-3.2322 l -13.42297,0 0,60.58368 10.19073,0 0,-24.94491 1.41134,0 c 1.40682,0 2.89826,-0.0848 4.22498,-0.24932 l 7.29248,25.19423 10.19526,0 z m -23.12406,-33.31479 0,-18.97915 c 1.07744,-0.0848 2.07025,-0.16918 2.98289,-0.16918 6.79833,0 9.78122,2.73802 9.78122,9.28256 0,7.21234 -2.98289,9.9459 -10.44455,9.9459 -0.74353,0 -1.49144,0 -2.31956,-0.0801 m -37.8826,33.31479 10.19522,0 0,-51.38127 10.02605,0 0,-9.20241 -30.24732,0 0,9.20241 10.02605,0 0,51.38127 z m -46.85081,-15.82933 c 1.15753,10.77396 7.12775,16.82435 16.24558,16.82435 9.36265,0 15.57773,-6.71375 15.57773,-15.58222 0,-9.52742 -6.05035,-14.17092 -13.83698,-21.38327 -4.22946,-3.89555 -7.21234,-6.79384 -7.21234,-11.10348 0,-3.6462 2.1548,-6.05035 5.30241,-6.05035 3.06747,0 5.14209,2.56884 5.801,7.37707 l 9.20242,-1.41131 c -1.16199,-9.28255 -6.4644,-14.33564 -14.66952,-14.33564 -8.61919,0 -15.08359,5.96576 -15.08359,14.83427 0,5.72091 2.65343,11.35277 7.45721,15.74695 7.95583,7.21235 13.3428,11.35276 13.3428,16.82435 0,3.64624 -2.2349,6.05039 -5.88114,6.05039 -3.64624,0 -5.8055,-3.06747 -6.79831,-9.198 l -9.44727,1.40689 z m -8.89256,-3.06569 0,-41.68912 -10.35995,0 0,42.93124 c 0,6.4644 -1.16199,9.53187 -5.63631,9.53187 -4.22501,0 -5.387,-2.81819 -5.387,-8.9531 l 0,-43.51001 -10.35995,0 0,41.68912 c 0,13.67229 4.6435,20.13668 15.83154,20.13668 11.18803,0 15.91167,-6.46439 15.91167,-20.13668 m -73.19281,18.89502 9.78118,0 1.99008,-13.09352 11.26817,0 1.74075,13.09352 9.94591,0 -10.85858,-60.58368 -12.8442,0 -11.02331,60.58368 z m 13.34283,-22.5408 3.98015,-28.18156 4.22501,28.18156 -8.20516,0 z" id="path66" style="fill:#495e30;fill-opacity:1;fill-rule:nonzero;stroke:none"/>
    <path d="m 97.559356,394.92921 230.826134,0 0,230.82614 -230.826134,0 0,-230.82614 z" id="path68" style="fill:#495e30;fill-opacity:1;fill-rule:nonzero;stroke:none"/>
    <path d="m 273.9145,581.24757 32.8117,0 0,-4.34967 c -6.362,-0.16917 -8.95755,-1.42466 -8.95755,-5.77877 l 0,-46.02989 c 0.50308,-0.0844 1.00617,-0.0844 1.5048,-0.0844 7.95584,0 12.63941,6.27741 15.56887,19.33531 l 4.18494,0 -0.66781,-23.35552 -56.16279,0 -0.66781,23.68943 3.76645,0 c 3.51268,-13.39181 7.8668,-19.75381 15.98736,-19.75381 0.49863,0 1.0863,0 1.58939,0.0848 l 0,45.94975 c 0,4.51884 -2.51097,5.77432 -8.95755,5.9435 l 0,4.34967 z m -84.01757,1.33968 c 0.24932,-3.43254 1.25549,-5.18665 2.84487,-5.18665 0.83699,0 2.59556,1.0863 5.35583,2.25719 4.35412,1.84316 8.53906,3.09864 13.22709,3.09864 13.47194,0 21.67709,-7.53289 21.67709,-18.83223 0,-9.95927 -6.11268,-14.5627 -18.41373,-19.66922 -6.44659,-2.68014 -11.80242,-4.10035 -15.06578,-6.19282 -2.68015,-1.75856 -3.93563,-3.43254 -3.93563,-6.02809 0,-4.60344 3.93563,-7.95139 10.80071,-7.95139 8.28529,0 14.5627,4.93734 18.91236,14.89661 l 3.76645,0 -0.49863,-19.66477 -3.85104,0 c -0.7524,2.50651 -1.84315,3.84659 -3.26781,3.84659 -2.2572,0 -7.61303,-3.59727 -16.48599,-3.59727 -11.54866,0 -19.4199,7.27912 -19.4199,17.40757 0,8.28529 5.52501,13.89489 16.82434,18.32914 12.22092,4.77261 19.08155,7.03426 19.08155,14.14421 0,5.02638 -4.26508,8.62364 -10.79626,8.62364 -8.9531,0 -17.40756,-7.11439 -21.67709,-20.08771 l -4.26953,0 0.92157,24.60656 4.26953,0 z m -42.70508,-61.60142 -31.63636,0 0,4.10035 0.50308,0 c 5.35583,0 7.61303,1.34007 7.61303,5.27569 l 0,40.84323 c 0,4.35412 -2.2572,5.60515 -8.11611,5.68974 l 0,4.35412 31.63636,0 0,-4.35412 c -5.9435,-0.0844 -8.2007,-1.33562 -8.2007,-5.68974 l 0,-40.84323 c 0,-3.93562 2.2572,-5.27569 7.69762,-5.27569 l 0.50308,0 0,-4.10035 z" id="path88" style="fill:#ffffff;fill-opacity:1;fill-rule:nonzero;stroke:none"/>
    <path d="m 170.2233,597.80925 0,-177.5483 m 79.31351,177.5483 0,-177.5483" id="path92" style="fill:none;stroke:#ffffff;stroke-width:3.66404843;stroke-linecap:butt;stroke-linejoin:miter;stroke-miterlimit:3.86400008;stroke-opacity:1;stroke-dasharray:none"/>
    <path d="m 588.30633,655.45193 c 1.50928,-2.4887 2.32846,-3.83768 3.22774,-3.83768 0.44966,0 0.76576,0.31627 0.76576,0.92603 0,1.85206 -2.32843,4.97741 -2.32843,8.81063 0,2.06576 0.95274,3.2322 2.4887,3.2322 1.74521,0 3.0185,-1.48254 4.50104,-4.4209 l 0.23578,0 -1.536,5.36919 c -0.57873,2.06576 -1.98117,3.20549 -3.51713,3.20549 -0.66336,0 -1.03284,-0.24042 -1.03284,-0.60994 0,-0.31627 0.36948,-0.60993 0.36948,-1.11301 0,-0.87261 -0.57876,-1.34898 -1.42911,-1.34898 -1.08185,0 -1.74521,0.63665 -1.74521,1.72295 0,1.42911 1.32227,2.40412 3.59727,2.40412 3.28117,0 5.48049,-2.00789 6.29967,-5.84556 l 2.83151,-13.04455 -2.14144,0 c -1.69624,8.38769 -4.13151,12.59489 -6.21953,12.59489 -0.77021,0 -1.19316,-0.47637 -1.19316,-1.37569 0,-1.05959 0.71679,-2.46199 1.48254,-4.50104 0.7435,-1.93219 1.11302,-3.46815 1.11302,-4.65685 0,-1.66508 -0.79692,-2.48871 -2.32843,-2.48871 -1.58939,0 -2.64898,1.53596 -4.34076,4.47433 l 0.89931,0.50308 z m -3.69479,-4.55133 -2.01233,0 -0.49863,1.98562 -0.18699,0 c -0.44969,-1.58938 -1.58942,-2.40856 -3.20103,-2.40856 -3.49487,0 -6.72262,4.02021 -6.72262,9.15344 0,3.22774 1.55822,5.03083 4.2072,5.03083 1.5849,0 2.85823,-0.77021 4.10035,-2.35514 l 0.24041,0.12893 c -1.05959,4.21165 -2.40856,6.29967 -4.87059,6.29967 -0.69003,0 -1.11302,-0.23578 -1.11302,-0.60993 0,-0.34299 0.42299,-0.71233 0.42299,-1.21542 0,-0.81918 -0.6322,-1.26883 -1.39795,-1.26883 -1.27329,0 -1.9322,0.57876 -1.9322,1.69178 0,1.42911 1.45583,2.46199 3.83319,2.46199 3.83768,0 5.90348,-2.51541 6.90964,-7.59522 l 2.22158,-11.29934 z m -5.5295,0.47637 c 1.48254,0 2.24833,1.05959 2.24833,3.14761 0,1.79864 -0.58325,4.36748 -1.6161,6.50892 -0.7925,1.64281 -1.77195,2.46199 -2.88052,2.46199 -1.56267,0 -2.43528,-1.00617 -2.43528,-2.93836 0,-2.19487 0.65894,-4.97296 1.66507,-6.87844 0.82364,-1.53596 1.8521,-2.30172 3.0185,-2.30172 m -23.23218,7.32992 c 0,3.83767 2.01233,6.29967 5.13323,6.29967 3.78425,0 7.17227,-3.52159 7.17227,-8.17845 0,-3.91781 -2.06576,-6.35309 -5.21336,-6.35309 -3.75755,0 -7.09214,3.54829 -7.09214,8.23187 m 7.06542,-7.2257 c 1.87877,0 2.8048,1.3 2.8048,3.8911 0,5.0798 -1.87877,8.6281 -4.60343,8.6281 -1.90548,0 -2.83151,-1.32672 -2.83151,-3.91782 0,-5.18665 1.9589,-8.60138 4.63014,-8.60138 m -10.97391,8.28347 c -1.48253,2.64453 -2.32843,4.02467 -3.28117,4.02467 -0.50308,0 -0.81918,-0.34727 -0.81918,-1.00617 0,-0.13356 0.0534,-0.5298 0.18272,-1.11302 l 3.73083,-17.12263 c -2.11473,0.47637 -3.46371,0.47637 -4.18049,0.47637 -0.12893,0 -0.47637,0 -1.11302,-0.0249 l -0.18235,0.92603 c 1.90548,0.10685 2.69795,0.18698 2.69795,1.0863 0,0.10685 -0.0285,0.29384 -0.0759,0.55651 l -2.93836,13.46749 c -0.13356,0.58322 -0.16027,1.0863 -0.16027,1.48254 0,1.56267 0.89931,2.51541 2.38185,2.51541 1.74521,0 2.99179,-1.6161 4.65686,-4.79042 l -0.89932,-0.47637 z m -22.70153,-1.05777 c 0,3.83767 2.01233,6.29967 5.13323,6.29967 3.78425,0 7.17227,-3.52159 7.17227,-8.17845 0,-3.91781 -2.06575,-6.35309 -5.21336,-6.35309 -3.75755,0 -7.09214,3.54829 -7.09214,8.23187 m 7.06542,-7.2257 c 1.87877,0 2.8048,1.3 2.8048,3.8911 0,5.0798 -1.87877,8.6281 -4.60343,8.6281 -1.90548,0 -2.83151,-1.32672 -2.83151,-3.91782 0,-5.18665 1.95891,-8.60138 4.63014,-8.60138 m -24.76006,13.15356 2.1459,0 0.6589,-3.17432 c 0.42295,-2.03904 1.53596,-4.89727 3.0185,-7.2257 1.13528,-1.79863 2.14144,-2.69795 3.17432,-2.69795 0.81918,0 1.32226,0.44966 1.32226,1.29555 0,1.08631 -0.68561,2.56439 -1.37568,4.71029 -0.57877,1.79863 -0.87261,3.28117 -0.87261,4.39418 0,1.79864 0.79247,2.75138 2.14145,2.75138 1.53596,0 2.77808,-1.53596 4.28733,-4.60789 l -0.95274,-0.39623 c -1.24212,2.51542 -2.14144,3.78425 -2.96062,3.78425 -0.4274,0 -0.7435,-0.28956 -0.7435,-0.81918 0,-0.60993 0.31628,-1.71849 0.8459,-3.33459 0.74349,-2.24829 1.35342,-4.12706 1.35342,-5.8233 0,-1.85206 -1.11301,-2.98733 -2.83151,-2.98733 -2.09247,0 -3.76199,1.87877 -5.5072,5.68973 l -0.20943,-0.0534 0,-0.0285 c 0,-0.2892 0.28921,-1.32226 0.28921,-3.01849 0,-1.69179 -0.65891,-2.56439 -1.9322,-2.56439 -1.56267,0 -2.61781,1.63836 -4.04692,4.8661 l 0.92603,0.48083 c 1.21541,-2.70241 2.01233,-4.13152 2.8048,-4.13152 0.42294,0 0.66335,0.37397 0.66335,1.05959 0,1.16199 -0.24041,2.46199 -0.5565,3.97124 l -1.64281,7.85789 z m -18.91511,0 2.14145,0 0.66335,-3.12089 c 0.39624,-1.9322 1.48254,-4.68357 3.01405,-7.09214 1.11302,-1.74966 2.19932,-2.62226 3.28117,-2.62226 0.79692,0 1.21987,0.42294 1.21987,1.26883 0,0.97946 -0.63665,2.43528 -1.34898,4.60789 -0.60993,1.82535 -0.8726,3.28117 -0.8726,4.31405 0,1.77192 0.79246,2.72466 2.14144,2.72466 1.6161,0 2.88494,-1.48254 4.39419,-4.47432 l -0.8459,-0.50309 c -1.42911,2.462 -2.32843,3.75755 -3.20103,3.75755 -0.4274,0 -0.74349,-0.28921 -0.74349,-0.81918 0,-0.60994 0.34263,-1.66507 0.8726,-3.25446 0.74349,-2.22158 1.34898,-4.07364 1.34898,-5.71645 0,-1.82535 -1.10857,-2.93836 -2.77809,-2.93836 -2.06576,0 -3.70412,1.87877 -5.58289,5.6096 l -0.2137,-0.0759 2.54213,-11.72673 c -1.90548,0.42294 -3.20103,0.44966 -3.94453,0.44966 l -0.23578,0 -0.58322,0 -0.55651,0 -0.156,0.93048 c 1.87877,0.10257 2.69795,0.20942 2.69795,1.05514 0,0.0801 -0.0249,0.29383 -0.0801,0.58322 l -3.17432,17.0425 z m -4.72495,-3.49348 -0.76576,-0.58322 c -1.48254,2.22158 -2.62226,3.36131 -4.18049,3.36131 -1.77637,0 -2.75582,-1.34897 -2.75582,-3.91781 0,-1.85206 0.5565,-4.04693 1.6161,-6.00584 0.89931,-1.69178 1.79863,-2.40856 3.22774,-2.40856 0.89932,0 1.37569,0.34726 1.37569,0.66335 0,0.44966 -1.16199,0.95274 -1.16199,1.98562 0,0.87261 0.57877,1.4024 1.55822,1.4024 1.08631,0 1.8298,-0.89931 1.8298,-2.11918 0,-1.69178 -1.56267,-3.0185 -3.68186,-3.0185 -1.55822,0 -3.20103,0.79692 -4.63014,2.30617 -1.74521,1.85206 -2.69795,4.18049 -2.69795,6.58906 0,3.54384 2.03904,5.66302 4.99967,5.66302 2.19931,0 3.75754,-1.27329 5.26679,-3.91782 m -22.74339,-1.85294 c 5.66303,-1.0596 8.57468,-3.3346 8.57468,-6.05926 0,-1.66507 -1.19316,-2.75138 -3.17432,-2.75138 -1.56268,0 -3.28114,0.71233 -4.73696,2.08802 -1.95895,1.82535 -3.07196,4.36747 -3.07196,6.9096 0,3.41028 1.90548,5.55618 4.97295,5.55618 2.09247,0 3.65514,-1.13973 5.2935,-3.52159 l -0.76575,-0.55205 c -1.53596,2.00788 -2.62227,2.93391 -4.44761,2.93391 -1.79864,0 -2.64453,-1.37569 -2.64453,-4.2072 l 0,-0.39623 z m 0,-0.95275 c 0.95274,-4.55001 2.72466,-6.90515 4.60344,-6.90515 0.95274,0 1.56267,0.68562 1.56267,1.7185 0,2.11918 -2.14589,4.44761 -6.16611,5.18665 m -18.39411,6.29917 9.18457,0 0.18236,-1.03287 c -2.35514,-0.0534 -3.22771,-0.18699 -3.22771,-1.37569 0,-0.13356 0.0249,-0.36952 0.0801,-0.73904 l 2.59106,-14.9812 0.13356,0 c 3.73083,0 4.63015,1.11302 4.63015,5.00412 l 0,0.52535 1.19315,0 0.8459,-6.63803 -15.95616,0 -1.37569,6.37535 1.24212,0 c 1.27329,-3.86439 2.77809,-5.26679 6.4555,-5.26679 l 0.21369,0 -2.54212,14.90106 c -0.28957,1.79863 -0.68562,2.19487 -3.01405,2.19487 l -0.47637,0 -0.16028,1.03287 z m -23.01937,-0.89974 c -1.63836,0 -2.46203,-1.24658 -2.46203,-3.78425 0,-5.02638 1.72295,-8.36098 4.07809,-8.36098 1.66507,0 2.511,1.26884 2.511,3.78426 0,5.05309 -1.74521,8.36097 -4.12706,8.36097 m 3.70411,-1.58939 0.2137,0.18699 0,0.31628 c 0,1.58938 0.55651,2.35514 1.87881,2.35514 1.58493,0 2.77805,-1.61165 4.04692,-4.89282 l -0.92603,-0.34726 c -1.16198,2.59555 -1.85209,3.94453 -2.75137,3.94453 -0.44966,0 -0.69007,-0.29384 -0.69007,-0.87261 0,-0.47637 0.0801,-1.16644 0.24041,-2.06576 l 2.85819,-16.19215 c -1.71846,0.20907 -3.36127,0.34263 -4.99963,0.34263 l -0.44966,0 0.12893,0.97945 0.71678,0 c 1.42912,0 2.08802,0.10685 2.08802,0.76576 0,0.0534 0,0.31627 -0.0801,0.71233 l -0.89928,5.16439 -0.26285,0 c -0.69007,-1.35342 -1.77192,-2.01233 -3.28117,-2.01233 -3.25449,0 -6.53563,3.81097 -6.53563,8.57467 0,3.62398 1.98117,5.9257 4.63015,5.9257 1.69175,0 3.06747,-0.97945 4.07364,-2.88494 m -26.47774,2.48913 2.14144,0 0.66336,-3.17432 c 0.42294,-2.03904 1.53596,-4.89727 3.0185,-7.2257 1.13527,-1.79863 2.14144,-2.69795 3.17432,-2.69795 0.81918,0 1.32226,0.44966 1.32226,1.29555 0,1.08631 -0.68562,2.56439 -1.37569,4.71029 -0.58322,1.79863 -0.8726,3.28117 -0.8726,4.39418 0,1.79864 0.79247,2.75138 2.14144,2.75138 1.53596,0 2.78254,-1.53596 4.28734,-4.60789 l -0.95274,-0.39623 c -1.24213,2.51542 -2.14145,3.78425 -2.96063,3.78425 -0.42739,0 -0.74349,-0.28956 -0.74349,-0.81918 0,-0.60993 0.31627,-1.71849 0.84589,-3.33459 0.7435,-2.24829 1.34898,-4.12706 1.34898,-5.8233 0,-1.85206 -1.10857,-2.98733 -2.83151,-2.98733 -2.08802,0 -3.75755,1.87877 -5.50276,5.68973 l -0.20906,-0.0534 0,-0.0285 c 0,-0.2892 0.28956,-1.32226 0.28956,-3.01849 0,-1.69179 -0.66336,-2.56439 -1.9322,-2.56439 -1.56267,0 -2.61781,1.63836 -4.04692,4.8661 l 0.92603,0.48083 c 1.21541,-2.70241 2.00788,-4.13152 2.8048,-4.13152 0.42294,0 0.6589,0.37397 0.6589,1.05959 0,1.16199 -0.23614,2.46199 -0.55205,3.97124 l -1.64282,7.85789 z m -10.35376,-1.93219 c 0.13357,1.50925 0.81918,2.30172 1.77192,2.30172 1.77638,0 2.72467,-1.53597 4.02467,-4.65686 l -0.95274,-0.28921 c -1.13973,2.40412 -1.80309,3.65069 -2.56884,3.65069 -0.39624,0 -0.68562,-0.29383 -0.68562,-0.8726 0,-0.26712 0.0491,-0.69007 0.18271,-1.24658 l 2.32843,-10.6894 -2.00788,0 -0.47637,1.9589 -0.2137,0 c -0.50308,-1.53596 -1.64281,-2.38185 -3.09418,-2.38185 -3.73528,0 -6.93632,4.18049 -6.93632,9.36714 0,3.30789 1.56268,5.13323 4.23391,5.13323 1.6161,0 2.88494,-0.79247 4.15378,-2.40856 l 0.24041,0.13356 z m -1.56267,-11.27263 c 1.4024,0 2.19932,1.08186 2.19932,3.14761 0,2.01234 -0.55651,4.65686 -1.56268,6.85618 -0.76575,1.69179 -1.7452,2.53768 -2.96507,2.53768 -1.4024,0 -2.30172,-1.05959 -2.30172,-3.01405 0,-2.27946 0.69007,-5.16439 1.66953,-7.11885 0.79246,-1.58939 1.79863,-2.40857 2.96062,-2.40857 m -28.45268,7.8584 c 5.66303,-1.0596 8.57468,-3.3346 8.57468,-6.05926 0,-1.66507 -1.19315,-2.75138 -3.17877,-2.75138 -1.55823,0 -3.27672,0.71233 -4.73255,2.08802 -1.95891,1.82535 -3.07192,4.36747 -3.07192,6.9096 0,3.41028 1.90548,5.55618 4.97295,5.55618 2.09247,0 3.65515,-1.13973 5.29351,-3.52159 l -0.76576,-0.55205 c -1.53596,2.00788 -2.61781,2.93391 -4.44761,2.93391 -1.79863,0 -2.64453,-1.37569 -2.64453,-4.2072 l 0,-0.39623 z m 0,-0.95275 c 0.95275,-4.55001 2.72467,-6.90515 4.60344,-6.90515 0.95274,0 1.56267,0.68562 1.56267,1.7185 0,2.11918 -2.14589,4.44761 -6.16611,5.18665 m -6.78807,2.80569 -0.76576,-0.58322 c -1.48254,2.22158 -2.62227,3.36131 -4.18494,3.36131 -1.77192,0 -2.75137,-1.34897 -2.75137,-3.91781 0,-1.85206 0.5565,-4.04693 1.61609,-6.00584 0.89932,-1.69178 1.79864,-2.40856 3.22775,-2.40856 0.89932,0 1.37569,0.34726 1.37569,0.66335 0,0.44966 -1.16199,0.95274 -1.16199,1.98562 0,0.87261 0.57877,1.4024 1.55822,1.4024 1.08631,0 1.82535,-0.89931 1.82535,-2.11918 0,-1.69178 -1.55822,-3.0185 -3.67741,-3.0185 -1.55822,0 -3.20103,0.79692 -4.63014,2.30617 -1.74521,1.85206 -2.69795,4.18049 -2.69795,6.58906 0,3.54384 2.03459,5.66302 4.99966,5.66302 2.19487,0 3.75755,-1.27329 5.2668,-3.91782 m -28.01371,3.49348 2.1459,0 0.6589,-3.17432 c 0.42295,-2.03904 1.53597,-4.89727 3.0185,-7.2257 1.13528,-1.79863 2.14145,-2.69795 3.17432,-2.69795 0.81918,0 1.32227,0.44966 1.32227,1.29555 0,1.08631 -0.68562,2.56439 -1.37569,4.71029 -0.58322,1.79863 -0.87261,3.28117 -0.87261,4.39418 0,1.79864 0.79247,2.75138 2.14145,2.75138 1.53596,0 2.77809,-1.53596 4.28733,-4.60789 l -0.95274,-0.39623 c -1.24212,2.51542 -2.14144,3.78425 -2.96062,3.78425 -0.4274,0 -0.74349,-0.28956 -0.74349,-0.81918 0,-0.60993 0.31627,-1.71849 0.84589,-3.33459 0.74349,-2.24829 1.34897,-4.12706 1.34897,-5.8233 0,-1.85206 -1.10856,-2.98733 -2.83151,-2.98733 -2.08802,0 -3.75754,1.87877 -5.50275,5.68973 l -0.20942,-0.0534 0,-0.0285 c 0,-0.2892 0.28956,-1.32226 0.28956,-3.01849 0,-1.69179 -0.66336,-2.56439 -1.9322,-2.56439 -1.56267,0 -2.61781,1.63836 -4.04692,4.8661 l 0.92603,0.48083 c 1.21541,-2.70241 2.00788,-4.13152 2.8048,-4.13152 0.42294,0 0.6589,0.37397 0.6589,1.05959 0,1.16199 -0.23578,2.46199 -0.55651,3.97124 l -1.63836,7.85789 z m -13.85393,-5.34642 c 5.66303,-1.0596 8.57468,-3.3346 8.57468,-6.05926 0,-1.66507 -1.19316,-2.75138 -3.17432,-2.75138 -1.56268,0 -3.28118,0.71233 -4.737,2.08802 -1.95891,1.82535 -3.07192,4.36747 -3.07192,6.9096 0,3.41028 1.90548,5.55618 4.9774,5.55618 2.08802,0 3.6507,-1.13973 5.28905,-3.52159 l -0.76575,-0.55205 c -1.53596,2.00788 -2.61781,2.93391 -4.44761,2.93391 -1.79864,0 -2.64453,-1.37569 -2.64453,-4.2072 l 0,-0.39623 z m 0,-0.95275 c 0.95274,-4.55001 2.72467,-6.90515 4.60344,-6.90515 0.95274,0 1.56267,0.68562 1.56267,1.7185 0,2.11918 -2.14144,4.44761 -6.16611,5.18665 m -9.24693,-12.38389 c 0,0.81918 0.63661,1.42911 1.42911,1.42911 0.79243,0 1.40236,-0.63664 1.40236,-1.42911 0,-0.76576 -0.63664,-1.4024 -1.40236,-1.4024 -0.76579,0 -1.42911,0.63664 -1.42911,1.4024 m -3.44145,9.65652 c 1.42911,-2.5911 2.30172,-3.9935 3.20545,-3.9935 0.4497,0 0.76579,0.34299 0.76579,0.92603 0,0.81918 -0.52979,1.87877 -1.16199,3.36131 -1.2199,2.88494 -1.96336,4.99967 -1.96336,6.50892 0,1.66507 0.82364,2.59555 2.14586,2.59555 1.64281,0 2.83155,-1.6161 4.57676,-4.71028 l -0.8726,-0.55651 c -1.53151,2.5911 -2.38186,4.02021 -3.38806,4.02021 -0.42291,0 -0.73901,-0.2892 -0.73901,-0.81918 0,-1.03288 0.73901,-2.56884 1.69175,-4.76371 0.87261,-1.98562 1.45583,-3.6774 1.45583,-5.32021 0,-1.55822 -0.79244,-2.38186 -2.14145,-2.38186 -1.77633,0 -2.77805,1.6161 -4.50103,4.55447 l 0.92603,0.57876 z m -4.42984,5.53306 -0.76572,-0.58322 c -1.48253,2.22158 -2.62226,3.36131 -4.18497,3.36131 -1.77192,0 -2.75134,-1.34897 -2.75134,-3.91781 0,-1.85206 0.55651,-4.04693 1.61606,-6.00584 0.89935,-1.69178 1.79867,-2.40856 3.22775,-2.40856 0.89935,0 1.37569,0.34726 1.37569,0.66335 0,0.44966 -1.16199,0.95274 -1.16199,1.98562 0,0.87261 0.57877,1.4024 1.55822,1.4024 1.0863,0 1.82538,-0.89931 1.82538,-2.11918 0,-1.69178 -1.55822,-3.0185 -3.67744,-3.0185 -1.56264,0 -3.20103,0.79692 -4.63015,2.30617 -1.7452,1.85206 -2.69795,4.18049 -2.69795,6.58906 0,3.54384 2.03463,5.66302 4.99967,5.66302 2.1949,0 3.75754,-1.27329 5.26679,-3.91782 m -29.478,3.73033 1.0863,0 c 0.36952,-0.84589 0.79251,-1.26883 1.29559,-1.26883 0.84586,0 2.43528,1.42911 5.18662,1.42911 3.38802,0 5.82333,-2.40857 5.82333,-5.6096 0,-2.8048 -1.58938,-4.05138 -3.94453,-5.58289 -2.56442,-1.69623 -4.28737,-2.72911 -4.28737,-4.76371 0,-1.74966 1.37572,-3.0185 3.25446,-3.0185 2.43531,0 4.39419,2.03905 4.737,5.50275 l 1.05959,0 c 0.18698,-2.00788 0.44969,-4.2072 0.84592,-6.56234 l -1.03291,0 c -0.36952,0.7435 -0.76572,1.08631 -1.1887,1.08631 -0.77021,0 -2.03905,-1.13973 -4.47429,-1.13973 -3.17436,0 -5.42265,2.14589 -5.42265,5.18665 0,2.72912 1.6384,3.94453 4.18053,5.6096 2.53764,1.66953 4.0736,2.72912 4.0736,4.66131 0,2.08802 -1.61165,3.49042 -3.7308,3.49042 -2.83154,0 -4.84388,-2.14144 -5.29354,-6.19282 l -1.16195,0 c -0.18698,2.22603 -0.4764,4.60789 -1.0062,7.17227 m -16.35859,-12.22579 -1.87877,11.16578 c -0.60993,3.54829 -1.11302,5.03083 -2.91165,5.03083 -0.28956,0 -0.55651,-0.16028 -0.55651,-0.32055 0,-0.23578 0.37397,-0.44966 0.37397,-1.08185 0,-0.58322 -0.42294,-1.05959 -1.21986,-1.05959 -0.81918,0 -1.34898,0.58322 -1.34898,1.45582 0,1.1887 0.89932,1.95891 2.54213,1.95891 3.20104,0 4.71028,-2.56884 5.58289,-7.78221 l 1.55822,-9.36714 3.0185,0 0.16027,-1.00617 -2.96507,0 0.34263,-2.01233 c 0.44966,-2.72466 0.87261,-4.10035 2.40857,-4.10035 0.63664,0 1.03288,0.24041 1.03288,0.39623 0,0.34727 -0.79247,0.47638 -0.79247,1.42912 0,0.81918 0.47637,1.27329 1.42911,1.27329 0.84589,0 1.5048,-0.71678 1.5048,-1.72295 0,-1.37569 -1.21541,-2.35514 -3.09419,-2.35514 -2.96507,0 -4.36747,2.30617 -5.02637,7.09213 l -3.38803,0 -0.16027,1.00617 3.38802,0 z m -19.05045,6.06108 c 0,3.83767 2.01233,6.29967 5.13323,6.29967 3.78425,0 7.17231,-3.52159 7.17231,-8.17845 0,-3.91781 -2.0658,-6.35309 -5.21337,-6.35309 -3.75758,0 -7.09217,3.54829 -7.09217,8.23187 m 7.06546,-7.2257 c 1.87873,0 2.80476,1.3 2.80476,3.8911 0,5.0798 -1.87873,8.6281 -4.6034,8.6281 -1.90551,0 -2.83154,-1.32672 -2.83154,-3.91782 0,-5.18665 1.95894,-8.60138 4.63018,-8.60138 m -28.34853,7.80714 c 5.66302,-1.0596 8.57467,-3.3346 8.57467,-6.05926 0,-1.66507 -1.1887,-2.75138 -3.17432,-2.75138 -1.56268,0 -3.28117,0.71233 -4.737,2.08802 -1.9589,1.82535 -3.07192,4.36747 -3.07192,6.9096 0,3.41028 1.90548,5.55618 4.97741,5.55618 2.08801,0 3.65069,-1.13973 5.28905,-3.52159 l -0.76576,-0.55205 c -1.53596,2.00788 -2.61781,2.93391 -4.44761,2.93391 -1.79863,0 -2.64452,-1.37569 -2.64452,-4.2072 l 0,-0.39623 z m 0,-0.95275 c 0.95274,-4.55001 2.72911,-6.90515 4.60788,-6.90515 0.94829,0 1.55822,0.68562 1.55822,1.7185 0,2.11918 -2.14144,4.44761 -6.1661,5.18665 m -10.41071,2.48821 1.61165,-9.02433 3.68185,0 0.156,-0.89932 -3.6774,0 1.11302,-4.89727 -0.95275,0 c -1.13972,3.12535 -2.56884,4.60788 -5.34692,4.89727 l -0.15565,0.89932 3.04076,0 -1.42911,7.93802 c -0.16028,0.87261 -0.20907,1.64282 -0.20907,2.27501 0,1.95891 0.89932,3.0185 2.48425,3.0185 1.79864,0 2.8048,-1.64281 4.55446,-4.84385 l -0.97945,-0.39623 c -1.42911,2.64453 -2.35514,4.02467 -3.28117,4.02467 -0.5298,0 -0.82363,-0.4274 -0.82363,-1.2733 0,-0.5565 0.10685,-1.10856 0.2137,-1.71849 m -12.10873,-1.42911 c -0.18698,1.0863 -0.31627,2.09247 -0.31627,3.0185 0,1.69178 0.68562,2.56438 1.95891,2.56438 1.48253,0 2.67123,-1.63836 3.94007,-4.89727 l -0.92603,-0.4452 c -1.21541,2.69795 -1.90548,4.10035 -2.75137,4.10035 -0.39624,0 -0.63665,-0.32055 -0.63665,-1.00617 0,-1.16644 0.24041,-2.46199 0.55651,-3.97124 l 1.64281,-7.85789 -2.14589,0 -0.65891,3.20103 c -0.39623,1.9322 -1.48253,4.81714 -3.0185,7.19899 -1.11301,1.77192 -2.14144,2.67124 -3.25446,2.67124 -0.79246,0 -1.24212,-0.44966 -1.24212,-1.29555 0,-1.03288 0.6589,-2.54213 1.37569,-4.71029 0.60548,-1.90548 0.8726,-3.49041 0.8726,-4.57672 0,-1.93219 -0.79247,-2.91165 -2.275,-2.91165 -1.53597,0 -2.70241,1.64281 -4.28734,4.79042 l 0.8726,0.52535 c 1.45583,-2.64453 2.16816,-4.02022 3.14761,-4.02022 0.47637,0 0.79247,0.31628 0.79247,0.87261 0,0.63664 -0.34263,1.77637 -0.8726,3.49487 -0.71233,2.30171 -1.34898,4.2072 -1.34898,5.87227 0,1.85651 1.11302,2.99179 2.78254,2.99179 2.03459,0 3.6774,-1.90549 5.55172,-5.66303 l 0.24041,0.0534 z m -18.19113,1.42911 1.6161,-9.02433 3.6774,0 0.15565,-0.89932 -3.67741,0 1.11302,-4.89727 -0.95274,0 c -1.13973,3.12535 -2.56884,4.60788 -5.34693,4.89727 l -0.15564,0.89932 3.04076,0 -1.42912,7.93802 c -0.15564,0.87261 -0.20907,1.64282 -0.20907,2.27501 0,1.95891 0.89932,3.0185 2.48426,3.0185 1.80308,0 2.8048,-1.64281 4.55446,-4.84385 l -0.97946,-0.39623 c -1.42911,2.64453 -2.35514,4.02467 -3.28117,4.02467 -0.52979,0 -0.81918,-0.4274 -0.81918,-1.2733 0,-0.5565 0.10258,-1.10856 0.20907,-1.71849 m -9.90851,-14.8721 c 0,0.81918 0.63664,1.42911 1.42911,1.42911 0.79247,0 1.4024,-0.63664 1.4024,-1.42911 0,-0.76576 -0.63664,-1.4024 -1.4024,-1.4024 -0.76575,0 -1.42911,0.63664 -1.42911,1.4024 m -3.44145,9.65652 c 1.42912,-2.5911 2.30172,-3.9935 3.20104,-3.9935 0.44966,0 0.7702,0.34299 0.7702,0.92603 0,0.81918 -0.52979,1.87877 -1.16644,3.36131 -1.21541,2.88494 -1.9589,4.99967 -1.9589,6.50892 0,1.66507 0.82363,2.59555 2.14589,2.59555 1.64281,0 2.83151,-1.6161 4.57672,-4.71028 l -0.8726,-0.55651 c -1.53596,2.5911 -2.38186,4.02021 -3.38802,4.02021 -0.42295,0 -0.73905,-0.2892 -0.73905,-0.81918 0,-1.03288 0.73905,-2.56884 1.69179,-4.76371 0.8726,-1.98562 1.45582,-3.6774 1.45582,-5.32021 0,-1.55822 -0.79246,-2.38186 -2.14144,-2.38186 -1.77637,0 -2.77809,1.6161 -4.50104,4.55447 l 0.92603,0.57876 z m -8.05556,5.21558 1.6161,-9.02433 3.6774,0 0.15565,-0.89932 -3.67741,0 1.11302,-4.89727 -0.95274,0 c -1.13973,3.12535 -2.56884,4.60788 -5.34693,4.89727 l -0.15564,0.89932 3.04075,0 -1.42911,7.93802 c -0.16027,0.87261 -0.20907,1.64282 -0.20907,2.27501 0,1.95891 0.89932,3.0185 2.48871,3.0185 1.79863,0 2.80034,-1.64281 4.55001,-4.84385 l -0.97946,-0.39623 c -1.42911,2.64453 -2.35514,4.02467 -3.28117,4.02467 -0.52979,0 -0.81918,-0.4274 -0.81918,-1.2733 0,-0.5565 0.10258,-1.10856 0.20943,-1.71849 m -13.46443,-7.3312 c 0,-1.13527 1.00616,-2.08801 2.8048,-2.08801 1.24212,0 1.93219,0.42294 1.93219,0.79246 0,0.18699 -0.81918,0.58322 -0.81918,1.42912 0,0.84589 0.55651,1.32226 1.50925,1.32226 0.94829,0 1.53151,-0.63665 1.53151,-1.64281 0,-1.47809 -1.74521,-2.83152 -4.2072,-2.83152 -2.85822,0 -4.57672,1.6161 -4.57672,3.52159 0,1.50925 0.81918,2.56884 2.32843,3.86439 1.9322,1.66507 3.46816,2.35514 3.46816,3.86439 0,1.24212 -1.16644,2.24829 -3.2322,2.24829 -1.26884,0 -2.03459,-0.44966 -2.03459,-0.84589 0,-0.2137 0.8726,-0.60993 0.8726,-1.64281 0,-0.79247 -0.63664,-1.37569 -1.6161,-1.37569 -1.00171,0 -1.61165,0.74349 -1.61165,1.79863 0,1.58939 1.79864,3.09864 4.41645,3.09864 3.20549,0 5.21337,-1.74521 5.21337,-4.02467 0,-1.58493 -1.21542,-2.61781 -3.04076,-4.10035 -1.79863,-1.45582 -2.93836,-2.11918 -2.93836,-3.38802 m -20.49948,11.14216 2.14145,0 0.66335,-3.17432 c 0.42295,-2.03904 1.53597,-4.89727 3.0185,-7.2257 1.13528,-1.79863 2.14145,-2.69795 3.17432,-2.69795 0.81918,0 1.32227,0.44966 1.32227,1.29555 0,1.08631 -0.68562,2.56439 -1.37569,4.71029 -0.58322,1.79863 -0.8726,3.28117 -0.8726,4.39418 0,1.79864 0.79246,2.75138 2.14144,2.75138 1.53596,0 2.78254,-1.53596 4.28733,-4.60789 l -0.95274,-0.39623 c -1.24212,2.51542 -2.14144,3.78425 -2.96062,3.78425 -0.42294,0 -0.74349,-0.28956 -0.74349,-0.81918 0,-0.60993 0.32055,-1.71849 0.84589,-3.33459 0.74349,-2.24829 1.34897,-4.12706 1.34897,-5.8233 0,-1.85206 -1.10856,-2.98733 -2.83151,-2.98733 -2.08802,0 -3.75754,1.87877 -5.50275,5.68973 l -0.20942,-0.0534 0,-0.0285 c 0,-0.2892 0.28956,-1.32226 0.28956,-3.01849 0,-1.69179 -0.66336,-2.56439 -1.9322,-2.56439 -1.56267,0 -2.61781,1.63836 -4.04692,4.8661 l 0.92603,0.48083 c 1.21541,-2.70241 2.00788,-4.13152 2.8048,-4.13152 0.42294,0 0.6589,0.37397 0.6589,1.05959 0,1.16199 -0.23578,2.46199 -0.55205,3.97124 l -1.64282,7.85789 z m -10.04699,-3.14892 2.24833,-12.8353 c 0.32055,-1.87877 0.79692,-2.19487 3.07189,-2.19487 l 0.16027,-1.05959 -8.231825,0 -0.160274,1.05959 c 1.932229,0.0759 2.671239,0.23578 2.671239,1.26884 0,0.10685 -0.0214,0.42295 -0.10258,0.84589 l -2.221541,12.8353 c -0.293836,1.66952 -0.663393,2.19487 -2.488703,2.19487 l -0.396234,0 -0.133562,1.03288 7.99145,0 0.18699,-1.03288 c -1.95891,-0.10222 -2.70237,-0.23578 -2.70237,-1.37569 0,-0.10257 0.0249,-0.34299 0.10685,-0.73904" id="path224" style="fill:#000000;fill-opacity:1;fill-rule:nonzero;stroke:none"/>
  </g>
</svg>