<svg id="Layer_1" data-name="Layer 1" xmlns="http://www.w3.org/2000/svg" width="197.31" height="59.25" viewBox="0 0 197.31 59.25"><defs><style>.cls-1{fill:#0072c0;}</style></defs><title>moscow_institute_of_physics_and_technology_logo-freelogovectors.net_</title><path class="cls-1" d="M49.52,87.92H63.73l.48,13.72h.21l5.92-13.72h14.2l-5.08,25.13H70.83l4-19.77h-.21l-9,19.77h-8L56.9,93.28h-.27l-4,19.77H44.37Z" transform="translate(-1.35 -70.38)"/><path class="cls-1" d="M93.11,113.47l.76-4H92.13c-6.61,0-9-3.76-9-7.45,0-5.5,4.46-12,13.23-12h1.53l.77-3.76h9.61L107.52,90h1.53c3.55,0,9.19.84,9.19,7.52,0,5.85-4.18,12-12.81,12h-1.88l-.77,4-9.67-.07Zm4-17.75h-.56c-2.58,0-4.25,2.71-4.25,5.08A2.72,2.72,0,0,0,95,103.73h.55Zm7.1,8h.55c2.72,0,4.18-2.93,4.18-5.16a2.57,2.57,0,0,0-2.64-2.85h-.56Z" transform="translate(-1.35 -70.38)"/><path class="cls-1" d="M146.86,87.92l-1.54,7.45h-8.49l-3.62,17.68H123.6l3.62-17.68h-8.49l1.53-7.45Z" transform="translate(-1.35 -70.38)"/><path class="cls-1" d="M158.62,87.92l-2.92,14.34h.14l9.26-14.34h11.21l-5.09,25.13h-9.6L164.47,99h-.14l-9.19,14.06H143.93L149,87.92Z" transform="translate(-1.35 -70.38)"/><polygon class="cls-1" points="182.48 52.15 183.87 44.98 197.31 49.09 182.48 52.15"/><path class="cls-1" d="M180.62,117h-139c-2.58,0-3.69,2.86-4.74,5.64a18.15,18.15,0,0,1-1.39,3.07c-.84-.84-1.39-4.74-1.67-6.27l-.14-.84c-.84-5.29-1.6-10.86-2.3-16.29-3.13-23.6-4.66-31.88-9-31.95C16.73,70.24,14.78,80,9,109l-.76,3.76C7.4,117,5.38,117,4.55,117H2l-.62,3.69h3.2c2.16,0,6.06-1,7.31-7.31l.76-3.76c3.55-17.82,7-34.67,9.33-35.5,2.09,2.22,4.11,17.4,5.64,28.68.7,5.43,1.46,11,2.3,16.36L30,120c.63,4.24,1.46,9.6,5.43,9.6,2.58,0,3.69-2.85,4.73-5.63a18.23,18.23,0,0,1,1.54-3.28H180Z" transform="translate(-1.35 -70.38)"/></svg>