<?xml version="1.0" encoding="UTF-8"?>
<svg width="246px" height="60px" viewBox="0 0 246 60" version="1.1" xmlns="http://www.w3.org/2000/svg" xmlns:xlink="http://www.w3.org/1999/xlink">
    <!-- Generator: Sketch 59.1 (86144) - https://sketch.com -->
    <title>quantic-logo-color</title>
    <desc>Created with Sketch.</desc>
    <g id="Quantic-Logo" stroke="none" stroke-width="1" fill="none" fill-rule="evenodd">
        <g transform="translate(-956.000000, -495.000000)" id="Color-Logo">
            <g transform="translate(236.000000, 480.000000)">
                <g id="quantic-logo-color" transform="translate(720.000000, 15.000000)">
                    <g id="Group">
                        <path d="M26.25,0 L52.5,14.9998427 L52.5,29.9902476 L39.3689608,37.4933149 L39.3689608,22.5041684 L26.25,15.007393 L13.1316749,22.5041684 L13.1316749,37.49709 L25.981,44.839 L25.9810241,29.986167 L51.9555685,44.982805 L51.9555685,59.9876213 L26.249,45.146 L26.2493643,60 L0,45.0007865 L0,14.9998427 L26.25,0 Z" id="Combined-Shape" fill="#FF4D63"/>
                        <g id="Group-17" transform="translate(67.500000, 16.875000)" fill="#808080">
                            <path d="M148.53176,29.2392061 L148.53176,2.79786485 C148.53176,1.92283506 147.816294,1.20736953 146.941264,1.20736953 C146.107412,1.20736953 145.391947,1.92283506 145.391947,2.79786485 L145.391947,29.2392061 L148.53176,29.2392061 Z" id="Fill-3"/>
                            <path d="M118.730819,4.30729123 L127.693869,4.30729123 L127.693869,29.2387772 L130.873144,29.2387772 L130.873144,4.30729123 L139.83791,4.30729123 C140.631442,4.30729123 141.307445,3.67160783 141.307445,2.87721804 C141.307445,2.08197038 140.631442,1.40682485 139.83791,1.40682485 L118.730819,1.40682485 C117.935571,1.40682485 117.259568,2.08197038 117.259568,2.87721804 C117.259568,3.67160783 117.935571,4.30729123 118.730819,4.30729123" id="Fill-5"/>
                            <path d="M34.1281348,17.6218989 L34.1281348,2.83732698 C34.1281348,1.96229719 34.8427425,1.24683166 35.6783101,1.24683166 C36.5516242,1.24683166 37.2670897,1.96229719 37.2670897,2.83732698 L37.2670897,17.4228725 C37.2670897,23.4245474 40.4866846,26.8019908 45.7720361,26.8019908 C50.8995391,26.8019908 54.1585961,23.702498 54.1585961,17.6218989 L54.1585961,2.83732698 C54.1585961,1.96229719 54.8740616,1.24683166 55.7482335,1.24683166 C56.5829433,1.24683166 57.2984089,1.96229719 57.2984089,2.83732698 L57.2984089,17.3834104 C57.2984089,25.4911619 52.6478829,29.7033151 45.692254,29.7033151 C38.8181229,29.7033151 34.1281348,25.4911619 34.1281348,17.6218989" id="Fill-7"/>
                            <path d="M153.418458,15.4596317 L153.418458,15.3798495 C153.418458,7.51058655 159.300031,0.993330383 167.486706,0.993330383 C171.978526,0.993330383 174.840388,2.46372357 177.422584,4.61012017 C177.741712,4.88807081 178.059125,5.3255857 178.059125,5.88148698 C178.059125,6.71619677 177.304197,7.4316623 176.469488,7.4316623 C176.031973,7.4316623 175.67424,7.23263591 175.435751,7.07392953 C173.289355,5.16602145 170.865866,3.89465464 167.448102,3.89465464 C161.287721,3.89465464 156.677515,8.90119762 156.677515,15.3000674 L156.677515,15.3798495 C156.677515,21.8190393 161.327183,26.8659023 167.448102,26.8659023 C170.905328,26.8659023 173.329675,25.6734597 175.713702,23.487601 C175.953049,23.2491125 176.310781,23.050944 176.707118,23.050944 C177.502366,23.050944 178.217831,23.7664095 178.217831,24.5607993 C178.217831,25.0377763 177.979343,25.4349712 177.701392,25.6734597 C174.958774,28.1775891 171.938206,29.7672266 167.36832,29.7672266 C159.339493,29.7672266 153.418458,23.4481389 153.418458,15.4596317" id="Fill-9"/>
                            <path d="M111.873674,1.20762689 C110.998644,1.20762689 110.323498,1.92309243 110.323498,2.75780221 L110.323498,23.7430754 L93.4328497,2.20104306 C92.9953348,1.64514179 92.5578199,1.28740902 91.8432123,1.28740902 L91.4065552,1.28740902 C90.5718454,1.28740902 89.8563799,2.00287455 89.8563799,2.83672647 L89.8563799,29.2394635 L92.9155527,29.2394635 L92.9155527,6.33512987 L110.164792,28.3918856 C110.641769,28.9486448 111.118746,29.3466975 111.793891,29.3466975 L111.953456,29.3466975 C112.787308,29.3466975 113.384387,28.7110141 113.384387,27.8754465 L113.384387,2.75780221 C113.384387,1.92309243 112.708383,1.20762689 111.873674,1.20762689" id="Fill-11"/>
                            <path d="M15.3814795,17.4510107 L15.3814795,21.071232 L21.708288,24.7240524 C20.1778437,25.7397733 18.0906403,26.5693358 15.3411595,26.5693358 C12.0658029,26.5693358 9.2185246,25.3914771 7.10901651,23.1627248 C5.08443779,21.024049 3.96920374,18.1373086 3.96920374,15.0343843 L3.96920374,14.9528865 C3.96920374,11.8499622 5.09902162,8.94863796 7.14933651,6.78336817 C8.63946077,5.2100303 11.2842812,3.33643711 15.4226574,3.33643711 C18.698014,3.33643711 21.5452923,4.51429583 23.6548003,6.74304817 C25.6802369,8.88086604 26.795471,11.7676065 26.795471,14.8705307 L26.795471,14.9528865 C26.795471,17.7744286 25.8518114,20.4218226 24.141214,22.5081682 L15.3814795,17.4510107 Z M29.9301365,14.8705307 C29.9301365,7.00641498 24.1017518,0.201771574 15.4226574,0.201771574 C6.74356289,0.201771574 0.834538213,7.08791285 0.834538213,14.9528865 L0.834538213,15.0343843 C0.834538213,22.8985001 6.66120715,29.7031435 15.3411595,29.7031435 C19.0274369,29.7031435 22.2118591,28.4583707 24.6576531,26.426929 L29.8966795,29.4500711 L29.8966795,25.8307077 L26.8906948,24.095232 C28.8320599,21.5439197 29.9301365,18.3397665 29.9301365,14.9528865 L29.9301365,14.8705307 Z" id="Fill-13"/>
                            <path d="M82.544305,29.2392061 L85.9586369,29.2392061 L74.4348378,2.51991421 C74.117425,1.72466655 73.5203459,1.20736953 72.6067118,1.20736953 L72.4471476,1.20736953 C71.5335135,1.20736953 70.9776123,1.72466655 70.6198795,2.51991421 L59.1261059,29.2392061 L62.4597978,29.2392061 L64.8146574,23.6167108 L77.7385042,23.6167108 L76.4190965,20.476898 L66.1297757,20.476898 L72.4874676,5.30199421 L82.544305,29.2392061 Z" id="Fill-15"/>
                        </g>
                    </g>
                </g>
            </g>
        </g>
    </g>
</svg>