<svg xmlns="http://www.w3.org/2000/svg" viewBox="0 0 277 35.999" height="35.999" width="277">
<path fill="#f76900" d="m9.636 0.96357c-4 0-7.5 2.3008-7.5 6.8008 0 7.7 12.801 6.3984 12.801 12.398 0 3.2-2.5004 4.5-4.9004 4.5-3.9 0-6.0992-3.1-7.1992-5.5l-1.8008 0.70117 1.4004 6.5996h1.5l0.5-1.1992c1.5 1 3.2004 1.6992 5.4004 1.6992 3.8 0 8.5-2.0992 8.5-7.6992 0-8.3-12.801-6.9008-12.801-12.301 0-2 1.3-3.6992 4-3.6992 3.2 0 5.4004 2.4988 6.4004 4.7988l1.7988-0.59961-1.5-5.9004h-1.5l-0.5 1.2012c-0.4-0.6-1.9996-1.8008-4.5996-1.8008zm124.9 0.59963v1.7012l2 0.39844v13.801c0 6.2 3.6004 9.8008 9.9004 9.8008s9.9004-3.6008 9.9004-9.8008v-13.9l2-0.40039v-1.5996h-6.5v1.5996l2 0.40039v13.6c0 4.7-2.6012 7.5-6.7012 7.5-5.1 0-7.0996-2.8992-7.0996-7.6992v-13.4l2-0.40039v-1.5996h-7.5zm46.801 1.9004c-1.1 0-1.9004 0.80039-1.9004 1.9004s0.90039 1.9004 1.9004 1.9004c1.1 0 1.8984-0.80039 1.8984-1.9004s-0.79844-1.9004-1.8984-1.9004zm65.898 0c-1.1 0-1.8984 0.80039-1.8984 1.9004s0.79844 1.9004 1.8984 1.9004 1.9004-0.80039 1.9004-1.9004-0.80039-1.9004-1.9004-1.9004zm7.9004 3.3008c-0.7 2-2.0992 3.8988-4.1992 4.2988v1.4004h2.5v11.199c0 2.2 1.5 3.4004 3.5 3.4004 1.8 0 3.1996-1.3 3.5996-2.5l-0.80078-0.59961c-0.4 0.5-1.0988 0.90039-1.7988 0.90039-1 0-1.5-0.60078-1.5-1.8008v-10.6h1.6992c1.1 0 2.0004 0.19922 2.4004 1.1992l5.6992 12.801-3.7988 7.4004c0.3 0.9 1.3 1.4004 2.5 0.90039l2.9004-7.9004 6-13.201c0.5-1.1 1.1992-1.3996 2.1992-1.5996v-1.5h-5.8008v1.4004l1.8008 0.40039-4.3008 9.6992-4.2988-9.6992 1.7988-0.5v-1.3008h-8.7988v-3.5996l-1.3008-0.19922zm-214.4 3.0996c-0.8 1.2-1.6996 1.7992-3.5996 2.1992v1.3008l1.9004 0.5v10.799l-1.5 0.30078v1.4004h6.5v-1.4004l-1.9004-0.5v-9.5c0.8-1 2.0012-2 3.2012-2 0.8 0 1.4 0.59961 1.5 1.0996 1 0 2-0.79961 2-2.0996-0.1-1.3-1.3004-1.9004-2.4004-1.9004-2.3 0-3.6996 1.9004-4.5996 3.4004l0.19922-3.4004-1.3008-0.19922zm121.6 0c-0.8 1.2-1.7016 1.7992-3.6016 2.1992v1.3008l1.9004 0.5v10.799l-1.5 0.40039v1.4004h6.4004v-1.5l-1.9004-0.5v-9.5c1.9-1.7 3.9996-2.1992 5.0996-2.1992 1.5 0 2.3008 0.9 2.3008 2.5v9.3984l-1.5 0.40039v1.4004h6.4004v-1.5l-1.9004-0.5v-10.699c0-2.1-1.7992-3.7012-4.1992-3.7012-2.3 0-4.5004 1.4012-6.4004 3.2012l0.19922-3.2012-1.2988-0.19922zm19.1 0c-0.8 1.2-1.6996 1.7992-3.5996 2.1992v1.3008l1.8984 0.5v10.799l-1.6992 0.40039v1.4004h6.4004v-1.5l-1.7012-0.40039v-14.5l-1.2988-0.19922zm39.9 0c-0.8 1.2-1.7016 1.7992-3.6016 2.1992v1.3008l1.9004 0.5v10.799l-1.5 0.40039v1.4004h6.4004v-1.5l-1.9004-0.5v-9.5c0.8-1 2.0012-2 3.2012-2 0.8 0 1.4 0.59961 1.5 1.0996 1 0 2-0.79961 2-2.0996-0.1-1.3-1.2008-1.9004-2.3008-1.9004-2.3 0-3.6996 1.9004-4.5996 3.4004l0.19922-3.4004-1.2988-0.19922zm25.898 0c-0.8 1.2-1.6996 1.7992-3.5996 2.1992v1.3008l1.9004 0.5v10.799l-1.6992 0.40039v1.4004h6.3984v-1.5l-1.6992-0.40039v-14.5l-1.3008-0.19922zm-127.1 0.09961c-3.7 0-7.5996 2.8004-7.5996 9.4004 0 4.9 3.2004 7.5996 6.9004 7.5996s6.0988-2.0004 6.7988-4.9004l-0.79883-0.5c-1.2 1.7-2.7996 2.8008-5.0996 2.8008-2.6 0-4.6012-2.3012-4.7012-5.2012l10.201-1.2988 0.59961-1c0-4.8-2.9008-6.9004-6.3008-6.9004zm89.801 0c-3.7 0-7.5996 2.8004-7.5996 9.4004 0 4.9 3.1984 7.5996 6.8984 7.5996s6.1008-2.0004 6.8008-4.9004l-0.80078-0.5c-1.2 1.7-2.7996 2.8008-5.0996 2.8008-2.6 0-4.5992-2.3012-4.6992-5.2012l10.199-1.2988 0.59961-1c0-4.8-2.8988-6.9004-6.2988-6.9004zm-153.4 0.0994c-3.2 0-6.4996 2.2012-6.5996 5.7012 1.9 1.1 4-0.10039 3.5-2.4004 0.6-0.7 1.2988-1.3008 2.7988-1.3008s2.4004 1.0004 2.4004 2.4004v3.4004l-4.5996 0.69922c-2.9 0.5-4.5996 1.9996-4.5996 4.5996 0 1.7 1.3996 3.8008 4.5996 3.8008 2 0 3.6996-0.79961 4.5996-2.0996 0 1 0.8 2 2.5 2s2.8004-1.4012 2.9004-1.7012l-0.40039-0.69922c-0.1 0.2-0.49961 0.40039-1.0996 0.40039-0.6 0-0.90039-0.49961-0.90039-1.0996v-8.8008c0-2.8-1.3996-4.9004-5.0996-4.9004zm17.301 0c-4.4 0-9.2012 3.5-9.2012 9.5 0 4.9 3.2996 7.5 7.0996 7.5 4 0 6.3008-2.1996 6.8008-4.5996l-0.80078-0.5c-1.1 1.4-2.6984 2.4004-4.8984 2.4004-2.9 0-5.1016-2.2-5.1016-5.5 0-4.1 2.3016-6.5 5.1016-6.5 2 0 2.9996 1 3.5996 2.5 1.1 0 2.1992-0.70078 2.1992-1.8008 0-2.1-2.4988-3-4.7988-3zm30.299 0c-2.8 0-4.9004 2-4.9004 4.5 0 5.3 8.6016 4.7012 8.6016 8.2012 0 1-0.80039 2.3984-2.9004 2.3984-2.3 0-4.1996-1.6996-5.0996-3.5996l-1.1016 0.30078 0.80078 4.5996h0.9004l0.40039-1.1992c0.59999 0.8 2.4996 1.6992 4.0996 1.6992 3 0 5.6992-2.0992 5.6992-5.1992 0-5.6-8.5-4.8-8.5-8 0-0.9 0.70039-1.9004 2.4004-1.9004 2.4 0 3.5996 1.9996 4.0996 3.0996l1.0996-0.30078-0.69922-4h-1.1992l-0.20117 0.5c-0.7-0.5-2-1.0996-3.5-1.0996zm131.3 0c-2.8 0-4.9004 2-4.9004 4.5 0 5.3 8.5996 4.7012 8.5996 8.2012 0 1-0.80039 2.3984-2.9004 2.3984-2.3 0-4.1996-1.6996-5.0996-3.5996l-1.0996 0.30078 0.80078 4.5996h0.89844l0.40039-1.1992c0.6 0.8 2.4996 1.6992 4.0996 1.6992 3 0 5.7012-2.0992 5.7012-5.1992 0-5.6-8.5-4.8-8.5-8 0-0.9 0.70039-1.9004 2.4004-1.9004 2.4 0 3.5996 1.9996 4.0996 3.0996l1.0996-0.30078-0.69922-4h-1.2012l-0.19922 0.5c-0.7-0.5-2-1.0996-3.5-1.0996zm-217.3 0.5v1.4004c1.5 0.4 1.8012 0.59922 2.2012 1.6992l5.6992 12.801-3.8008 7.4004c0.3 0.9 1.3 1.4004 2.5 0.90039l2.9004-7.9004 6-13.201c0.5-1.1 1.2012-1.3996 2.2012-1.5996v-1.5h-5.8008v1.5l1.8008 0.40039-4.3008 9.6992-4.3008-9.6992 1.8008-0.5v-1.4004h-6.9004zm61.9 0v1.4004l1.9004 0.5v10.801c0 2.1 1.7992 3.6992 4.1992 3.6992 2.3 0 4.5004-1.3992 6.4004-3.1992l-0.19922 2.6992 1.2988 0.19922c1-0.8 2.2996-1.3992 3.5996-1.6992v-1.4004h-1.8984v-13h-0.10156-4.8984v1.4004l1.8984 0.5v9.5996c-1.9 1.7-3.9996 2.2012-5.0996 2.2012-1.5 0-2.2988-0.9-2.2988-2.5v-11.201h-4.8008zm104.7 0v1.4004c1.5 0.4 1.7012 0.59922 2.2012 1.6992l5.9004 13.102h1.3984l6-13.201c0.5-1.1 1.2012-1.3996 2.2012-1.5996v-1.4004h-5.8008v1.4004l1.8008 0.40039-4.3008 9.6992-4.2988-9.6992 1.7988-0.5v-1.3008h-6.9004zm-64.699 1.4004c1.6 0 3.0996 1.1992 3.0996 4.1992l-7.4004 1c0.1-2.8 1.4008-5.1992 4.3008-5.1992zm89.801 0c1.6 0 3.0996 1.1992 3.0996 4.1992l-7.4004 1c0.1-2.8 1.4008-5.1992 4.3008-5.1992zm-151.3 7.5996v2.8008h0.09961c-0.5 1.5-1.7992 2.6992-3.6992 2.6992-1.7 0-2.5996-1.0988-2.5996-2.2988 0-1.7 1.5-2.3 2.5-2.5l3.6992-0.70117z"/></svg>