<?xml version="1.0" encoding="UTF-8" standalone="no"?>
<!-- Created with Inkscape (http://www.inkscape.org/) -->
<svg xmlns:svg="http://www.w3.org/2000/svg" xmlns="http://www.w3.org/2000/svg" version="1.0" width="708.66144" height="708.16608" id="svg8307">
  <defs id="defs8309"/>
  <g transform="translate(-346.41608,365.08671)" id="layer1">
    <g transform="matrix(26.084426,0,0,26.084426,-8155.7971,-13609.616)" id="g8299">
      <path d="M 325.94979,507.75621 L 353.11778,507.75621 L 353.11778,534.90521 L 325.94979,534.90521 L 325.94979,507.75621 z " style="fill:#ec1b24;fill-rule:nonzero;stroke:none;stroke-width:4.42000008;stroke-linecap:butt;stroke-linejoin:miter;stroke-miterlimit:3.86400008;stroke-dasharray:none" id="path6801"/>
      <path d="M 343.40673,523.84856 L 343.79535,523.84856 L 343.59662,523.51294 L 343.79535,523.17731 L 343.40673,523.17731 L 343.21242,522.84169 L 343.01811,523.17731 L 342.62949,523.17731 L 342.8238,523.51294 L 342.62949,523.84856 L 343.01811,523.84856 L 343.21242,524.18419 L 343.40673,523.84856" style="fill:#ffffff;fill-rule:nonzero;stroke:none;stroke-width:4.42000008;stroke-linecap:butt;stroke-linejoin:miter;stroke-miterlimit:3.86400008;stroke-dasharray:none" id="path6803"/>
      <path d="M 349.4524,523.84856 L 349.84985,523.84856 L 349.67321,523.51294 L 349.84985,523.17731 L 349.4524,523.17731 L 349.27576,522.84169 L 349.09911,523.17731 L 348.70166,523.17731 L 348.8783,523.51294 L 348.70166,523.84856 L 349.09911,523.84856 L 349.27576,524.18419 L 349.4524,523.84856" style="fill:#ffffff;fill-rule:nonzero;stroke:none;stroke-width:4.42000008;stroke-linecap:butt;stroke-linejoin:miter;stroke-miterlimit:3.86400008;stroke-dasharray:none" id="path6805"/>
      <path d="M 345.17759,524.00313 L 345.17759,524.0782 L 344.75365,524.0782 L 344.75365,524.57281 L 345.235,524.57281 L 345.235,527.67292 L 344.13097,527.67292 L 344.13097,524.64346 L 342.28945,524.64346 L 342.28945,527.67292 L 341.68886,527.67292 L 341.68886,528.18519 L 350.8214,528.18519 L 350.8214,527.67292 L 350.20314,527.67292 L 350.20314,524.64346 L 348.34837,524.64346 L 348.34837,527.67292 L 347.24434,527.67292 L 347.24434,524.57281 L 347.73011,524.57281 L 347.73011,524.0782 L 347.33266,524.0782 C 347.2885,523.54385 347.02353,523.08899 346.44944,522.96534 L 346.44944,522.42657 L 346.84689,522.42657 L 346.84689,522.05562 L 346.44944,522.05562 L 346.44944,521.60076 L 346.02991,521.60076 L 346.02991,522.05562 L 345.62804,522.05562 L 345.62804,522.42657 L 346.02991,522.42657 L 346.02991,522.96534 C 345.5353,523.08016 345.17759,523.48644 345.17759,524.00313" style="fill:#ffffff;fill-rule:nonzero;stroke:none;stroke-width:4.42000008;stroke-linecap:butt;stroke-linejoin:miter;stroke-miterlimit:3.86400008;stroke-dasharray:none" id="path6807"/>
      <path d="M 346.22863,530.312 C 345.57504,530.312 345.03186,530.85607 345.03186,531.52776 L 345.00978,533.56359 L 341.18542,533.56359 C 341.75068,531.98659 342.13047,530.39988 342.2497,528.71955 L 350.2473,528.71955 C 350.37979,530.39988 350.73308,531.98659 351.30717,533.56359 L 347.46515,533.56359 L 347.46515,531.52776 C 347.46515,530.85607 346.93521,530.312 346.22863,530.312" style="fill:#ffffff;fill-rule:nonzero;stroke:none;stroke-width:4.42000008;stroke-linecap:butt;stroke-linejoin:miter;stroke-miterlimit:3.86400008;stroke-dasharray:none" id="path6809"/>
      <path d="M 337.77176,516.62378 L 336.68097,516.62378 L 336.68097,513.56783 L 333.50136,513.56783 L 333.50136,514.26999 C 333.50136,515.80239 332.59164,516.72094 330.82078,516.72094 C 329.00575,516.72094 328.14461,515.87746 328.14461,514.3009 L 328.14461,509.81412 L 329.24422,509.81412 L 329.24422,514.0801 C 329.24422,515.1753 329.62842,515.81563 330.83403,515.81563 C 332.01755,515.81563 332.41941,515.1753 332.41941,514.0801 L 332.41941,509.81412 L 333.50136,509.81412 L 333.50136,512.62719 L 336.68097,512.62719 L 336.68097,509.81412 L 337.77176,509.81412 L 337.77176,512.62719 L 340.97344,512.62719 L 340.97344,509.81412 L 342.06423,509.81412 L 342.06423,516.62378 L 340.97344,516.62378 L 340.97344,513.56783 L 337.77176,513.56783 L 337.77176,516.62378" style="fill:#ffffff;fill-rule:nonzero;stroke:none;stroke-width:4.42000008;stroke-linecap:butt;stroke-linejoin:miter;stroke-miterlimit:3.86400008;stroke-dasharray:none" id="path6811"/>
    </g>
  </g>
</svg>