<svg xmlns="http://www.w3.org/2000/svg" height="62.734" viewBox="0 0 250 62.734213" width="250"><g transform="matrix(1.25 0 0 -1.25 -429.57 497.84)"><path d="m2.8262 0.82617c-0.0498 0-0.219 0.00403-0.3106 0.06641l-0.0566 0.03711-0.0117 0.06836c-0.1457 0.82885-0.452 2.144-0.7832 3.0762l-0.0235 0.0645 0.0293 0.0605c0.125 0.2509 0.5529 0.3742 0.7813 0.2031l0.0332-0.0253 0.0176-0.0391c0.2114-0.4807 0.4107-0.9341 0.8984-1.3828 0.4586-0.4215 1.4969-0.4785 2.4531-0.4785h1.1445c0.4652 0 0.4649 0.0002 0.4649 0.5058v9.3086c0 2.256-0.1296 2.354-1.1445 2.443l-0.7481 0.063-0.0703 0.021c-0.124 0.077-0.1955 0.232-0.1875 0.416 0.005 0.14 0.0629 0.315 0.1992 0.383l0.0352 0.02 0.041-0.002c1.2747-0.039 2.0448-0.061 2.8887-0.061 0.8128 0 1.485 0.018 2.7224 0.061l0.041 0.002 0.035-0.02c0.137-0.068 0.197-0.253 0.205-0.404 0.012-0.18-0.042-0.322-0.146-0.391l-0.74-0.088c-1.0419-0.089-1.1038-0.227-1.1038-2.443v-9.332c-0.0004-0.2129-0.0012-0.413 0.0332-0.4473 0.0352-0.0351 0.2608-0.0351 0.4102-0.0351h1.4784c1.116 0 1.875 0.1608 2.32 0.4902 0.198 0.1447 0.369 0.672 0.457 1.4102l0.006 0.0449 0.032 0.0371c0.076 0.0926 0.217 0.1484 0.377 0.1484 0.197 0 0.362-0.0843 0.429-0.2207l0.02-0.041-0.004-0.0469c-0.059-0.5995 0.085-2.2771 0.308-3.1074l0.016-0.0586-0.027-0.0547c-0.081-0.15737-0.312-0.1699-0.381-0.1699-0.052 0-0.128 0.00596-0.195 0.03321l-0.053 0.01953-0.028 0.04886c-0.267 0.4642-0.378 0.5019-1.484 0.5019h-8.6093c-0.9322 0-1.3496-0.0495-1.4375-0.51561l-0.0098-0.04882-0.0351-0.03516c-0.0579-0.05775-0.1518-0.08594-0.2871-0.08594zm176.83 0c-0.05 0-0.22 0.00403-0.31 0.06641l-0.06 0.03711-0.01 0.06836c-0.15 0.83215-0.46 2.1496-0.79 3.0762l-0.02 0.0645 0.03 0.0625c0.13 0.2504 0.55 0.3731 0.78 0.2011l0.03-0.0253 0.02-0.0391c0.21-0.4821 0.41-0.9369 0.9-1.3828 0.46-0.4215 1.5-0.4785 2.45-0.4785h1.15c0.46 0 0.46 0.0003 0.46 0.5058v9.3086c0 2.256-0.13 2.355-1.14 2.443l-0.75 0.063-0.07 0.021c-0.13 0.077-0.2 0.234-0.19 0.418 0.01 0.141 0.07 0.314 0.2 0.381l0.04 0.02 0.04-0.002c1.27-0.039 2.04-0.063 2.89-0.063 0.81 0 1.48 0.02 2.72 0.063l0.04 0.002 0.03-0.018c0.18-0.084 0.2-0.329 0.21-0.402 0.01-0.182-0.04-0.326-0.15-0.395l-0.74-0.088c-1.04-0.089-1.1-0.227-1.1-2.443v-9.334c0-0.2114 0-0.4115 0.03-0.4453 0.04-0.0351 0.26-0.0351 0.41-0.0351h1.48c1.12 0 1.88 0.1589 2.32 0.4882 0.2 0.1443 0.37 0.6731 0.46 1.4122v0.0449l0.03 0.0371c0.08 0.093 0.22 0.1484 0.38 0.1484 0.2 0 0.37-0.0863 0.43-0.2226l0.02-0.041v-0.045c-0.06-0.5972 0.08-2.2743 0.31-3.1074l0.01-0.0566-0.03-0.0547c-0.07-0.15507-0.29-0.1719-0.38-0.1719-0.05 0-0.13 0.004-0.19 0.03125l-0.06 0.02149-0.02 0.04886c-0.27 0.4637-0.38 0.5-1.49 0.5h-8.61c-0.93 0-1.34-0.0476-1.43-0.51371l-0.01-0.04882-0.04-0.03516c-0.05-0.05775-0.15-0.08594-0.28-0.08594zm-18.11 0.35153c-2.64 0.0008-4.41 1.5038-4.41 3.7403 0 1.902 1.46 3.1454 2.32 3.7168l1.98 1.2929c1.44 0.9243 1.64 1.8813 1.64 2.7793 0 1.111-0.76 2.234-2.45 2.234-2.1 0-3.02-1.625-3.42-2.988l-0.02-0.045c-0.07-0.093-0.18-0.144-0.32-0.144s-0.34 0.055-0.45 0.205l-0.03 0.043v0.054c0.04 0.942 0.31 2.484 0.58 2.987l0.02 0.039 0.04 0.021c0.41 0.239 1.55 0.793 3.33 0.793 2.75 0 4.6-1.612 4.6-4.011 0-1.665-0.88-3.0174-2.68-4.1333l-1.67-1.0429c-0.63-0.3929-1.69-1.229-1.69-2.4239 0-0.8035 0.3-2.1523 2.32-2.1523 1.83 0 2.39 1.196 2.68 2.2363l0.03 0.0586c0.06 0.0817 0.18 0.127 0.31 0.127 0.16 0 0.37-0.0637 0.46-0.2032l0.03-0.041v-0.0469c0-0.8509-0.18-2.0408-0.38-2.5976l-0.04-0.1035h-0.12c-0.14 0-0.42-0.0358-0.68-0.1172-0.5-0.1338-1.28-0.2771-1.98-0.2774zm64.54 0c-4.32 0-7.57 3.2279-7.57 7.5098 0 3.5865 2.6 7.2185 7.57 7.2185 4.21 0 7.39-3.194 7.39-7.4275 0-3.516-2.31-7.3008-7.39-7.3008zm21.32 0.2305l-0.2 0.0449c-0.25 0.0579-1.53 0.0567-2.77 0.0567h-3.84c-0.78 0-1.48-0.0168-2.4-0.0606l-0.04-0.0039-0.04 0.0195c-0.17 0.084-0.2 0.3291-0.21 0.4024-0.01 0.1818 0.05 0.325 0.15 0.3945l0.4 0.0664c1.06 0.1274 1.11 0.2434 1.11 2.4668v7.4941c0 2.202-0.05 2.318-1.11 2.445l-0.57 0.069-0.04 0.039c-0.12 0.117-0.14 0.311-0.12 0.453 0.03 0.155 0.1 0.271 0.2 0.322l0.04 0.02 0.04-0.002c0.97-0.04 1.67-0.063 2.59-0.063 0.84 0 1.57 0.023 2.77 0.063h0.04l0.04-0.018c0.13-0.068 0.19-0.253 0.2-0.404 0.01-0.18-0.04-0.324-0.15-0.393l-0.78-0.088c-1.06-0.09-1.12-0.227-1.12-2.443v-2.8945c0-0.4022 0-0.4023 0.52-0.4023h1.42c0.73 0 1.28 0.0178 1.56 0.0976 0.29 0.093 0.45 0.284 0.56 0.6778l0.22 0.8614 0.03 0.033c0.21 0.177 0.65 0.167 0.78-0.033l0.03-0.039v-0.049c0-0.216-0.02-0.496-0.03-0.8047-0.03-0.3773-0.05-0.8056-0.05-1.2168 0-0.4219 0.02-0.8679 0.05-1.2617 0.01-0.3237 0.03-0.6143 0.03-0.8398v-0.0489l-0.03-0.041c-0.1-0.1489-0.31-0.164-0.39-0.164-0.18 0-0.33 0.056-0.41 0.1504l-0.21 0.8984c-0.12 0.5051-0.26 0.5564-0.42 0.6133-0.22 0.0732-0.86 0.1172-1.72 0.1172h-1.42c-0.52 0-0.52 0.0013-0.52-0.4004v-4.3946c0-0.6728 0-0.6738 0.46-0.6738h1.27c0.86 0 1.54 0.0004 1.98 0.1211 0.9 0.2321 1.16 0.8281 1.34 1.8496l0.01 0.0567 0.05 0.039c0.07 0.069 0.19 0.1055 0.31 0.1055 0.16 0 0.36-0.0675 0.43-0.2188l0.02-0.0371v-0.0429c-0.04-0.7532-0.06-1.7268-0.06-2.7403v-0.1992zm-199.25 0.0117l-0.14 0.0332c-0.232 0.0574-1.524 0.0586-2.774 0.0586h-3.914c-0.802 0-1.487-0.0182-2.447-0.0625l-0.043-0.0019-0.035 0.0175c-0.172 0.084-0.201 0.3281-0.205 0.4004-0.013 0.1823 0.038 0.327 0.142 0.3965l0.404 0.0664c1.067 0.1264 1.129 0.2655 1.129 2.4668v7.4961c0 2.256-0.13 2.354-1.146 2.443l-0.742 0.067-0.041 0.041c-0.119 0.118-0.138 0.312-0.116 0.455 0.025 0.154 0.098 0.27 0.198 0.32l0.037 0.018h0.039c1.203-0.04 1.928-0.063 2.826-0.063h1.875c1.816 0 3.639 0.021 5.576 0.063l0.104 0.002 0.045-0.092c0.279-0.581 0.801-2.198 0.947-2.932l0.012-0.051-0.022-0.044c-0.09-0.201-0.311-0.291-0.49-0.291-0.103 0-0.195 0.028-0.268 0.08l-0.05 0.058c-0.598 1.193-1.135 1.796-1.407 1.947-0.448 0.224-1.08 0.295-2.595 0.295-1.735 0-2.18-0.207-2.401-0.427-0.295-0.315-0.353-0.991-0.353-2.055v-2.9375c0-0.4031 0-0.4023 0.527-0.4023h1.207c0.727 0 1.271 0.0164 1.565 0.0996 0.289 0.0723 0.438 0.2617 0.529 0.6738l0.187 0.8084 0.032 0.067c0.077 0.094 0.224 0.152 0.39 0.152 0.191 0 0.345-0.073 0.414-0.193l0.022-0.038v-0.043c0-0.203-0.017-0.4713-0.035-0.7729-0.023-0.3797-0.049-0.8098-0.049-1.2266 0-0.4356 0.026-0.8806 0.049-1.2734 0.018-0.3186 0.035-0.6045 0.035-0.8282v-0.0429l-0.022-0.0352c-0.069-0.1212-0.223-0.1953-0.414-0.1953-0.166 0-0.313 0.0565-0.39 0.1504l-0.202 0.9258c-0.094 0.4755-0.21 0.5453-0.392 0.6054-0.222 0.0748-0.849 0.1172-1.719 0.1172h-1.207c-0.527 0-0.527 0-0.527-0.4238v-4.1621c0-0.6729 0-0.6738 0.465-0.6738h1.5c0.884 0 1.559 0.0206 1.98 0.1211 0.95 0.2372 1.141 0.8373 1.43 1.7461l0.039 0.125 0.029 0.0527c0.071 0.0865 0.19 0.1347 0.338 0.1347 0.144 0 0.345-0.0497 0.437-0.1874l0.032-0.0469-0.028-0.3086c-0.108-1.2123-0.206-2.2404-0.318-2.5567l-0.049-0.1367zm86.762 0l-0.14 0.0332c-0.23 0.0574-1.53 0.0586-2.77 0.0586h-3.92c-0.8 0-1.49-0.0182-2.45-0.0625l-0.04-0.0019-0.04 0.0175c-0.17 0.084-0.2 0.3281-0.2 0.4004-0.01 0.1823 0.04 0.327 0.14 0.3965l0.41 0.0664c1.06 0.1264 1.13 0.2655 1.13 2.4668v7.4961c0 2.256-0.14 2.354-1.15 2.443l-0.74 0.067-0.04 0.041c-0.12 0.118-0.14 0.311-0.12 0.453 0.03 0.154 0.1 0.272 0.2 0.322l0.03 0.018h0.04c1.21-0.04 1.93-0.063 2.83-0.063h1.87c1.82 0 3.65 0.021 5.58 0.063l0.1 0.002 0.05-0.092c0.28-0.585 0.8-2.201 0.95-2.932l0.01-0.051-0.02-0.044c-0.09-0.201-0.31-0.291-0.49-0.291-0.11 0-0.2 0.028-0.27 0.08l-0.05 0.058c-0.6 1.192-1.13 1.796-1.41 1.947-0.45 0.224-1.08 0.295-2.59 0.295-1.74 0-2.18-0.206-2.4-0.427-0.3-0.314-0.36-0.991-0.36-2.055v-2.9375c0-0.4031 0-0.4023 0.53-0.4023h1.21c0.72 0 1.27 0.0164 1.56 0.0996 0.29 0.0718 0.44 0.2602 0.53 0.6718l0.19 0.8104 0.03 0.069c0.08 0.094 0.22 0.15 0.39 0.15 0.19 0 0.35-0.073 0.41-0.193l0.03-0.038v-0.043c0-0.203-0.02-0.4713-0.04-0.7729-0.02-0.3797-0.05-0.8098-0.05-1.2266 0-0.4356 0.03-0.8806 0.05-1.2734 0.02-0.3186 0.04-0.6045 0.04-0.8282v-0.0429l-0.03-0.0352c-0.06-0.1212-0.22-0.1953-0.41-0.1953-0.17 0-0.31 0.0565-0.39 0.1504l-0.2 0.9258c-0.09 0.4759-0.21 0.5453-0.39 0.6054-0.23 0.0748-0.85 0.1172-1.72 0.1172h-1.21c-0.53 0-0.53 0-0.53-0.4238v-4.1621c0-0.6729 0-0.6738 0.47-0.6738h1.5c0.88 0 1.56 0.0206 1.98 0.1211 0.95 0.2372 1.14 0.8373 1.43 1.7461l0.04 0.125 0.03 0.0527c0.07 0.0865 0.19 0.1347 0.33 0.1347 0.15 0 0.35-0.0494 0.44-0.1874l0.03-0.0469-0.02-0.3067c-0.11-1.2132-0.21-2.2419-0.32-2.5586l-0.05-0.1367zm-52.197 0.0098l-0.002 0.0019-0.127 0.0196c-0.25 0.0376-0.59 0.0605-0.934 0.0605-0.364 0-1.471-0.0008-2.34-0.0625l-0.045-0.0039-0.039 0.0195c-0.11 0.0559-0.187 0.1703-0.211 0.3145-0.028 0.1734 0.022 0.3562 0.127 0.4629l0.039 0.039 0.409 0.0469c0.555 0.0691 0.97 0.2261 1.193 0.4492 0.389 0.4253 0.416 0.8095 0.416 1.3907v6.207c0.001 1.006 0.005 3.364-0.256 4.035-0.049 0.107-0.225 0.25-0.787 0.324l-0.619 0.069-0.039 0.039c-0.093 0.092-0.14 0.239-0.127 0.396s0.081 0.29 0.187 0.366l0.047 0.033 0.055-0.004c0.724-0.04 1.284-0.063 2.158-0.063 0.705 0 1.407 0.019 2.428 0.063l0.056 0.002 0.043-0.031c0.098-0.07 0.163-0.181 0.184-0.313 0.024-0.152-0.014-0.309-0.105-0.432l-0.043-0.058-0.719-0.069c-0.5-0.04-0.849-0.158-0.936-0.316-0.224-0.396-0.353-1.938-0.353-4.23v-4.5395c0-0.3726 0.008-0.7699 0.045-1.0527 0.331 0.3702 0.881 1.0229 1.377 1.6093 0.34 0.4022 0.656 0.7743 0.859 1.0078l4.83 5.4961c1.605 1.826 2.374 2.731 2.654 3.129l0.049 0.068h0.082c0.274 0 0.479-0.127 0.549-0.34l0.01-0.033-0.004-0.033c-0.028-0.242-0.061-1.068-0.061-3.625v-5.2597c-0.003-1.0666-0.011-3.2862 0.295-3.9356 0.027-0.0526 0.277-0.2293 1.047-0.3496l0.344-0.0488 0.039-0.0391c0.1-0.1005 0.149-0.2636 0.131-0.4257-0.017-0.1485-0.09-0.2723-0.201-0.3418l-0.045-0.0274-0.051 0.002c-0.683 0.04-1.225 0.0625-2.135 0.0625-0.734 0-1.421-0.0183-2.449-0.0625h-0.033l-0.029 0.0097c-0.122 0.0448-0.206 0.1584-0.235 0.3125-0.034 0.1861 0.021 0.3757 0.143 0.4805l0.037 0.0312 0.402 0.0469c0.715 0.0893 1.078 0.1962 1.176 0.3438 0.249 0.3933 0.391 1.9335 0.391 4.2246v4.4555c0 0.201-0.001 0.436-0.014 0.595-0.722-0.746-1.475-1.593-2.414-2.6443l-2.897-3.248c-2.059-2.3108-3.239-3.8274-3.505-4.5059l-0.047-0.1191zm-11.662 0.0156l-0.045 0.0313c-0.097 0.0638-0.162 0.1823-0.182 0.3242-0.022 0.156 0.017 0.3064 0.107 0.4121l0.043 0.0508 0.586 0.0449c0.478 0.0395 0.803 0.1662 0.914 0.3574 0.243 0.4276 0.377 1.9305 0.377 4.2305v2.3965c0 2.454-0.694 5.377-4.004 5.377-2.775 0-4.068-1.717-4.068-5.4005v-4.4961c0-2.2144 0.074-2.3751 1.104-2.4648l0.541-0.043 0.033-0.0234c0.104-0.069 0.156-0.2095 0.144-0.3848-0.01-0.1452-0.067-0.3254-0.203-0.3926l-0.037-0.0175-0.041 0.0019c-0.987 0.04-1.687 0.0606-2.555 0.0606-0.855 0-1.591-0.0215-2.574-0.0606l-0.041-0.0019-0.037 0.0175c-0.136 0.0668-0.193 0.246-0.203 0.3907-0.011 0.1757 0.039 0.3167 0.142 0.3867l0.036 0.0234 0.562 0.043c1.031 0.0897 1.102 0.2504 1.102 2.4648v4.9121c0 2.5185 0.518 4.0725 1.679 5.0375 0.918 0.784 2.264 1.183 4 1.183 1.641 0 3.208-0.603 4.092-1.572 1.009-1.081 1.5-2.745 1.5-5.084v-2.3535c0-1.0553 0-3.5276 0.278-4.1817 0.096-0.2095 0.453-0.3691 0.908-0.4062l0.568-0.0449 0.043-0.0528c0.093-0.1118 0.134-0.2829 0.109-0.4375-0.021-0.1301-0.087-0.2368-0.189-0.3007l-0.043-0.0274-0.051 0.0039c-0.723 0.04-1.285 0.0625-2.177 0.0625-0.799 0-1.573-0.0211-2.366-0.0625l-0.052-0.0039zm36.629 0l-0.05 0.0274c-0.12 0.0751-0.2 0.2157-0.21 0.375-0.01 0.1592 0.04 0.3097 0.15 0.4023l0.04 0.0332 0.42 0.0469c0.81 0.0945 1.09 0.4657 1.56 1.6094l3.66 9.0355c0.44 1.081 0.76 2.007 0.95 2.75l0.02 0.076 0.08 0.031c0.12 0.049 0.25 0.074 0.37 0.074s0.23-0.032 0.32-0.09l0.05-0.031 0.01-0.053c0.36-1.118 1.36-3.571 2.16-5.418l1.13-2.5601c0.96-2.1896 1.77-3.8392 2.32-4.7695 0.27-0.4281 0.54-0.6195 0.96-0.6543l0.68-0.0449 0.05-0.043c0.11-0.1138 0.13-0.3124 0.11-0.4473-0.02-0.1517-0.09-0.2655-0.19-0.3242l-0.04-0.0254-0.05 0.0039c-0.7 0.0419-1.34 0.0625-2.01 0.0625-0.82 0-1.6-0.023-2.15-0.0625l-0.05-0.0039-0.05 0.0254c-0.11 0.0658-0.19 0.2027-0.21 0.3672-0.01 0.1663 0.04 0.3209 0.15 0.4121l0.03 0.0332 0.43 0.0469c0.73 0.0832 0.79 0.2363 0.79 0.2363 0 0.1358-0.02 0.3447-0.17 0.7539-0.36 0.9068-1.35 3.2905-1.94 4.6582-0.15 0.3543-0.35 0.8173-0.56 1.3262-0.4 0.9363-0.88 2.0753-1.28 2.9703-0.99-2.263-1.9-4.5349-2.82-6.8551-0.61-1.4951-0.96-2.5829-1.02-2.8535 0.03-0.0662 0.21-0.1541 0.83-0.2363l0.36-0.0489 0.04-0.0312c0.1-0.0911 0.16-0.2443 0.14-0.4102-0.01-0.1649-0.09-0.3033-0.21-0.3691l-0.04-0.0234-0.05 0.0019c-0.92 0.0438-1.65 0.0625-2.51 0.0625s-1.53-0.0196-2.15-0.0625l-0.05-0.0019v-0.002zm87.53 0l-0.04 0.0254c-0.1 0.0583-0.17 0.1671-0.2 0.3066-0.03 0.1673 0.02 0.3429 0.12 0.4571l0.03 0.0429 0.64 0.1133c0.55 0.0925 0.83 0.1406 1.53 1.4981l2.46 4.789c0.59 1.1333 0.65 1.3693 0.65 2.5103v1.06c0 2.26-0.06 2.376-1.11 2.486l-0.7 0.069-0.04 0.041c-0.12 0.119-0.14 0.312-0.11 0.455 0.02 0.153 0.09 0.268 0.19 0.318l0.04 0.02 0.04-0.002c1.12-0.041 1.85-0.061 2.72-0.061 0.85 0 1.59 0.022 2.83 0.061l0.04 0.002 0.03-0.02c0.1-0.05 0.18-0.166 0.2-0.32 0.02-0.143 0.01-0.337-0.11-0.455l-0.05-0.041-0.84-0.067c-0.97-0.072-1.11-0.232-1.11-2.486v-1.084c0-1.5599 0.05-1.7127 0.96-3.291l1.31-2.2695c0.12-0.2048 0.24-0.404 0.34-0.5957 0.82-1.4307 1.41-2.4635 2.3-2.6172l0.63-0.1113 0.03-0.0293c0.11-0.0925 0.16-0.2431 0.15-0.4023-0.01-0.1593-0.09-0.2994-0.21-0.375l-0.04-0.0274-0.05 0.0039c-1.48 0.0865-2.36 0.086-3.92 0l-0.05-0.0019-0.03 0.0195c-0.12 0.0582-0.2 0.1766-0.22 0.3223-0.03 0.1682 0.02 0.3408 0.13 0.4531l0.04 0.041 0.43 0.0469c0.41 0.0504 0.66 0.1481 0.73 0.2031-0.06 0.2979-0.79 1.6508-1.23 2.4707l-0.1 0.1758c-0.5 0.9698-1.08 2.014-1.81 3.2695-0.55-0.9909-1.08-2.08-1.6-3.1367-0.21-0.4149-0.41-0.8284-0.61-1.2344-0.15-0.3012-0.62-1.3654-0.63-1.5312 0-0.0419 0.09-0.1247 0.74-0.2168l0.32-0.0489 0.04-0.039c0.11-0.1133 0.16-0.3186 0.11-0.4981-0.03-0.1423-0.12-0.2476-0.24-0.2871l-0.03-0.0097-0.03 0.0039c-0.51 0.0403-1.26 0.0605-2.22 0.0605s-1.73-0.0187-2.4-0.0605l-0.05-0.0039v-0.002zm-171.01 0.002l-0.041 0.0019c-0.948 0.0438-1.644 0.0625-2.406 0.0625-0.544 0-1.018-0.0152-1.535-0.0312-0.334-0.0113-0.685-0.0233-1.084-0.0313h-0.039l-0.036 0.0156c-0.171 0.0837-0.199 0.3281-0.205 0.4004-0.012 0.1828 0.039 0.3285 0.143 0.3985l0.035 0.0234 0.584 0.0449c0.918 0.0705 1.08 0.2574 1.08 2.4629v7.4961c0 2.168-0.039 2.259-1.074 2.445l-0.404 0.071-0.036 0.037c-0.119 0.118-0.135 0.312-0.113 0.455 0.025 0.153 0.095 0.27 0.195 0.32l0.036 0.018 0.041-0.002c0.286-0.008 0.559-0.016 0.832-0.026 0.492-0.017 1.002-0.035 1.58-0.035 0.782 0 1.445 0.02 2.638 0.063h0.041l0.038-0.018c0.136-0.068 0.194-0.253 0.203-0.404 0.011-0.18-0.043-0.324-0.147-0.393l-0.674-0.088c-0.999-0.108-1.127-0.207-1.127-2.443v-2.9355c0-0.5056 0-0.5059 0.881-0.5059h5.955c0.881 0 0.881 0.0003 0.881 0.5059v2.9355c0 2.215-0.023 2.261-1.137 2.445l-0.445 0.071-0.037 0.037c-0.119 0.119-0.137 0.314-0.113 0.457 0.025 0.153 0.097 0.269 0.197 0.318l0.037 0.018 0.041-0.002c0.997-0.044 1.723-0.061 2.51-0.061 0.821 0 1.543 0.022 2.514 0.061l0.041 0.002 0.037-0.018c0.172-0.084 0.2-0.329 0.205-0.402 0.011-0.182-0.04-0.326-0.145-0.395l-0.57-0.088c-1.057-0.127-1.107-0.241-1.107-2.443v-7.4961c0-2.2182 0.061-2.3558 1.103-2.4648l0.436-0.041 0.074-0.0274c0.104-0.069 0.158-0.2112 0.146-0.3926-0.005-0.0732-0.034-0.3192-0.205-0.4043l-0.037-0.0175-0.041 0.0019c-1.006 0.0441-1.694 0.0625-2.451 0.0625-0.902 0-1.628-0.0244-2.51-0.0625l-0.041-0.0019-0.037 0.0175c-0.171 0.084-0.2 0.3296-0.205 0.4024-0.011 0.1818 0.04 0.325 0.145 0.3945l0.466 0.0684c1.064 0.1095 1.127 0.2471 1.127 2.4648v2.3946c0 0.5069 0 0.5058-0.881 0.5058h-5.953c-0.881 0-0.883 0.0011-0.883-0.5058v-2.3946c0-2.2182 0.064-2.3553 1.108-2.4648l0.394-0.041 0.073-0.0254c0.104-0.069 0.156-0.2147 0.144-0.3965-0.005-0.0733-0.033-0.3183-0.205-0.4024l-0.035-0.0175h-0.002zm74.514 0l-0.037 0.0175c-0.172 0.084-0.2 0.3296-0.205 0.4024-0.012 0.1818 0.041 0.325 0.146 0.3945l0.033 0.0235 0.563 0.0449c1.049 0.0892 1.119 0.2529 1.119 2.5058v7.4121c0 2.242-0.05 2.358-1.125 2.486l-0.576 0.069-0.039 0.039c-0.119 0.119-0.137 0.313-0.114 0.455 0.025 0.154 0.097 0.271 0.198 0.32l0.037 0.02 0.041-0.002c1.058-0.041 1.748-0.061 2.618-0.061 0.82 0 1.54 0.021 2.57 0.061l0.04 0.002 0.04-0.018c0.17-0.085 0.2-0.331 0.21-0.404 0.01-0.181-0.05-0.324-0.15-0.393l-0.59-0.088c-1.08-0.128-1.13-0.244-1.13-2.486v-7.4121c0-2.253 0.07-2.417 1.12-2.5058l0.57-0.043 0.03-0.0254c0.1-0.0695 0.16-0.2122 0.14-0.3945 0-0.0728-0.03-0.3183-0.2-0.4024l-0.04-0.0175-0.04 0.0019c-0.98 0.039-1.72 0.0606-2.57 0.0606-0.9 0-1.611-0.0206-2.618-0.0606l-0.041-0.0019zm70.829 0l-0.04 0.0195c-0.17 0.085-0.19 0.3295-0.2 0.4023-0.01 0.1809 0.04 0.3236 0.15 0.3926l0.03 0.0254 0.56 0.043c1.06 0.0902 1.12 0.2303 1.12 2.5058v7.4121c0 2.242-0.05 2.359-1.13 2.486l-0.57 0.069-0.04 0.039c-0.12 0.118-0.14 0.312-0.11 0.455 0.02 0.154 0.09 0.27 0.19 0.32l0.04 0.02 0.04-0.002c1.06-0.041 1.76-0.061 2.62-0.061 0.83 0 1.52 0.02 2.58 0.061l0.04 0.002 0.03-0.02c0.17-0.085 0.2-0.329 0.21-0.402 0.01-0.181-0.04-0.324-0.15-0.393l-0.59-0.088c-1.07-0.127-1.13-0.244-1.13-2.486v-7.4121c0-2.2755 0.06-2.4161 1.12-2.5058l0.57-0.043 0.03-0.0254c0.11-0.0695 0.16-0.2127 0.15-0.3945-0.01-0.0728-0.04-0.3178-0.21-0.4024l-0.03-0.0175-0.04 0.0019c-0.99 0.039-1.73 0.0606-2.58 0.0606-0.89 0-1.61-0.0206-2.62-0.0606l-0.04-0.0019zm-24.32 0.0019c-1.91 0-3.39 0.0529-4.66 0.166l-0.06 0.0157c-0.12 0.0606-0.2 0.1958-0.21 0.3593-0.02 0.179 0.05 0.3501 0.17 0.4356l0.03 0.0234 0.71 0.0879c0.68 0.0828 0.77 0.2306 0.77 2.2774v7.4765c0 2.202-0.05 2.316-1.1 2.443l-0.59 0.071-0.04 0.047c-0.11 0.136-0.13 0.334-0.1 0.474 0.03 0.141 0.1 0.243 0.2 0.291l0.03 0.02 0.04-0.002c0.93-0.038 1.69-0.063 2.6-0.063 0.86 0 1.58 0.025 2.47 0.063l0.04 0.002 0.04-0.02c0.15-0.076 0.19-0.275 0.2-0.357 0.02-0.184-0.03-0.344-0.13-0.428l-0.03-0.027-0.49-0.071c-1.07-0.148-1.11-0.239-1.11-2.443v-2.625c0-0.2969 0-0.2969 0.82-0.2969 0.8 0 1.07 0.1912 1.35 0.5957 0.31 0.4592 0.68 1.0432 1.04 1.6072 0.37 0.589 0.72 1.146 1 1.539 1.43 2.037 2.51 2.69 4.44 2.69 0.4 0 0.75-0.039 0.96-0.11l0.05-0.027c0.1-0.076 0.15-0.198 0.13-0.32-0.02-0.114-0.09-0.207-0.19-0.246l-0.04-0.01c-0.5-0.036-1-0.24-1.35-0.547-1.43-1.202-2.57-2.958-4.15-5.5-0.11-0.1757-0.13-0.2567-0.12-0.291 0.69-0.2885 2.64-1.3082 2.64-3.6016 0-1.7441-0.98-2.6242-1.81-3.0546-1.04-0.5672-2.38-0.6446-3.55-0.6446zm80.51 0.6934c3.94 0 5.34 3.7615 5.34 6.9824 0 4.292-2.54 5.814-4.72 5.814-4.29 0-5.44-4.348-5.44-6.9175 0-4.3387 2.6-5.8789 4.82-5.8789zm-80.53 0.2715c2.34 0 3.17 1.6415 3.17 3.0468 0 1.154-0.31 1.9345-0.98 2.4551-0.6 0.4506-1.41 0.5078-2.05 0.5078-0.94 0-1.23-0.0361-1.31-0.0625-0.03-0.086-0.03-0.3301-0.03-0.5683v-4.8731c0-0.468 0-0.5058 1.2-0.5058zm-124.25 24.566c-5.196 0-9.842 1.401-13.49 4.249-3.7982 2.948-6.2972 7.695-6.2972 13.242 0 6.445 3.0981 10.993 7.0957 13.742 3.6475 2.448 7.9465 3.348 12.444 3.348 3.197 0 6.794-0.751 7.893-1.151 0.55-0.2 1.15-0.399 1.748-0.5 0.75-0.949 2.051-4.245 2.401-6.844-0.201-0.349-0.951-0.45-1.301-0.201-1.15 2.949-3.998 7.147-10.443 7.147-8.196 0-14.842-5.798-14.842-16.291-0.0001-10.344 6.497-15.192 14.142-15.192 7.246 0 9.495 3.898 10.245 7.297 0.349 0.299 1.098 0.25 1.347-0.099-0.399-3.048-0.647-6.196-0.697-7.346-0.45 0.05-0.801-0.05-1.4-0.199-2.35-0.65-6.147-1.202-8.846-1.202zm101.29 0c-5.2 0-9.84 1.401-13.49 4.249-3.8 2.948-6.3 7.695-6.3 13.242 0 6.445 3.1 10.993 7.1 13.742 3.65 2.448 7.94 3.348 12.44 3.348 3.2 0 6.8-0.751 7.9-1.151 0.55-0.2 1.14-0.399 1.74-0.5 0.75-0.949 2.05-4.245 2.4-6.844-0.2-0.349-0.95-0.45-1.29-0.201-1.15 2.949-4 7.147-10.45 7.147-8.19 0-14.84-5.798-14.84-16.291 0-10.344 6.5-15.192 14.14-15.192 7.25 0 9.5 3.898 10.25 7.297 0.34 0.299 1.1 0.25 1.35-0.099-0.4-3.048-0.66-6.196-0.71-7.346-0.45 0.05-0.79-0.05-1.39-0.199-2.35-0.65-6.15-1.202-8.85-1.202zm33.48 0c-0.55 0.65-1.4 1.551-2.6 1.901 0.15 0.8-0.15 1.746-0.85 3.545l-5.09 13.494c-2.1 5.597-3.5 8.844-4.4 11.142-0.7 1.8-1.8 2.351-3 2.45l-1.65 0.15c-0.3 0.25-0.2 1.049 0.1 1.248 1.35-0.049 3.15-0.148 4.8-0.148 2.35 0.049 3.9 0.048 5.19 0.148 0.45-0.199 0.45-0.998 0.1-1.248l-1.64-0.15c-1.2-0.099-1.45-0.4-1.45-1 0-0.55 0.35-1.899 1.1-4.149l1.74-5.246c0.35-1.05 0.65-1.199 1.9-1.199h7.55c1.5 0 1.7 0.15 2.05 1.25l2.2 6.795c0.4 1.199 0.65 2.099 0.65 2.648 0 0.5-0.7 0.802-1.75 0.901l-1.45 0.15c-0.35 0.25-0.3 1.049 0.1 1.248 1.45-0.049 3.35-0.148 5.74-0.148 2.25 0 4 0.048 6.05 0.148 0.25-0.199 0.35-0.998 0-1.248l-1.35-0.15c-2.15-0.25-2.8-1.002-4.25-5.299l-6.84-20.088c-0.75-2.198-1.55-4.496-2.2-6.695-0.1-0.349-0.45-0.45-0.75-0.45zm38.63 0c-7.55 0-12.5 2.349-15.84 5.848-3.1 3.297-4.5 7.594-4.5 11.842 0 4.398 1.6 8.345 4.6 11.344 3.84 3.898 9.29 5.547 15.24 5.547 2.7 0 6.29-0.6 8.94-1.299 0.95-0.249 1.85-0.451 2.45-0.451 0.2-0.15 0.2-0.451 0.05-0.6-0.9-0.35-1.2-1.548-1.2-3.547v-2.799c0-2.548 0.05-3.946 2.15-4.197l0.8-0.102c0.35-0.298 0.3-1.047-0.05-1.248-1.65 0.1-3.35 0.149-5.3 0.149-2.95 0-5.69-0.049-7.14-0.149-0.35 0.15-0.4 1.05 0 1.248l2.2 0.252c3.09 0.349 3.24 0.65 3.24 4.846v2c0 1.599-0.25 2.499-0.49 2.848-0.56 0.849-2.4 1.5-5.5 1.5-10.05 0-14.99-7.548-14.99-17.141 0-7.495 4.25-14.391 13.94-14.391 5.1 0 8.84 1.698 10.24 7.094 0.3 0.301 1.2 0.252 1.35-0.148-0.45-2.999-0.75-5.597-0.75-7.244-0.6 0.099-2.15-0.252-3.09-0.452-0.86-0.199-3.5-0.748-6.35-0.748v-0.002zm37.47 0c-10.29 0-17.79 7.646-17.79 17.639 0 8.995 6.7 16.942 17.79 16.942 9.65 0 17.34-7.348 17.34-17.442 0-8.794-5.79-17.139-17.34-17.139zm-192.13 0.651c-0.3 0.149-0.4 1.049-0.099 1.25l1.298 0.099c2.6 0.2 2.948 1.049 2.948 6.295v17.991c0 5.246-0.1 5.747-2.899 6.246l-0.847 0.15c-0.301 0.299-0.2 1.099 0.099 1.248 1.95-0.049 3.648-0.148 5.797-0.148 1.949 0 3.647 0.048 6.346 0.148 0.3-0.149 0.399-1.049 0.099-1.248l-1.449-0.15c-2.798-0.3-3.049-1-3.049-6.246v-7.047c0-1.498 0.102-1.598 2.5-1.598h14.291c2.399 0 2.498 0.1 2.498 1.598v7.047c0 5.246 0 5.747-3.048 6.246l-0.95 0.15c-0.299 0.299-0.199 1.099 0.1 1.248 2.199-0.1 3.999-0.148 6.047-0.148 1.949 0 3.648 0.048 6.047 0.148 0.299-0.149 0.4-1.049 0.101-1.248l-1.201-0.15c-2.898-0.35-2.998-1-2.998-6.246v-17.991c0-5.246 0.1-5.996 2.998-6.295l1.049-0.099c0.3-0.201 0.2-1.101-0.1-1.25-2.248 0.099-3.947 0.148-5.896 0.148-2.048 0-3.748-0.048-6.047-0.148-0.299 0.149-0.399 1.049-0.1 1.25l0.95 0.099c2.948 0.299 3.048 1.049 3.048 6.295v5.746c0 1.551-0.099 1.6-2.498 1.6h-14.291c-2.398 0-2.5-0.05-2.5-1.6v-5.746c0-5.246 0.102-5.996 3-6.295l0.948-0.099c0.299-0.201 0.2-1.101-0.1-1.25-2.149 0.099-3.846 0.148-5.795 0.148-2.149 0-3.848-0.098-6.297-0.148zm43.922 0c-0.3 0.149-0.399 1.049-0.1 1.25l1.25 0.099c2.948 0.249 3.047 1.098 3.047 6.395v17.791c0 5.297-0.099 5.996-3.047 6.346l-1.25 0.15c-0.299 0.299-0.2 1.099 0.1 1.248 2.498-0.1 4.198-0.148 6.297-0.148 1.999 0 3.698 0.048 6.197 0.148 0.299-0.149 0.4-1.049 0.1-1.248l-1.25-0.15c-2.949-0.35-3.047-1.049-3.047-6.346v-17.791c0-5.297 0.098-6.146 3.047-6.395l1.25-0.099c0.3-0.201 0.2-1.101-0.1-1.25-2.499 0.099-4.198 0.148-6.197 0.148-2.099 0-3.799-0.048-6.297-0.148zm147.36 0.898c9.55 0 13.2 8.895 13.2 17.141 0 9.843-5.7 14.342-11.7 14.342-9.84 0-13.44-9.595-13.44-16.991 0-10.943 6.75-14.492 11.94-14.492zm-76.95 4.547h0.1c0.3 0.599 0.75 1.95 1.15 3.149l2.7 8.144c0.45 1.35 0.35 1.551-1.1 1.551h-6.15c-1.39 0-1.45-0.051-1.05-1.199l3.15-8.696c0.55-1.498 1.05-2.699 1.2-2.949z" transform="matrix(0.8 0 0 -0.8 343.66 398.28)" fill="#800000"/></g></svg>