<?xml version="1.0" encoding="UTF-8"?>
<!-- Generator: Adobe Illustrator 22.0.1, SVG Export Plug-In . SVG Version: 6.00 Build 0)  -->
<svg version="1.1" xmlns="http://www.w3.org/2000/svg" xmlns:xlink="http://www.w3.org/1999/xlink" x="0px" y="0px" viewBox="0 0 595.3 841.9" style="enable-background:new 0 0 595.3 841.9;" xml:space="preserve">
<style type="text/css">
	.st0{fill:#02426A;}
	.st1{fill-rule:evenodd;clip-rule:evenodd;fill:#02426A;}
</style>
<g id="Calque_1">
	<g>
		<path class="st0" d="M335.3,246c-13.2,15.6-30.2,35.7-45.4,54.5c-59.1-73-114-131.6-150.4-158.8c19,43.6,65.7,110.7,127,188.7    c-31.8,41.2-95,123.1-127.1,192.7c43.8-34.6,102.7-102.9,150.5-163.3c58.9,73.2,115,135.8,151.2,162.9    c-18.9-43.3-66.9-115-127.8-192.8c23.9-30.7,32.6-41.6,56.1-74.7c25.5-36,66.8-87.5,88.9-76.7C425.2,159.7,378.1,195.6,335.3,246"/>
		<path class="st0" d="M217.1,309.5c-0.7-0.5-1.5-0.7-2.6-0.7c-1.3,0-2.8,0.4-4.4,1.3c-1.6,0.9-3.3,2.2-5,3.8    c-1.7,1.6-3.5,3.5-5.3,5.7c-1.8,2.2-3.5,4.6-5.2,7.2c-1.6,2.6-3.2,5.3-4.7,8.1c-1.5,2.9-2.7,5.7-3.8,8.7c-1.1,2.9-1.9,5.8-2.6,8.7    c-0.4,2.1-0.7,4.1-0.9,6c-1.7,1.6-3.2,2.9-4.5,4.1c-1.8,1.5-3.3,2.8-4.6,3.8c-1.4,1-2.2,1.6-3.3,2.2l0.6,2.4    c1.1-0.5,2.6-1.6,4-2.7c1.3-1,2.8-2.3,4.6-3.9c0.9-0.8,1.9-1.7,3.1-2.7c0.1,1.7,0.3,3.2,0.7,4.5c0.5,1.5,1.2,2.8,2,3.7    c0.8,1,1.8,1.7,2.9,2.1c1.1,0.5,2.2,0.7,3.4,0.7c1.4,0,2.8-0.4,4.2-1.1c1.4-0.7,2.7-1.6,3.9-2.8c1-0.9,2-2,2.9-3.1l-1.5-1.6    c-0.2,0.2-0.4,0.5-0.6,0.7c-0.9,1-1.9,2-2.9,2.8c-1,0.8-2,1.5-3,2c-1,0.5-2,0.8-3,0.8c-1.5,0-2.6-0.6-3.5-1.8    c-0.8-1.2-1.3-3.1-1.4-5.6c0-0.8,0-1.8,0-2.7c0-1,0.2-1.9,0.4-2.9c0.8-0.7,1.5-1.6,2.3-2.4c0.3-0.3,0.6-0.6,0.9-0.9    c0.6-0.6,1.3-1.2,2-2c0.8-0.8,1.7-1.8,2.8-3c1.1-1.2,2.4-2.7,4-4.5c1.5-1.8,3.3-4,5.4-6.6c1-1.3,2.1-2.7,3.2-4.2    c1.1-1.5,2.1-3.1,3.1-4.7c1-1.6,1.9-3.2,2.7-4.8c0.8-1.6,1.6-3.2,2.2-4.6c0.6-1.5,1.1-2.8,1.5-4.1c0.4-1.3,0.5-2.3,0.5-3.2    C218.2,310.9,217.8,310,217.1,309.5 M214.8,317.1c-0.7,1.8-1.6,3.7-2.8,5.9c-1.2,2.2-2.6,4.5-4.3,6.9c-1.7,2.4-3.5,4.9-5.6,7.5    c-2,2.6-4.2,5.2-6.5,7.8c-2.3,2.6-4.7,5.2-7.2,7.8l0,0l0,0c0.6-3.2,1.6-6.4,2.8-9.7c1.3-3.3,2.7-6.5,4.4-9.6    c1.6-3.1,3.4-6,5.2-8.8c1.8-2.7,3.6-5.1,5.4-7.2c1.7-2.1,3.3-3.7,4.8-4.9c1.5-1.2,2.7-1.8,3.6-1.8c0.3,0,0.7,0.1,0.9,0.5    c0.2,0.4,0.3,0.8,0.3,1C215.8,313.8,215.5,315.4,214.8,317.1 M233.7,317c0.1,1-0.2,2.1-0.7,3.1c-0.5,0.9-1.3,1.8-2.1,2.7    c-0.8,0.8-1.8,1.6-2.9,2.3c-1.1,0.7-2.1,1.2-3.2,1.7l-0.9-1.5c1.2-0.6,2.4-1.4,3.5-2.2c1.1-0.9,1.9-1.7,2.3-2.5    c-1-0.2-1.7-0.6-2.1-1.3c-0.4-0.6-0.7-1.3-0.7-2c0-1,0.3-1.8,1-2.4c0.7-0.6,1.5-1,2.4-1c1,0,1.8,0.3,2.4,1    C233.4,315.4,233.6,316.1,233.7,317"/>
		<path class="st0" d="M242.9,497.4h12.4v2.2h-9.9v7.8h9.9v2.2h-9.9v8h9.9v2.2h-12.4V497.4z M252.3,490.5l0.8,1.6l-7.3,3.9l-0.7-1.5    L252.3,490.5z M280.5,513.7c-1.5,3.4-5.4,6.4-10.3,6.4c-6.6,0-11.7-5.1-11.7-11.6c0-6.4,4.9-11.6,11.6-11.6c5.5,0,9,3.7,10.3,6.5    h-2.7c-0.8-1.3-3.3-4.3-7.6-4.3c-5.2,0-9.2,4.1-9.2,9.3c0,5.3,4,9.4,9.2,9.4c4.7,0,7.1-3.4,7.6-4.2H280.5z M282.8,508.6    c0-6.9,5.4-11.6,11.7-11.6c6.6,0,11.7,5,11.7,11.6c0,6.6-5.1,11.6-11.7,11.6C287.9,520.1,282.8,515,282.8,508.6L282.8,508.6z     M285.3,508.5c0,5.3,4,9.4,9.2,9.4c5.3,0,9.2-4.3,9.2-9.4c0-5.1-3.9-9.4-9.2-9.4C289.2,499.2,285.3,503.3,285.3,508.5L285.3,508.5    z M310.4,497.4h2.5v20.2h9.6v2.2h-12.1V497.4z M325.6,497.4H338v2.2h-9.9v7.8h9.9v2.2h-9.9v8h9.9v2.2h-12.4V497.4z"/>
		<path class="st0" d="M166.8,528.2c3.8,0,5.3,0.5,6.6,1.5c1.6,1.3,2.5,3.5,2.5,5.7c0,2.2-0.9,4.5-2.4,5.7c-1.5,1.2-3,1.8-6.3,1.8    h-2.8v7.7H160v-22.4H166.8z M164.5,539h2.7c1,0,2-0.1,2.9-0.6c0.8-0.4,1.5-1.4,1.5-2.8c0-1.4-0.7-2.4-1.5-2.8    c-0.9-0.5-1.9-0.6-3.1-0.6h-2.5V539z M178.3,539.6c0-7.2,5.5-11.8,11.7-11.8c6.8,0,11.8,5.3,11.8,11.6c0,6.3-5,11.6-11.8,11.6    C183.1,551,178.3,545.6,178.3,539.6L178.3,539.6z M182.8,539.4c0,4.1,2.9,7.6,7.3,7.6c4.5,0,7.2-3.9,7.2-7.6    c0-3.8-2.7-7.7-7.2-7.7C185.6,531.8,182.8,535.5,182.8,539.4L182.8,539.4z M206,528.2h4.5v18.4h7.3v4H206V528.2z M225.3,542.6    l-6.9-14.4h4.9l4.2,10.2l4.3-10.2h4.8l-6.8,14.4v8h-4.5V542.6z M244,532.2h-4.8v-4h14.1v4h-4.8v18.4H244V532.2z M258.1,528.2h12.5    v4h-8v5.1h7.9v4h-7.9v5.4h8v4h-12.5V528.2z M296.8,543.1c-1.4,4.6-5.7,7.9-10.9,7.9c-6.8,0-11.7-5.4-11.7-11.6    c0-6,4.6-11.6,11.7-11.6c6.4,0,10.1,4.8,11,8h-4.7c-0.7-1.5-2.7-4.1-6.3-4.1c-4.3,0-7.2,3.7-7.2,7.6c0,4.1,2.9,7.7,7.2,7.7    c4,0,5.8-3.1,6.2-4H296.8z M300.5,550.6v-22.4h4.5v9h8.6v-9h4.5v22.4h-4.5v-9.4H305v9.4H300.5z M338.8,543.8l-0.1-15.5h4.3v22.4    h-4l-10.3-15.5l0.1,15.5h-4.3v-22.4h4L338.8,543.8z M349.4,528.2h4.5v22.4h-4.5V528.2z M391.3,528.2V542c0,1.1,0,2.3,0.6,3.4    c0.5,1,1.5,1.7,3,1.7c1.5,0,2.5-0.7,3-1.6c0.6-1.1,0.6-2.3,0.6-3.5v-13.8h4.5V542c0,3.3-0.6,5.3-2.4,6.9c-1.4,1.3-3.3,2.1-5.7,2.1    c-1.6,0-4.2-0.4-5.8-2.1c-2.1-2-2.4-3.9-2.4-6.9v-13.8H391.3z M408.3,528.2h12.5v4h-8v5.1h7.9v4h-7.9v5.4h8v4h-12.5V528.2z     M381.7,547.2c-0.3,0-1.4-0.1-2.2-0.7c1.5-2,2.4-4.5,2.4-7.2c0-6.3-5-11.6-11.8-11.6c-6.2,0-11.7,4.6-11.7,11.8v0    c0,4.2,2.4,8.1,6.2,10.1c0,0,0,0,0,0c0.2,0.1,0.5,0.2,0.8,0.4c1.5,0.7,3.1,1,4.8,1c2,0,3.9-0.5,5.6-1.4c0.2-0.1,0.5-0.3,0.7-0.4    c1,0.7,2.7,1.8,5.3,1.8h0.6v-3.9H381.7z M363,539.4L363,539.4c0-4,2.8-7.6,7.3-7.6c4.6,0,7.2,3.9,7.2,7.7c0,1.4-0.4,2.9-1.2,4.2    l-2.4-2.4l-2.7,2.8l2.3,2.3c-0.9,0.5-2,0.8-3.2,0.8C365.9,547.1,363,543.5,363,539.4"/>
		<path class="st1" d="M307.3,176.5c0.1-0.1,2.2-2.4,2.4-2.7c0.3-0.3,1.6-1.7,1.8-1.5c0.1,0.3-0.4,0.8-0.4,1    c-0.1,0.2-1.2,2.2-1.6,2.5c-0.4,0.3-1,0.7-1.2,0.8c0,0.1,0.2,0.1,0.2,0.2c0,0.3-0.5,0.4-0.7,0.5c0,0-0.6,0-0.6,0    C307.3,176.9,307.3,176.5,307.3,176.5 M305.1,185.3c0.1-0.2,0.2-0.4,0.4-0.6c0.1-0.2,0.2-0.5,0.4-0.6c0.1-0.1,4.1-2.3,4.9-2.8    c0.1-0.1,0.3-0.2,0.4-0.4c-0.1,0-2.6,1.1-2.8,1.2c-0.3,0.2-2.2,1-2.3,0.5c-0.1-0.3,0.5-1.1,0.7-1.2c0.2-0.1,3.3-0.8,5.6-1.9    c0.2-0.1,0.4-0.3,0.6-0.1C313,180.4,309.7,183.6,305.1,185.3 M300.4,186.2c-0.4,0.1-1.1-0.2-1.2-0.5c0-0.2,4.1-1.8,4.6-2.4    c-0.3,0.1-3.8,1.2-3.9,1c0-0.4,0-0.6,0.2-0.7c1.7-0.2,5.2-1.8,5.4-1.6C305.7,182.3,302.1,185.9,300.4,186.2 M304.7,170.4    c-0.1,0.6-0.3,1.1-0.7,1.3c-0.2-0.1-0.4,0-0.5,0c-0.1,0-0.6,0-0.8,0c-0.1,0-0.5-0.1-0.6,0c-0.2,0-0.4,0-0.5-0.2c0-0.1,0-0.2,0-0.3    c0-0.4,0.1-1,0.2-1.2C301.9,169.6,304.4,170.3,304.7,170.4 M304.9,179.1c0,0.1,0.2,0.3,0.1,0.4c-0.3-0.2-0.3-0.7-0.5-1.1    c0-0.1,0.1-0.1,0.1-0.1C304.8,178.5,304.8,178.9,304.9,179.1 M303.9,173.9c-0.3,0-2.4-0.3-2.4-0.3s-0.3-1.9,0.6-1.7    c0.1,0,2,0,2.2,0.3C304.2,172.5,304.1,173.7,303.9,173.9 M304,174.4c-0.1,0.2,0,1.2-0.1,1.3c-0.1,0.1-1.7,0-1.9,0    c-0.7,0.2-0.5-0.9-0.6-1.5C301.5,174.1,303.8,174.1,304,174.4 M302.3,177.8c-0.9,0.2-0.6-1-0.8-1.6c0,0,2-0.2,2.2,0    c0.2,0.1,0.5,1.9,0,1.8C303.4,177.9,302.3,177.8,302.3,177.8 M303.7,178.3c0.6,0,0.4,0.9,0.6,1.2c-0.2-0.1-1.8,0-1.8,0    c-0.1,0-0.3,0-0.4,0c0-0.2-0.1-0.4-0.2-0.6c-0.1-0.2-0.1-0.5,0.3-0.6C302.6,178.1,303.1,178.3,303.7,178.3 M300.2,179.8    c0.3,0.1,0.6,0,0.6,0.3c-0.1,0.2-0.4,0.1-0.7,0.1c-0.2,0-0.4,0-0.6,0c-0.2,0-0.9,0-0.9-0.2c0-0.1,0.3-0.4,0.4-0.4    C299.4,179.6,299.8,179.7,300.2,179.8 M300.2,180.6c0.3,0,0.5,0,0.5,0.2c0,0.3-0.9,0.2-1.1,0.2c-0.2,0-2.2,0.1-2.2-0.2    c0-0.1,0.5-0.6,0.6-0.6C298.7,180.3,299.6,180.6,300.2,180.6 M310.9,175.4c0-0.1,0-0.2,0.1-0.3c0.1-0.3,0.3-0.6,0.4-0.9    c0-0.1,0.3-1,0.5-1.3c0.4-0.2,3.2-2.7,3.3-3.1c-0.1,0.1-2.4,2.1-2.9,2c-0.1-0.3,1.1-2.2,1.4-2.5c0.2-0.2,0.4-0.4,0.7-0.4    c0.1,0.1,0,0.3-0.1,0.5c0.8-0.3,0.8-1.8,1.5-1.8c0.2,0,0.2,0.4,0.2,0.4c0.3-0.3,0.3-0.9,0.6-1.2c0.1-0.2,0.5-0.3,0.7-0.2    c0.1,0.1-0.3,0.8-0.4,1.3c-0.3,0.8-0.5,1.7-0.9,2.5C315.9,170.8,311.3,175.3,310.9,175.4 M307.2,178.1L307.2,178.1    c0,0,0.9-0.3,1.1-0.4c0.2-0.1,0.3-0.5,0.6-0.5c0.1,0.3-1.6,2.9-2.3,3.4c-1.3,1-5,2.3-5.1,2.4c-0.5,0.1-0.8,0.1-0.8-0.4    c0-0.2,0-0.3,0.1-0.4c0.1,0,3.3-1.1,3.9-1.6c0,0-3.2,0.6-3.4,0.6c-0.1-0.4,0.1-0.9,0.5-1c0.1,0,1.9,0,2.5,0c0,0,2,0.1,2.4-0.4    C307.2,179.3,307.2,178.4,307.2,178.1 M305.4,179.6c0-0.3,0.3-0.6,0.4-0.8c0.2-0.3,0.4-0.5,0.6-0.8c0.1,0,0.1,0,0.2,0    c-0.1,0.5-0.6,0.8-0.8,1.2C305.7,179.4,305.6,179.6,305.4,179.6 M306.3,172.6c-0.1,0.4-0.9,1.4-1.1,1.6c0,0.2-0.1,0.5,0.1,0.5    c0.2,0,0.2-0.2,0.3-0.3c0.1-0.1,0.6-1,0.8-1c0.3,0.1-1,1.7-1.1,2c-0.1,0.1,0,0.6,0.1,0.6c0.1,0,1-1.4,1.2-1.3c0,0,0,0,0,0    c0,0.3-1.2,1.9-1.3,2c0,0.2,0.1,0.6,0.2,0.6c0.1,0,0.8-1.2,1-1.3c0.2,0.2,0,0.4-0.1,0.5c-0.2,0.3-1,1.4-0.9,1.8    c-0.2,0-0.2-0.1-0.3-0.1c0-0.2-0.2-1.1-0.2-1.3c0-0.1-0.2-2.2-0.2-2.4c0-0.2,0-0.6,0-1c0.1-0.1,0.9-0.9,1.1-1    C306.1,172.5,306.2,172.6,306.3,172.6 M306,171.8c-0.1,0.3-1.1,1.5-1.2,1.5c0-0.3,0.2-0.8,0.2-0.9c0-0.1,0.6-0.7,0.8-0.9    C306,171.5,306.1,171.7,306,171.8 M305.5,170.8c0.3,0.1-0.1,0.6-0.3,0.8c-0.1,0.1-0.3,0.3-0.4,0.2    C304.9,171.4,305.2,171.1,305.5,170.8 M306.6,159.2c0.2,0,2.5,1.8,3.6,2.6c-0.1,0.1-0.1,0.2-0.1,0.3c-0.2,0-0.4-0.2-0.6-0.3    c-1-0.7-3.1-2.2-3.1-2.4C306.3,159.3,306.5,159.2,306.6,159.2 M309.6,162.5c0.8,0.5,0.6,1.2,0.4,1.2c-0.2,0-0.3-0.3-0.5-0.4    c-0.3-0.2-0.5-0.3-0.7-0.5c0.4,0.5,0.6,0.9,1.2,1.2c-0.1,0.4-1.4,1.7-1.6,1.8c-0.2,0.1-0.3,0.2-0.5,0.2c-0.2,0-3.4-2.3-3.6-2.4    c-0.1-0.1-0.5-0.3-0.5-0.4c-0.1-0.1,0.5-1.5,0.7-1.8c0.1-0.3,1-1.6,1.2-1.7c0.3,0,0.8,0.4,0.9,0.5    C306.7,160.3,309.6,162.5,309.6,162.5 M302.7,163.6c0-0.2,0.3-0.2,0.5-0.2c0.3,0.1,0.9,0.5,1.2,0.8c0.7,0.5,2.5,1.8,2.9,2    c0.2,0.2,0.6,0.4,0.3,0.7c-0.4-0.4-1.2-0.8-1.4-0.9c0.1,0.2,0.3,0.4,0.6,0.6c0.2,0.2,0.5,0.3,0.6,0.5c-0.3,0.1-0.5-0.2-0.7-0.3    c-1.2-0.9-1.9-1.4-3.1-2.2C303.3,164.4,302.5,164.1,302.7,163.6 M306.8,167.4c-0.1,0.2-0.2,0.3-0.3,0.5c-0.1-0.2-0.5-0.6-0.7-0.7    c-0.1-0.1-0.4-0.3-0.5-0.1c0,0.2,0.2,0.4,0.3,0.5c0.2,0.2,0.4,0.3,0.7,0.4c-0.4,0.7-0.8,1.3-1.3,2.1c-0.2-0.1-4.5-1.5-4.6-1.6    c-0.1-0.1,0-0.4,0.1-0.5c0.1-0.1,0.8-1.3,1-1.6c0.2-0.3,1.1-1.8,1.2-1.8c0.2,0,0.3,0.1,0.5,0.2C304,165.4,306.4,167,306.8,167.4     M291.8,171.3c0.3,0,1.4-0.2,1.6,0c0,0.2-0.3,0.2-0.5,0.2c-0.2,0-1,0-1.1-0.1V171.3z M286.9,171.4c0.3,0,1.4-0.2,1.6,0    c0,0.2-0.3,0.2-0.5,0.2s-1,0-1.1-0.1V171.4z M292.2,172.3c0.1,0,0.9-0.2,1,0.1c-0.1,0.2-0.7,0.1-0.9,0.1c-0.1,0-0.5,0.1-0.6-0.1    C291.8,172.2,292.1,172.3,292.2,172.3 M292.6,173.2v0.1c-0.2,0-0.6,0.1-0.8,0C291.8,173.2,292.4,173.2,292.6,173.2 M297,166.3    c-0.4-0.1-1.8-0.8-2.6-1.5c-0.5-0.4-0.9-0.9-1.3-1.4c-0.3-0.5-1.1-1.4-1.1-1.6c0-0.2,0.1-0.3,0.2-0.2c0.3,0.1,0.4,0.5,0.6,0.8    c0.9,1.3,2,2.5,3.4,3.2c0.4,0.2,0.9,0.4,1.4,0.6c0.1,0,0.4,0.1,0.4,0.3C297.8,166.5,297.4,166.3,297,166.3 M295.6,164.6    c0.6-0.1,1.4,0.1,1.9,0.2c0.1,0.1,0.1,0.3,0.2,0.4c-0.3,0.1-0.7,0.1-1,0.1c-0.3,0-0.5-0.2-0.7-0.3    C295.8,164.9,295.6,164.8,295.6,164.6 M294.4,160.1c-0.7,0-1.3-0.1-1.4,0c-0.2-0.1-0.2-0.4-0.3-0.6c0-0.2-0.3-1.4-1.8-1.3    c-0.8,0.1-1.5,0.5-1.9,1.1c-0.2,0-1.7-0.1-3.2-0.6c-1.3-0.4-2.4-1.2-2.9-1.5c-0.9-0.8-0.7-0.5-0.7-0.9c0-0.3,2.1-4.9,6.9-4.9    c1.1,0,2.4,0.3,2.8,0.5c-0.1,0.2-1.4,0.1-1.6,0.1v0.2c0.3,0.1,2.4,0.1,2.9,0.3c0.2,0.1,0.4,0.2,0.4,0.4c-0.1,0.1-1.2,0-1.6,0    c-0.1,0-0.3-0.1-0.2,0.1c0.9,0.3,2.7,0,2.8,0.7c0.1,0.3-0.5,0.1-0.7,0.1c-0.1,0,0,0.1-0.1,0.2c0.6,0.2,1.6,0.1,1.5,0.6    c0,0.3-0.9-0.1-1,0.2c0,0.3,0.8,0.2,1.3,0.3c0.1,0,0.4,0.3,0.4,0.5c-0.1,0.2-1.2,0-1.5,0c0,0,0.1,0.2,0.1,0.2s1.9,0.1,2,0.7    c-0.3,0.2-2,0-2.5,0c0,0.1,0,0.1,0,0.2c0.6,0.1,1.4,0.1,2,0.2c0.1,0,0.5,0.1,0.6,0.1c0.1,0,0.3,0.3,0.2,0.5c-0.1,0.1-1.2,0-1.7,0    c0,0.1-0.1,0.2-0.1,0.2c0.1,0,1.9,0.2,2,0.4c0.1,0.1,0.1,0.3,0,0.4c-0.1,0.1-1.6-0.1-2-0.1c-0.1,0-0.4-0.1-0.3,0.1    c0.3,0.1,2.2,0.3,2.4,0.4c0.2,0.1,0.3,0.5,0,0.6c-0.6,0-1.1-0.2-1.7-0.2c0,0.1-0.1,0.2-0.1,0.2c0.3,0.2,1.5,0.1,1.8,0.3    c0.1,0.1,0.2,0.3,0,0.4c-0.4,0-1.1,0-2-0.1v0.2c0.7,0.1,2.1,0.1,2.1,0.4c0,0.2-0.2,0.3-0.4,0.3c-0.6,0-2.2-0.1-2.2-0.1    s0,0.1,0,0.2c0.3,0,2.3,0.1,2.4,0.3c0,0.1,0,0.3-0.1,0.5c-0.5,0-1,0-1.5-0.1c0,0,0,0.2,0,0.2c0.6,0,1.1,0,1.6,0.1v0.6    c-0.4,0-0.9,0-1.3-0.1c0,0.1-0.1,0.2-0.1,0.2s1,0.1,1.4,0.1c0,0.2,0,0.4,0,0.6c-0.7,0-1.3-0.1-2-0.1v0.2c0.6,0.1,1.3,0.2,2,0.2    c0.1,0.1,0.1,0.3,0.1,0.4c-0.3,0.1-2,0.1-2.4-0.1c-0.1-0.1-1.2-1.1-1.3-1.4c0-0.1,0.2-0.1,0.3-0.1v-0.1c-0.2-0.1-0.4,0-0.6-0.1    c-0.2-0.1-0.4-0.4-0.4-0.5c0.1-0.2,0.5-0.1,0.8-0.2c0-0.2-1-0.1-1.2-0.4c-0.1-0.1-0.2-0.2-0.1-0.3c0.1-0.3,0.9,0,1.2,0    c0-0.1,0-0.1,0-0.2c-0.3-0.1-0.9,0.1-1.1-0.2c0-0.2,0-0.5,0.2-0.6c0.2,0,0.7,0,1.4,0.1L294.4,160.1z M281.4,156.7    c0.1-0.2,0.3-0.5,0.4-0.5c0.1,0,0.1,0.1,0.2,0.3c1.1,1.5,2.7,1.9,2.9,2.1c0,0.1-0.2,0-0.3,0.1c-0.1,0.1,0,0.1,0,0.1    c0,0.1,1,0.2,1.3,0.2c0.3,0,1.4,0.4,2.1,0.5v0.1c-0.1,0.1-0.9,0-1.1,0.1v0.2c0.6,0,1.5,0.1,1.8,0c0.1,0,0.2,0.1,0.1,0.1    c-0.1,0.3-1.7,0.9-3.9,0.8c-1.5-0.1-2.4-0.3-3.8-0.5C279.9,159.9,281.3,156.9,281.4,156.7 M280.9,160.6c1.3,0.1,2.8,0.6,4.4,0.5    c1,0,2.1-0.1,3.2-0.1c0.2,0,0.4,0,0.5,0.1c0,0.3-1.2,0.4-1.3,0.4c0,0.1,0.1,0.1,0,0.2c0.5-0.1,1-0.1,1.5-0.2    c-0.2,0.1-0.4,0.4-0.7,0.6c-0.3,0.2-1.1,0.6-1.9,1c-1,0.5-4,1-4.9,1c-1,0.1-1.7,0.1-2.6,0C279.2,164.2,280.4,161.4,280.9,160.6     M281,165.1c-0.6,0-1.2,0-1.9-0.2c0-0.4,0.4-0.3,0.6-0.2c2.5,0.2,4.8-0.2,7-0.9c1-0.3,2.1-1.1,3-1.6c0,0,0.1-0.1,0.2,0    c0.1,0.3-1.1,1-1.6,1.3C286.8,164.3,283.3,165.1,281,165.1 M287.7,172.4c0.2,0,0.7-0.2,0.8,0c0,0.2-0.5,0.2-0.8,0.1V172.4z     M274.7,183.7c-0.3-0.3-1.1-1.2-1-1.4c0.1-0.2,0.4,0,0.7,0.1c0.3,0.1,0.9,0.6,1.8,0.9c0.8,0.4,2.7,0.4,2.9,0.5    c0.2,0.1,0.2,0.3,0.2,0.7c-0.1,0.1-0.4,0.2-0.8,0.2c-0.4-0.1-3-1.1-3-1.2c0.5,0.6,1.3,1,1.9,1.3c0.6,0.3,1.8,0.7,2.2,0.7    c0.4,0,0.7,0.2,0.5,0.5c-0.1,0.1-0.5,0.4-0.8,0.3C277,186,274.6,183.8,274.7,183.7 M266.3,179.9c0.2-0.2,0.5,0,0.7,0.1    c0.2,0.1,0.9,0.4,1,0.4c0.1,0,4.7,1.7,5,2.1c0.1,0.2,0.5,0.7,0.1,0.8c-0.5,0.1-4.8-1.9-4.9-1.9c0.2,0.4,0.7,0.5,1.2,0.8    c0.6,0.3,4,2.3,4.1,2.3c0.1,0.1,0.2,0.4,0.4,0.6c0.1,0.2,0.3,0.4,0.4,0.6C272.8,185.6,266.3,181.3,266.3,179.9 M271.8,177    c0.1,0.6-0.8,0.1-1.1-0.2c-0.3-0.3-0.6-0.4-1-0.9c-0.4-0.5-1.5-2.2-1.6-2.5c-0.1-0.1-0.4-0.7-0.4-0.9c0.1-0.6,1.5,1,1.8,1.5    c0.4,0.5,1.3,1.3,1.7,1.9C271.6,176.5,271.8,176.9,271.8,177 M272.1,179.9c-0.2,0-1-0.8-1.2-1.3c-0.2-0.3-0.6-0.8-0.5-1    c0,0,0,0,0,0c0.4-0.1,1.3,0.9,1.3,0.9c0.2,0.1,0.2,0.4,0.1,0.7C271.9,179.4,272.3,179.6,272.1,179.9 M277.4,170    c0.5,0.1,0.4,1.4,0.3,1.7c0,0.3-2.3,0.5-2.5,0.4c-0.3-0.2-0.5-1-0.4-1.4C275,170.3,277,169.9,277.4,170 M277.8,173.6    c0,0.4-2.4,0.5-2.5,0.1c-0.1-0.4-0.1-1,0-1.2c0.1-0.2,2.4-0.3,2.5,0C278,172.7,277.8,173.2,277.8,173.6 M279.2,169.3    c0.4-0.1,0.7,1.4,0.7,1.4c1,3.6,0,7.7-0.2,7.7c-0.3,0.1-0.8,0-1-0.1c-0.2-0.1,1.6-3.8,0.4-8.1C279,170,278.8,169.4,279.2,169.3     M300.1,170.3c-1.2,4.2,0.6,8,0.4,8.1c-0.2,0.1-0.7,0.1-1,0.1c-0.2,0-1.2-4.1-0.2-7.7c0,0,0.3-1.5,0.7-1.4    C300.4,169.4,300.1,170,300.1,170.3 M279.5,178.7c0.1,0,0,0.1,0,0.2c0.1,0.2,0.4,0.3,0.5,0.5c-0.5,0-1.1,0-1.6,0.1    c0,0,0-0.6,0.2-0.7C278.9,178.7,279.3,178.7,279.5,178.7 M300.5,178.7c0.2,0.1,0.2,0.6,0.2,0.7c-0.5-0.1-1.1,0-1.6-0.1    c0.1-0.2,0.4-0.3,0.5-0.5c0-0.1-0.1-0.2,0-0.2C299.8,178.7,300.2,178.7,300.5,178.7 M277.3,175.9c-0.4,0.1-2,0.2-2.1-0.1    c-0.1-0.3-0.1-1.4,0.4-1.5c0.5-0.1,1.8-0.2,2.1,0.1C277.9,174.8,277.7,175.7,277.3,175.9 M275.4,176.3c0.5,0,2.1-0.1,2.1,0.3    c0.1,0.3-0.2,1.3-0.7,1.4c-0.5,0.1-1.2,0.1-1.8,0C274.5,177.9,274.9,176.3,275.4,176.3 M274.2,179.8c0-0.3,0.5-1.3,0.8-1.5    c0.3-0.2,1.3-0.1,1.7,0c0.5,0.2-0.2,1.5-0.5,1.6C275.8,180,274.2,180.1,274.2,179.8 M277.6,180.5c0.3,0.1,0.5,0.9,0.3,0.9    c-0.2,0.1-3.4-0.6-3.4-0.6c0.4,0.4,1,0.6,1.6,0.8c0.6,0.2,2.2,0.8,2.3,0.8c0.1,0.1,0.1,0.2,0.1,0.4c0,0.4-0.2,0.5-0.7,0.4    c-0.4-0.1-2.1-0.5-2.8-0.8c-0.7-0.3-2.3-1.4-2.2-1.7C273,180.2,277.4,180.4,277.6,180.5 M278.6,171.9c-0.5,0-0.5-0.5-0.4-0.7    c0.1-0.2,0.8-0.1,0.8,0c0,0.1,0,0.3,0,0.4C279,171.9,278.6,171.9,278.6,171.9 M278.3,171c-0.3-0.1-0.3-0.9,0.4-0.7    c0.2,0,0.3,0.4,0.2,0.5C278.7,170.9,278.4,171,278.3,171 M278,169.9c0-0.3,0.7-0.4,0.7-0.1C278.7,170,278.1,170.1,278,169.9     M300.2,171.7c0-0.1,0-0.3,0-0.4c0-0.1,0.7-0.2,0.8,0c0.1,0.2,0,0.7-0.4,0.7C300.6,171.9,300.2,171.9,300.2,171.7 M300.3,170.8    c-0.1-0.1,0-0.5,0.2-0.5c0.7-0.2,0.7,0.6,0.4,0.7C300.8,171,300.5,170.9,300.3,170.8 M300.5,169.8c0-0.3,0.7-0.2,0.7,0.1    C301.1,170.1,300.5,170,300.5,169.8 M268.9,162c1.3-1,2.4-1.8,3.7-2.8c0,0,0.2,0.4,0.1,0.5c-0.2,0.2-0.7,0.5-0.7,0.5    s-1.7,1.4-2.8,2.1C269,162.2,269,162,268.9,162 M271.4,165.9c0-0.1,0.3-0.3,0.4-0.4c0.5-0.4,0.9-0.8,1.3-1.2    c-0.3,0.1-0.6,0.3-0.9,0.5c-0.4,0.3-0.8,0.5-1.1,0.9c-0.2,0-0.4-0.2-0.4-0.3c0-0.1,0.2-0.3,0.4-0.4c0.2-0.2,0.9-0.9,1.2-1.2    c-0.5,0.2-1.7,1.4-1.9,1.4c-0.1,0-0.3-0.1-0.3-0.3c0-0.4,0.8-0.7,0.8-1c-0.2,0-0.8,0.6-0.9,0.6c-0.1,0-0.2-0.1-0.2-0.3    c0-0.4,0.9-0.8,0.9-1.2c-0.2,0.1-1,0.8-1.2,0.8c-0.3,0-0.4-0.9,0.5-1.4c0.6-0.4,3.4-2.5,3.8-2.6c0.2,0,0.6,0.5,0.7,0.7    c0.1,0.2,0.4,0.6,0.7,1.1c0.2,0.6,0.6,1.2,0.6,1.8c-0.3,0.3-3.8,2.8-3.9,2.8C271.8,166.2,271.4,166.1,271.4,165.9 M272.1,167.3    c0.1-0.1,0.2-0.2,0.3-0.3c0.3-0.2,0.6-0.5,0.9-0.8c-0.4,0.1-1,0.3-1.1,0.6c-0.1,0.1-0.1,0.3-0.2,0.3c-0.1,0-0.2-0.1-0.1-0.3    c0.1-0.3,0.7-0.6,0.9-0.7c0.9-0.7,1-0.8,1.9-1.5c0.6-0.4,1-0.8,1.7-1.1c0.3-0.1,0.5,0.3,0.3,0.5c-0.1,0.3-0.6,0.5-0.8,0.7    c-0.6,0.4-0.9,0.6-1.5,1c-0.6,0.5-0.9,0.8-1.5,1.3C272.6,167.1,272.4,167.4,272.1,167.3 M272.7,167.6c1.2-1,2.5-2,3.8-2.8    c0.2-0.1,1.5,1.9,2,2.7c0.1,0.2,0.4,0.6,0.3,1c-0.1,0.3-4.3,1.7-4.4,1.6C274.2,169.8,273.3,168.4,272.7,167.6 M273.8,170.8    c0.3-0.3,0.8-0.5,0.9-0.1c0.1,0.4,0.2,2.9,0.2,3.4c0,0.5-0.1,1.6-0.1,1.8c0,0.2-0.2,1.2-0.3,1.6c-0.1,0.4-0.4,1.6-0.6,1.9    c-0.1,0.3-0.4,0.8-0.7,0.8c-0.3,0-0.4-0.4-0.5-0.7c-0.1-0.3-0.3-1.4-0.4-2.1c0-0.8,0.2-2.7,0.4-3.4    C272.8,172.8,273.5,171.1,273.8,170.8 M255.3,161.7c0.4,0,11.7,4.7,17,10c0.2,0.2,0.2,0.4,0,0.5c-0.1,0.1-0.3-0.3-0.4-0.4    c-0.4-0.4-0.9-0.9-1.4-1.2c0.1,0.2,1.6,1.8,1.7,1.9c0.1,0.1,0.2,0.7-0.1,0.7c-0.1,0-0.2-0.2-0.3-0.3c-0.4-0.4-0.9-0.9-1.3-1.3    c0.2,0.3,1,1.4,1.2,1.5c0.2,0.3,0.6,0.6,0.2,1c-0.2,0-0.2-0.2-0.3-0.3c-0.2-0.2-0.8-1-1-1c0,0.2,1.7,1.7,1.2,2.5    c-0.2,0-0.3-0.2-0.4-0.4c-0.7-0.9-4.8-5.3-6.5-6.7c-1.7-1.5-9.1-6-9.4-6.2C255.3,161.8,255.2,161.7,255.3,161.7 M276.2,189    c0-0.2,0.1-0.2,0.2-0.3c-0.3-0.1-0.7,0.3-1.2,0.3c-0.4,0-0.9,0-1-0.3c0-0.3,0.5-0.2,0.6-0.4c-0.5-0.1-1,0.2-1.6,0.2    c-0.3,0-0.6-0.2-0.8-0.4c0-0.1,0-0.2,0-0.3c-0.5-0.1-1.5-0.1-1.2-0.8c-0.1-0.2-0.3-0.1-0.5-0.1c-0.2,0-0.4-0.2-0.5-0.3    c-0.1-0.1-1.5-2-1.6-2.2c-0.1-0.2-0.6-0.8-0.2-0.9c0.2-0.1,3.5,1.8,6.7,3.1c0.3,0.1,0.3,0.3,0.3,0.4c0,0.1-0.3,0.3-0.4,0.3    c-0.2,0-0.5,0-0.6-0.1c-0.2-0.1-2.8-1-3.1-1.1c0,0.2,0.6,0.4,0.7,0.5c0.5,0.3,1.2,0.6,1.8,0.8c0.6,0.2,1.1,0.4,1.8,0.5    c0.4,0.1,1.9,0.3,1.9,0.7C277.6,189.2,276.5,189.4,276.2,189 M277.7,187.2c0.2,0.4,2.5,1.2,2.5,1.4c0,0.2-0.4,0.3-0.8,0.4    c-0.4,0.1-1.2-0.4-1.8-0.8c-1.8-1.3-3.2-3.3-3.5-3.8c-0.1-0.2-0.4-0.5-0.1-0.6c0.4,0.3,2.9,3.4,6.4,3.4c0.3,0,0.9,0.7,0.6,0.9    C280.4,188.3,278.1,187.4,277.7,187.2 M287,190.3c-0.2,0-4.2,0-5.9-0.1c0-0.2-0.3-1.5,0-1.6c0.1,0,4.7,0,6.4-0.1l0.5,0v1.9    C288,190.3,287.2,190.3,287,190.3 M279.1,196.5c0.3-0.6,1.1-1.7,1.1-1.7c0.1,0,0.6-0.1,0,0.8c-0.2,0.2-0.3,0.4-0.4,0.6    c-0.3,0.5-0.7,1.2-0.8,1.2C278.6,197.2,278.9,196.7,279.1,196.5 M282.7,196.4c-0.1-0.1-0.1-0.4,0-0.5c0.2-0.2,1.5,0.1,1.6,0.1    c0.1,0,0.1,0.1,0.1,0.2c0,0.4-0.2,0.4-0.4,0.5C283.9,196.6,282.8,196.4,282.7,196.4 M284.6,195.7c-0.1,0.2-0.5,0.1-0.8,0    c-0.5,0-0.8-0.1-0.8-0.2c0,0,0-0.1-0.1-0.1c0.1-0.4,0.9-0.1,1.2,0C284.4,195.4,284.7,195.4,284.6,195.7 M284.6,196.2    c0.1-0.2,0.1-0.5,0.1-0.6c0.1-0.2,0.4-0.1,0.5,0.1c0,0.1-0.1,0.5-0.1,0.7c-0.1,0.5-0.2,0.9-0.3,1.5c-0.1,0.2-0.1,0.6-0.3,0.6    c-0.2,0-0.3-0.1-0.3-0.2c0.1-0.4,0.3-1.4,0.3-1.4C284.6,196.6,284.6,196.4,284.6,196.2 M282,196c-0.2,0.4-0.4,0.9-0.6,1.4    c-0.1,0.2-0.2,0.6-0.4,0.5c-0.3,0-0.1-0.5,0.1-0.9c0.2-0.4,0.4-0.8,0.5-1.3c0.1-0.2,0.2-0.6,0.4-0.6    C282.5,195.1,282.1,195.8,282,196 M280.7,197.5c0,0.1-0.1,0.2-0.2,0.2c-0.2,0-0.9-0.2-0.9-0.4    C279.7,196.9,280.7,197.4,280.7,197.5 M279.9,196.8c-0.1-0.6,0.9-0.3,0.9-0.3c0.1,0,0.2,0,0.2,0.2c0,0.2-0.2,0.4-0.3,0.4    c-0.1,0-0.4-0.1-0.4-0.1C280.1,197.1,279.9,196.8,279.9,196.8 M281.4,195.7c-0.2-0.1-0.7,0-0.6-0.3c0-0.2,0.1-0.2,0.2-0.3    C281.4,194.8,282.1,195.5,281.4,195.7 M281.4,196.1c0,0.2-0.1,0.5-0.3,0.4c-0.2-0.1-0.6-0.1-0.7-0.4c0-0.1,0.1-0.3,0.2-0.3    C280.8,195.7,281.3,195.9,281.4,196.1 M263.8,227.8c-0.1-0.1-1-1.5-1.2-1.8c-0.2-0.3-1.1-2-1.4-2.5c-0.2-0.4-1.8-3.9-2.4-6.4    c-0.5-2.3-0.6-4.4-0.5-5.4c0.4-5.6,0.6-5.4,1-7.5c0-0.1,1.4,1.9,1.9,2.7c1.6,2.5,5.9,6.1,6.2,6.3c0.3,0.2,0.6,0.3,0.4,0.6    c-0.1,0.3-0.9,2.4-0.9,2.7c-0.1,0-0.2-0.1-0.2-0.2c-0.2-0.2-0.4-0.5-0.7-0.8c-1-0.9-2.4-2.8-2.6-3.1c-0.2-0.3-2.1-2.9-2.4-3.4    c-0.3-0.5-0.6-1.1-0.8-1.1c0,0-0.4,0-0.3,2.6c0,2.6,0.3,8.7,5.6,16.1c0,0,0.2,0.3-0.2,0.7c-0.2,0.2-0.5,0.4-0.7,0.6    c0,0-0.1,0-0.2,0C264.2,228.2,264,227.9,263.8,227.8 M289.5,242.4c0,0-0.2-10.8-0.2-10.8c0-0.2-0.3-0.2-0.6-0.2    c0,0-3.8-0.1-4.6-0.2c-0.9-0.1-3.6-0.6-5.3-1.2c-4.9-1.7-8.3-4.4-8.9-4.9c-4-3.6-6.4-7.5-7.6-10.1c-1.2-2.5-1.5-3.3-1.6-3.8    c-0.1-0.2-0.1-0.5-0.4-0.6c-0.2,0.1-0.1,0.4-0.1,0.6c0.1,0.5,0.5,1.6,0.5,1.8c0.5,1.3,1.1,2.6,1.8,3.7c0.2,0.4,0.9,1.5,0.9,1.8    c-0.1-0.1-1.2-1.8-1.6-2.6c-0.3-0.6-1-2.3-1.2-2.4c-0.2,0.6,0.1,1.1,0.3,2c0.2,0.9,1.1,3.5,1.4,4.1c0.3,0.6,1,1.7,1.6,2.4    c0.2,0.3,0.5,0.6,0.6,1c-0.2-0.1-1.8-2.2-2.2-2.7c0.1,0.4,0,0.3,0.3,1.1c1,2.2,3,3.9,3.3,4.1c0.2,0.2,1.3,1.3,1.4,1.4    c0.1,0.1,1.5,1.2,1.5,1.4c-0.5-0.3-1-0.6-1.4-1s-1.8-1.7-2.4-2.4c-0.3-0.2-0.2,0.1-0.2,0.1c1.8,2.3,5,5.4,9.8,7.3    C282.8,235.8,286.8,236.6,289.5,242.4L289.5,242.4z M289.8,222.1c0.7,0,1.6,0,2.3-0.1c0.1-0.1,0-0.1,0-0.2c-0.8,0-1.5,0-2.3,0    v-0.6c0.4,0,2.2,0,2.2-0.3c0-0.2-1.6,0.1-2.2-0.1v-0.5c0.4-0.1,1.9-0.1,1.9-0.3c0-0.2-1.5,0-1.9-0.1v-0.6c0.5-0.1,2.3-0.1,2.3-0.3    c0-0.2-1.6-0.1-2.3-0.1v-0.7c0.6,0,2.3,0.1,2.3-0.1c0-0.2-1.8-0.1-2.3-0.2v-0.7c0.3,0,1.9,0.1,1.9-0.1c0-0.2-1.6-0.2-1.9-0.2    c0-0.1,0-0.4,0-0.6c0.6-0.1,2.3,0,2.3-0.2c0-0.2-1.8-0.1-2.3-0.2v-0.6c0.3-0.1,2-0.1,2-0.3c0-0.2-1.6-0.1-2-0.2v-0.6    c0.7-0.1,2.3,0.1,2.3-0.2c0-0.2-1.7-0.1-2.3-0.2v-0.7c0.3,0,2.1,0,2.1-0.2c0-0.2-1.7-0.2-2.1-0.2v-0.6c0.3,0.1,1.8-0.1,1.8-0.2    c0-0.1-1.5-0.1-1.8-0.2v-0.6c0.8,0,1.7,0,2.3-0.2c0-0.1,0.1-0.2,0.1-0.2c0,0-2.1,0.1-2.4,0v-0.6c1.3,0.1,4.2-0.3,4.3-0.3    c0.2,0,0.9-0.3,1.3-0.1c0.2,0.7-1.8,0.9-2.3,0.9c0.1,0.3,1.7,0.1,2,0.1c0.4,0,0.4,0.2,0.5,0.5c-0.2,0.2-1.9,0.3-1.9,0.5    c0.2,0.2,1.6,0,1.8,0c0.1,0.1,0.2,0.2,0.2,0.5c-0.4,0.5-1.5,0.1-1.9,0.6c0.2,0.1,1.8-0.1,1.9,0.1c0.1,0.1,0.1,0.4,0,0.5    c-0.1,0.2-2,0.3-2,0.5c0,0.1,1.7-0.1,1.9,0c0.1,0.1,0.2,0.2,0.2,0.4c-0.1,0.3-0.8,0.3-1.2,0.4c-0.2,0-0.5,0.1-0.5,0.2    c0,0.2,1.6,0,1.7,0c0.1,0.1,0.2,0.2,0.2,0.4c-0.1,0.4-1.1,0.3-1.4,0.6c0,0.2,0.2,0.1,0.3,0.1c0.4,0,0.7-0.1,1-0.2    c0.2,0.1,0.2,0.3,0.2,0.5c-0.1,0.2-2.1,0.5-2.1,0.6c0,0.2,0.5,0.1,0.6,0c0.5-0.1,1-0.2,1.5-0.2c0.1,0.1,0.2,0.4,0.2,0.5    c0,0.1-1.2,0.4-1.3,0.6c0.1,0.1,0.2,0.1,0.4,0.1c0.6,0,1.3-0.5,1.3,0.4c-0.3,0.2-1.7,0.4-2,0.6c0.1,0.2,0.4,0.1,0.7,0.1    c0.5-0.1,1-0.2,1.5-0.2c0.1,0.1,0.4,0.3,0.3,0.5c-0.1,0.2-2.2,0.4-2.2,0.6c0.1,0.1,0.4,0,0.6,0c0.4,0,1.7-0.3,1.8-0.3    c0.1,0,0.4,0.4,0.3,0.5c-0.1,0.1-0.2,0.1-0.4,0.1c-0.5,0.1-1.1,0.3-1.7,0.4c-0.1,0-0.3,0-0.3,0.1c0.1,0.1,0.3,0.1,0.4,0    c0.4,0,2.4-0.5,2.5,0.1c-0.5,0.3-1.3,0.4-1.9,0.6c-0.1,0-0.3,0-0.3,0.1c0.1,0.2,2.4-0.4,2.6-0.4c0.1,0,0.6,0.3,0.5,0.5    c0,0.1-0.6,0.2-0.7,0.2c-0.8,0.1-1.6,0.3-2.4,0.4c0,0.1,0.1,0.1,0.1,0.2c0.9-0.1,1.9-0.3,2.9-0.4c0.5,0,1-0.2,1.2,0.3    c-0.3,0.2-3.2,0.7-3.4,0.9c0.1,0.2,0.3,0.1,0.4,0.1c0.9-0.1,1.8-0.3,2.6-0.5c0.3-0.1,0.7-0.3,1-0.2c0.1,0,1.2,0.3,0.7,0.5    c-0.4,0.2-3.9,0.9-4,0.9c-0.1,0-0.4,0-0.4,0.2c0.5,0.2,5.2-1.1,5.6-1.1c0.2,0,0.9,0.1,1.4,0c-0.1,0.2-4.5,1.4-5.3,1.5    c0,0.1,0.1,0.2,0.1,0.3c2-0.3,5.3-1.5,5.9-1.7c1.7-0.8,3.6-2,4.5-2.8c4.6-3.9,6.2-6.5,7.6-8.3c1.3-1.8,1.9-2.8,1.9-2.8    c0.1,0.4-0.1,0.7-0.2,1.2c-0.2,0.5-1,2.7-1.2,3.2c-0.2,0.5-0.8,1.5-1,1.9c-0.2,0.5-0.8,1.3-1.1,1.8c-1.1,1.6-4.4,5.9-5.3,6.6    c-0.9,0.7-1.2,1.1-3.3,2.6c-2.1,1.5-8.3,3.8-13.8,4c-1.8,0-2,0.1-2.7,0.1c-0.2,0-0.2-0.5-0.1-0.6c0.7,0,3-0.1,3.1-0.3    c0-0.2-2.4-0.1-3-0.1c-0.1-0.1-0.1-0.6,0-0.6c0.6,0,2.1,0,2.2-0.4c0-0.2-1.5,0-2.2-0.1c-0.2-0.1-0.1-0.5,0.1-0.6    c0.3,0,0.4,0,0.6,0c0.3,0,2.1-0.2,2.1-0.4c0-0.2-2.6,0-2.8-0.1c-0.2-0.1-0.1-0.6,0.1-0.7c0.6-0.1,2.6-0.2,2.6-0.3    c0-0.2-2.4,0-2.6,0c-0.2-0.1-0.2-0.6,0-0.7c0.1,0,2.6,0,2.6-0.3c0-0.3-2.8,0.2-2.8-0.3c0-0.4,2.3-0.3,2.3-0.6c0-0.2-1.4,0-2.1,0    c-0.2-0.1-0.2-0.6,0-0.7c0.8,0,2.3,0,2.3-0.2c0-0.2-1.7-0.2-2.3-0.2c-0.2-0.1-0.1-0.4,0-0.5c0.1-0.2,2.1,0.1,2.2-0.2    c0.1-0.3-1.7-0.2-2.3-0.3V222.1z M289.8,209.6c0.7-0.1,1.7-0.1,2.5-0.2c0.7-0.1,1.5-0.2,2.2-0.3c0.3,0,0.7-0.3,0.9,0    c-0.2,0.4-0.7,0.4-1.2,0.5c-1.3,0.2-3.1,0.3-4.5,0.3 M296,208.8c-0.3-0.3,0.1,6.2,1.3,9.1c1.3,3.1,3.7,5.3,7.1,4.8    c2.2-0.4,5.4-3.2,5.5-3.3c0.1-0.2-0.4,0.1-0.4,0.1c-2.7,0.6-3.3-0.9-3.3-1.4c0-0.3,0.4-0.4,0.4-0.7c0-0.3-0.2-0.6-0.5-0.7    c-0.4-0.1-0.8,0.1-1.1,0.3c-0.9,0.4-1.3,0.4-2,0.6c-0.8,0.2-1.6,0.3-1.9,0.2c-0.3-0.1-0.6-0.6-0.6-0.8c0-0.3,0.1-0.5,0.1-0.7    c0-0.6-0.2-0.8-0.5-1.1c-0.2-0.2-0.3-0.4-0.5-0.6c-0.3-0.1-0.7-0.1-0.9-0.2c-0.1-0.3-0.1-0.8,0-1    C298.8,212.8,296.5,209.3,296,208.8 M306.4,216.1c0.2-0.3,2-1.6,2.3-1.7c0.2-0.1,0.5,0.7,0.6,0.9c-0.3,0.4-1.8,1.5-2.2,1.7    C306.9,216.7,306.6,216.4,306.4,216.1 M319,210.3c0,0,0.2-0.2,0.1,0.2c-0.2,1.5-2,5.1-2.5,6.1c-0.5,1-3.9,5.7-4.1,5.9    c-0.2,0.2-2.6,2.8-3.6,3.6c-1,0.8-2.3,1.7-3.4,2.3c-0.7,0.4-5,2.3-8.1,2.8c-3.9,0.6-7.7,0.4-7.7,0.3c0-0.1,0.4-0.1,0.5-0.1    c1.3-0.1,4.7-0.2,5.4-0.3c0.7-0.1,2.6-0.4,3.4-0.6c0.7-0.2,3.1-1,4-1.3c0.8-0.3,2.5-1.3,3.4-1.8c0.9-0.6,2.3-1.7,3-2.3    c0.7-0.5,4.2-4.6,4.9-5.6c0.7-1,2.8-4.5,3-4.9C317.5,214.2,318.5,211.8,319,210.3 M290.4,241.8c-0.2,0-0.5-0.1-0.6-0.2    c0-0.2,0.6-0.2,0.8-0.2C290.6,241.5,290.5,241.6,290.4,241.8 M290.9,241c-0.2,0-1-0.1-1-0.3c0-0.1,1.1-0.3,1.4-0.3    C291.1,240.6,291,240.8,290.9,241 M291.3,240.1c-0.1,0-1.5,0-1.5-0.4c0-0.3,1.7-0.3,2-0.3C291.6,239.6,291.4,239.8,291.3,240.1     M292.1,239.1c-0.6,0-2.9,0-2.2-0.6c0.8,0,2-0.1,2.8-0.2C292.6,238.5,292.2,239,292.1,239.1 M293.2,238c-0.6,0.3-1.6,0.1-2.4,0.1    c-0.3,0-0.9,0-0.9-0.2c0-0.3,1.5-0.3,1.8-0.4c0.8-0.1,1.7,0,2.3-0.3C293.6,237.5,293.3,237.8,293.2,238 M294.5,236.9    c-0.8,0.2-1.7,0.4-2.7,0.3c-0.1,0-1.9,0-1.9-0.2c0-0.3,3.9-0.5,4.6-0.6c0.3-0.1,0.8-0.2,1.2-0.2    C295.5,236.2,294.8,236.7,294.5,236.9 M296.2,235.8c-0.2,0.1-1.4,0.2-1.8,0.2c-0.1,0-2.4,0.2-3,0.2c-0.4,0-1.6,0-1.6-0.2    c-0.1-0.4,1.4-0.4,2.1-0.4c2.7,0,5.4-0.6,6.1-0.8C297.5,235.1,296.3,235.7,296.2,235.8 M304,232.5c-4.6,1.7-5.7,2-6.4,2.1    c-0.3,0-0.6,0.1-1,0.2c-0.3,0-1.8,0.3-2.3,0.4c-0.6,0.1-4.1,0.3-4.3,0.1c-0.2-0.2-0.5-0.5,0.4-0.5c0.6,0,1.3,0,2,0    c0.8-0.1,3.9-0.4,4-0.6c-0.9-0.1-4.2,0.4-5,0.3c-0.1,0-1.6,0.1-1.5-0.3c0-0.3,0.4-0.3,0.6-0.3c0.2,0,2.3,0,3.1-0.2    c0,0,0.2,0,0.2-0.1c0-0.1,0-0.1-0.2-0.1c-0.3,0-2,0.1-2.6,0c-0.1,0-1,0.1-1-0.2c-0.1-0.4,0.5-0.4,0.9-0.4c1.7,0,3.5-0.1,5-0.4    c0.3,0,2.5-0.4,3.1-0.6c0.1,0,0.3,0,0.3-0.2c-0.7,0.1-4.1,0.8-8.7,0.8c-0.3,0-0.7,0-0.7-0.2c0-0.2,0.7-0.3,0.8-0.3    c0.6,0,2.5-0.1,2.6-0.1c0.8,0,2.3-0.2,4.3-0.6c2-0.3,2-0.4,3.2-0.8c1.2-0.4,3.8-1.3,5.1-2c1.9-1.1,5-3.3,7.4-6.6    c0.7-1.1,3.2-4.2,4.5-7.1c0.4-0.7,0.6-1.5,1-2.2h0.1c0.1,0.3-0.1,0.6-0.1,0.8c-0.4,1.8-1.9,4.4-2.1,4.8c-0.2,0.4-1.6,2.4-1.7,2.7    c-0.2,0.3-0.7,0.8-0.9,1.4c0.3,0,0.6-0.5,0.8-0.7c0.2-0.3,1.3-1.7,1.8-2.5c0.5-0.8,1.5-2.9,1.7-3.3c0.2-0.4,0.1-0.4,0.3-0.4    c0.1,0.2,0,0.5-0.1,0.7c-0.2,0.6-0.5,1.2-0.8,1.8c-0.3,0.6-1.6,2.3-1.6,3c0.1,0,1.5-2.3,1.7-2.4c0.1,0.2-0.4,1.4-0.8,2.2    c-0.4,0.8-3.4,4.5-3.6,4.8c-0.2,0.2-0.7,0.7-0.9,1.1c0.1,0,0.2-0.1,0.3-0.2c1.3-0.9,3.3-4,3.7-4.3c-0.1,0.5-1.5,2.6-2.2,3.5    C313.6,226.3,309.2,230.6,304,232.5 M314.9,228.1c-0.3-0.2-0.5-0.5-0.7-0.6l-0.1-0.1c0-0.1,0-0.2,0.4-0.7    c5.1-6.3,5.1-13.6,5.1-17.8c0-0.3-0.2-0.9-0.3-0.9c-0.1,0-0.4,0.4-0.5,0.5c-0.1,0.1-4.7,6.4-5.5,7.1c-0.7,0.8-0.6,0.7-1.1,0.9    c-0.2-0.8-0.5-1.7-0.8-2.5c-0.1-0.2-0.2-0.4-0.2-0.5c0-0.2,0.3-0.4,0.6-0.6c1.9-1.4,6.8-6.3,8-8.8c0,0,0,0,0,0    c0.1,0.4,0.2,0.8,0.3,1.3c0.8,2.7,0.7,5.7,0.6,6.5c-0.1,0.9,0.1,6.4-2.8,11.8c-0.2,0.4-1,1.8-1.4,2.4c-0.3,0.6-0.7,1.1-1.1,1.7    c-0.1,0.2-0.4,0.4-0.5,0.4C315,228.1,314.9,228.1,314.9,228.1 M310.4,215.5c0.3-0.2,0.7-0.6,0.9-0.1c-0.4,0.3-0.8,0.7-1.2,1.1    c0.5-0.1,1-0.4,1.4-0.6c0,0.1,0,0.2,0.1,0.3c-0.4,0.5-0.9,0.9-1.3,1.4c0.3,0,0.5-0.1,0.8-0.2c0.1-0.1,0.3-0.2,0.4-0.3    c0,0.2-0.1,0.4-0.2,0.5c-1.1,1.7-3,1.9-3.9,1.4c-0.3-0.1-0.7-0.5-0.7-0.7C306.7,218.1,309.8,215.9,310.4,215.5 M310.1,212.1    c-0.2,0.3-0.4,0.6-0.7,1c-0.3,0.3-4.4,3.3-5,3.6c-0.3,0.2-0.7,0.3-1.1,0.3c0-0.2,6.3-4.9,6.9-5.3h0    C310.4,211.8,310.2,211.9,310.1,212.1 M311.2,209.6c0.4,0.2-0.2,0.5-0.4,0.7c-3,2.2-6,4.4-9,6.6c-0.2,0.1-0.4,0.5-0.7,0.2    C301.1,217,310.8,209.8,311.2,209.6 M310.6,209.3L310.6,209.3c0.1,0.1-0.1,0.2-0.2,0.3c-2.3,1.7-8.5,6.3-9.2,6.8    c-0.1,0.1-0.2,0.2-0.3,0.1c0-0.3,0.3-0.4,0.4-0.6C302.4,215.2,310.2,209.6,310.6,209.3 M313,191.9c0,0,0.9-0.8,2.2-0.9    c1.3-0.1,2.4,0.5,3.5,1.9c0.5,0.7,1.1,1.6,1.3,2.8c0,0.1,0,0.2,0,0.3c0,0.4-1.1-0.1-1.7-0.1c-1,0-2.3,0.9-3.2,1.7    c-0.6,0.5-2,1.8-2.8,2.5c-0.8,0.7-10,8.7-22.8,8.7c-15.1,0-24.3-10.2-25.2-11c-0.9-0.8-2.2-1.8-3.3-1.8c-0.6,0-1.7,0.4-1.7,0.1    c0-0.1,0-0.2,0-0.3c0.2-1.2,0.8-2.1,1.3-2.8c1-1.3,2.2-2,3.5-1.9c1.3,0.1,2.2,0.9,2.2,0.9c1.4,1,10.9,10.3,22.9,10.3    c12.8,0,22.3-9.3,23.5-10.2C312.8,192.1,312.9,192,313,191.9 M301.3,197.6c0,0.2-0.9,0.5-1.1,0.5c-0.9,0.3-1.5,0.6-2.4,0.8    c-0.5,0.2-1,0.3-1.5,0.4c-0.7,0.1-1.4,0.3-2.1,0.4v0.2c1.9-0.2,3.9-0.7,5.5-1.2c0.5-0.1,0.8-0.2,1.2-0.4c0.2-0.1,0.5-0.2,0.6,0    c-0.1,0.3-0.4,0.4-0.7,0.5c-0.3,0.1-0.6,0.2-0.8,0.3c-0.5,0.2-1.1,0.4-1.7,0.6c-0.6,0.2-1.2,0.3-1.8,0.5c-0.5,0.1-0.9,0.2-1.4,0.3    c-0.1,0-0.4,0-0.3,0.2c1.4-0.1,2.8-0.5,4-0.8c0,0.2-0.2,0.2-0.2,0.2c-1.1,0.4-2.4,0.8-3.7,1.1c-1.2,0.2-2.5,0.5-3.8,0.6    c-1.8,0.1-3.8,0.1-5.5-0.2c-0.4-0.1-2.7-0.5-3.5-0.8c-0.3-0.1-3.9-1.5-4.7-1.9c0-0.1,0.2-0.3,0.3-0.4c0.9,0.2,3.3,0.9,3.6,0.8    c-0.1-0.3-2.5-0.9-3.2-1.2c0-0.1,0.2-0.3,0.2-0.4c3,0.7,6.7,1.5,10.3,1.6c1.5,0.1,3.1-0.1,4.5-0.2c0.9-0.1,1.7-0.3,2.5-0.4    c0.4-0.1,0.8-0.1,1.2-0.2c0.5-0.1,0.9-0.2,1.4-0.3c0.5-0.1,1-0.3,1.5-0.5c0.1,0,0.2,0,0.3,0c0.1,0,0.2-0.1,0.3-0.1    c0.1,0,0.3-0.1,0.4-0.1C300.9,197.4,301.3,197.5,301.3,197.6 M285.3,198.4c0.1-0.4,0.3-0.4,0.5-0.4c0.1,0,1.4,0.2,1.6,0.3    c0,0.2,0,0.4-0.2,0.5c-0.6,0-1.6-0.2-1.7-0.2C285.3,198.6,285.3,198.6,285.3,198.4 M285.9,197.8c-0.3,0-0.4-0.2-0.4-0.3    c-0.1-0.1,0-0.2,0-0.3c0.1-0.2,1.8,0,1.8,0.2c0.1,0.2,0,0.3,0,0.4C287.3,198,286.2,197.9,285.9,197.8 M287.5,196.1    c-0.4,0.2-1.2,0-1.7-0.1c-0.2,0-0.2-0.5,0.1-0.4c0.3,0,1.3,0,1.5,0.1C287.6,195.7,287.5,196,287.5,196.1 M287.6,197.5    c0-0.4,0-0.6,0.1-1c0-0.3,0-0.7,0.2-0.8c0.5-0.2,0.3,0.5,0.3,0.9c0,0.4-0.1,0.7-0.1,1c0,0.3,0,1.1-0.3,1.2    C287.2,199,287.5,198,287.6,197.5 M285.8,196.3c0.2,0,1.5,0,1.6,0.3c0,0.2,0,0.4-0.2,0.5c-0.3,0-1.7-0.2-1.7-0.4    C285.6,196.6,285.6,196.2,285.8,196.3 M290.4,198.3c0.1,0,0.2,0.1,0.3,0.2c0.1,0.4-0.2,0.4-0.6,0.4c-0.3,0-0.7,0-0.9,0    c-0.3,0-0.5,0-0.5-0.2c0-0.1,0-0.4,0.1-0.4C288.9,198.3,290.2,198.3,290.4,198.3 M289,197.2c-0.2-0.1-0.1-0.3-0.1-0.5    c0-0.2,1.6-0.1,1.8,0c0.1,0.1,0.1,0.2,0,0.4C290.5,197.2,289.1,197.3,289,197.2 M290.2,197.3c0.1,0,0.5,0.1,0.5,0.4    c0,0.1-0.1,0.2-0.1,0.3c-0.1,0.1-0.8,0.1-1,0c-0.1,0-0.7,0-0.8-0.1c-0.1-0.1,0-0.4,0.1-0.5c0.1-0.1,0.4,0,0.5,0    C289.6,197.4,290.1,197.4,290.2,197.3 M291,195.6c0.2,0,0.2,0.4,0.2,0.7c0,0.3,0.3,2,0.2,2.3c-0.1,0.5-0.5,0.1-0.5-0.9    C290.8,196.9,290.5,195.7,291,195.6 M289.1,195.7c0.3,0,1.2-0.1,1.5,0c0.1,0.1,0.1,0.4-0.1,0.5c-0.2,0.1-1.4,0-1.5-0.2    C288.9,195.9,289,195.7,289.1,195.7 M297.8,195.1c-0.3,0.1-0.7,0.3-0.7-0.1c0-0.2,0.7-0.5,1-0.5c0,0,0.2,0,0.2,0s0.2,0,0.2,0.1    C298.5,194.8,298.1,195,297.8,195.1 M298.7,195.2c0,0.1,0.1,0.2,0.1,0.4c0,0.2-1.1,0.6-1.2,0.6c-0.1,0-0.3-0.3-0.3-0.5    c0-0.1,0.2-0.2,0.5-0.3C298.2,195.2,298.5,195,298.7,195.2 M296.7,197.3c-0.1-0.4-0.3-0.7-0.4-1c-0.1-0.2-0.2-0.4-0.3-0.7    c-0.1-0.2-0.2-0.8,0.3-0.5c0.1,0.1,0.2,0.5,0.3,0.6c0.2,0.5,0.3,0.9,0.5,1.4c0.1,0.3,0.5,0.9,0,0.9c-0.2,0-0.2,0-0.3-0.2    C296.7,197.7,296.7,197.3,296.7,197.3 M295.5,198.4c-0.2-0.1-0.2-0.4-0.1-0.5c0.1-0.1,1-0.3,1.1-0.3c0.1,0,0.3,0.4,0.2,0.5    C296.4,198.2,296.1,198.4,295.5,198.4 M295.3,197.7c-0.1,0-0.2-0.2-0.2-0.5c0-0.2,0.7-0.3,1.2-0.4c0.2,0.1,0.3,0.5,0.2,0.6    C296.3,197.6,295.4,197.8,295.3,197.7 M296,196.1c0,0.2,0.1,0.3,0,0.4c-0.1,0.1-0.2,0.1-0.3,0.2c-0.2,0.1-0.5,0.1-0.6,0.1    c-0.1,0-0.4-0.4-0.3-0.6c0.1-0.1,0.7-0.2,0.9-0.3C295.8,195.9,295.9,196.1,296,196.1 M294.8,195.9c-0.1,0.1-0.3-0.2-0.3-0.3    c0-0.1,1.1-0.6,1.1-0.2C295.8,195.8,294.9,195.8,294.8,195.9 M293.8,196.8c-0.1-0.3-0.2-0.6-0.2-1c0-0.1-0.1-0.4,0.1-0.4    c0.3,0,0.3,0.6,0.4,0.8c0.2,0.6,0.4,1.5,0.5,2.2c-0.1,0.2-0.4,0.1-0.5,0C294.1,198.2,293.8,196.8,293.8,196.8 M293.9,198.7    c-0.3,0.2-1.4,0.2-1.6,0.2c-0.2,0-0.2-0.3-0.2-0.3c0-0.2,0.1-0.2,0.3-0.2c0.2,0,1.3-0.2,1.4-0.1    C293.9,198.3,293.9,198.7,293.9,198.7 M292.3,198.1c-0.3,0-0.3-0.3-0.3-0.5c0-0.1,0.7-0.2,0.8-0.3c0.1,0,0.8-0.1,0.8,0.1    c0,0.3,0.1,0.4,0,0.5C293.4,198,292.2,198.1,292.3,198.1 M293.6,196.8c0,0.2-0.5,0.2-0.7,0.2c-0.3,0-0.7,0.1-0.8,0    c-0.1-0.1-0.3-0.5,0-0.6c0.1,0,0.3-0.1,0.5-0.1c0.4,0,0.8-0.2,1,0C293.6,196.5,293.6,196.6,293.6,196.8 M293.3,196    c-0.1,0-0.8,0.2-0.9,0.1c-0.1,0-0.5,0.1-0.5-0.1c-0.2-0.6,1.2-0.6,1.3-0.6C293.3,195.6,293.4,196,293.3,196 M298.2,197.5    c0-0.2,0.3-0.3,0.6-0.4c0.3-0.1,0.6-0.3,0.7-0.3c0.1,0,0.3,0.1,0.3,0.2c0,0.2-0.4,0.3-0.6,0.4c-0.3,0.1-0.6,0.3-0.8,0.3    C298.2,197.7,298.2,197.6,298.2,197.5 M299,195.2c-0.2-0.2-0.3-0.5-0.4-0.7c-0.1-0.2,0.3-0.5,0.7,0.2c0.3,0.5,0.5,0.8,0.8,1.3    c0.1,0.2,0.6,0.8,0.2,0.9c-0.2,0-0.3-0.2-0.4-0.3C299.7,196.5,299,195.2,299,195.2 M299.3,196.5c-0.2,0.2-1.1,0.5-1.3,0.4    c-0.2,0-0.3-0.2-0.2-0.4c0-0.2,0.3-0.2,0.6-0.4c0.3-0.1,0.6-0.3,0.8-0.1C299.3,196.2,299.3,196.5,299.3,196.5 M299.9,188.7    c-1.1,0-0.8-0.1-0.8-0.3c0-0.3,0.4-0.3,0.6-0.4c0.1,0,0.6-0.2,0.7-0.3c0.3-0.1,0.5-0.3,0.8-0.4c0.1-0.1,0.3-0.2,0.3-0.3    c-0.4,0.1-1.2,0.3-1.3,0.3c-0.5,0-1.9,0.5-2,0.5c-0.3-0.4,0.2-0.9,0.5-0.9c2.4,0.1,4.1-1.4,6.5-3.4h0    C305.4,183.9,301.8,188.7,299.9,188.7 M309,186.5c-0.3,0.2-0.7,0.2-1,0.4c0.3,0.7-0.7,0.7-1.2,0.8c-0.1,0.1,0,0.2,0,0.3    c-0.5,0.7-1.6,0.2-2.4,0.1c0,0.2,0.6,0.1,0.6,0.4c0,0.3-0.6,0.3-0.9,0.3c-0.4,0-0.9-0.4-1.2-0.3c0,0.1,0.2,0.1,0.2,0.3    c-0.3,0.3-1.4,0.2-1.4-0.2c0-0.3,1.5-0.7,1.9-0.8c0.7-0.1,1.2-0.3,1.8-0.5c0.6-0.2,1.3-0.5,1.8-0.8c0.3-0.2,0.6-0.3,0.8-0.5    c-0.2,0-0.3,0.1-0.5,0.2c-0.1,0-2.9,1.1-3.3,1c-0.1,0-0.4-0.2-0.4-0.3c0-0.1,0.7-0.9,0.7-0.9c0.4,0,5-2,5.4-2.2    c0.3-0.2,1-0.7,1.1-0.4C311,183.7,309.6,186,309,186.5 M319.3,180.2c-0.1,0.1-0.4,0.5-0.4,0.6c-0.2,0.4-0.6,0.5-1,0.8    c0.2,0.7-0.6,0.8-1.1,1c0,0.1,0.2,0.1,0.2,0.2c0,0.2-1.4,0.8-1.5,0.9c0,0.2,0.1,0.2,0.1,0.3c-0.1,0.2-0.3,0.4-0.5,0.4    c-0.3,0.1-0.8,0-1,0.2c0,0.1,0.1,0.1,0.1,0.3c-0.4,0.6-1.6,0.4-2.4,0.4c0.1,0.3,0.8,0.1,0.8,0.4c0,0.2-0.5,0.4-0.7,0.4    c-0.5,0.1-1.3-0.1-1.3,0c0.7,0.3-0.6,0.7-0.9,0.4c0.1-0.2,0.7-1,0.8-1.2c0.2,0,0.6-0.2,0.7-0.2c0.4-0.1,1.6-0.7,1.7-0.8    c0.8-0.4,1.6-0.8,2.4-1.3c-0.7,0.1-3.8,1.7-4.3,1.5c0.1-0.3,0.3-0.5,0.4-0.7c0.2-0.4,0.4-0.8,1-0.8c0.1,0,1.5-0.6,1.8-0.7    c0.2-0.1,4.3-2.5,4.5-2.6c0.3-0.1,0.6-0.4,0.9-0.2C319.6,179.8,319.5,180,319.3,180.2 M322.5,173.4c0.1,0.4-1.6,2.6-2.2,3.3    c0.1,0.1,0.2,0.1,0.2,0.2c0,0.2-0.3,0.5-0.5,0.7c-0.2,0.2-4.8,4.2-7.1,4.7c-0.8,0.2-0.8,0-0.9-0.1c-0.2-0.4,0.6-1.1,1-1.3    c0.4-0.2,4.3-2.4,4.8-2.9c0,0,0,0,0,0c-0.4,0.1-1.9,0.9-2.3,1.1c-0.4,0.2-1,0.2-0.8,0c0.1-0.2,3.6-2.5,4-2.8    C319,176,322,173.7,322.5,173.4 M324.2,166.2c0.1,0.2,0,0.2-0.1,0.6c-0.1,0.4-1,2.9-2.7,5.5c-1.1,1.7-7.3,6.4-7.9,6.5    c0.5-0.4,1.7-2.5,1.9-3c4.6-3,5.6-4.6,5.8-4.9c0,0-4.1,3.5-4.8,3.6c-0.1-0.3,0.7-1.9,1-2.2c0.2-0.1,1.7-1.1,2.5-1.8    c0.7-0.7,3.3-3.7,3.6-3.9C323.7,166.4,323.9,166.1,324.2,166.2 M321.9,167.3c-0.3,0.5-3.5,4.5-5.5,4.5c-0.3,0,0.4-1.1,0.4-1.1    s1.8-1.3,3.4-3c0.7-0.7,1.3-1.6,1.3-1.7c-0.1-0.1-2.1,1.8-2.5,2.1c-0.3,0.2-1.4,1.1-1.6,0.9c-0.2-0.2,0.7-2.6,0.9-2.8    c0.1-0.2,0.5-0.7,0.7-0.5c0.2,0.2-0.4,1.1-0.2,1.1c0.3,0.1,0.9-1.5,1-1.7c0.1-0.2,0.4-0.3,0.6-0.3c0.2,0-0.2,1,0.1,0.6    c0.3-0.4,0.7-1.5,1.2-1.4c0.3,0.1-0.1,0.6-0.1,0.8c1-1.5,1.5-1.7,1.6-1.8c0.1,0-0.1,0.5,0,0.5c0,0,0.2-0.2,0.4-0.6    c0.4-0.8,1.8-1.7,2-1.6C325.8,161.4,322.5,166.5,321.9,167.3 M259.5,179.5c0.3-0.2,0.6,0,0.9,0.2c0.2,0.1,4.3,2.5,4.5,2.6    c0.3,0.2,1.7,0.7,1.8,0.7c0.5,0.1,0.8,0.5,1,0.8c0.1,0.2,0.3,0.4,0.4,0.7c-0.4,0.1-3.5-1.4-4.3-1.5c0.7,0.5,1.6,0.9,2.4,1.3    c0.2,0.1,1.3,0.7,1.7,0.8c0.1,0,0.5,0.2,0.7,0.2c0.1,0.2,0.7,1,0.8,1.2c-0.3,0.3-1.7-0.1-0.9-0.4c0,0-0.8,0.1-1.3,0    c-0.2,0-0.7-0.2-0.7-0.4c0-0.3,0.6-0.1,0.8-0.4c-0.8,0-2.1,0.2-2.4-0.4c0-0.1,0.1-0.1,0.1-0.3c-0.2-0.2-0.7-0.1-1-0.2    c-0.2-0.1-0.3-0.3-0.5-0.4c0-0.1,0.1-0.2,0.1-0.3c-0.1-0.1-1.5-0.7-1.5-0.9c0-0.1,0.2-0.1,0.2-0.2c-0.5-0.2-1.3-0.3-1.1-1    c-0.4-0.3-0.8-0.4-1-0.8c0-0.1-0.3-0.5-0.4-0.6C259.7,180,259.6,179.8,259.5,179.5 M260.6,176.3c0.5,0.3,3.9,2.7,4,2.8    c0.1,0.2-0.4,0.2-0.8,0c-0.4-0.2-2-1-2.3-1.1c0,0,0,0,0,0c0.4,0.4,4.4,2.6,4.8,2.9c0.4,0.2,1.2,1,1,1.3c-0.1,0.1,0,0.3-0.9,0.1    c-2.3-0.5-6.9-4.5-7.2-4.7c-0.2-0.2-0.6-0.5-0.5-0.7c0-0.2,0.1-0.1,0.2-0.2c-0.7-0.7-2-2.3-1.8-2.7    C257.6,174.3,260.2,176,260.6,176.3 M255.8,166.9c0.3,0.2,2.8,3.2,3.6,3.9c0.7,0.7,2.3,1.7,2.5,1.8c0.3,0.3,1.2,1.8,1,2.2    c-0.7,0-4.8-3.6-4.8-3.6c0.2,0.3,1.2,1.9,5.8,4.9c0.2,0.5,1.4,2.6,1.9,3c-0.6-0.1-6.8-4.8-7.9-6.5c-1.7-2.5-2.6-5.1-2.7-5.5    c-0.1-0.4-0.2-0.4-0.1-0.6C255.3,166.4,255.5,166.7,255.8,166.9 M305.9,163.8c0.5,0.3,0.9,0.6,1.5,1c0.1,0.1,0.9,0.5,0.7,0.8    c-0.2,0.2-0.5-0.2-0.6-0.3C306.9,164.7,306.4,164.2,305.9,163.8C305.8,163.8,305.8,163.8,305.9,163.8L305.9,163.8z M306.9,163.4    C306.9,163.4,306.9,163.4,306.9,163.4c0.3,0.1,0.5,0.3,0.8,0.5c0.2,0.2,0.5,0.3,0.7,0.5c0.1,0.1,0.5,0.4,0.4,0.5    c-0.1,0.3-0.4,0-0.5-0.1C307.8,164.4,307.2,163.8,306.9,163.4 M305.3,160.4C305.3,160.3,305.3,160.3,305.3,160.4    c0.1,0,0.2,0,0.3,0.1c0.2,0.1,0.4,0.2,0.4,0.4C305.7,160.9,305.4,160.6,305.3,160.4 M308.3,163.6    C308.3,163.5,308.3,163.5,308.3,163.6c0.3,0,1,0.4,1,0.8c-0.2,0.2-0.4-0.1-0.6-0.2C308.6,163.9,308.4,163.7,308.3,163.6     M304.5,162c0.2,0.1,0.5,0.2,0.6,0.4C304.9,162.4,304.5,162.2,304.5,162 M303.5,164.1c0.3-0.1,0.5,0.2,0.6,0.4    C303.8,164.5,303.6,164.4,303.5,164.1 M304.5,167.7C304.5,167.7,304.5,167.6,304.5,167.7c0.4,0.1,1,0.3,1.1,0.8    c-0.3,0.1-0.8-0.4-0.7-0.3C305.1,168.4,304.5,167.9,304.5,167.7 M301.8,166.9c0.4,0.1,0.7,0.3,0.9,0.7    C302.5,167.5,301.6,167.2,301.8,166.9 M304.1,168.4c0,0,0.2,0.1,0.2,0.1c0.3,0.1,0.7,0.4,0.7,0.7c-0.3,0.1-0.5-0.1-0.8-0.3    C304.1,168.8,303.8,168.4,304.1,168.4 M303.9,166.2c-0.5-0.1-0.8-0.4-1.1-0.7l0-0.1h0C303.1,165.5,303.9,166,303.9,166.2     M302.4,168.5c-0.5-0.1-0.9-0.4-1.2-0.7c0.2-0.3,0.6,0,0.8,0.2C302.3,168.2,302.4,168.4,302.4,168.5 M302.3,166.3    c0-0.1,0-0.1,0-0.2c0.4,0.2,0.9,0.3,1,0.8C302.9,166.7,302.6,166.5,302.3,166.3 M270.2,226.3c-0.6-0.5-1.2-1.1-1.8-1.6    c-0.5-0.4-0.8-0.8-1.2-1.3c-0.1-0.2-0.7-0.7-0.7-0.9c0,0,2.6,2.6,3,3c0.5,0.5,1.2,0.9,1.8,1.4c0.4,0.2,1.3,0.9,1.5,0.9    c0.1,0,1.4,0.7,1.7,1.1c-0.8-0.2-1.5-0.7-2.2-1.2C271.5,227.3,270.8,226.8,270.2,226.3 M284.3,200.6c0.5,0.1,1.1,0.2,1.5,0.3v0.1    c-0.6,0.1-1.3-0.2-2-0.2c-0.7-0.1-1.8-0.2-1.8-0.4c0-0.2,0.1-0.1,0.2-0.1C282.9,200.3,283.6,200.5,284.3,200.6 M282,199.4    c0.1-0.2,0.6,0,0.7,0c0.1,0,2.6,0.3,3.6,0.5c0,0,0,0.1,0,0.2c-1.2-0.1-2.5-0.2-3.5-0.4C282.7,199.7,282,199.7,282,199.4     M287.5,193.5c0,0.3-1.8,0-2,0v-0.1c0.2-0.1,1.3,0,1.5,0C287.1,193.4,287.5,193.2,287.5,193.5 M286.9,194.4c0,0.2-1.7,0-2.2,0    c0-0.1-0.1-0.1,0-0.2C285.3,194.2,286.9,194.3,286.9,194.4 M288.1,192.5c0,0.1-2.5,0.2-2.6,0c0-0.2,0.1-0.1,0.3-0.1    C286.4,192.4,288.1,192.3,288.1,192.5 M277.1,232.8c0,0.1-0.9-0.1-1.5-0.3c-0.7-0.3-1.5-0.7-2.1-1c-0.4-0.2-1.7-1-2.5-1.5    c-0.6-0.4-1.2-0.9-1.7-1.3c0,0,0,0,0-0.1c1.1,0.7,6.7,3.7,7.6,4C276.9,232.6,277.1,232.6,277.1,232.8 M285.4,187.5    c-1,0-2.3,0.1-3.2,0c-0.1-0.2,0.2-0.2,0.3-0.2C283,187.4,285.3,187.4,285.4,187.5 M273.8,167.7c-0.2,0.1-0.4,0.4-0.7,0.3    c0-0.3,0.3-0.5,0.5-0.6c0.2-0.2,0.4-0.3,0.7-0.2C274.2,167.4,274,167.5,273.8,167.7 M276.2,165.9c-0.2,0.2-0.4,0.4-0.7,0.4    c0.1-0.2,0.3-0.3,0.4-0.4c0.2-0.1,0.4-0.2,0.5-0.3c0,0,0.1,0,0.1,0C276.5,165.7,276.3,165.8,276.2,165.9 M277,166.2    c0.1,0,0.1,0.1,0.1,0.2c-0.3,0.2-0.6,0.5-1.1,0.6C276.2,166.6,276.7,166.4,277,166.2 M274.4,168.4c-0.2,0.2-0.4,0.4-0.7,0.3    c0-0.3,0.3-0.5,0.6-0.7c0.2-0.1,0.3-0.3,0.5-0.1C274.8,168.1,274.6,168.2,274.4,168.4 M273.1,173.1c0.1-0.3,0.2-0.9,0.4-1.2    c0.2,0.2-0.1,1.5-0.2,1.7c0,0.1-0.4,2.5-0.5,2.8c0,0.3,0,2,0,2.2c0,0.2,0.2,0.5-0.1,0.5c-0.1-0.1-0.1-0.1-0.2-0.4    c-0.3-1.7,0-3.2,0-3.4C272.8,174.7,273.1,173.4,273.1,173.1 M277.5,166.9c0.4,0.1-0.5,0.7-0.8,0.7    C276.8,167.2,277.2,167.1,277.5,166.9 M270.5,170.5C270.5,170.5,270.5,170.5,270.5,170.5C270.5,170.5,270.5,170.5,270.5,170.5    L270.5,170.5z M274.3,169.4c0-0.2,0.1-0.2,0.2-0.4c0.2-0.1,0.6-0.5,0.9-0.3C275.2,169.1,274.8,169.5,274.3,169.4 M274.2,162.5    c0-0.3,0.4-0.3,0.5-0.4c0,0,0,0,0.1,0C274.7,162.4,274.5,162.4,274.2,162.5 M277.9,167.8c0.1-0.1,0.2,0,0.2,0.1    c0.1,0.2-0.3,0.4-0.5,0.4c-0.2,0.1-0.3,0.3-0.6,0.3C277.1,168.2,277.6,167.9,277.9,167.8 M275.3,164.7c-0.1-0.3,0.5-0.7,0.6-0.4    C275.9,164.4,275.4,164.6,275.3,164.7 M273.3,160.9c0-0.1,0.4-0.4,0.7-0.4c-0.1,0.3-0.4,0.5-0.7,0.5    C273.3,160.9,273.3,160.9,273.3,160.9 M283,161.8C283,161.8,283,161.8,283,161.8c0.7-0.1,2.7-0.1,2.9,0c0,0.2-1.6,0.2-2.1,0.2    C283.4,162,283.1,162,283,161.8 M279.1,181.5c0-0.2,0.1-0.2,0.2-0.2c0.5-0.1,1.3,0,1.8,0v0.1C280.7,181.4,279.3,181.6,279.1,181.5     M283.7,186.6c-0.6,0-2.2,0.2-2.2,0c0-0.2,1.9-0.3,2-0.3C283.6,186.5,283.7,186.6,283.7,186.6 M278.7,180.6c0-0.2,0.2-0.2,0.3-0.2    c0.5,0,2-0.1,2,0.1C281,180.7,278.7,180.8,278.7,180.6 M279.8,183.2c0-0.2,1.8-0.2,2.2-0.3c0,0,0.1,0.2,0.1,0.2    C281.6,183.1,280,183.4,279.8,183.2 M279.4,182.2c0.2-0.2,1.8-0.3,2.2-0.2c0,0.1,0,0.1,0.1,0.2    C281.1,182.2,279.5,182.5,279.4,182.2 M281,185.8c0.1-0.3,2.2-0.4,3-0.2c-0.2,0.1-0.4,0.2-0.7,0.2    C282.9,185.8,281.2,186.1,281,185.8 M280.2,184.1c0-0.2,2-0.3,2.8-0.3v0.1C282.9,184,280.2,184.3,280.2,184.1 M280.6,185    c0.1-0.2,1.8-0.3,2.2-0.3c0,0.1,0,0.2,0.1,0.2C282.3,184.9,280.8,185.2,280.6,185 M287,232.1c-1.2,0-2.7-0.1-3.7-0.4v0    c0,0,0,0,0,0c1.2,0.1,2.6,0.3,3.9,0.2c0.3,0,0.7,0,1,0c0.3,0,0.6-0.1,0.7,0.1C288.8,232.1,287.4,232.1,287,232.1 M282,231.4    c-0.1,0.1-0.3,0-0.4,0c-0.4-0.1-1.8-0.4-2.1-0.5c-1.6-0.4-3.1-1-4.5-1.7v0c0,0,0,0,0,0c0.7,0.2,3.2,1.1,4.1,1.4    C280.1,230.9,281.9,231.2,282,231.4 M282.3,162.7L282.3,162.7c0-0.1,0-0.1,0.1-0.1c0.4,0,1.7,0,1.8,0.1    C284.2,162.9,282.5,162.8,282.3,162.7 M282,163.6v-0.1c0.4,0,1,0,1.5,0v0.1C283.1,163.8,282.4,163.7,282,163.6 M282.7,208.9    c-0.3,0.5,0,0-0.4,0.5c-0.1,0.1-2.7-0.9-2.7-0.8c0,0,0.1,0.2,0.2,0.3c0.7,0.3,2.2,0.8,2.1,1.2c0,0.1-0.1,0.3-0.2,0.4    c-0.2,0.1-2.9-1.5-3-1.3c0,0,0,0.2,0.3,0.5c0.3,0.2,2.3,1.1,2.3,1.4c0.1,0.2,0,0.2-0.2,0.4c-0.1,0.1-3.4-2-3.5-1.9    c0,0-0.1,0.1,0,0.3c0,0,3.1,2,3,2.3c0,0.1,0,0.2-0.2,0.2c0,0-3.7-2.5-3.9-2.3c-0.2,0.2,3.2,2.2,3.6,2.7l-0.3,0.4    c-1.2-0.7-8-5.7-8.9-6.4c0.4-0.7,0.9-1.4,1.3-1.8C278.4,208.1,282.5,208.9,282.7,208.9 M270.5,220.1    C270.5,220,270.5,220,270.5,220.1c2.3-0.1,2.6-1.3,2.5-1.7c-0.1-0.3-0.5-0.5-0.4-0.7c0.1-0.4,0.6-0.7,1-0.7c0.4,0,0.9,0.3,1.4,0.6    c0.5,0.3,2.7,0.7,3.1,0.5c0.4-0.2,0.6-0.6,0.6-0.8c0-0.2-0.1-0.6-0.1-0.9c0.1-0.3,0.8-1.4,1-1.6c0.1-0.2,0.8,0,1-0.2    c0.1-0.2,0-0.7,0-0.9c0.8-1.1,1.7-2.8,2.4-4c0.1,0.1,0.1,3.3,0,5.1c-0.2,2.6-0.6,3.7-1.4,5.1c-0.8,1.3-2.5,3.4-5.4,2.8    C273.3,222,271.3,220.8,270.5,220.1 M272.1,217.3c-0.4-0.2-1.9-1.3-2.2-1.7c0.2-0.2,0.4-0.6,0.6-0.9c0.4,0.2,2,1.4,2.4,1.7    C272.6,216.7,272.3,216.9,272.1,217.3 M269.3,212.7c-0.1-0.1-0.4-0.6-0.4-0.7c0,0,0,0,0-0.1c0.6,0.3,6.2,4.6,6.7,4.9    c0.1,0.1,0.3,0.2,0.4,0.4c-0.4,0-1.4-0.4-1.5-0.5C274,216.5,269.6,213.3,269.3,212.7 M268.8,215.8c0.6,0.4,1,0.8,1.6,1.2    c0.5,0.4,1,0.8,1.6,1.2c0.2,0.1,0.5,0.3,0.5,0.4c0,0.2-0.4,0.6-0.7,0.7c-0.3,0.2-1.3,0.5-2.2,0c-0.3-0.1-1.6-1.3-1.8-1.8    c0.1,0,0.2,0.1,0.3,0.1c0.2,0.1,0.5,0.3,0.7,0.3c0-0.1-0.2-0.2-0.2-0.3c-0.3-0.3-0.6-0.6-0.9-0.9c0-0.1,0-0.3,0.1-0.4    c0.1,0,0.2,0.1,0.3,0.1c0.3,0.1,0.7,0.3,1,0.4c-0.3-0.4-0.7-0.8-1.2-1.1C268.1,215.2,268.5,215.5,268.8,215.8 M298,208.4    c2.6-0.7,5.7-1.9,8.8-3.5c0.4,0.6,0.7,1,1.1,1.6c-2.2,1.7-6.5,4.8-8.8,6.4c-0.1-0.1-0.1-0.3-0.1-0.4c0-0.1,2.2-1.6,2.4-1.8    c0.2-0.2,0.4-0.6,0.4-0.6c-0.1-0.1-2.9,2.1-3,2c-0.2-0.1-0.3-0.3-0.3-0.4c0-0.2,1.2-0.9,2.4-1.9c0.4-0.4,0.1-0.3,0.1-0.3    c-0.1-0.1-2.6,1.9-2.8,1.8c-0.3-0.1-0.3-0.4-0.3-0.5c0-0.2,1.5-1,1.9-1.3c0.4-0.3,0.5-0.5,0.4-0.6c0-0.1-2.2,1.3-2.4,1.4    c-0.2,0-0.3-0.4-0.4-0.4c-0.1-0.1,2.3-1.2,2.2-1.5c-0.1-0.1-2.4,1.1-2.5,1c-0.2-0.3-0.2-0.3-0.3-0.6    C296.7,208.7,297.6,208.5,298,208.4 M309.7,209c-2.2,1.6-6.6,4.7-8.7,6.3c-0.1-0.1-0.3-0.3-0.3-0.5c0-0.2,3.1-2.2,3.1-2.2    l-0.2-0.2c0,0-3.1,2.1-3.2,2.1c-0.1,0-0.2-0.2-0.2-0.3c2.1-1.6,6.5-4.8,8.7-6.3C309.1,208.2,309.4,208.6,309.7,209 M308.5,206.7    c0.1,0,0.2,0,0.3,0c-0.1,0.2-6.9,5.1-9.1,6.7c-0.2,0.1-0.4,0.3-0.6,0.4c-0.1-0.3,0.2-0.5,0.3-0.6    C300,212.8,308.1,206.8,308.5,206.7 M306.3,205.8c-0.2,0.2-0.4,0.3-0.7,0.4c0.1-0.2,0.3-0.3,0.4-0.4c0.2-0.1,0.4-0.2,0.5-0.3    c0,0,0.1,0,0.1,0C306.7,205.6,306.4,205.7,306.3,205.8 M307.3,206.1c0.7,0.2-0.8,1-1.2,1C306.3,206.6,306.8,206.4,307.3,206.1     M308.8,208.5c0.1-0.1,0.3,0,0.4,0.1c0.1,0.3-0.5,0.5-0.7,0.6c-0.3,0.2-0.5,0.4-0.9,0.5C307.6,209.2,308.4,208.7,308.8,208.5     M272.1,206.9c0-0.7,1.2,0.4,1.4,0.8C272.9,207.7,272.5,207.3,272.1,206.9 M273.3,206.2c0.2,0.1,0.5,0.2,0.6,0.5    c-0.2,0-0.4-0.1-0.6-0.3c-0.2-0.1-0.3-0.3-0.5-0.4c0,0,0,0,0-0.1C272.9,205.9,273.1,206.1,273.3,206.2 M281.8,147.9    c2.7-1.5,4.9-2,7.5-2c1.8,0,3.6,0.3,5.3,1c4,1.7,7.7,6.1,6.8,11.8c0-0.4-0.2-2.8-0.8-4.8c-0.5-1.5-2.7-4.9-5.4-6.3    c-1.2-0.6-3.2-1.1-5-1.3c-1.8-0.2-5,0.4-6.1,0.9c-1.1,0.5-1.4,0.6-2,1c-0.2,0.1-0.5,0.3-0.6,0.1    C281.4,148.1,281.8,147.9,281.8,147.9 M282.8,148.6c-0.1-0.1-0.4-0.2-0.3-0.3c0.1-0.2,0.3-0.4,0.7-0.4c0.4,0,0.8,0.8,1.1,1.3    c0.5,1,0.7,2,0.7,2.3c0,0.3,0,0.4-0.1,0.4c-0.2,0-0.3-0.5-0.3-0.8C284.1,149.8,282.9,148.7,282.8,148.6 M292.1,160.2    c0,0.6-0.5,1.1-1.2,1.1c-0.6,0-1.2-0.5-1.2-1.1c0-0.6,0.5-1.1,1.2-1.1C291.5,159.1,292.1,159.6,292.1,160.2 M293.6,169.2    c0.5,0.5,0.7,1.3,0.7,2.1c0,1.1-0.3,2.1-1.1,2.8c-0.8,0.7-2,1.2-3.3,1.2c-2.7,0-4.7-1.8-4.7-4.1c0-1.1,0.8-2.5,1.4-2.8    c0.3-0.1,1-0.7,1.4-0.3c0.2,0.2-0.6,0.6-0.6,0.6s-1.3,0.8-1.4,2.5c-0.1,1.8,1.5,3.1,3.8,3.1c2.5,0,3.9-1.4,3.9-3.1    c0-0.8-0.4-1.7-0.9-2c-0.4-0.4-1.2-0.8-0.9-0.9C292.1,168.3,293.1,168.7,293.6,169.2 M292.5,160.2c0,0.9-0.7,1.6-1.6,1.6    c-0.9,0-1.6-0.7-1.6-1.6c0-0.9,0.7-1.6,1.6-1.6C292,158.6,292.5,159.3,292.5,160.2 M291.7,160.2c0,0.4-0.4,0.7-0.8,0.7    c-0.4,0-0.8-0.3-0.8-0.7c0-0.4,0.4-0.7,0.8-0.7C291.3,159.4,291.7,159.8,291.7,160.2 M290.2,176.4c0,0.2-0.2,0.3-0.4,0.3    c-0.2,0-0.4-0.2-0.4-0.3c0-0.2,0.2-0.3,0.4-0.3C290,176.1,290.2,176.2,290.2,176.4 M282.5,169.1c0.2,0,0.1,0.3,0,0.4    c0,0.5-0.1,1.1-0.1,1.7c0,0.6,0.1,1.3,0.2,2c0.1,0.7,0.1,1.2,0.2,1.9c0.2,0.7,0.4,1.3,0.3,1.5c-0.2,0-0.5-0.9-0.5-1.2    c0-0.3-0.4-2.5-0.4-3.5c0-0.4,0-0.5-0.1-0.7c-0.3-0.1-0.8,0-0.9,0.1c0,0.4,0.1,0.5,0.1,1.1c0.2,1.2,0,3.2,0,3.3    c0,0.1-0.1,0.7-0.2,0.7c-0.2,0-0.1-0.5-0.1-0.8c0.1-0.3,0-2,0-2.5c0-0.9-0.4-2.8-0.5-3c0-0.1-0.2-0.7-0.1-0.7    c0.2,0,0.2,0.5,0.4,0.6c0.5,0,1.1-0.1,1.2-0.2C282.4,169.9,282.3,169.1,282.5,169.1 M282,170.3c0.2,0,0.2,0.2,0.2,0.3    c0,0.3-1,0.4-1,0.3c0,0-0.2-0.3-0.2-0.4C281.1,170.2,281.9,170.2,282,170.3 M282.9,178c0,0.4-0.4,0.8-0.8,0.8    c-0.5,0-0.8-0.3-0.8-0.8c0-0.4,0.4-0.8,0.8-0.8C282.5,177.2,282.9,177.5,282.9,178 M283.3,178.1c0,0.6-0.5,1.2-1.2,1.2    s-1.2-0.5-1.2-1.2c0-0.6,0.5-1.2,1.2-1.2S283.3,177.4,283.3,178.1 M283,168.1c0,0-0.4,1.9-0.2,5.3c0.1,1,0.6,2.7,0.7,3.2    c0.1,0.5,0.8,2.1,0.8,2.3c0,0.2-1.6,1.3-2.1,1.6c-0.8-0.5-1.5-1.1-2.1-1.7c0.1-0.7,0.3-1,0.5-2.1c0.4-2.3,0-4.4-0.2-5.2    c-0.2-0.8-0.6-2.2-0.9-3C280.7,168.3,281.9,168.1,283,168.1 M297,169.9c0.2,0,0.8,0.2,1.3,0.2c0.3-0.1,0.3-0.6,0.4-0.6    c0.2,0,0,0.6-0.1,0.7c0,0.2-0.5,2-0.5,3c0,0.5,0,2.2,0,2.5c0.1,0.3,0.1,0.7-0.1,0.8c-0.1-0.1-0.2-0.6-0.2-0.7c0-0.1-0.3-2.1,0-3.3    c0.1-0.6,0.1-0.7,0.2-1.1c-0.2-0.2-0.7-0.2-0.9-0.1c-0.1,0.2-0.1,0.3-0.1,0.7c0,1-0.3,3.1-0.4,3.5c0,0.3-0.3,1.2-0.5,1.2    c-0.1-0.2,0.1-0.7,0.3-1.5c0.1-0.7,0.2-1.2,0.2-1.9c0.1-0.7,0.1-1.4,0.2-2c0-0.6-0.1-1.2-0.1-1.7c0-0.1-0.1-0.4,0-0.4    C296.9,169.1,296.8,169.9,297,169.9 M298.2,170.5c0.1,0.1-0.1,0.4-0.2,0.4c0,0-1,0-1-0.3c0-0.1,0-0.3,0.2-0.3    C297.3,170.2,298.1,170.2,298.2,170.5 M297.1,177.2c0.5,0,0.8,0.3,0.8,0.8c0,0.4-0.4,0.8-0.8,0.8s-0.8-0.3-0.8-0.8    C296.3,177.5,296.6,177.2,297.1,177.2 M297,176.9c0.7,0,1.2,0.5,1.2,1.2c0,0.6-0.5,1.2-1.2,1.2c-0.7,0-1.2-0.5-1.2-1.2    C295.8,177.4,296.3,176.9,297,176.9 M296.1,168.1c1.2,0,2.3,0.3,3.5,0.4c-0.3,0.8-0.9,2.5-1,3.1c-0.2,1-0.2,3.7-0.1,5.1    c0.1,0.7,0.4,1.4,0.5,2.1c-0.7,0.6-1.4,1.2-2.1,1.7c-0.6-0.3-2.1-1.5-2.1-1.6c0-0.1,0.6-1.8,0.8-2.3c0.1-0.5,0.7-2.2,0.7-3.2    C296.5,169.9,296.1,168.1,296.1,168.1 M282.8,197.3c0.2,0.1,1.3,0.2,1.3,0.2c0,0,0.3-0.4,0.2-0.6c-0.1-0.2-1.2-0.3-1.5-0.3    c-0.3,0-0.4,0.4-0.4,0.5C282.4,197.2,282.6,197.2,282.8,197.3 M282.7,198.2c0.2,0,0.9,0.1,1.1,0.1c0.2,0,0.2-0.2,0.3-0.4    c0-0.2-0.2-0.3-0.2-0.3c0,0-1.1-0.2-1.3-0.2c-0.2,0-0.3,0.1-0.3,0.1c0,0,0,0.1-0.1,0.3C282.1,198.1,282.7,198.2,282.7,198.2     M297.9,162c-0.1,0.2-0.1,0.5-0.1,0.7c0,0.8,0.1,1.2,0.3,1.8c0,0.2,0.1,0.3,0.2,0.5c0.1,0.2,0,0.4,0.2,0.5c0.3-0.2,0.4-0.6,0.6-1    c0.2-0.4,1.3-2.6,1.5-6.3c0.1-1.1-0.2-4-1.2-5.5c-0.3-0.5-1.1-1.9-2.6-3.2c-2-1.7-4.9-2.5-7.9-2.4c-1,0-3.4,0.3-4.9,1.1    c0.4,0.8,0.8,1.6,0.9,2c0.1,0.2,0.3,1.2,0.3,1.6c0.3-0.2,0.6-0.3,0.6-0.3c0.2-0.3,0.2-1,0.2-1.5c0-0.6-0.6-1-0.8-1.4    c-0.2-0.4,0.4-0.9,0.9-0.9c0.4,0,0.7,0.7,0.8,1.4c0.1,0.6-0.2,1.5-0.3,2.1c0.3-0.1,0.5-0.1,0.8-0.2c0,0,0.5-1,0.6-1.5    c0.2-0.6-0.2-1.1-0.3-1.6c-0.1-0.5,0.7-0.7,1.1-0.6c0.4,0.2,0.5,0.9,0.4,1.6c-0.1,0.6-0.5,1.4-0.8,1.9c0.2,0,0.4,0,0.6,0    c0.1,0,0.1,0,0.2,0c0.3-0.3,0.7-0.9,0.9-1.3c0.3-0.6,0-1.2,0-1.6c0-0.5,0.8-0.6,1.2-0.4c0.4,0.2,0.3,1,0.1,1.6    c-0.2,0.6-0.8,1.2-1.2,1.7c0.2,0,0.5,0.1,0.7,0.1c0.3-0.2,0.8-0.8,1.1-1.1c0.4-0.5,0.2-1.1,0.3-1.6c0.1-0.5,0.9-0.4,1.2-0.1    c0.3,0.3,0.1,1-0.2,1.6c-0.3,0.6-1.1,1.1-1.5,1.5c0.2,0.1,0.5,0.2,0.7,0.3c0.4-0.1,1-0.6,1.3-0.9c0.5-0.4,0.4-1.1,0.6-1.5    c0.2-0.4,1-0.2,1.2,0.1c0.3,0.4-0.1,1-0.6,1.5c-0.4,0.5-1.3,0.8-1.8,1.1c0.2,0.1,0.4,0.2,0.6,0.4c0.4,0,1.2-0.4,1.6-0.6    c0.6-0.3,0.7-0.9,0.9-1.3c0.3-0.4,1,0,1.2,0.4c0.2,0.4-0.3,1-0.9,1.4c-0.5,0.4-1.4,0.6-2,0.8c0.2,0.2,0.4,0.4,0.6,0.6h0    c0.4,0,1.1-0.1,1.5-0.2c0.6-0.1,0.9-0.8,1.2-1.1c0.3-0.3,1,0.2,1,0.7c0.1,0.4-0.6,0.9-1.2,1.1c-0.6,0.2-1.3,0.2-1.9,0.2v0    c0.2,0.2,0.3,0.5,0.5,0.7c0.3,0.1,0.8,0,1.1,0c0.6,0,1-0.6,1.4-0.8c0.4-0.2,0.9,0.4,0.9,0.9c0,0.5-0.7,0.7-1.4,0.8    c-0.5,0.1-1,0-1.5-0.1h0c0.1,0.3,0.3,0.5,0.4,0.8c0.3,0.1,0.6,0.1,0.8,0.1c0.5,0.1,0.9-0.4,1.3-0.5c0.4-0.1,0.7,0.5,0.6,0.8    c-0.1,0.4-0.7,0.5-1.3,0.5c-0.4,0-0.8-0.1-1.2-0.3v0c0.1,0.2,0.1,0.5,0.2,0.7c0.2,0.1,0.4,0.2,0.6,0.2c0.5,0.2,1-0.1,1.4-0.2    c0.4-0.1,0.6,0.6,0.4,1c-0.2,0.4-0.8,0.4-1.4,0.2c-0.3-0.1-0.6-0.2-0.9-0.4l0,0c0,0.3,0.1,0.5,0.1,0.8c0.1,0.1,0.2,0.1,0.3,0.2    c0.5,0.3,1,0,1.4,0c0.4,0,0.5,0.7,0.3,1.1c-0.2,0.3-0.9,0.3-1.4,0.1c-0.2-0.1-0.3-0.2-0.5-0.3c0,0.3,0,0.3,0,0.5    c0,0,0.1,0,0.1,0.1c0.4,0.3,1,0.2,1.3,0.3c0.4,0.1,0.4,0.7,0.2,1c-0.2,0.3-0.8,0.1-1.4-0.2C298.1,162.1,298,162,297.9,162     M296.6,155.2L296.6,155.2L296.6,155.2z M290.6,191H289v-2.7h1.6V191z M290.2,190.6h-0.7v-1.7h0.7V190.6z M291,191.4h-2.7v-3.5    h2.7V191.4z M288,191.7h3.4v-0.7c1.5-0.1,3.1-0.2,4.7-0.2c0.4,0,0.8,0,1.2,0h0c0.1,0.2-0.3,0.2-0.5,0.2c-1.2,0.2-4.3,0.3-4.3,0.5    c1.5,0.1,5.1-0.2,5.1,0c0,0.2-0.5,0.2-0.7,0.3c-0.8,0.1-1.7,0.2-2.5,0.4v0.2c0.9,0,3.2-0.3,3.3-0.3c0.2,0,0.3,0.2,0.2,0.3    c0,0.2-3.6,0.7-3.7,0.7c-0.1,0-0.3,0-0.3,0.2c1.2,0,2.5-0.1,3.8-0.3c0.3,0,0.6-0.1,0.6,0.2c0,0.3-3.5,0.8-4.8,0.9v0.2    c1.4-0.1,3.1-0.3,4.5-0.5c0.2,0,0.5-0.2,0.6,0c0,0.3-0.4,0.3-0.6,0.4c-1.3,0.4-2.8,0.6-4.3,0.8c-0.5,0.1-1,0.1-1.6,0.2    c-2.6,0.3-5.4,0.2-7.9,0c-1-0.1-2-0.3-2.9-0.5c-0.4-0.1-0.8-0.2-1.1-0.3c0-0.1,0.5-0.9,0.6-1.1c0.1,0,0.9,0.3,0.9,0    c0-0.2-0.7-0.2-0.8-0.3c0.1-0.2,0.2-0.4,0.2-0.6c0.2,0,0.5,0.1,0.7,0c0.1-0.3-0.4-0.2-0.6-0.2c0.1-0.2,0.5-1,0.6-1.2    c1.6,0.1,3.3,0,5,0.1c0.3,0,0.6,0,1,0V191.7z M291.4,188.4c0,0,1.8,0,2.3-0.1c0.6,0,1.8,0,2.4,0c0.4,0,1-0.1,1.4-0.1    c0.2,0,0.7,0.1,0.4,0.4c-0.1,0.2-1,0.1-1.4,0.2c-0.7,0-1.4,0.1-2,0.1c0.1,0.3,0.4,0.3,0.7,0.3c0.4,0,0.8,0,1.2-0.1    c0.5,0,1-0.1,1.4,0c0.2,0.5-0.1,0.5-0.1,0.7c-0.1,0.1-0.5,0.1-0.6,0.1c-1.8,0.1-4,0.1-5.7,0.2V188.4 M315.9,228    c0,0,4.1-5.4,5.2-12.4c1.1-7-0.5-11.1-0.5-11.3c0-0.1-0.2-0.6,0-0.6c0.2-0.1,0.3,0.5,0.3,0.6c0,0.2,1.6,4.3,0.5,11.3    c-1.1,7-5.2,12.4-5.2,12.4c-0.1,0.1-0.4,0.6-0.5,0.5C315.6,228.5,315.9,228.1,315.9,228 M263.7,228.8c-0.1,0.1-0.4-0.3-0.5-0.4    c0,0-4.1-5.4-5.2-12.4c-1.1-7,0.5-11.1,0.5-11.3c0-0.1,0.2-0.7,0.3-0.6c0.2,0.1,0,0.6,0,0.6c0,0.2-1.6,4.3-0.5,11.3    c1.1,7,5.2,12.4,5.2,12.4C263.6,228.4,263.8,228.7,263.7,228.8 M263.4,193.8L263.4,193.8c-0.1-0.1-0.3-0.1-0.3,0l-0.4,0.6    c-0.1,0.1-0.2,0.1-0.3,0l0,0c-0.1-0.1-0.1-0.2,0-0.3l1.5-2c0.1-0.1,0.2-0.1,0.3,0l0.2,0.2c0.1,0.1,0.2,0.2,0.3,0.3    c0,0,0.3,0.5-0.1,1C264.2,194.1,263.9,194.1,263.4,193.8 M264.3,192.7L264.3,192.7c-0.1-0.1-0.3-0.1-0.3,0l-0.3,0.4    c-0.1,0.1-0.1,0.2,0,0.2c0.1,0,0.2,0.1,0.3,0.1c0,0,0.1,0,0.3-0.2C264.4,193.1,264.5,192.9,264.3,192.7 M264.7,196    c-0.2,0-0.4,0-0.6-0.2c-0.2-0.2-0.3-0.4-0.3-0.6c0-0.3,0.2-0.6,0.6-1.1c0.4-0.5,0.7-0.8,1-0.8c0.2,0,0.4,0,0.6,0.2    c0.2,0.2,0.3,0.4,0.3,0.6c0,0.3-0.2,0.6-0.6,1.1C265.2,195.7,265,196,264.7,196 M265.8,194.1c0-0.1,0-0.2-0.1-0.2    c-0.1-0.1-0.2-0.1-0.2-0.1c-0.2,0.1-0.4,0.3-0.7,0.7c-0.3,0.4-0.5,0.6-0.5,0.8c0,0.1,0,0.2,0.1,0.2c0.1,0.1,0.2,0.1,0.2,0.1    c0.2,0,0.4-0.3,0.7-0.7C265.6,194.5,265.8,194.3,265.8,194.1 M266.2,197.3c-0.2,0-0.4,0-0.6-0.2c-0.2-0.1-0.3-0.3-0.3-0.5    c0-0.2,0-0.4,0.2-0.5l1.2-1.5c0.1-0.1,0.2-0.1,0.3,0l0,0c0.1,0.1,0.1,0.2,0,0.3l-1.1,1.4c-0.1,0.1-0.2,0.3-0.2,0.4    c0,0,0,0.1,0.1,0.2c0.1,0.1,0.3,0.1,0.4-0.1l1.3-1.6c0.1-0.1,0.2-0.1,0.3,0l0,0c0.1,0.1,0.1,0.2,0,0.3l-1.2,1.5    C266.5,197.2,266.3,197.3,266.2,197.3 M267.6,198.6c-0.1-0.1-0.1-0.2-0.1-0.3l0.3-0.8c0-0.1,0-0.2,0-0.3c-0.1,0-0.2,0-0.2,0.1    l-0.5,0.6c-0.1,0.1-0.2,0.1-0.3,0l0,0c-0.1-0.1-0.1-0.2,0-0.3l1.5-2c0.1-0.1,0.2-0.1,0.3,0l0.2,0.2c0.1,0.1,0.2,0.2,0.3,0.3    c0,0,0.3,0.5,0,1c-0.2,0.3-0.4,0.4-0.7,0.4l-0.4,1.1C267.9,198.7,267.8,198.8,267.6,198.6L267.6,198.6z M268.7,196.3L268.7,196.3    c-0.1-0.1-0.3-0.1-0.3,0l-0.3,0.4c-0.1,0.1-0.1,0.2,0,0.3c0.1,0,0.2,0.1,0.3,0.1c0,0,0.1,0,0.3-0.2    C268.8,196.7,268.9,196.5,268.7,196.3 M269.1,199.7c-0.1-0.1-0.1-0.2-0.1-0.3l1.4-2c0.1-0.1,0.2-0.1,0.3-0.1l0,0    c0.1,0.1,0.1,0.2,0.1,0.3l-1.2,1.7c-0.1,0.1,0,0.2,0.1,0.3l0.3,0.2c0.1,0.1,0.1,0.2,0.1,0.3c-0.1,0.1-0.2,0.1-0.3,0L269.1,199.7z     M271.3,201.2c-0.1-0.1-0.1-0.2-0.1-0.3l0.1-0.2c0-0.1,0-0.3-0.1-0.3l-0.2-0.1c-0.1-0.1-0.2,0-0.3,0l-0.1,0.1    c-0.1,0.1-0.2,0.1-0.3,0l-0.1,0c-0.1-0.1-0.1-0.2,0-0.3l1.9-1.8c0.1-0.1,0.2-0.1,0.3,0l0,0c0.1,0.1,0.1,0.2,0.1,0.3l-0.9,2.4    C271.5,201.2,271.4,201.3,271.3,201.2L271.3,201.2z M271.8,199.2C271.9,199,271.8,199,271.8,199.2l-0.6,0.5    c-0.1,0.1-0.1,0.2,0,0.3l0.1,0c0.1,0.1,0.2,0,0.3-0.1L271.8,199.2z M273.6,201.2L273.6,201.2c-0.2-0.1-0.3,0-0.3,0l-0.4,0.6    c-0.1,0.1-0.2,0.1-0.3,0.1l0,0c-0.1-0.1-0.1-0.2-0.1-0.3l1.2-2.2c0.1-0.1,0.2-0.1,0.3-0.1l0.3,0.2c0.1,0.1,0.2,0.2,0.3,0.3    c0,0,0.4,0.5,0.1,1C274.4,201.4,274.1,201.5,273.6,201.2 M274.3,200.1L274.3,200.1c-0.1-0.1-0.3,0-0.3,0.1l-0.3,0.5    c-0.1,0.1-0.1,0.2,0,0.2c0.1,0,0.2,0.1,0.3,0.1c0,0,0.1,0,0.3-0.3C274.4,200.4,274.5,200.2,274.3,200.1 M275.1,203.4    c-0.1-0.1-0.2-0.2-0.1-0.3l0-0.2c0-0.1,0-0.2-0.1-0.3l-0.2-0.1c-0.1-0.1-0.2,0-0.3,0.1l-0.1,0.1c-0.1,0.1-0.2,0.1-0.3,0.1l-0.1,0    c-0.1-0.1-0.1-0.2,0-0.3l1.7-1.9c0.1-0.1,0.2-0.1,0.3-0.1l0,0c0.1,0.1,0.2,0.2,0.1,0.3l-0.6,2.5    C275.4,203.4,275.3,203.5,275.1,203.4L275.1,203.4z M275.5,201.3C275.5,201.2,275.5,201.2,275.5,201.3l-0.6,0.6    c-0.1,0.1,0,0.2,0.1,0.3l0.1,0c0.1,0.1,0.2,0,0.2-0.1L275.5,201.3z M277.5,201.7c-0.1,0-0.2,0-0.3,0.1l-0.9,1.9    c-0.1,0.1-0.2,0.1-0.3,0.1l0,0c-0.1,0-0.1-0.2-0.1-0.3l0.9-1.9c0.1-0.1,0-0.2-0.1-0.3l-0.1,0c-0.1,0-0.2-0.2-0.1-0.3    c0-0.1,0.2-0.1,0.3-0.1l0.9,0.4c0.1,0,0.1,0.2,0.1,0.3C277.8,201.8,277.6,201.8,277.5,201.7L277.5,201.7z M278.2,204.8    c-0.1,0-0.2-0.2-0.2-0.3l0.1-0.8c0-0.1,0-0.2-0.1-0.3c-0.1,0-0.2,0-0.2,0.1l-0.3,0.7c0,0.1-0.2,0.2-0.3,0.1l0,0    c-0.1,0-0.2-0.2-0.1-0.3l1-2.3c0-0.1,0.2-0.2,0.3-0.1l0.3,0.1c0.1,0,0.3,0.1,0.4,0.2c0,0,0.4,0.4,0.2,0.9    c-0.1,0.3-0.3,0.5-0.6,0.6l-0.1,1.1C278.5,204.8,278.4,204.8,278.2,204.8L278.2,204.8z M278.7,202.3L278.7,202.3    c-0.2-0.1-0.3,0-0.3,0.1l-0.2,0.4c0,0.1,0,0.2,0,0.2c0.1,0,0.2,0,0.3,0c0,0,0.1,0,0.2-0.3C278.8,202.6,278.9,202.4,278.7,202.3     M279.1,205.1c-0.1,0-0.2-0.2-0.1-0.3l0.9-2.3c0-0.1,0.2-0.2,0.3-0.1l0,0c0.1,0,0.2,0.2,0.1,0.3l-0.9,2.3    C279.4,205.1,279.2,205.2,279.1,205.1L279.1,205.1z M280,205.4c-0.1,0-0.2-0.2-0.1-0.3l0.8-2.4c0-0.1,0.2-0.2,0.3-0.1l0.8,0.2    c0.1,0,0.2,0.2,0.1,0.3c0,0.1-0.2,0.2-0.3,0.1l-0.3-0.1c-0.1,0-0.2,0-0.3,0.1l-0.1,0.4c0,0.1,0,0.2,0.1,0.3l0.2,0.1    c0.1,0,0.2,0.2,0.1,0.3c0,0.1-0.2,0.2-0.3,0.1l-0.2-0.1c-0.1,0-0.2,0-0.3,0.1l-0.1,0.4c0,0.1,0,0.2,0.1,0.3l0.3,0.1    c0.1,0,0.2,0.2,0.1,0.3c0,0.1-0.2,0.2-0.3,0.1L280,205.4z M282.5,206.1c-0.1,0-0.2-0.1-0.2-0.3l0.6-2.4c0-0.1,0.1-0.2,0.3-0.2l0,0    c0.1,0,0.2,0.1,0.2,0.3l-0.5,2c0,0.1,0,0.2,0.2,0.3l0.3,0.1c0.1,0,0.2,0.1,0.2,0.2c0,0.1-0.1,0.2-0.3,0.2L282.5,206.1z M284,206.5    c-0.1,0-0.2-0.1-0.2-0.2l0.4-2.4c0-0.1,0.1-0.2,0.2-0.2l0.8,0.1c0.1,0,0.2,0.1,0.2,0.2c0,0.1-0.1,0.2-0.2,0.2l-0.3-0.1    c-0.1,0-0.2,0.1-0.2,0.2l-0.1,0.4c0,0.1,0.1,0.2,0.2,0.2l0.2,0c0.1,0,0.2,0.1,0.2,0.2c0,0.1-0.1,0.2-0.2,0.2l-0.2,0    c-0.1,0-0.2,0.1-0.2,0.2l-0.1,0.4c0,0.1,0.1,0.2,0.2,0.2l0.3,0.1c0.1,0,0.2,0.1,0.2,0.2c0,0.1-0.1,0.2-0.2,0.2L284,206.5z     M286.7,206.7c-0.1,0.1-0.3,0.2-0.6,0.1c-0.3,0-0.4-0.1-0.5-0.3c-0.1-0.2-0.2-0.3-0.1-0.6l0.2,0c0.1,0,0.2,0.1,0.2,0.2    c0,0,0,0,0.1,0.1c0,0,0.1,0.1,0.2,0.1c0.1,0,0.2,0,0.2-0.1c0.1-0.1,0.1-0.2,0.1-0.3c0-0.3,0-0.4-0.2-0.5l-0.1-0.1    c-0.1-0.1-0.3-0.2-0.3-0.2c0,0-0.2-0.2-0.2-0.6c0-0.3,0.1-0.5,0.3-0.6c0.1-0.1,0.3-0.1,0.5-0.1c0.2,0,0.4,0.1,0.5,0.2    c0.1,0.2,0.2,0.4,0.1,0.7l-0.2,0c-0.1,0-0.2-0.1-0.2-0.2c0,0,0,0-0.1-0.1c0-0.1-0.1-0.1-0.2-0.1c-0.1,0-0.2,0-0.2,0.1    c-0.1,0.1-0.1,0.1-0.1,0.3c0,0.2,0,0.3,0.2,0.4l0.1,0.1c0.1,0.1,0.3,0.2,0.3,0.2c0,0,0.2,0.2,0.2,0.7    C286.9,206.4,286.8,206.6,286.7,206.7 M289.3,206.8c-0.1,0.1-0.3,0.2-0.6,0.2c-0.3,0-0.4-0.1-0.6-0.2c-0.1-0.1-0.2-0.3-0.2-0.6    l0.2,0c0.1,0,0.2,0.1,0.2,0.2c0,0,0,0,0.1,0.1c0,0,0.1,0.1,0.2,0.1c0.1,0,0.2,0,0.2-0.1c0.1-0.1,0.1-0.2,0.1-0.3    c0-0.3,0-0.4-0.3-0.5l-0.2-0.1c-0.1,0-0.3-0.1-0.4-0.2c0,0-0.2-0.2-0.2-0.6c0-0.3,0.1-0.5,0.2-0.6c0.1-0.1,0.3-0.2,0.5-0.2    c0.2,0,0.4,0.1,0.5,0.2c0.2,0.2,0.2,0.4,0.2,0.6l-0.2,0c-0.1,0-0.2-0.1-0.2-0.2c0,0,0,0-0.1-0.1c0-0.1-0.1-0.1-0.2-0.1    c-0.1,0-0.2,0-0.2,0.1c-0.1,0.1-0.1,0.2-0.1,0.3c0,0.2,0,0.3,0.2,0.4l0.1,0.1c0.1,0,0.3,0.1,0.4,0.2c0,0,0.3,0.2,0.3,0.7    C289.5,206.5,289.5,206.7,289.3,206.8 M291.3,206.7c-0.1,0.1-0.3,0.2-0.5,0.2c-0.3,0-0.5-0.1-0.6-0.2c-0.2-0.2-0.2-0.5-0.3-1.2    c0-0.7,0-1,0.1-1.3c0.1-0.1,0.3-0.3,0.6-0.3c0.2,0,0.4,0,0.5,0.2c0.2,0.1,0.2,0.3,0.3,0.6l-0.2,0c-0.1,0-0.2-0.1-0.2-0.2l0-0.1    c0-0.1-0.1-0.1-0.2-0.1c-0.1,0-0.2,0-0.2,0.1c-0.1,0.1-0.1,0.4-0.1,1c0,0.5,0.1,0.8,0.2,1c0,0.1,0.1,0.1,0.2,0.1    c0.1,0,0.2-0.1,0.2-0.1c0-0.1,0.1-0.2,0.1-0.3l0.5,0C291.5,206.4,291.4,206.6,291.3,206.7 M292.2,206.8c-0.1,0-0.2-0.1-0.2-0.2    l-0.2-2.5c0-0.1,0.1-0.2,0.2-0.2l0,0c0.1,0,0.2,0.1,0.2,0.2l0.2,2.5C292.5,206.7,292.4,206.8,292.2,206.8L292.2,206.8z     M293.2,206.7c-0.1,0-0.2-0.1-0.2-0.2l-0.3-2.5c0-0.1,0.1-0.2,0.2-0.2l0.8-0.1c0.1,0,0.2,0.1,0.2,0.2c0,0.1-0.1,0.2-0.2,0.2    l-0.3,0c-0.1,0-0.2,0.1-0.2,0.2l0.1,0.4c0,0.1,0.1,0.2,0.2,0.2l0.2,0c0.1,0,0.2,0.1,0.2,0.2c0,0.1-0.1,0.2-0.2,0.2l-0.2,0    c-0.1,0-0.2,0.1-0.2,0.2l0.1,0.4c0,0.1,0.1,0.2,0.2,0.2l0.3,0c0.1,0,0.2,0.1,0.2,0.2c0,0.1-0.1,0.2-0.2,0.2L293.2,206.7z     M296,206.2c-0.1,0-0.2,0-0.3-0.1l-0.8-1.2c-0.1-0.1-0.1-0.1-0.1,0l0.3,1.3c0,0.1-0.1,0.2-0.2,0.3l0,0c-0.1,0-0.2-0.1-0.2-0.2    l-0.5-2.4c0-0.1,0.1-0.2,0.2-0.2c0.1,0,0.3,0,0.3,0.1l0.8,1.2c0.1,0.1,0.1,0.1,0.1,0l-0.3-1.3c0-0.1,0.1-0.2,0.2-0.2l0,0    c0.1,0,0.2,0.1,0.2,0.2l0.5,2.4C296.2,206.1,296.2,206.2,296,206.2 M298,205.6c-0.1,0.2-0.2,0.3-0.4,0.3c-0.3,0.1-0.5,0-0.6-0.1    c-0.2-0.2-0.3-0.5-0.5-1.1c-0.2-0.7-0.2-1-0.1-1.3c0.1-0.2,0.2-0.3,0.5-0.4c0.2-0.1,0.4,0,0.5,0c0.2,0.1,0.3,0.3,0.4,0.5l-0.2,0.1    c-0.1,0-0.2,0-0.3-0.1c0,0,0,0-0.1-0.1c-0.1-0.1-0.1-0.1-0.2,0c-0.1,0-0.2,0.1-0.2,0.2c0,0.2,0,0.4,0.1,1c0.1,0.5,0.2,0.8,0.3,0.9    c0.1,0.1,0.1,0.1,0.2,0c0.1,0,0.2-0.1,0.2-0.2c0-0.1,0-0.2,0-0.3l0.4-0.1C298.1,205.2,298.1,205.4,298,205.6 M298.9,205.5    c-0.1,0-0.2,0-0.3-0.1l-0.8-2.4c0-0.1,0-0.2,0.1-0.3l0.8-0.2c0.1,0,0.2,0,0.3,0.1c0,0.1,0,0.2-0.1,0.3l-0.3,0.1    c-0.1,0-0.2,0.2-0.1,0.3l0.1,0.4c0,0.1,0.2,0.2,0.3,0.1l0.2-0.1c0.1,0,0.2,0,0.3,0.1c0,0.1,0,0.2-0.1,0.3l-0.2,0.1    c-0.1,0-0.2,0.2-0.1,0.3l0.1,0.4c0,0.1,0.2,0.2,0.3,0.1l0.3-0.1c0.1,0,0.2,0,0.3,0.1c0,0.1,0,0.2-0.1,0.3L298.9,205.5z     M301.4,204.4c-0.1,0.1-0.2,0.3-0.5,0.4c-0.2,0.1-0.4,0.1-0.6,0c-0.2-0.1-0.3-0.2-0.4-0.5l0.2-0.1c0.1,0,0.2,0,0.3,0.1    c0,0,0,0,0.1,0.1c0.1,0,0.1,0,0.2,0c0.1,0,0.2-0.1,0.2-0.2c0-0.1,0-0.2,0-0.3c-0.1-0.3-0.2-0.3-0.4-0.3l-0.2,0    c-0.1,0-0.3,0-0.4-0.1c0,0-0.3-0.1-0.4-0.5c-0.1-0.2-0.1-0.5,0-0.7c0.1-0.2,0.2-0.3,0.4-0.3c0.2-0.1,0.4-0.1,0.5,0    c0.2,0.1,0.3,0.3,0.4,0.5l-0.2,0.1c-0.1,0-0.2,0-0.3-0.1c0,0,0,0-0.1-0.1c-0.1,0-0.1,0-0.2,0c-0.1,0-0.1,0.1-0.2,0.1    c0,0.1,0,0.2,0,0.3c0.1,0.2,0.1,0.3,0.4,0.3l0.2,0c0.1,0,0.3,0,0.4,0.1c0,0,0.3,0.1,0.5,0.5C301.5,204,301.5,204.2,301.4,204.4     M303,203.9c-0.1,0.1-0.2,0-0.3-0.1l-1.1-2.2c-0.1-0.1,0-0.2,0.1-0.3l0.7-0.3c0.1,0,0.2,0,0.3,0.1c0.1,0.1,0,0.2-0.1,0.3l-0.3,0.2    c-0.1,0-0.1,0.2-0.1,0.3l0.2,0.4c0.1,0.1,0.2,0.1,0.3,0.1l0.2-0.1c0.1,0,0.2,0,0.3,0.1c0.1,0.1,0,0.2-0.1,0.3l-0.2,0.1    c-0.1,0.1-0.1,0.2-0.1,0.3l0.2,0.4c0,0.1,0.2,0.1,0.3,0.1l0.3-0.1c0.1-0.1,0.2,0,0.3,0.1c0.1,0.1,0,0.2-0.1,0.3L303,203.9z     M304,200.5c-0.1,0.1-0.1,0.2-0.1,0.3l1,1.8c0.1,0.1,0,0.2-0.1,0.3l0,0c-0.1,0.1-0.2,0-0.3-0.1l-1-1.8c-0.1-0.1-0.2-0.1-0.3-0.1    l-0.1,0c-0.1,0.1-0.2,0-0.3-0.1c-0.1-0.1,0-0.2,0.1-0.3l0.9-0.5c0.1-0.1,0.2,0,0.3,0.1C304.2,200.3,304.2,200.4,304,200.5    L304,200.5z M306.6,201.9c-0.1,0.1-0.2,0-0.3-0.1l-1.3-2.1c-0.1-0.1,0-0.2,0.1-0.3l0,0c0.1-0.1,0.2,0,0.3,0.1l1.1,1.8    c0.1,0.1,0.2,0.1,0.3,0.1l0.3-0.2c0.1-0.1,0.2,0,0.3,0.1c0.1,0.1,0,0.2-0.1,0.3L306.6,201.9z M308.8,200.4c-0.1,0.1-0.2,0-0.3,0    l-0.1-0.1c-0.1-0.1-0.2-0.1-0.3,0l-0.2,0.1c-0.1,0.1-0.1,0.2-0.1,0.3l0.1,0.2c0,0.1,0,0.2-0.1,0.3l0,0c-0.1,0.1-0.2,0-0.2-0.1    l-0.9-2.4c0-0.1,0-0.3,0.1-0.3l0,0c0.1-0.1,0.2-0.1,0.3,0l1.9,1.7C309,200.2,309,200.3,308.8,200.4L308.8,200.4z M307.2,199.1    C307.1,199,307.1,199,307.2,199.1l0.2,0.8c0,0.1,0.2,0.1,0.3,0.1l0.1,0c0.1-0.1,0.1-0.2,0-0.3L307.2,199.1z M310.4,199.3    c-0.2,0.2-0.4,0.2-0.6,0.1c-0.3-0.1-0.5-0.3-0.9-0.9c-0.4-0.6-0.6-0.8-0.5-1.1c0-0.2,0.1-0.4,0.3-0.5c0.2-0.1,0.4-0.2,0.5-0.1    c0.2,0,0.4,0.2,0.5,0.4l-0.2,0.1c-0.1,0.1-0.2,0.1-0.3,0c0,0-0.1-0.1-0.3,0c-0.1,0.1-0.1,0.1-0.1,0.2c0,0.2,0.2,0.4,0.5,0.8    c0.3,0.4,0.5,0.7,0.6,0.7c0.1,0,0.1,0,0.2,0c0.2-0.1,0.1-0.3,0-0.5l-0.1-0.2c-0.1-0.1-0.2-0.1-0.2-0.1c-0.1,0-0.2,0-0.2-0.1    c-0.1-0.1,0-0.2,0.1-0.3l0.3-0.2c0.1-0.1,0.2,0,0.3,0l0.3,0.5C310.9,198.7,310.8,199.1,310.4,199.3 M311.5,198.5    c-0.1,0.1-0.2,0-0.3,0l-1.5-2c-0.1-0.1-0.1-0.2,0-0.3l0,0c0.1-0.1,0.2,0,0.3,0l1.2,1.7c0.1,0.1,0.2,0.1,0.3,0l0.3-0.2    c0.1-0.1,0.2-0.1,0.3,0c0.1,0.1,0,0.2,0,0.3L311.5,198.5z M313.3,196.9c0,0.2-0.1,0.4-0.3,0.5c-0.2,0.2-0.4,0.2-0.6,0.1    c-0.3-0.1-0.5-0.3-0.9-0.9c-0.4-0.5-0.6-0.8-0.6-1.1c0-0.2,0.1-0.4,0.3-0.5c0.2-0.2,0.4-0.2,0.6-0.1c0.3,0.1,0.5,0.3,0.9,0.9    C313.2,196.3,313.4,196.6,313.3,196.9 M311.7,195.3c-0.1,0-0.2,0-0.2,0c-0.1,0.1-0.1,0.1-0.1,0.2c0,0.2,0.2,0.4,0.5,0.8    c0.3,0.4,0.5,0.6,0.7,0.7c0.1,0,0.2,0,0.2,0c0.1-0.1,0.1-0.1,0.1-0.2c0-0.2-0.2-0.4-0.5-0.8C312.1,195.6,311.9,195.4,311.7,195.3     M314.2,196.5c-0.1,0.1-0.2,0-0.3,0l-1.5-2c-0.1-0.1-0.1-0.2,0-0.3l0,0c0.1-0.1,0.2,0,0.3,0l1.5,2    C314.3,196.3,314.3,196.4,314.2,196.5L314.2,196.5z M315.9,195.2c-0.1,0.1-0.2,0.1-0.3,0l-0.7-0.5c-0.1-0.1-0.2-0.1-0.3,0    c-0.1,0,0,0.2,0,0.2l0.5,0.6c0.1,0.1,0.1,0.2,0,0.3l0,0c-0.1,0.1-0.2,0.1-0.3,0l-1.5-2c-0.1-0.1-0.1-0.2,0-0.3l0.2-0.2    c0.1-0.1,0.3-0.2,0.4-0.2c0,0,0.5-0.2,0.9,0.3c0.2,0.3,0.3,0.5,0.2,0.8l0.9,0.6C316,195,316,195.1,315.9,195.2L315.9,195.2z     M313.9,193.6L313.9,193.6c-0.1,0.1-0.2,0.2-0.1,0.3l0.3,0.4c0.1,0.1,0.2,0.1,0.2,0.1c0.1,0,0.1-0.2,0.2-0.3c0,0,0-0.1-0.1-0.3    C314.2,193.6,314.1,193.4,313.9,193.6 M316.5,194.8c-0.1,0.1-0.2,0-0.3,0l-1.4-2c-0.1-0.1,0-0.2,0-0.3l0.7-0.5    c0.1-0.1,0.2,0,0.3,0c0.1,0.1,0,0.2-0.1,0.3l-0.3,0.2c-0.1,0.1-0.1,0.2,0,0.3l0.2,0.3c0.1,0.1,0.2,0.1,0.3,0l0.2-0.1    c0.1-0.1,0.2,0,0.3,0c0.1,0.1,0,0.2,0,0.3l-0.2,0.1c-0.1,0.1-0.1,0.2,0,0.3l0.2,0.3c0.1,0.1,0.2,0.1,0.3,0l0.3-0.2    c0.1-0.1,0.2,0,0.3,0c0.1,0.1,0,0.2,0,0.3L316.5,194.8z M323.5,161.8c-0.3,0.2-7.7,4.7-9.4,6.2c-1.7,1.5-5.8,5.8-6.5,6.7    c-0.1,0.1-0.2,0.3-0.4,0.4c-0.5-0.8,1.2-2.3,1.2-2.5c-0.2,0-0.8,0.8-1,1c-0.1,0.1-0.2,0.3-0.3,0.3c-0.3-0.4,0-0.8,0.2-1    c0.2-0.2,1-1.3,1.2-1.5c-0.5,0.4-0.9,0.9-1.3,1.3c-0.1,0.1-0.2,0.3-0.3,0.3c-0.2,0-0.2-0.5-0.1-0.7c0.1-0.1,1.5-1.7,1.7-1.9    c-0.4,0.3-0.9,0.8-1.3,1.2c-0.1,0.1-0.3,0.4-0.4,0.4c-0.2-0.1-0.1-0.4,0-0.5c5.2-5.2,16.5-10,17-10    C323.9,161.5,323.8,161.7,323.5,161.8 M288.3,167.5c-0.4,0.1-3.8,0.5-4.6,0.6c-0.2-0.2-0.2-0.7-0.6-0.8c-0.1,0-0.3,0-0.5,0    c-1,0.1-1.9,0.2-2.7,0.3c-0.2,0-0.3,0-0.5,0.1l0,0c0,0-0.2-0.2-0.2-0.4c0-0.1-1-1.5-1.4-2.1c-0.2-0.3-0.5-0.6-0.6-1    c-0.1-0.2,0-0.5,0-0.7c0-0.2-0.3-0.4-0.4-0.5c-0.2-0.1-0.4,0-0.5-0.2c-0.1-0.1-0.1-0.4-0.2-0.5c-0.2-0.6-0.5-1-0.7-1.5    c-0.1-0.2-0.9-1.6-1.2-1.7c-0.1-0.1-0.4,0-0.6,0c-0.3-0.1-0.4-0.7-0.8-0.7c-0.3,0-1.1,0.7-1.3,0.8c-1.1,0.8-3.2,2.3-3.3,2.6    c-0.1,0.3,0.2,0.6,0.2,0.6s0.4,0.3,0.5,0.5c0,0.2,0,0.3,0,0.5c0,0.2,1.2,2,2.2,2.7c0.2,0.1,0.5,0.2,0.5,0.3c0,0.2-0.2,0.4-0.1,0.6    c0.1,0.4,0.6,0.5,0.9,0.8c0.3,0.3,0.5,0.8,0.8,1.2c0.3,0.4,0.4,0.6,0.7,1c0,0-0.6,1.2-1.7,0.3c-6.4-5.3-18.6-10.4-19.8-10.9    c-0.4-0.2-0.6-0.3-0.7-0.3c0,0.1,1.2,1.9,1.9,3.3c0.2,0.5,1.8,3.2,1.9,3.5c-0.5,0-1.1-0.6-1.2-0.6c-0.1,0.1,0.1,0.6,0.2,1.1    c0.2,0.5,1.1,3.8,2.8,6.3c0.2,0.3,0.3,0.5,0.2,0.6c-0.2,0.2-1.3-0.6-1.4-0.5c0,0-0.1,0.1,0,0.4c0.1,0.4,0.9,2,3.4,5.7    c-0.1,0.1-0.4,0-0.6,0.2c-0.2,0.2,0.2,0.5,0.4,0.8c0.2,0.3,1.5,2,1.6,2.2c0.1,0.2,1.8,1.9,2.6,2.5c0.8,0.6,2.7,1.6,3.2,1.8    c0.6,0.3,2.4,0.8,2.9,0.9c0.5,0.1,0.9,0.1,1.1,0.2c0.2,0.1,0.6,0.4,0.9,0.6c2.7,1.4,4.5,1.5,6.2,1.2c0.9-0.1,1.4-0.2,1.8,0    c0.4,0.2,1.5,1.2,1.7,1.4c0,0-0.6,1.3-0.9,1.8c-0.5,1-2.7,4.6-2.9,4.9c-0.2,0.3-0.5,1-0.8,0.9c-0.1,0-3.5-1.9-4.1-2.4    c-0.7-0.5-5.7-4.2-6.6-4.9c-0.6-0.5-3.4-2.2-6.1,1.4c-2,3.3-2.3,6.6,1.8,9.8c0.5,0.4,1.6,2.1,1.2,3.8c0,0.2-0.2,0.4-0.1,0.6    c0.1,0.2,3.4-2.6,3.7-6c1.7,1.4,3.5,2.7,5.4,3.8c-0.2,0.3-0.5,0.7-0.7,1c-0.2,0.3-0.5,0.7-0.7,0.8c-0.2,0.1-0.8,0.1-0.9,0.4    c-0.1,0.3,0.1,0.6,0,1c0,0.2-0.3,0.5-0.4,0.7c-0.2,0.3-0.3,0.5-0.5,0.6c-0.2,0.1-0.3,0.1-0.6,0.2c-0.1,0-0.2,0.1-0.4,0.2    c-0.1,0.1-0.3,0.1-0.4,0.1c-0.4,0.2-0.4,0.6-0.2,1c0.1,0.2,0.2,0.3,0.2,0.4c0.2,0.3,0.4,0.4,0.5,0.6c0.2,0.4,1.9,2.7,1.5,3.4    c-0.1,0.3-0.4,0.3-0.8,0.3c-0.4,0-0.6-0.3-0.8-0.4c0.2-0.4,0.7-1.3,0.6-1.6c-0.1-0.3-0.3-0.3-0.6-0.6c-0.4-0.3-4.8-4.5-5.1-5    c-0.3-0.5-1.5-2-1.9-2.5c-0.4-0.5-1.6-2.6-1.8-2.6c-0.2,0-0.6,0.7-0.6,0.8c0,0.1-0.2,0.6-0.3,0.7c-0.5,1.7-1.5,5.9-0.7,11.8    c0.9,6.6,4.3,11.6,5.6,13.1c0.1,0.2,0.3,0.4,0.5,0.3c0.7-0.2,1.8-1.3,2.2-1.7c0.2-0.1,0.3,0,0.3,0c0,0,0.1,0.1,0.1,0.1    c1.9,1.9,4.6,4,8.2,5.5c1.1,0.4,2.1,0.8,3.1,1.2c5.9,2.3,9.8,3.6,12.1,10.7c0.1,0.4,0.1,0.4,0.2,0.4c0.1,0,0.2-0.3,0.2-0.4    c2.2-7.3,6-8.6,12.1-11c1-0.4,2-0.8,3.1-1.2c3.6-1.5,6.3-3.5,8.2-5.5c0.4,0.4,1.5,1.5,2.2,1.7c0.2,0.1,0.3,0,0.4-0.2    c1.3-1.5,4.8-6.2,5.8-13.2c0.8-5.8-0.1-10.1-0.7-11.8c-0.1-0.3-0.5-1.5-0.7-1.5c-0.3,0-0.5,0.2-0.7,0.6c-0.2,0.2-0.4,0.5-0.6,0.8    c-2.9,4.7-8.4,8.8-8.6,9.3c-0.2,0.4,0.3,1,0.5,1.5c-0.2,0.1-0.5,0.3-0.8,0.4c-0.3,0.1-0.9-0.5-0.9-0.7c0-0.4,0.4-0.7,0.6-1    c0.4-0.4,0.6-0.8,0.8-1.4c0.1-0.3,0.5-1.1,0.6-1.2c0.1-0.1,0.5-0.9,0.4-1c0-0.2-0.2-0.5-0.4-0.5c-0.2-0.1-1-0.3-1.2-0.4    c-0.3-0.1-1-1.1-1.1-1.4c0-0.3,0.2-0.7,0-1c-0.1-0.2-0.6-0.2-0.9-0.3c-0.2-0.1-1-1.3-1.2-1.6c3.4-2,5.1-3.6,5.6-3.9l0,0    c0.2,3,3.6,6.2,3.7,6c0.1-0.1-0.1-0.4-0.2-0.8c-0.1-0.4,0-2.3,1.2-3.5c4.1-3.2,3.7-6.5,1.8-9.8c-2.2-2.9-4.4-2.4-5.5-1.8    c-1,0.5-4.4,3.3-5.2,3.9c-1.3,1-4.8,3.3-5.7,3.6c-0.1,0-0.6,0-0.7-0.2c-0.5-0.5-2.2-2.9-3-4.5c-0.6-1.2-1.4-2.6-1.1-3    c0.1-0.2,1.6-1.2,2.1-1.3c0.4-0.1,1.3,0.2,2.2,0.3c1,0.1,4.2-0.7,5.1-1.4c0.9-0.7,0.7-0.5,0.8-0.5c0.1-0.1,0.8-0.1,1.2-0.2    c5.1-0.8,9.2-5.5,9.9-6.6c0.7-1.1,0.9-1.4,0.8-1.7c-0.1-0.3-0.4-0.1-0.6-0.2c0.6-1,1.7-2.3,2-2.8c0.2-0.5,1-1.5,1.3-2.3    c0.2-0.5,0.3-0.8,0.2-1c-0.2-0.2-1.2,0.7-1.4,0.4c-0.2-0.2,0.6-0.9,2.1-4c1.3-2.6,1.2-3.7,1.1-3.9c-0.1-0.2-1,0.4-1.2,0.5    c0.6-1.2,1.3-2.3,1.9-3.4c0.7-1.4,1.9-3.3,1.9-3.3c0-0.1-0.2,0.1-0.7,0.3c-1.2,0.6-13.4,5.6-19.8,10.9c-0.3,0.2-0.9,0.4-1.4,0    c0.4-0.6,0.7-0.9,0.8-1.1c0.1-0.2,0.5-0.9,0.9-1.2c0.3-0.3,0.8-0.3,0.9-0.8c0-0.2-0.2-0.4-0.1-0.6c0-0.2,0.3-0.2,0.5-0.3    c0.2-0.1,0.8-0.6,0.9-0.8c0.2-0.2,1.2-1.3,1.3-1.9c0-0.2,0-0.3,0-0.5c0.1-0.2,0.3-0.3,0.5-0.5c0.1-0.1,0.2-0.4,0.2-0.6    c0-0.2-0.4-0.3-0.6-0.5c-1.1-0.8-3.2-2.3-3.4-2.5c-0.2-0.1-0.4-0.4-0.7-0.4c-0.4,0-0.4,0.6-0.8,0.7c-0.2,0.1-0.5,0-0.6,0    c-0.3,0.1-0.8,1.1-1,1.3c-0.2,0.3-0.9,1.5-0.9,1.8c-0.1,0.3-0.1,0.4-0.2,0.5c-0.1,0.1-0.4,0.1-0.5,0.2c-0.1,0.1-0.3,0.3-0.4,0.5    c0,0.2,0,0.5,0,0.7c-0.1,0.3-0.5,0.8-0.7,1.1c-0.2,0.3-1.2,1.8-1.3,2c-0.1,0.2-0.3,0.5-0.3,0.5c-0.6-0.1-1.2-0.3-1.7-0.3    c-0.5,0-1.9-0.2-1.9-0.2c-0.6-0.1-0.7,0.4-0.9,0.7c-1.3-0.2-2.4-0.3-3.5-0.4c-0.2,0-0.3-0.4-0.3-0.6c0-0.2,0-3.6,0-4.2    c0-0.1,0.1,0,0.1,0c3.1,4.3,6.2,4.2,7.1,3.7c0.6-0.7,1.9-2.9,2.6-5.1c0.4-1.4,0.6-3,0.6-4.3c-0.1-1.7-0.7-7.9-7.3-10.5    c-6.5-2.6-11.9,0.4-13.1,1c-0.4,0.2-0.7,0.4-0.7,0.5c-0.1,0.2,0.3,0.6,0.4,0.6c0.2,0.1,0.4,0,0.7,0c0.2,0,1.1,0.7,1.4,1.4    c0.3,0.7,0.7,1.8,0.6,2.3c-0.1,0.4-1.2,0.9-2.1,2.9c-0.7-0.7-1.2,1-1.4,1.5c-0.2,0.4-0.7,2.7-0.6,3c0.1,0.4,0.1,0.4,0.3,0.6    c-0.4,1-1.1,2.2-1.2,2.6c-0.1,0.4-0.6,1.1-0.7,2.2c0.9,0.4,4.2,0.9,9.9-1.3c0,0.9,0,3.3,0,3.3    C288.3,167.4,288.3,167.4,288.3,167.5 M290.8,163c0-0.1-0.1-0.3-0.2-0.3c-0.1,0-0.2,0.1-0.2,0.3v10.9c0,0.1,0.1,0.3,0.2,0.3    c0.1,0,0.2-0.1,0.2-0.3V163z M290,163.4c0-0.1-0.1-0.2-0.3-0.1c-0.2,0.1-1,0.5-1,0.7v10c0,0.1,0.1,0.2,0.3,0.3    c0.2,0,0.7,0.1,0.8,0c0.1,0,0.2-0.1,0.2-0.3V163.4z M289.3,230.3c0-0.2-0.3-18.4-0.3-18.4c0-0.1-0.1-1.7-0.2-2    c-0.1-0.3-0.5-0.3-0.8-0.3c-2,0-3.3-0.3-4.2-0.5c-0.3-0.1-0.2,0.5,0,0.5c0.6,0,1.5,0.2,2,0.3c-0.1,0.1-0.1,0.2-0.1,0.3    c-0.4,0-2.3-0.5-2,0.3c0.2,0.5,1.5,0.4,1.9,0.6c0,0,0,0.1,0,0.2c-0.5,0-1.3-0.1-1.8-0.2c-0.2,0.1-0.2,0.3-0.2,0.6    c0.1,0,1.8,0.2,1.8,0.5c-0.5,0.1-1.4-0.1-1.8,0c0,0.1,0,0.3,0,0.5c0.2,0.2,1.7,0.2,1.7,0.4c-0.4,0.2-1.3,0-1.7,0.1    c0,0.2,0,0.4,0,0.6c0.2,0.1,1.6,0.1,1.5,0.3c-0.2,0.1-1.3,0.1-1.6,0.1c0,0.3,0,0.5,0,0.7c0.2,0.1,1.5,0,1.5,0.3    c-0.2,0.1-1.3,0-1.5,0c0,0.2-0.1,0.4-0.1,0.7c0.3-0.1,1.5,0,1.5,0.3c-0.1,0.1-1.3,0.1-1.6,0c0,0.2-0.1,0.4-0.1,0.6    c0.1,0.2,1.6,0,1.6,0.2c0,0.2-1.6,0.1-1.7,0.1c0,0.2-0.1,0.4-0.1,0.7c0.3,0,1.7,0.1,1.6,0.3c-0.3,0.1-1.3-0.1-1.7,0    c-0.1,0.2-0.2,0.4-0.3,0.6c0.4,0.1,1.4,0.2,1.8,0.3c0,0.2-0.2,0.1-0.3,0.1s-1.3-0.2-1.6-0.2c-0.1,0.2-0.2,0.4-0.3,0.6    c0.2,0.1,2,0.3,1.9,0.5c-0.6,0.1-1.5-0.2-2.1-0.2c-0.1,0.3-0.3,0.4-0.4,0.6c0.5,0.1,1.5,0.3,2,0.5v0.1c-0.7,0-1.6-0.3-2.2-0.3    c0,0.1-0.4,0.4-0.4,0.5c0,0.2,2.3,0.4,2.4,0.6c0,0.2-2.4-0.3-2.6-0.2c-0.2,0.2-0.4,0.3-0.6,0.5c0.4,0.2,2.7,0.6,3,0.6l0,0.3    c-0.3,0-2.5-0.4-3.3-0.6c-0.2,0.2-0.4,0.3-0.6,0.5c0.2,0.1,3.5,0.6,3.9,0.8v0.1c-1.5-0.1-2.9-0.3-4.2-0.7c-0.4,0.1-1,0.1-1.4,0.2    c1.5,0.4,3,0.8,4.5,1.1c-0.1,0-0.1,0.1-0.1,0.2c-0.4-0.1-4.2-0.9-4.5-1c-0.1,0-0.2-0.1-0.4-0.2c-0.3-0.1-3.3,0.2-7.6-3    c-3.8-2.9-7.5-7.7-8.2-8.6c-0.2-0.2-0.3-0.5-0.5-0.6c0,0.6,0.1,0.8,0.3,1.2c0.2,0.5,3.9,7.1,5.8,9.2c1.5,1.7,3.8,3.9,6.3,5.4    c2.2,1.3,6.2,2.9,8.7,3.3c1.9,0.3,6.4,0.5,6.7,0.5C289.2,230.9,289.3,230.5,289.3,230.3 M265.7,200.4c-1.6-1.7-4.2-3.8-4.5-3.6    c-0.2,0.2,0.5,0.6,0.7,0.7c0.1,0.1,3.1,2.8,3.3,3c0.3,0.3,0.5,0.7,0.6,0.9C266,201.6,266.4,201.1,265.7,200.4 M259.9,199.9    c-0.2,0.2,0.5,0.6,0.6,0.7c0,0,2.9,2.5,3.1,4.4c0,0.2,0,0.5,0.2,0.4c0.1-0.1,0.3,0,0.2-0.5c-0.1-0.7-0.5-1.7-0.9-2.2    C262.8,202.5,260.1,199.6,259.9,199.9 M259.4,198.5c-0.1,0.2,0.5,0.6,0.6,0.7c0,0,4,3,4.3,4.9c0,0.2,0.1,0.5,0.2,0.4    c0.1,0,0.3,0,0.2-0.5c-0.1-0.7-0.7-1.6-1.3-2.2C262.8,201.2,259.6,198.2,259.4,198.5 M259.3,197.3c-0.3,0.1,0.6,0.8,0.7,0.9    c0.3,0.2,4.5,3.8,4.9,5c0.1,0.2,0.1,0.4,0.2,0.4c0.1,0,0.3,0,0.2-0.5c-0.2-0.6-0.6-1.1-1.6-2.2    C262.6,199.8,259.7,197.1,259.3,197.3 M259.8,196.5c-0.3,0.1,0.6,0.8,0.7,0.9c0.3,0.2,4.2,3.5,5,4.7c0.1,0.2,0.1,0.4,0.2,0.3    c0.2,0,0.2-0.1,0.1-0.5c-0.1-0.3-0.7-1-1.8-2C263.1,199,260.2,196.4,259.8,196.5 M313.6,201c0.1-0.2,0.4-0.6,0.6-0.9    c0.2-0.2,3.1-2.9,3.3-3c0.1-0.1,0.8-0.5,0.7-0.7c-0.2-0.2-2.9,2-4.5,3.6C313,200.7,313.3,201.3,313.6,201 M316.3,202.5    c-0.5,0.5-0.8,1.6-0.9,2.2c-0.1,0.5,0.1,0.4,0.2,0.5c0.1,0.1,0.1-0.3,0.2-0.4c0.2-1.9,3.1-4.4,3.1-4.4c0.1-0.1,0.7-0.6,0.6-0.7    C319.3,199.3,316.6,202.2,316.3,202.5 M316,201.6c-0.6,0.6-1.2,1.5-1.3,2.2c-0.1,0.5,0.1,0.5,0.2,0.5c0.1,0,0.2-0.3,0.2-0.4    c0.4-1.9,4.3-4.9,4.3-4.9c0.1-0.1,0.8-0.5,0.6-0.7C319.8,197.9,316.6,200.9,316,201.6 M315.7,200.6c-1.1,1-1.4,1.5-1.6,2.2    c-0.1,0.5,0.1,0.5,0.2,0.5s0.2-0.2,0.2-0.4c0.3-1.2,4.5-4.7,4.9-5c0.2-0.1,1-0.8,0.7-0.9C319.6,196.8,316.8,199.5,315.7,200.6     M315.3,199.7c-1.1,1-1.7,1.7-1.7,2c-0.1,0.3,0,0.4,0.1,0.5c0.2,0,0.1-0.1,0.2-0.3c0.7-1.2,4.6-4.4,5-4.7c0.2-0.1,1-0.8,0.7-0.9    C319.1,196.1,316.3,198.7,315.3,199.7 M289.8,209.9v-0.3 M270.3,208.1c2.2,1.6,6.7,4.7,8.9,6.3c0,0.1-0.1,0.4-0.2,0.4    c-0.1,0.1-3.4-2.3-3.4-2.3l-0.2,0.3c0,0,2.5,1.7,3.4,2.4c0.1,0.1-0.3,0.4-0.3,0.4c-2.2-1.6-6.7-4.8-8.9-6.4    C269.7,208.8,270.1,208.5,270.3,208.1 M270.5,207c0.5-0.1,8.8,6,9.4,6.5c0.2,0.1,0.4,0.3,0.3,0.6c-0.3,0-0.5-0.2-0.6-0.4    c-0.2-0.1-8.5-6.2-8.8-6.5C270.6,207.2,270.4,207.2,270.5,207 M268.5,209.6C268.6,209.6,268.6,209.6,268.5,209.6L268.5,209.6    c1.7,1.1,8.6,6.2,9.3,6.7c0.2,0.1,0.5,0.3,0.4,0.6c-0.1,0.1-0.2-0.1-0.3-0.1C277.2,216.2,270.9,211.5,268.5,209.6L268.5,209.6z     M268.4,210.6c-0.3-0.2-0.9-0.5-0.4-0.7c3.3,2.4,6.6,4.9,9.9,7.3c0.1,0.1,0.2,0.1,0.2,0.3c-0.2,0.2-0.5-0.1-0.7-0.2    C275.1,215.5,269.1,211.1,268.4,210.6 M270.6,209.5c-0.1-0.1-0.1-0.3,0-0.4c0.2-0.2,1.4,0.8,1.6,1.2    C271.6,210.4,270.9,209.8,270.6,209.5 M289.2,176.5c0-0.3,0.2-0.6,0.2-0.6c-2.7-0.1-4.9-2.1-4.9-4.6c0-1.1,0.4-2.1,1.1-2.8    c-0.6-0.1-1.6,0.1-1.8,0.1c-0.3,0.1-0.4,0.3-0.4,0.4c-0.1,0.8-0.2,2.3,0,4.3c0.2,2,1.1,4.3,1.6,5.5c0,0,0,0.1,0,0.2    c0,0.1-2.4,2-2.8,2c-0.3-0.1-1.7-1.3-1.8-1.4c-0.1,0-0.2,0.1-0.3,0.1c-0.5,0.1-0.9,0-1.2,0.1c-0.2,0-0.5,0-0.6,0.2    c0.7,2.4,1.8,4.8,3,6.8c0.2,0.3,0.4,0.7,0.6,0.8c0.3,0.2,0.8,0.5,2.3,0.4c1.3-0.1,2.8,0,3.9-0.1h0v-0.4h1.6V177    C289.6,177,289.2,176.8,289.2,176.5 M290.5,176.6c0,0,0.2,0.2,1.2,0.1l-0.1,0.2h-1.3c0,0-0.4,0.1-0.4,0.4c0,0.4,0.4,0.3,0.4,0.3    h1.3l-0.1,0.3h-1.2c0,0-0.4-0.1-0.4,0.3c0,0.3,0.1,0.5,0.3,0.5h1.4l-0.1,0.3h-1.3c-0.1,0-0.3,0.1-0.3,0.3c0,0.2,0.1,0.4,0.3,0.4    h1.4l-0.1,0.2h-1.2c-0.2,0-0.3,0.1-0.3,0.3c0,0.2,0.1,0.5,0.4,0.5h1.3l-0.1,0.2h-1.2c-0.2,0-0.4,0.2-0.4,0.4    c0,0.2-0.1,0.4,0.4,0.4h1.3l-0.1,0.2h-1.2c-0.2,0-0.3,0-0.3,0.3c0,0.3,0.2,0.4,0.4,0.4h1.1l-0.1,0.2h-1c-0.2,0-0.4-0.1-0.4,0.4    c0,0.4,0.1,0.4,0.4,0.4h1l0.1,0.3h-1.1c-0.2,0-0.4,0-0.4,0.4c0,0.4,0.2,0.4,0.4,0.4h1.1l0.1,0.3h-1.2c-0.2,0-0.4,0-0.4,0.4    s0.1,0.4,0.4,0.4h1.1l0.1,0.3c0,0-0.9,0-1.1,0s-0.5,0.2-0.5,0.4c0,0.2,0.3,0.3,0.4,0.3h1.3l0.1,0.3h-1.8v0.2h1.5v0.4    c1.6,0.1,3.4-0.1,5-0.1c0.4,0,1.2,0.1,1.2-0.3c0-0.2-0.6-0.2-0.8-0.2c-0.9-0.1-1.6,0-2.4-0.1c0-0.1,0-0.2,0-0.3    c0.7,0,2.8-0.1,2.9-0.1c0.4,0,0.7,0,0.6-0.4c-0.7-0.1-1.5-0.1-2.2-0.2c0-0.1,0-0.2,0-0.2c0.5,0,1.1,0,1.6,0c0.5,0,1.3,0.1,1-0.5    c-0.6-0.1-1.4-0.1-2-0.2c0-0.1,0-0.2,0-0.3c0.4,0,1.1-0.1,1.6,0c0.4,0,1.1,0.2,0.9-0.4c-0.6-0.2-1.4-0.1-2-0.3    c0-0.1,0.1-0.1,0.2-0.3c0.3,0,2.6,0.1,2.5-0.4c0,0-0.1-0.1,0-0.1c-1.1-0.3-2.5-0.1-3.7-0.4V183c0,0,3.7,0,3.8,0    c0.1,0,0.3-0.2,0.3-0.3c-0.1-0.1-0.8-0.2-0.9-0.3c-0.7-0.2-1.6-0.1-2.3-0.2c0-0.1,0-0.2,0.1-0.2c0.9,0,2.1,0.1,3,0    c0.3,0,0.7,0,0.7-0.3c0-0.2-1-0.3-1.2-0.4c-0.7-0.1-1.3-0.2-2.1-0.1c-0.3,0-2.7-1.9-2.8-2.2c-0.1-0.3,0.5-1.4,0.5-1.4    c0.2-0.4,0.3-0.9,0.4-1.1c0-0.1,0.1-0.2,0.1-0.3c0.2-0.6,0.6-2,0.6-2.8c0.1-2,0.1-3.4,0-4.1c-0.1-0.6-0.5-0.7-1.3-0.8    c-0.8-0.1-0.4,0.4-0.4,0.4c0.5,0.7,0.8,1.6,0.8,2.5c0,2.3-1.9,4.2-4.4,4.6c0,0-0.2,0-0.1,0.2C290.5,176.3,290.5,176.6,290.5,176.6     M309.6,177.6c0,0.1-0.7,1.2,0.7,0.3c1.4-0.8,2.4-1,2.4-1c-1.3,1.2-4,2.1-4,2.1l-1.3,1.9c0.6,0,5-2.1,5.7-2.8    c0.7-0.7,2.6-4.3,3-5.1c0.3-0.8,0-0.9-0.3-0.6c-0.3,0.2-1.4,1.1-2,1.6c-0.6,0.6-3.2,2.1-3.2,2.1    C310.4,176.4,309.6,177.6,309.6,177.6 M263.1,170.4c-0.4-0.8-1.4-3.7-1.3-3.8c0.2-0.1,0.6,0,0.7,0.2c0.3,0.3,0.4,0.9,0.6,1.2    c0-0.1,0-0.4,0.2-0.4c0.7,0,0.7,1.5,1.5,1.8c0-0.1-0.2-0.3-0.1-0.5c0.3,0,0.5,0.2,0.7,0.4c0.3,0.3,1.4,2.2,1.4,2.5    c-0.5,0.1-2.7-1.9-2.9-2c0.1,0.3,2.9,2.8,3.3,3.1c0.2,0.3,0.9,1.9,1,2.2c0,0.1,0.1,0.2,0.1,0.3    C267.9,175.3,263.4,171.1,263.1,170.4 M253.8,161.3c0.2-0.1,1.6,0.9,2,1.6c0.2,0.4,0.4,0.7,0.4,0.6c0,0-0.2-0.5,0-0.5    c0.2,0,0.7,0.3,1.6,1.8c0-0.3-0.4-0.8-0.1-0.8c0.5-0.1,0.9,1.1,1.2,1.4c0.3,0.4,0-0.6,0.1-0.6c0.2,0,0.5,0.1,0.6,0.3    c0.1,0.2,0.7,1.8,1,1.7c0.2,0-0.4-0.9-0.2-1.1c0.2-0.2,0.6,0.3,0.7,0.5c0.1,0.2,1.1,2.6,0.9,2.8c-0.2,0.2-1.3-0.7-1.6-0.9    c-0.4-0.4-2.5-2.2-2.5-2.1c-0.1,0.1,0.6,1,1.3,1.7c1.6,1.7,3.4,3,3.4,3s0.6,1.1,0.4,1.1c-2,0-5.2-4-5.5-4.5    C256.7,166.6,253.4,161.5,253.8,161.3 M268.6,176.3c0,0-2.6-1.6-3.2-2.1c-0.6-0.6-1.8-1.4-2-1.6c-0.3-0.2-0.6-0.2-0.3,0.6    c0.3,0.8,2.3,4.4,3,5.1c0.7,0.7,5.1,2.7,5.7,2.8l-1.2-1.9c0,0-2.7-0.9-4-2.1c0,0,1,0.2,2.4,1c1.4,0.8,0.7-0.2,0.7-0.3    C269.6,177.6,268.8,176.5,268.6,176.3 M278.6,172.1c0.2,0-0.5-0.1-0.5,0.4c0,0.4-0.1,4-0.4,4.9c-0.3,0.9-0.7,2.2-0.5,2.3    c0.2,0.1,0.4,0.2,0.6-0.3c0.2-0.5,1.4-4.1,1.2-6.5C279,172.1,278.6,172.1,278.6,172.1 M300,172.8c-0.2,2.3,1,5.9,1.2,6.5    c0.2,0.5,0.4,0.4,0.6,0.3c0.2-0.1-0.2-1.3-0.5-2.3c-0.3-0.9-0.4-4.5-0.4-4.9c0-0.4-0.6-0.4-0.5-0.4    C300.5,172.1,300.1,172.1,300,172.8"/>
		<g>
			<line class="st0" x1="140.4" y1="583.3" x2="441.6" y2="583.3"/>
			<rect x="140.4" y="582" class="st0" width="301.2" height="2.7"/>
		</g>
		<rect x="247.1" y="639.9" class="st0" width="6.2" height="28.3"/>
		<path class="st0" d="M276.9,639.9h-11.6v28.3h6.2v-8.5h4.7c6.4,0,11.5-3.4,11.5-10C287.8,643.9,283.7,639.9,276.9,639.9     M276.5,654.2h-4.9v-8.7h4.8c3.1,0,5.1,1.5,5.1,4.3C281.5,652.3,279.7,654.2,276.5,654.2"/>
		<path class="st0" d="M319.7,639.9h-11.6v28.3h6.2v-8.5h4.7c6.4,0,11.5-3.4,11.5-10C330.5,643.9,326.4,639.9,319.7,639.9     M319.3,654.2h-4.9v-8.7h4.8c3.1,0,5.1,1.5,5.1,4.3C324.2,652.3,322.4,654.2,319.3,654.2"/>
		<path class="st0" d="M346.1,639.7h5.8l12.1,28.6h-6.5l-2.6-6.4h-12l-2.6,6.4h-6.4L346.1,639.7z M352.6,656.4l-3.8-9.2l-3.8,9.2    H352.6z"/>
		<path class="st0" d="M371.8,639.9h13c3.6,0,6.4,1,8.3,2.9c1.6,1.6,2.4,3.8,2.4,6.5v0.1c0,4.6-2.5,7.5-6.1,8.8l6.9,10.1H389    l-6.1-9.1h-0.1H378v9.1h-6.2V639.9z M384.4,653.7c3,0,4.8-1.6,4.8-4v-0.1c0-2.7-1.9-4.1-4.9-4.1H378v8.1H384.4z"/>
		<rect x="406" y="639.9" class="st0" width="6.2" height="28.3"/>
		<path class="st0" d="M434.9,651.3c-4.9-1.3-6.1-1.9-6.1-3.8c0-1.4,1.3-2.5,3.6-2.5s4.9,1.1,7.4,2.8l3.2-4.7    c-2.9-2.3-6.4-3.6-10.5-3.6c-5.8,0-9.9,3.4-9.9,8.6c0,5.6,3.7,7.3,9.4,8.7c4.7,1.2,5.7,2.1,5.7,3.6c0,1.7-1.5,2.7-4.1,2.7    c-3.2,0-5.9-1.3-8.5-3.4l-3.7,4.4c3.4,3,7.7,4.5,12,4.5c6.1,0,10.4-3.2,10.4-8.8C443.9,654.9,440.7,652.8,434.9,651.3"/>
		<path class="st0" d="M180,654.8c-12.5-8.6-19.2-13.1-25.5-17.8c-3,5-4.8,10.9-4.8,17.2c0,11.4,5.7,21.4,14.5,27.4    C167.9,674.3,172.8,666.3,180,654.8"/>
		<path class="st0" d="M212.7,661.4c-5.1,5.4-13.3,6.2-19.2,2.5c-1.1-0.7-9.2-6.3-9.2-6.3c-9,12.6-13.6,19-18.5,24.8    c5,3.1,10.9,4.8,17.3,4.8c17.8,0,32.3-14,33.1-31.6C215.4,657.8,214.2,659.8,212.7,661.4"/>
		<path class="st0" d="M206.5,642.7c-1.1-0.7-8.2-5.5-8.2-5.5c-5.8,8.6-6.7,9.8-11.2,16.2c0,0,7.7,5,8.9,5.7c4,2.5,9.3,1.7,12.4-1.7    c1.2-1.3,2.1-3,2.4-4.7C211.4,649.5,210.4,645.2,206.5,642.7"/>
		<path class="st0" d="M182.6,650.6c4.2-6.7,8-12.7,14-21.7c0,0,12.5,8.3,13.6,9.1c1.3,0.9,2.3,1.9,3,2.8    c-5.1-11.7-16.8-19.8-30.4-19.8c-10.8,0-20.4,5.2-26.5,13.2C163.2,638.1,171.1,643.2,182.6,650.6"/>
		<path class="st0" d="M151.6,630.2c0-2.3-1.9-4.2-4.2-4.2c-2.3,0-4.2,1.9-4.2,4.2c0,2.3,1.9,4.2,4.2,4.2    C149.7,634.4,151.6,632.5,151.6,630.2"/>
		<path class="st0" d="M154.5,618l2-1.4c1.2-0.8,2.4-0.7,3.1,0.3l0,0c0.8,1.1,0.3,2.3-0.8,3.1l-1,0.7l1.2,1.6l-0.9,0.6L154.5,618z     M158.3,619.3c0.7-0.5,0.8-1.1,0.4-1.7l0,0c-0.4-0.6-1.1-0.6-1.7-0.1l-1,0.7l1.3,1.8L158.3,619.3z"/>
		<path class="st0" d="M162.7,616.3L162.7,616.3c-0.7-1.6-0.1-3.5,1.7-4.2c1.7-0.8,3.5,0,4.2,1.6l0,0c0.7,1.6,0.1,3.4-1.7,4.2    C165.2,618.6,163.4,617.9,162.7,616.3 M167.5,614.1L167.5,614.1c-0.5-1.1-1.7-1.7-2.8-1.2c-1.1,0.5-1.5,1.7-1,2.8l0,0    c0.5,1.1,1.7,1.6,2.8,1.2C167.6,616.5,168,615.2,167.5,614.1"/>
		<polygon class="st0" points="171.2,609.7 172.2,609.5 173.3,614.5 176.5,613.8 176.7,614.8 172.5,615.7   "/>
		<polygon class="st0" points="179.9,612.1 177.2,608.5 178.5,608.4 180.4,611 181.9,608.2 183.2,608.2 181,612 181.1,614.4     180,614.5   "/>
		<polygon class="st0" points="187.6,609.5 185.6,609.3 185.8,608.3 190.7,608.8 190.6,609.8 188.7,609.6 188.1,614.7 187,614.6       "/>
		<polygon class="st0" points="194.4,609.6 198.7,611 198.4,611.9 195.1,610.9 194.6,612.4 197.6,613.3 197.3,614.2 194.4,613.3     193.9,614.9 197.2,615.9 197,616.9 192.6,615.5   "/>
		<path class="st0" d="M200.9,615.2L200.9,615.2c0.8-1.6,2.7-2.2,4.3-1.3c1,0.5,1.4,1.2,1.7,2l-1,0.4c-0.2-0.6-0.5-1.2-1.2-1.5    c-1-0.6-2.2-0.1-2.8,0.9l0,0c-0.6,1.1-0.3,2.3,0.7,2.9c0.7,0.4,1.2,0.3,1.9,0.1l0.3,0.9c-0.9,0.3-1.7,0.3-2.7-0.2    C200.5,618.6,200,616.7,200.9,615.2"/>
		<polygon class="st0" points="210.4,617.3 211.3,618 209.6,619.9 211.9,621.8 213.5,619.9 214.3,620.6 210.4,625.3 209.6,624.6     211.2,622.6 209,620.7 207.3,622.7 206.5,622   "/>
		<polygon class="st0" points="217.6,624 218.2,624.7 216.9,630 220.2,627.4 220.9,628.2 216,632 215.5,631.2 216.8,625.9     213.4,628.6 212.7,627.7   "/>
		
			<rect x="217.5" y="633.2" transform="matrix(0.8784 -0.4779 0.4779 0.8784 -275.9983 182.4277)" class="st0" width="6.1" height="1.1"/>
		<path class="st0" d="M221.6,642.8c-0.5-0.4-0.9-0.9-1.2-1.6c-0.6-1.8,0.3-3.5,1.9-4.1l0,0c1.6-0.6,3.4,0.2,4.1,2    c0.6,1.8-0.3,3.5-1.9,4.1l0,0c-0.7,0.2-1.3,0.2-2,0l-0.3,0.9l-1-0.4L221.6,642.8z M222,641.8l0.5-1.3l1,0.4l-0.6,1.3    c0.4,0.1,0.8,0.1,1.2-0.1l0,0c1.1-0.4,1.8-1.5,1.4-2.7c-0.4-1.2-1.6-1.6-2.7-1.3l0,0c-1.1,0.4-1.8,1.5-1.4,2.7    C221.5,641.3,221.7,641.6,222,641.8"/>
		<path class="st0" d="M224.7,646.6l3.5-0.4l0.1,1.1l-3.5,0.4c-1.1,0.1-1.7,0.8-1.6,1.7c0.1,1,0.8,1.5,1.9,1.3l3.5-0.4l0.1,1.1    l-3.5,0.4c-1.8,0.2-2.9-0.7-3-2.3C222.1,647.9,222.9,646.8,224.7,646.6"/>
		<polygon class="st0" points="228.9,655.5 228.5,660.1 227.5,660 227.8,656.5 226.2,656.4 226,659.5 225,659.4 225.3,656.3     223.6,656.2 223.3,659.7 222.4,659.6 222.7,655.1   "/>
		<polygon class="st0" points="156.8,691.8 155.9,691.2 159.5,686.2 160.4,686.8   "/>
		<polygon class="st0" points="152.3,688.3 151.6,687.6 152.3,682.3 149.3,685.3 148.5,684.5 152.9,680.2 153.5,680.9 152.8,686.3     155.9,683.3 156.7,684   "/>
		<path class="st0" d="M150.4,678.5l-1-0.1c0.1-0.8,0-1.4-0.4-2.1c-0.4-0.6-0.9-0.7-1.2-0.5l0,0c-0.4,0.2-0.4,0.6,0,1.7    c0.5,1.3,0.5,2.1-0.4,2.7l0,0c-0.9,0.6-2,0.2-2.6-0.8c-0.5-0.7-0.7-1.5-0.6-2.3l1,0c0,0.7,0.1,1.3,0.4,1.7    c0.3,0.5,0.8,0.7,1.2,0.4l0,0c0.4-0.3,0.4-0.6,0-1.7c-0.5-1.3-0.4-2.1,0.4-2.6l0,0c1-0.6,2-0.3,2.7,0.8    C150.3,676.6,150.5,677.6,150.4,678.5"/>
		<polygon class="st0" points="142,672.4 142.7,674.2 141.8,674.6 139.8,670 140.8,669.6 141.5,671.4 146.3,669.3 146.7,670.3   "/>
		
			<rect x="138.6" y="664.8" transform="matrix(0.9654 -0.2608 0.2608 0.9654 -168.5883 59.9561)" class="st0" width="6.1" height="1.1"/>
		<polygon class="st0" points="138.5,660.2 138.7,662.1 137.7,662.2 137.1,657.3 138.1,657.2 138.4,659.1 143.5,658.5 143.6,659.5       "/>
		<path class="st0" d="M140.5,654l-3.5-0.2l0.1-1.1l3.5,0.2c1.1,0.1,1.8-0.5,1.9-1.4c0.1-1-0.5-1.6-1.6-1.7l-3.5-0.2l0.1-1.1    l3.5,0.2c1.8,0.1,2.7,1.2,2.6,2.8C143.3,653.1,142.3,654.1,140.5,654"/>
		<polygon class="st0" points="139.4,643.4 138.9,645.2 137.9,645 139.2,640.2 140.1,640.4 139.7,642.3 144.6,643.6 144.4,644.6       "/>
		<path class="st0" d="M169.3,691.3l2.4,0.7c2.5,0.7,3.3,2.3,2.8,4.1l0,0c-0.5,1.8-2.2,2.8-4.7,2.1l-2.3-0.7L169.3,691.3z     M170.4,696.4c0.9,0.3,1.7,0.1,1.9-0.8l0,0c0.3-0.9-0.2-1.5-1.2-1.7l-0.3-0.1l-0.7,2.6L170.4,696.4z"/>
		<polygon class="st0" points="178.4,693.5 183.9,693.7 183.8,695.5 180.4,695.3 180.4,696 183.5,696.1 183.4,697.7 180.3,697.5     180.3,698.2 183.7,698.4 183.6,700.2 178.1,699.9   "/>
		<path class="st0" d="M192,692.7l2.8-0.8c1.6-0.5,3-0.1,3.4,1.4l0,0c0.5,1.5-0.4,2.6-2.1,3.1l-0.7,0.2l0.5,1.7l-2.1,0.6L192,692.7z     M195.5,695c0.5-0.2,0.8-0.5,0.7-0.9l0,0c-0.1-0.4-0.5-0.6-1.1-0.4l-0.6,0.2l0.4,1.4L195.5,695z"/>
		<path class="st0" d="M201.6,689l1.9-1.1l5.6,4.3l-2,1.2l-0.7-0.6l-2,1.1l0.1,0.9l-2,1.1L201.6,689z M205,691.8l-1.3-1.1l0.3,1.6    L205,691.8z"/>
		<path class="st0" d="M207.9,685l2.3-2.2c0.8-0.8,1.6-1.1,2.2-1c0.5,0,1,0.2,1.5,0.7l0,0c0.6,0.7,0.7,1.5,0.4,2.3l2.6,0.6l-1.8,1.7    l-2.1-0.5l0,0l-0.3,0.3l1.3,1.3l-1.6,1.5L207.9,685z M212.2,685.2c0.4-0.4,0.4-0.7,0.2-1l0,0c-0.3-0.3-0.7-0.2-1,0.1l-0.7,0.6    l0.9,0.9L212.2,685.2z"/>
		
			<rect x="216.5" y="676.1" transform="matrix(0.5912 -0.8065 0.8065 0.5912 -458.9854 453.1467)" class="st0" width="2.2" height="6.4"/>
		<path class="st0" d="M222.1,676.7l-0.7-1.6c0.8-0.4,1.3-1,1.7-1.7c0.2-0.3,0.2-0.5,0-0.6l0,0c-0.2-0.1-0.3,0.1-0.8,0.6    c-0.9,1.2-1.8,2.1-3,1.5l0,0c-1.1-0.5-1.5-1.8-0.8-3.4c0.5-1.1,1.2-1.8,2.1-2.2l0.9,1.6c-0.7,0.4-1.2,0.9-1.4,1.5    c-0.1,0.3-0.1,0.5,0,0.5l0,0c0.2,0.1,0.3,0,0.7-0.6c1-1.3,1.9-2.1,3.1-1.6l0,0c1.2,0.6,1.5,2,0.7,3.5    C224,675.4,223.1,676.3,222.1,676.7"/>
	</g>
</g>
<g id="Calque_2">
</g>
</svg>