<?xml version="1.0" encoding="UTF-8"?>
<!-- Generator: Adobe Illustrator 26.0.1, SVG Export Plug-In . SVG Version: 6.00 Build 0)  -->
<svg version="1.1" id="Layer_1" xmlns="http://www.w3.org/2000/svg" xmlns:xlink="http://www.w3.org/1999/xlink" x="0px" y="0px" viewBox="0 0 51.02 51.02" style="enable-background:new 0 0 51.02 51.02;" xml:space="preserve">
<style type="text/css">
	.st0{fill:#102D69;}
	.st1{fill:#FFFFFF;}
</style>
<g>
	
		<ellipse transform="matrix(0.2011 -0.9796 0.9796 0.2011 -4.6085 45.373)" class="st0" cx="25.51" cy="25.51" rx="25.51" ry="25.51"/>
	<g>
		<path class="st1" d="M44.02,22.61l1.65-0.15l0.02,0c0.06,0.38,0.1,0.77,0.14,1.15c0.04,0.38,0.06,0.77,0.08,1.16l-0.02,0    l-1.65,0.15l0.02,0.71l4-0.38l-0.03-0.71l-1.68,0.16l-0.01,0c-0.02-0.39-0.04-0.77-0.08-1.16c-0.04-0.38-0.08-0.77-0.14-1.15    l0.01,0l1.69-0.16l-0.11-0.7l-4,0.38L44.02,22.61z"/>
		<path class="st1" d="M14.91,10.08l-0.87-1.43l0.42-0.26l1.19,0.46c0.6,0.24,1.19,0.32,1.61-0.15l-0.32-0.53    c-0.2,0.22-0.52,0.21-0.98,0.05l-1.3-0.47l0.43-2.45l-0.72,0.41l-0.31,2.15l-0.35,0.22l-0.88-1.44l-0.58,0.41l2.09,3.42    L14.91,10.08z"/>
		<path class="st1" d="M23.67,3.86l-0.03-0.39c0.07-0.01,0.14-0.01,0.2-0.02c0.4-0.03,0.8-0.05,1.2-0.06l0.26,3.39l0.71-0.05    L25.75,3.4L25.7,2.76c-0.38,0-0.77,0-1.15,0.02L23.03,2.9c-0.03,0-0.07,0.01-0.1,0.01l0.05,0.63l0.01,0.16    c0.18,2.42-0.18,2.71-0.59,2.74c-0.09,0.01-0.18,0-0.23-0.02l-0.02,0.59c0.11,0.02,0.34,0.04,0.5,0.03    C23.43,6.98,23.86,6.43,23.67,3.86z"/>
		<path class="st1" d="M19.75,7.78c1.18-0.39,1.73-1.57,1.37-2.65c-0.36-1.1-1.47-1.73-2.66-1.34c-1.18,0.39-1.73,1.57-1.37,2.65    C17.45,7.54,18.57,8.17,19.75,7.78z M18.66,4.42c0.77-0.25,1.51,0.2,1.76,0.95c0.12,0.38,0.1,0.77-0.05,1.09    c-0.15,0.32-0.42,0.58-0.81,0.71c-0.77,0.25-1.51-0.2-1.76-0.95c-0.2-0.63,0.01-1.26,0.52-1.6C18.43,4.54,18.53,4.46,18.66,4.42z"/>
		<path class="st1" d="M41.02,11.53c0.77-0.84,0.76-2.14-0.16-2.98C40.3,8.05,39.63,7.88,39,8.02l0.16,0.71    c0.43-0.11,0.89-0.02,1.26,0.31c0.51,0.47,0.57,1.16,0.23,1.72c-0.3-0.31-0.61-0.61-0.93-0.89c-0.13-0.12-0.27-0.24-0.4-0.36    l-0.41,0.48c0.13,0.11,0.26,0.23,0.39,0.34c0.32,0.29,0.63,0.59,0.93,0.9c-0.53,0.39-1.24,0.4-1.76-0.07    c-0.38-0.34-0.51-0.81-0.42-1.26l-0.71-0.1c-0.09,0.65,0.13,1.34,0.7,1.85C38.96,12.49,40.24,12.38,41.02,11.53z"/>
		<path class="st1" d="M30.9,22.16c0.88-1.02,1.25-2.26,1.25-3.44c0-0.95-0.26-2.85-1.93-4.16c-1.15-0.89-2.16-1.31-4.59-1.31H24.4    c-0.04,0-0.07,0-0.12,0h-5.06v23.91h14.45v-4.59c0-4.39-1.42-7.34-5.09-8.64C29.73,23.45,30.44,22.72,30.9,22.16z M28.03,21.7    c-0.66,0.82-1.73,1.58-3.25,1.58c-0.01,0-0.02,0-0.03,0v1.19c4.06,0,5.65,2.7,5.65,7.64v3.72h0h-2.61v-7.98h-3.01v7.99h-2.3V14.44    l2.37,0c0.89,0,2.23,0.2,3.18,1.38c0.49,0.6,0.8,1.39,0.9,2.19h-4.15v1.18h4.18C28.93,19.95,28.77,20.8,28.03,21.7z"/>
		<path class="st1" d="M34.51,7.74c0.4,0.2,0.89,0.04,1.09-0.36c0.2-0.4,0.04-0.89-0.36-1.09c-0.4-0.2-0.89-0.04-1.09,0.36    C33.95,7.05,34.11,7.54,34.51,7.74z"/>
		<path class="st1" d="M28.2,6.03L28.2,6.03c0.32,0.04,0.63,0.09,0.95,0.15c0.31,0.06,0.63,0.13,0.94,0.2v0L30.3,7.4l0.75,0.21    l-1-4.4L29.4,3.1l-2.53,3.73l0.76,0.07L28.2,6.03z M29.55,4l0.39,1.71c-0.23-0.05-0.45-0.1-0.68-0.14    c-0.23-0.04-0.45-0.08-0.68-0.12L29.55,4z"/>
		<path class="st1" d="M44.26,16.32c-1.08,0.4-1.66,1.54-1.23,2.71c0.43,1.17,1.64,1.66,2.71,1.26c1.08-0.4,1.66-1.54,1.23-2.71    C46.53,16.41,45.33,15.92,44.26,16.32z M46.35,17.8c0.28,0.75-0.13,1.52-0.87,1.79c-0.07,0.03-0.14,0.02-0.2,0.04    c-0.68,0.16-1.37-0.13-1.62-0.82c-0.18-0.47-0.08-0.95,0.2-1.3c0.04-0.06,0.1-0.11,0.15-0.16c0.01-0.01,0.02-0.03,0.03-0.04    c0.03-0.03,0.07-0.05,0.11-0.08c0.04-0.03,0.08-0.06,0.12-0.09c0,0,0,0,0.01,0c0.08-0.05,0.16-0.09,0.25-0.12    c0.37-0.14,0.76-0.13,1.09,0C45.94,17.16,46.21,17.42,46.35,17.8z"/>
		<path class="st1" d="M40.6,14.41l1.4-0.92l0.27,0.41l-0.42,1.2c-0.22,0.61-0.28,1.2,0.2,1.61l0.52-0.34    c-0.22-0.19-0.22-0.51-0.08-0.97l0.42-1.32l2.46,0.35l-0.44-0.71l-2.16-0.24l-0.23-0.34l1.41-0.93l-0.43-0.57l-3.35,2.2    L40.6,14.41z"/>
		<path class="st1" d="M6.19,18.61c0.45,0.04,0.84-0.28,0.89-0.73c0.04-0.45-0.28-0.84-0.73-0.89c-0.45-0.04-0.84,0.28-0.89,0.73    C5.41,18.17,5.74,18.56,6.19,18.61z"/>
		<polygon class="st1" points="32.32,42.96 31.09,46.46 30.19,43.65 29.5,43.81 30.74,47.65 31.41,47.48 32.62,44.01 33.52,46.8     34.17,46.54 32.94,42.71   "/>
		<path class="st1" d="M25.52,45.47c-0.45,0-0.81,0.36-0.81,0.81c0,0.45,0.36,0.81,0.81,0.81c0.45,0,0.81-0.36,0.81-0.81    C26.33,45.84,25.97,45.47,25.52,45.47z"/>
		<path class="st1" d="M36.22,40.88l0.88,1.43l-0.42,0.26l-1.19-0.45c-0.6-0.24-1.19-0.31-1.61,0.16l0.33,0.53    c0.2-0.22,0.52-0.21,0.98-0.05l1.31,0.46l-0.41,2.45l0.72-0.42l0.3-2.16l0.35-0.22l0.89,1.43l0.58-0.41l-2.11-3.41L36.22,40.88z"/>
		<polygon class="st1" points="40.05,37.32 40.71,40.97 38.54,38.97 38.03,39.45 41,42.18 41.5,41.69 40.84,38.08 43,40.06     43.44,39.52 40.47,36.79   "/>
		<path class="st1" d="M46.35,27.06c-1.14-0.2-2.22,0.49-2.43,1.72c-0.22,1.23,0.57,2.26,1.7,2.46c1.14,0.2,2.22-0.49,2.43-1.72    S47.47,27.25,46.35,27.06z M47.4,29.39c-0.03,0.2-0.11,0.38-0.21,0.53c-0.3,0.45-0.87,0.68-1.45,0.58    c-0.69-0.12-1.18-0.65-1.2-1.31c0-0.09,0-0.19,0.02-0.29c0.03-0.2,0.11-0.38,0.21-0.53c0.3-0.45,0.87-0.68,1.45-0.58    C47.01,27.93,47.54,28.6,47.4,29.39z"/>
		<path class="st1" d="M18.53,44.12c-0.16,0.54,0.08,0.89,0.49,1.18c-0.33,0.07-0.67,0.24-0.81,0.71c-0.08,0.27-0.05,0.51,0.07,0.73    c0.16,0.29,0.47,0.54,0.91,0.67l1.48,0.38l1.12-3.87l-1.52-0.44C19.42,43.22,18.74,43.42,18.53,44.12z M19.47,46.8    c-0.44-0.13-0.63-0.39-0.54-0.69c0.02-0.07,0.05-0.13,0.08-0.18c0.11-0.15,0.28-0.21,0.5-0.2c0.1,0,0.2,0.02,0.31,0.05l0.66,0.19    L20.18,47L19.47,46.8z M19.84,45.16C19.3,45,19.1,44.73,19.19,44.4c0.08-0.27,0.29-0.4,0.58-0.38c0.1,0,0.21,0.02,0.32,0.06    l0.86,0.25l-0.31,1.07L19.84,45.16z"/>
		<path class="st1" d="M42.98,32.28l1.42,0.81c0.48,0.27,1.05,0.58,1.52,0.84l-0.01,0.01c-0.51-0.12-3.47-0.48-3.47-0.48L42.18,34    c0,0,2.04,2.24,2.43,2.58L44.6,36.6c-0.49-0.25-1.07-0.5-1.55-0.71l-1.52-0.66l-0.4,0.64l3.76,1.57l0.51-0.87    c0,0-1.89-2.06-2.24-2.35l0.01-0.02c0.45,0.1,3.2,0.4,3.2,0.4l0.39-0.95l-3.52-2.07L42.98,32.28z"/>
		<path class="st1" d="M7.29,29.82l-1.01-0.25h0c-0.07-0.31-0.12-0.63-0.17-0.94C6.05,28.32,6.01,28,5.98,27.68l0,0l0.88-0.55    l-0.05-0.78l-3.8,2.43l0.1,0.65l4.37,1.12L7.29,29.82z M5.38,28.05c0.03,0.23,0.06,0.46,0.1,0.69c0.04,0.23,0.08,0.45,0.12,0.68    l-1.7-0.43L5.38,28.05z"/>
		<path class="st1" d="M14.69,42.37c-0.41,0.7-0.11,1.4,0.67,1.87l0.55,0.33l-0.74,1.26l0.61,0.36l2.06-3.49L16.68,42    C15.87,41.53,15.1,41.67,14.69,42.37z M16.22,44.03l-0.53-0.31c-0.46-0.27-0.61-0.62-0.4-0.98c0.12-0.2,0.27-0.31,0.45-0.34    c0.18-0.03,0.39,0.03,0.62,0.16l0.54,0.32L16.22,44.03z"/>
		<path class="st1" d="M9.77,15.43c0.96-1.5,2.13-2.85,3.47-4.02l-0.5-0.44l-2.58-2.23C9.99,8.9,9.81,9.06,9.65,9.23l2.58,2.22    c-0.39,0.37-0.76,0.75-1.12,1.15l-2.56-2.21c-0.16,0.18-0.31,0.36-0.47,0.54l2.56,2.21c-0.34,0.4-0.66,0.82-0.96,1.26L7.1,12.18    c-0.14,0.19-0.27,0.39-0.41,0.58l2.58,2.23L9.77,15.43z"/>
		<path class="st1" d="M4.02,25.02c0.69,0.06,1.08-0.36,1.22-0.69l0.71,0.61c0.19,0.17,0.32,0.49,0.24,0.71l0.61-0.01    c0.15-0.33,0.07-0.81-0.41-1.21l-0.95-0.8l0.04-0.5l1.45,0.13l0.1-0.72l-4.01-0.32c-0.04,0.22-0.13,1.11-0.14,1.23    C2.78,24.56,3.32,24.97,4.02,25.02z M3.61,22.99l1.2,0.1l-0.04,0.46c-0.03,0.41-0.27,0.76-0.69,0.72    c-0.32-0.03-0.57-0.22-0.53-0.8C3.57,23.34,3.58,23.18,3.61,22.99z"/>
		<path class="st1" d="M10.07,36.1c-1.01-1.47-1.79-3.07-2.34-4.77l-0.6,0.29l-3.06,1.5c0.08,0.22,0.16,0.44,0.25,0.67l3.05-1.51    c0.19,0.5,0.39,1,0.62,1.48l-3.04,1.49c0.1,0.22,0.21,0.43,0.31,0.64L8.3,34.4c0.24,0.47,0.5,0.93,0.78,1.38l-3.04,1.51    c0.12,0.2,0.25,0.4,0.38,0.6l3.06-1.5L10.07,36.1z"/>
		
			<rect x="11.21" y="41.93" transform="matrix(0.5751 -0.8181 0.8181 0.5751 -28.9676 28.7895)" class="st1" width="4.05" height="0.71"/>
		<path class="st1" d="M11.82,38.15c-0.52-0.56-1.21-0.77-1.85-0.68l0.1,0.71c0.45-0.09,0.92,0.03,1.26,0.41    c0.55,0.59,0.46,1.46-0.12,1.99c-0.59,0.54-1.44,0.57-1.99-0.02c-0.34-0.36-0.43-0.83-0.32-1.26l-0.71-0.15    c-0.13,0.62,0.04,1.3,0.54,1.84c0.85,0.91,2.15,0.91,2.98,0.14C12.56,40.34,12.66,39.07,11.82,38.15z"/>
	</g>
</g>
</svg>