<svg xmlns="http://www.w3.org/2000/svg" xmlns:xlink="http://www.w3.org/1999/xlink" width="283.68pt" height="293.40pt" viewBox="0 0 283.68 293.40">
<defs><clipPath id="figbox"><rect x="0" y="0" width="283.68" height="293.40"/></clipPath><clipPath id="c0"><rect x="35.70" y="227.46" width="238.08" height="0.24"/></clipPath><clipPath id="c1"><rect x="35.70" y="200.70" width="238.08" height="0.12"/></clipPath><clipPath id="c2"><rect x="35.70" y="173.22" width="238.08" height="0.24"/></clipPath><clipPath id="c3"><rect x="35.70" y="145.86" width="238.08" height="0.24"/></clipPath><clipPath id="c4"><rect x="35.70" y="118.38" width="238.08" height="0.24"/></clipPath><clipPath id="c5"><rect x="35.70" y="91.62" width="238.08" height="0.24"/></clipPath><clipPath id="c6"><rect x="35.70" y="64.14" width="238.08" height="0.24"/></clipPath><clipPath id="c7"><rect x="35.70" y="36.78" width="238.08" height="0.24"/></clipPath><clipPath id="c8"><rect x="59.58" y="36.78" width="0.24" height="218.16"/></clipPath><clipPath id="c9"><rect x="83.46" y="36.78" width="0.24" height="218.16"/></clipPath><clipPath id="c10"><rect x="106.86" y="36.78" width="0.24" height="218.16"/></clipPath><clipPath id="c11"><rect x="130.74" y="36.78" width="0.24" height="218.16"/></clipPath><clipPath id="c12"><rect x="154.74" y="36.78" width="0.24" height="218.16"/></clipPath><clipPath id="c13"><rect x="178.62" y="36.78" width="0.24" height="218.16"/></clipPath><clipPath id="c14"><rect x="202.50" y="36.78" width="0.24" height="218.16"/></clipPath><clipPath id="c15"><rect x="225.90" y="36.78" width="0.24" height="218.16"/></clipPath><clipPath id="c16"><rect x="249.78" y="36.78" width="0.24" height="218.16"/></clipPath><clipPath id="c17"><rect x="273.78" y="36.78" width="0.24" height="218.16"/></clipPath><clipPath id="c18"><rect x="32.82" y="251.58" width="5.76" height="6.24"/></clipPath><clipPath id="c19"><rect x="32.82" y="251.58" width="5.76" height="6.24"/></clipPath><clipPath id="c20"><rect x="35.70" y="251.22" width="3.24" height="3.72"/></clipPath></defs>
<g clip-path="url(#figbox)">
<path d="M0.06,0.06 L283.62,0.06 L283.62,293.34 L0.06,293.34 Z" fill="#ffffff" stroke="#000000" fill-rule="evenodd" stroke-width="0.120" stroke-linecap="round" stroke-linejoin="round"/>
<path d="M35.58,227.46 L273.78,227.46" fill="none" stroke="#000000" stroke-width="0.120" stroke-linecap="round" stroke-linejoin="round" stroke-dasharray="2.8799999,2.8799999,2.8799999,2.8799999,2.8799999,2.8799999,2.8799999,2.8799999" stroke-dashoffset="0.00" clip-path="url(#c0)"/>
<path d="M35.58,200.70 L273.78,200.70" fill="none" stroke="#000000" stroke-width="0.120" stroke-linecap="round" stroke-linejoin="round" stroke-dasharray="2.8799999,2.8799999,2.8799999,2.8799999,2.8799999,2.8799999,2.8799999,2.8799999" stroke-dashoffset="0.00" clip-path="url(#c1)"/>
<path d="M35.58,173.22 L273.78,173.22" fill="none" stroke="#000000" stroke-width="0.120" stroke-linecap="round" stroke-linejoin="round" stroke-dasharray="2.8799999,2.8799999,2.8799999,2.8799999,2.8799999,2.8799999,2.8799999,2.8799999" stroke-dashoffset="0.00" clip-path="url(#c2)"/>
<path d="M35.58,145.86 L273.78,145.86" fill="none" stroke="#000000" stroke-width="0.120" stroke-linecap="round" stroke-linejoin="round" stroke-dasharray="2.8799999,2.8799999,2.8799999,2.8799999,2.8799999,2.8799999,2.8799999,2.8799999" stroke-dashoffset="0.00" clip-path="url(#c3)"/>
<path d="M35.58,118.38 L273.78,118.38" fill="none" stroke="#000000" stroke-width="0.120" stroke-linecap="round" stroke-linejoin="round" stroke-dasharray="2.8799999,2.8799999,2.8799999,2.8799999,2.8799999,2.8799999,2.8799999,2.8799999" stroke-dashoffset="0.00" clip-path="url(#c4)"/>
<path d="M35.58,91.62 L273.78,91.62" fill="none" stroke="#000000" stroke-width="0.120" stroke-linecap="round" stroke-linejoin="round" stroke-dasharray="2.8799999,2.8799999,2.8799999,2.8799999,2.8799999,2.8799999,2.8799999,2.8799999" stroke-dashoffset="0.00" clip-path="url(#c5)"/>
<path d="M35.58,64.14 L273.78,64.14" fill="none" stroke="#000000" stroke-width="0.120" stroke-linecap="round" stroke-linejoin="round" stroke-dasharray="2.8799999,2.8799999,2.8799999,2.8799999,2.8799999,2.8799999,2.8799999,2.8799999" stroke-dashoffset="0.00" clip-path="url(#c6)"/>
<path d="M35.58,36.78 L273.78,36.78" fill="none" stroke="#000000" stroke-width="0.120" stroke-linecap="round" stroke-linejoin="round" stroke-dasharray="2.8799999,2.8799999,2.8799999,2.8799999,2.8799999,2.8799999,2.8799999,2.8799999" stroke-dashoffset="0.00" clip-path="url(#c7)"/>
<path d="M59.58,36.78 L59.58,254.82" fill="none" stroke="#000000" stroke-width="0.120" stroke-linecap="round" stroke-linejoin="round" stroke-dasharray="2.8799999,2.8799999,2.8799999,2.8799999,2.8799999,2.8799999,2.8799999,2.8799999" stroke-dashoffset="0.00" clip-path="url(#c8)"/>
<path d="M83.46,36.78 L83.46,254.82" fill="none" stroke="#000000" stroke-width="0.120" stroke-linecap="round" stroke-linejoin="round" stroke-dasharray="2.8799999,2.8799999,2.8799999,2.8799999,2.8799999,2.8799999,2.8799999,2.8799999" stroke-dashoffset="0.00" clip-path="url(#c9)"/>
<path d="M106.86,36.78 L106.86,254.82" fill="none" stroke="#000000" stroke-width="0.120" stroke-linecap="round" stroke-linejoin="round" stroke-dasharray="2.8799999,2.8799999,2.8799999,2.8799999,2.8799999,2.8799999,2.8799999,2.8799999" stroke-dashoffset="0.00" clip-path="url(#c10)"/>
<path d="M130.74,36.78 L130.74,254.82" fill="none" stroke="#000000" stroke-width="0.120" stroke-linecap="round" stroke-linejoin="round" stroke-dasharray="2.8799999,2.8799999,2.8799999,2.8799999,2.8799999,2.8799999,2.8799999,2.8799999" stroke-dashoffset="0.00" clip-path="url(#c11)"/>
<path d="M154.74,36.78 L154.74,254.82" fill="none" stroke="#000000" stroke-width="0.120" stroke-linecap="round" stroke-linejoin="round" stroke-dasharray="2.8799999,2.8799999,2.8799999,2.8799999,2.8799999,2.8799999,2.8799999,2.8799999" stroke-dashoffset="0.00" clip-path="url(#c12)"/>
<path d="M178.62,36.78 L178.62,254.82" fill="none" stroke="#000000" stroke-width="0.120" stroke-linecap="round" stroke-linejoin="round" stroke-dasharray="2.8799999,2.8799999,2.8799999,2.8799999,2.8799999,2.8799999,2.8799999,2.8799999" stroke-dashoffset="0.00" clip-path="url(#c13)"/>
<path d="M202.50,36.78 L202.50,254.82" fill="none" stroke="#000000" stroke-width="0.120" stroke-linecap="round" stroke-linejoin="round" stroke-dasharray="2.8799999,2.8799999,2.8799999,2.8799999,2.8799999,2.8799999,2.8799999,2.8799999" stroke-dashoffset="0.00" clip-path="url(#c14)"/>
<path d="M225.90,36.78 L225.90,254.82" fill="none" stroke="#000000" stroke-width="0.120" stroke-linecap="round" stroke-linejoin="round" stroke-dasharray="2.8799999,2.8799999,2.8799999,2.8799999,2.8799999,2.8799999,2.8799999,2.8799999" stroke-dashoffset="0.00" clip-path="url(#c15)"/>
<path d="M249.78,36.78 L249.78,254.82" fill="none" stroke="#000000" stroke-width="0.120" stroke-linecap="round" stroke-linejoin="round" stroke-dasharray="2.8799999,2.8799999,2.8799999,2.8799999,2.8799999,2.8799999,2.8799999,2.8799999" stroke-dashoffset="0.00" clip-path="url(#c16)"/>
<path d="M273.78,36.78 L273.78,254.82" fill="none" stroke="#000000" stroke-width="0.120" stroke-linecap="round" stroke-linejoin="round" stroke-dasharray="2.8799999,2.8799999,2.8799999,2.8799999,2.8799999,2.8799999,2.8799999,2.8799999" stroke-dashoffset="0.00" clip-path="url(#c17)"/>
<path d="M35.58,36.78 L273.78,36.78" fill="none" stroke="#808080" stroke-width="0.583" stroke-linecap="round" stroke-linejoin="round"/>
<path d="M273.78,36.78 L273.78,254.82" fill="none" stroke="#808080" stroke-width="0.583" stroke-linecap="round" stroke-linejoin="round"/>
<path d="M273.78,254.82 L35.58,254.82" fill="none" stroke="#808080" stroke-width="0.583" stroke-linecap="round" stroke-linejoin="round"/>
<path d="M35.58,254.82 L35.58,36.78" fill="none" stroke="#808080" stroke-width="0.583" stroke-linecap="round" stroke-linejoin="round"/>
<path d="M35.58,36.78 L35.58,254.82" fill="none" stroke="#000000" stroke-width="1.749" stroke-linecap="round" stroke-linejoin="round"/>
<path d="M33.90,254.82 L35.58,254.82" fill="none" stroke="#000000" stroke-width="1.749" stroke-linecap="round" stroke-linejoin="round"/>
<path d="M33.90,227.46 L35.58,227.46" fill="none" stroke="#000000" stroke-width="1.749" stroke-linecap="round" stroke-linejoin="round"/>
<path d="M33.90,200.70 L35.58,200.70" fill="none" stroke="#000000" stroke-width="1.749" stroke-linecap="round" stroke-linejoin="round"/>
<path d="M33.90,173.22 L35.58,173.22" fill="none" stroke="#000000" stroke-width="1.749" stroke-linecap="round" stroke-linejoin="round"/>
<path d="M33.90,145.86 L35.58,145.86" fill="none" stroke="#000000" stroke-width="1.749" stroke-linecap="round" stroke-linejoin="round"/>
<path d="M33.90,118.38 L35.58,118.38" fill="none" stroke="#000000" stroke-width="1.749" stroke-linecap="round" stroke-linejoin="round"/>
<path d="M33.90,91.62 L35.58,91.62" fill="none" stroke="#000000" stroke-width="1.749" stroke-linecap="round" stroke-linejoin="round"/>
<path d="M33.90,64.14 L35.58,64.14" fill="none" stroke="#000000" stroke-width="1.749" stroke-linecap="round" stroke-linejoin="round"/>
<path d="M33.90,36.78 L35.58,36.78" fill="none" stroke="#000000" stroke-width="1.749" stroke-linecap="round" stroke-linejoin="round"/>
<path d="M35.58,254.82 L273.78,254.82" fill="none" stroke="#000000" stroke-width="1.749" stroke-linecap="round" stroke-linejoin="round"/>
<path d="M35.58,256.62 L35.58,254.82" fill="none" stroke="#000000" stroke-width="1.749" stroke-linecap="round" stroke-linejoin="round"/>
<path d="M59.58,256.62 L59.58,254.82" fill="none" stroke="#000000" stroke-width="1.749" stroke-linecap="round" stroke-linejoin="round"/>
<path d="M83.46,256.62 L83.46,254.82" fill="none" stroke="#000000" stroke-width="1.749" stroke-linecap="round" stroke-linejoin="round"/>
<path d="M106.86,256.62 L106.86,254.82" fill="none" stroke="#000000" stroke-width="1.749" stroke-linecap="round" stroke-linejoin="round"/>
<path d="M130.74,256.62 L130.74,254.82" fill="none" stroke="#000000" stroke-width="1.749" stroke-linecap="round" stroke-linejoin="round"/>
<path d="M154.74,256.62 L154.74,254.82" fill="none" stroke="#000000" stroke-width="1.749" stroke-linecap="round" stroke-linejoin="round"/>
<path d="M178.62,256.62 L178.62,254.82" fill="none" stroke="#000000" stroke-width="1.749" stroke-linecap="round" stroke-linejoin="round"/>
<path d="M202.50,256.62 L202.50,254.82" fill="none" stroke="#000000" stroke-width="1.749" stroke-linecap="round" stroke-linejoin="round"/>
<path d="M225.90,256.62 L225.90,254.82" fill="none" stroke="#000000" stroke-width="1.749" stroke-linecap="round" stroke-linejoin="round"/>
<path d="M249.78,256.62 L249.78,254.82" fill="none" stroke="#000000" stroke-width="1.749" stroke-linecap="round" stroke-linejoin="round"/>
<path d="M273.78,256.62 L273.78,254.82" fill="none" stroke="#000000" stroke-width="1.749" stroke-linecap="round" stroke-linejoin="round"/>
<path d="M37.98,254.58 C37.98,253.14 36.78,251.94 35.34,251.94 C33.90,251.94 32.70,253.14 32.70,254.58 C32.70,256.02 33.90,257.22 35.34,257.22 C36.78,257.22 37.98,256.02 37.98,254.58" fill="#969696" stroke="#000080" fill-rule="evenodd" stroke-width="0.583" stroke-linecap="round" stroke-linejoin="round" clip-path="url(#c18)"/>
<path d="M61.86,221.94 C61.86,220.50 60.78,219.30 59.22,219.30 C57.78,219.30 56.70,220.50 56.70,221.94 C56.70,223.38 57.78,224.58 59.22,224.58 C60.78,224.58 61.86,223.38 61.86,221.94" fill="#969696" stroke="#000080" fill-rule="evenodd" stroke-width="0.583" stroke-linecap="round" stroke-linejoin="round"/>
<path d="M85.86,197.46 C85.86,196.02 84.66,194.82 83.22,194.82 C81.78,194.82 80.58,196.02 80.58,197.46 C80.58,198.90 81.78,200.10 83.22,200.10 C84.66,200.10 85.86,198.90 85.86,197.46" fill="#969696" stroke="#000080" fill-rule="evenodd" stroke-width="0.583" stroke-linecap="round" stroke-linejoin="round"/>
<path d="M109.14,172.98 C109.14,171.54 107.94,170.34 106.50,170.34 C105.06,170.34 103.86,171.54 103.86,172.98 C103.86,174.42 105.06,175.62 106.50,175.62 C107.94,175.62 109.14,174.42 109.14,172.98" fill="#969696" stroke="#000080" fill-rule="evenodd" stroke-width="0.583" stroke-linecap="round" stroke-linejoin="round"/>
<path d="M133.14,153.66 C133.14,152.22 131.94,151.02 130.50,151.02 C129.06,151.02 127.86,152.22 127.86,153.66 C127.86,155.10 129.06,156.30 130.50,156.30 C131.94,156.30 133.14,155.10 133.14,153.66" fill="#969696" stroke="#000080" fill-rule="evenodd" stroke-width="0.583" stroke-linecap="round" stroke-linejoin="round"/>
<path d="M157.02,137.34 C157.02,135.90 155.82,134.70 154.38,134.70 C152.94,134.70 151.74,135.90 151.74,137.34 C151.74,138.78 152.94,139.98 154.38,139.98 C155.82,139.98 157.02,138.78 157.02,137.34" fill="#969696" stroke="#000080" fill-rule="evenodd" stroke-width="0.583" stroke-linecap="round" stroke-linejoin="round"/>
<path d="M180.90,118.14 C180.90,116.70 179.82,115.50 178.38,115.50 C176.82,115.50 175.74,116.70 175.74,118.14 C175.74,119.58 176.82,120.78 178.38,120.78 C179.82,120.78 180.90,119.58 180.90,118.14" fill="#969696" stroke="#000080" fill-rule="evenodd" stroke-width="0.583" stroke-linecap="round" stroke-linejoin="round"/>
<path d="M204.90,104.70 C204.90,103.26 203.70,102.06 202.26,102.06 C200.82,102.06 199.62,103.26 199.62,104.70 C199.62,106.14 200.82,107.34 202.26,107.34 C203.70,107.34 204.90,106.14 204.90,104.70" fill="#969696" stroke="#000080" fill-rule="evenodd" stroke-width="0.583" stroke-linecap="round" stroke-linejoin="round"/>
<path d="M228.18,88.38 C228.18,86.94 227.10,85.74 225.54,85.74 C224.10,85.74 223.02,86.94 223.02,88.38 C223.02,89.82 224.10,91.02 225.54,91.02 C227.10,91.02 228.18,89.82 228.18,88.38" fill="#969696" stroke="#000080" fill-rule="evenodd" stroke-width="0.583" stroke-linecap="round" stroke-linejoin="round"/>
<path d="M252.18,72.06 C252.18,70.62 250.98,69.42 249.54,69.42 C248.10,69.42 246.90,70.62 246.90,72.06 C246.90,73.50 248.10,74.70 249.54,74.70 C250.98,74.70 252.18,73.50 252.18,72.06" fill="#969696" stroke="#000080" fill-rule="evenodd" stroke-width="0.583" stroke-linecap="round" stroke-linejoin="round"/>
<path d="M228.18,88.38 C228.18,86.94 227.10,85.74 225.54,85.74 C224.10,85.74 223.02,86.94 223.02,88.38 C223.02,89.82 224.10,91.02 225.54,91.02 C227.10,91.02 228.18,89.82 228.18,88.38" fill="#969696" stroke="#000080" fill-rule="evenodd" stroke-width="0.583" stroke-linecap="round" stroke-linejoin="round"/>
<path d="M204.90,104.70 C204.90,103.26 203.70,102.06 202.26,102.06 C200.82,102.06 199.62,103.26 199.62,104.70 C199.62,106.14 200.82,107.34 202.26,107.34 C203.70,107.34 204.90,106.14 204.90,104.70" fill="#969696" stroke="#000080" fill-rule="evenodd" stroke-width="0.583" stroke-linecap="round" stroke-linejoin="round"/>
<path d="M180.90,121.02 C180.90,119.58 179.82,118.38 178.38,118.38 C176.82,118.38 175.74,119.58 175.74,121.02 C175.74,122.46 176.82,123.66 178.38,123.66 C179.82,123.66 180.90,122.46 180.90,121.02" fill="#969696" stroke="#000080" fill-rule="evenodd" stroke-width="0.583" stroke-linecap="round" stroke-linejoin="round"/>
<path d="M157.02,137.34 C157.02,135.90 155.82,134.70 154.38,134.70 C152.94,134.70 151.74,135.90 151.74,137.34 C151.74,138.78 152.94,139.98 154.38,139.98 C155.82,139.98 157.02,138.78 157.02,137.34" fill="#969696" stroke="#000080" fill-rule="evenodd" stroke-width="0.583" stroke-linecap="round" stroke-linejoin="round"/>
<path d="M133.14,153.66 C133.14,152.22 131.94,151.02 130.50,151.02 C129.06,151.02 127.86,152.22 127.86,153.66 C127.86,155.10 129.06,156.30 130.50,156.30 C131.94,156.30 133.14,155.10 133.14,153.66" fill="#969696" stroke="#000080" fill-rule="evenodd" stroke-width="0.583" stroke-linecap="round" stroke-linejoin="round"/>
<path d="M109.14,172.98 C109.14,171.54 107.94,170.34 106.50,170.34 C105.06,170.34 103.86,171.54 103.86,172.98 C103.86,174.42 105.06,175.62 106.50,175.62 C107.94,175.62 109.14,174.42 109.14,172.98" fill="#969696" stroke="#000080" fill-rule="evenodd" stroke-width="0.583" stroke-linecap="round" stroke-linejoin="round"/>
<path d="M85.86,197.46 C85.86,196.02 84.66,194.82 83.22,194.82 C81.78,194.82 80.58,196.02 80.58,197.46 C80.58,198.90 81.78,200.10 83.22,200.10 C84.66,200.10 85.86,198.90 85.86,197.46" fill="#969696" stroke="#000080" fill-rule="evenodd" stroke-width="0.583" stroke-linecap="round" stroke-linejoin="round"/>
<path d="M61.86,224.82 C61.86,223.38 60.78,222.18 59.22,222.18 C57.78,222.18 56.70,223.38 56.70,224.82 C56.70,226.26 57.78,227.46 59.22,227.46 C60.78,227.46 61.86,226.26 61.86,224.82" fill="#969696" stroke="#000080" fill-rule="evenodd" stroke-width="0.583" stroke-linecap="round" stroke-linejoin="round"/>
<path d="M37.98,254.58 C37.98,253.14 36.78,251.94 35.34,251.94 C33.90,251.94 32.70,253.14 32.70,254.58 C32.70,256.02 33.90,257.22 35.34,257.22 C36.78,257.22 37.98,256.02 37.98,254.58" fill="#969696" stroke="#000080" fill-rule="evenodd" stroke-width="0.583" stroke-linecap="round" stroke-linejoin="round" clip-path="url(#c19)"/>
<path d="M35.58,252.54 L37.98,254.82 L35.58,257.22 L33.30,254.82 L35.58,252.54" fill="#969696" stroke="none" fill-rule="evenodd"/>
<path d="M35.58,252.54 L33.30,254.82 L35.58,257.22 L37.98,254.82 Z" fill="none" stroke="#000000" stroke-width="0.583" stroke-linecap="round" stroke-linejoin="round"/>
<path d="M59.58,222.18 L61.86,224.58 L59.58,226.86 L57.18,224.58 L59.58,222.18" fill="#969696" stroke="none" fill-rule="evenodd"/>
<path d="M59.58,222.18 L57.18,224.58 L59.58,226.86 L61.86,224.58 Z" fill="none" stroke="#000000" stroke-width="0.583" stroke-linecap="round" stroke-linejoin="round"/>
<path d="M83.46,194.82 L85.86,197.10 L83.46,199.50 L81.18,197.10 L83.46,194.82" fill="#969696" stroke="none" fill-rule="evenodd"/>
<path d="M83.46,194.82 L81.18,197.10 L83.46,199.50 L85.86,197.10 Z" fill="none" stroke="#000000" stroke-width="0.583" stroke-linecap="round" stroke-linejoin="round"/>
<path d="M106.86,170.34 L109.14,172.62 L106.86,175.02 L104.46,172.62 L106.86,170.34" fill="#969696" stroke="none" fill-rule="evenodd"/>
<path d="M106.86,170.34 L104.46,172.62 L106.86,175.02 L109.14,172.62 Z" fill="none" stroke="#000000" stroke-width="0.583" stroke-linecap="round" stroke-linejoin="round"/>
<path d="M130.74,148.74 L133.14,151.02 L130.74,153.42 L128.46,151.02 L130.74,148.74" fill="#969696" stroke="none" fill-rule="evenodd"/>
<path d="M130.74,148.74 L128.46,151.02 L130.74,153.42 L133.14,151.02 Z" fill="none" stroke="#000000" stroke-width="0.583" stroke-linecap="round" stroke-linejoin="round"/>
<path d="M154.74,130.14 L157.02,132.42 L154.74,134.70 L152.34,132.42 L154.74,130.14" fill="#969696" stroke="none" fill-rule="evenodd"/>
<path d="M154.74,130.14 L152.34,132.42 L154.74,134.70 L157.02,132.42 Z" fill="none" stroke="#000000" stroke-width="0.583" stroke-linecap="round" stroke-linejoin="round"/>
<path d="M178.62,113.70 L180.90,116.10 L178.62,118.38 L176.34,116.10 L178.62,113.70" fill="#969696" stroke="none" fill-rule="evenodd"/>
<path d="M178.62,113.70 L176.34,116.10 L178.62,118.38 L180.90,116.10 Z" fill="none" stroke="#000000" stroke-width="0.583" stroke-linecap="round" stroke-linejoin="round"/>
<path d="M202.50,100.98 L204.90,103.26 L202.50,105.54 L200.22,103.26 L202.50,100.98" fill="#969696" stroke="none" fill-rule="evenodd"/>
<path d="M202.50,100.98 L200.22,103.26 L202.50,105.54 L204.90,103.26 Z" fill="none" stroke="#000000" stroke-width="0.583" stroke-linecap="round" stroke-linejoin="round"/>
<path d="M225.90,90.42 L228.18,92.82 L225.90,95.10 L223.50,92.82 L225.90,90.42" fill="#969696" stroke="none" fill-rule="evenodd"/>
<path d="M225.90,90.42 L223.50,92.82 L225.90,95.10 L228.18,92.82 Z" fill="none" stroke="#000000" stroke-width="0.583" stroke-linecap="round" stroke-linejoin="round"/>
<path d="M249.78,82.86 L252.18,85.14 L249.78,87.54 L247.50,85.14 L249.78,82.86" fill="#969696" stroke="none" fill-rule="evenodd"/>
<path d="M249.78,82.86 L247.50,85.14 L249.78,87.54 L252.18,85.14 Z" fill="none" stroke="#000000" stroke-width="0.583" stroke-linecap="round" stroke-linejoin="round"/>
<path d="M225.90,90.42 L228.18,92.82 L225.90,95.10 L223.50,92.82 L225.90,90.42" fill="#969696" stroke="none" fill-rule="evenodd"/>
<path d="M225.90,90.42 L223.50,92.82 L225.90,95.10 L228.18,92.82 Z" fill="none" stroke="#000000" stroke-width="0.583" stroke-linecap="round" stroke-linejoin="round"/>
<path d="M202.50,100.98 L204.90,103.26 L202.50,105.54 L200.22,103.26 L202.50,100.98" fill="#969696" stroke="none" fill-rule="evenodd"/>
<path d="M202.50,100.98 L200.22,103.26 L202.50,105.54 L204.90,103.26 Z" fill="none" stroke="#000000" stroke-width="0.583" stroke-linecap="round" stroke-linejoin="round"/>
<path d="M178.62,113.70 L180.90,116.10 L178.62,118.38 L176.34,116.10 L178.62,113.70" fill="#969696" stroke="none" fill-rule="evenodd"/>
<path d="M178.62,113.70 L176.34,116.10 L178.62,118.38 L180.90,116.10 Z" fill="none" stroke="#000000" stroke-width="0.583" stroke-linecap="round" stroke-linejoin="round"/>
<path d="M154.74,130.14 L157.02,132.42 L154.74,134.70 L152.34,132.42 L154.74,130.14" fill="#969696" stroke="none" fill-rule="evenodd"/>
<path d="M154.74,130.14 L152.34,132.42 L154.74,134.70 L157.02,132.42 Z" fill="none" stroke="#000000" stroke-width="0.583" stroke-linecap="round" stroke-linejoin="round"/>
<path d="M130.74,148.74 L133.14,151.02 L130.74,153.42 L128.46,151.02 L130.74,148.74" fill="#969696" stroke="none" fill-rule="evenodd"/>
<path d="M130.74,148.74 L128.46,151.02 L130.74,153.42 L133.14,151.02 Z" fill="none" stroke="#000000" stroke-width="0.583" stroke-linecap="round" stroke-linejoin="round"/>
<path d="M106.86,170.34 L109.14,172.62 L106.86,175.02 L104.46,172.62 L106.86,170.34" fill="#969696" stroke="none" fill-rule="evenodd"/>
<path d="M106.86,170.34 L104.46,172.62 L106.86,175.02 L109.14,172.62 Z" fill="none" stroke="#000000" stroke-width="0.583" stroke-linecap="round" stroke-linejoin="round"/>
<path d="M83.46,194.82 L85.86,197.10 L83.46,199.50 L81.18,197.10 L83.46,194.82" fill="#969696" stroke="none" fill-rule="evenodd"/>
<path d="M83.46,194.82 L81.18,197.10 L83.46,199.50 L85.86,197.10 Z" fill="none" stroke="#000000" stroke-width="0.583" stroke-linecap="round" stroke-linejoin="round"/>
<path d="M59.58,222.18 L61.86,224.58 L59.58,226.86 L57.18,224.58 L59.58,222.18" fill="#969696" stroke="none" fill-rule="evenodd"/>
<path d="M59.58,222.18 L57.18,224.58 L59.58,226.86 L61.86,224.58 Z" fill="none" stroke="#000000" stroke-width="0.583" stroke-linecap="round" stroke-linejoin="round"/>
<path d="M35.58,252.54 L37.98,254.82 L35.58,257.22 L33.30,254.82 L35.58,252.54" fill="#969696" stroke="none" fill-rule="evenodd"/>
<path d="M35.58,252.54 L33.30,254.82 L35.58,257.22 L37.98,254.82 Z" fill="none" stroke="#000000" stroke-width="0.583" stroke-linecap="round" stroke-linejoin="round"/>
<path d="M35.58,254.82 L37.98,251.94" fill="none" stroke="#000000" stroke-width="1.166" stroke-linecap="round" stroke-linejoin="round" clip-path="url(#c20)"/>
<path d="M37.98,251.94 L40.26,249.06" fill="none" stroke="#000000" stroke-width="1.166" stroke-linecap="round" stroke-linejoin="round"/>
<path d="M40.26,249.06 L42.06,246.18" fill="none" stroke="#000000" stroke-width="1.166" stroke-linecap="round" stroke-linejoin="round"/>
<path d="M42.06,246.18 L44.34,243.18" fill="none" stroke="#000000" stroke-width="1.166" stroke-linecap="round" stroke-linejoin="round"/>
<path d="M44.34,243.18 L46.74,240.30" fill="none" stroke="#000000" stroke-width="1.166" stroke-linecap="round" stroke-linejoin="round"/>
<path d="M46.74,240.30 L49.02,237.42" fill="none" stroke="#000000" stroke-width="1.166" stroke-linecap="round" stroke-linejoin="round"/>
<path d="M49.02,237.42 L51.42,234.42" fill="none" stroke="#000000" stroke-width="1.166" stroke-linecap="round" stroke-linejoin="round"/>
<path d="M51.42,234.42 L53.70,232.14" fill="none" stroke="#000000" stroke-width="1.166" stroke-linecap="round" stroke-linejoin="round"/>
<path d="M53.70,232.14 L55.50,229.26" fill="none" stroke="#000000" stroke-width="1.166" stroke-linecap="round" stroke-linejoin="round"/>
<path d="M55.50,229.26 L57.78,226.26" fill="none" stroke="#000000" stroke-width="1.166" stroke-linecap="round" stroke-linejoin="round"/>
<path d="M57.78,226.26 L60.18,223.98" fill="none" stroke="#000000" stroke-width="1.166" stroke-linecap="round" stroke-linejoin="round"/>
<path d="M60.18,223.98 L62.46,221.10" fill="none" stroke="#000000" stroke-width="1.166" stroke-linecap="round" stroke-linejoin="round"/>
<path d="M62.46,221.10 L64.86,218.70" fill="none" stroke="#000000" stroke-width="1.166" stroke-linecap="round" stroke-linejoin="round"/>
<path d="M64.86,218.70 L67.14,215.82" fill="none" stroke="#000000" stroke-width="1.166" stroke-linecap="round" stroke-linejoin="round"/>
<path d="M67.14,215.82 L68.94,213.42" fill="none" stroke="#000000" stroke-width="1.166" stroke-linecap="round" stroke-linejoin="round"/>
<path d="M68.94,213.42 L71.22,210.54" fill="none" stroke="#000000" stroke-width="1.166" stroke-linecap="round" stroke-linejoin="round"/>
<path d="M71.22,210.54 L73.62,208.26" fill="none" stroke="#000000" stroke-width="1.166" stroke-linecap="round" stroke-linejoin="round"/>
<path d="M73.62,208.26 L75.90,205.26" fill="none" stroke="#000000" stroke-width="1.166" stroke-linecap="round" stroke-linejoin="round"/>
<path d="M75.90,205.26 L78.30,202.98" fill="none" stroke="#000000" stroke-width="1.166" stroke-linecap="round" stroke-linejoin="round"/>
<path d="M78.30,202.98 L80.58,200.70" fill="none" stroke="#000000" stroke-width="1.166" stroke-linecap="round" stroke-linejoin="round"/>
<path d="M80.58,200.70 L82.38,198.30" fill="none" stroke="#000000" stroke-width="1.166" stroke-linecap="round" stroke-linejoin="round"/>
<path d="M82.38,198.30 L84.66,195.42" fill="none" stroke="#000000" stroke-width="1.166" stroke-linecap="round" stroke-linejoin="round"/>
<path d="M84.66,195.42 L86.94,193.02" fill="none" stroke="#000000" stroke-width="1.166" stroke-linecap="round" stroke-linejoin="round"/>
<path d="M86.94,193.02 L89.34,190.74" fill="none" stroke="#000000" stroke-width="1.166" stroke-linecap="round" stroke-linejoin="round"/>
<path d="M89.34,190.74 L91.62,188.34" fill="none" stroke="#000000" stroke-width="1.166" stroke-linecap="round" stroke-linejoin="round"/>
<path d="M91.62,188.34 L93.42,186.06" fill="none" stroke="#000000" stroke-width="1.166" stroke-linecap="round" stroke-linejoin="round"/>
<path d="M93.42,186.06 L95.70,183.78" fill="none" stroke="#000000" stroke-width="1.166" stroke-linecap="round" stroke-linejoin="round"/>
<path d="M95.70,183.78 L98.10,181.38" fill="none" stroke="#000000" stroke-width="1.166" stroke-linecap="round" stroke-linejoin="round"/>
<path d="M98.10,181.38 L100.38,179.70" fill="none" stroke="#000000" stroke-width="1.166" stroke-linecap="round" stroke-linejoin="round"/>
<path d="M100.38,179.70 L102.78,177.30" fill="none" stroke="#000000" stroke-width="1.166" stroke-linecap="round" stroke-linejoin="round"/>
<path d="M102.78,177.30 L105.06,175.02" fill="none" stroke="#000000" stroke-width="1.166" stroke-linecap="round" stroke-linejoin="round"/>
<path d="M105.06,175.02 L106.86,172.62" fill="none" stroke="#000000" stroke-width="1.166" stroke-linecap="round" stroke-linejoin="round"/>
<path d="M106.86,172.62 L109.14,170.34" fill="none" stroke="#000000" stroke-width="1.166" stroke-linecap="round" stroke-linejoin="round"/>
<path d="M109.14,170.34 L111.54,168.54" fill="none" stroke="#000000" stroke-width="1.166" stroke-linecap="round" stroke-linejoin="round"/>
<path d="M111.54,168.54 L113.82,166.26" fill="none" stroke="#000000" stroke-width="1.166" stroke-linecap="round" stroke-linejoin="round"/>
<path d="M113.82,166.26 L116.22,164.46" fill="none" stroke="#000000" stroke-width="1.166" stroke-linecap="round" stroke-linejoin="round"/>
<path d="M116.22,164.46 L118.50,162.18" fill="none" stroke="#000000" stroke-width="1.166" stroke-linecap="round" stroke-linejoin="round"/>
<path d="M118.50,162.18 L120.30,160.38" fill="none" stroke="#000000" stroke-width="1.166" stroke-linecap="round" stroke-linejoin="round"/>
<path d="M120.30,160.38 L122.58,158.10" fill="none" stroke="#000000" stroke-width="1.166" stroke-linecap="round" stroke-linejoin="round"/>
<path d="M122.58,158.10 L124.98,156.30" fill="none" stroke="#000000" stroke-width="1.166" stroke-linecap="round" stroke-linejoin="round"/>
<path d="M124.98,156.30 L127.26,154.02" fill="none" stroke="#000000" stroke-width="1.166" stroke-linecap="round" stroke-linejoin="round"/>
<path d="M127.26,154.02 L129.54,152.22" fill="none" stroke="#000000" stroke-width="1.166" stroke-linecap="round" stroke-linejoin="round"/>
<path d="M129.54,152.22 L131.34,150.54" fill="none" stroke="#000000" stroke-width="1.166" stroke-linecap="round" stroke-linejoin="round"/>
<path d="M131.34,150.54 L133.74,148.74" fill="none" stroke="#000000" stroke-width="1.166" stroke-linecap="round" stroke-linejoin="round"/>
<path d="M133.74,148.74 L136.02,146.46" fill="none" stroke="#000000" stroke-width="1.166" stroke-linecap="round" stroke-linejoin="round"/>
<path d="M136.02,146.46 L138.30,144.66" fill="none" stroke="#000000" stroke-width="1.166" stroke-linecap="round" stroke-linejoin="round"/>
<path d="M138.30,144.66 L140.70,142.86" fill="none" stroke="#000000" stroke-width="1.166" stroke-linecap="round" stroke-linejoin="round"/>
<path d="M140.70,142.86 L142.98,141.18" fill="none" stroke="#000000" stroke-width="1.166" stroke-linecap="round" stroke-linejoin="round"/>
<path d="M142.98,141.18 L144.78,139.38" fill="none" stroke="#000000" stroke-width="1.166" stroke-linecap="round" stroke-linejoin="round"/>
<path d="M144.78,139.38 L147.06,137.70" fill="none" stroke="#000000" stroke-width="1.166" stroke-linecap="round" stroke-linejoin="round"/>
<path d="M147.06,137.70 L149.46,135.90" fill="none" stroke="#000000" stroke-width="1.166" stroke-linecap="round" stroke-linejoin="round"/>
<path d="M149.46,135.90 L151.74,134.22" fill="none" stroke="#000000" stroke-width="1.166" stroke-linecap="round" stroke-linejoin="round"/>
<path d="M151.74,134.22 L154.14,133.02" fill="none" stroke="#000000" stroke-width="1.166" stroke-linecap="round" stroke-linejoin="round"/>
<path d="M154.14,133.02 L156.42,131.22" fill="none" stroke="#000000" stroke-width="1.166" stroke-linecap="round" stroke-linejoin="round"/>
<path d="M156.42,131.22 L158.22,129.54" fill="none" stroke="#000000" stroke-width="1.166" stroke-linecap="round" stroke-linejoin="round"/>
<path d="M158.22,129.54 L160.50,127.74" fill="none" stroke="#000000" stroke-width="1.166" stroke-linecap="round" stroke-linejoin="round"/>
<path d="M160.50,127.74 L162.90,126.54" fill="none" stroke="#000000" stroke-width="1.166" stroke-linecap="round" stroke-linejoin="round"/>
<path d="M162.90,126.54 L165.18,124.86" fill="none" stroke="#000000" stroke-width="1.166" stroke-linecap="round" stroke-linejoin="round"/>
<path d="M165.18,124.86 L167.58,123.06" fill="none" stroke="#000000" stroke-width="1.166" stroke-linecap="round" stroke-linejoin="round"/>
<path d="M167.58,123.06 L169.26,121.86" fill="none" stroke="#000000" stroke-width="1.166" stroke-linecap="round" stroke-linejoin="round"/>
<path d="M169.26,121.86 L171.66,120.18" fill="none" stroke="#000000" stroke-width="1.166" stroke-linecap="round" stroke-linejoin="round"/>
<path d="M171.66,120.18 L173.94,118.98" fill="none" stroke="#000000" stroke-width="1.166" stroke-linecap="round" stroke-linejoin="round"/>
<path d="M173.94,118.98 L176.34,117.78" fill="none" stroke="#000000" stroke-width="1.166" stroke-linecap="round" stroke-linejoin="round"/>
<path d="M176.34,117.78 L178.62,116.10" fill="none" stroke="#000000" stroke-width="1.166" stroke-linecap="round" stroke-linejoin="round"/>
<path d="M178.62,116.10 L180.90,114.90" fill="none" stroke="#000000" stroke-width="1.166" stroke-linecap="round" stroke-linejoin="round"/>
<path d="M180.90,114.90 L182.70,113.70" fill="none" stroke="#000000" stroke-width="1.166" stroke-linecap="round" stroke-linejoin="round"/>
<path d="M182.70,113.70 L184.98,112.02" fill="none" stroke="#000000" stroke-width="1.166" stroke-linecap="round" stroke-linejoin="round"/>
<path d="M184.98,112.02 L187.38,110.82" fill="none" stroke="#000000" stroke-width="1.166" stroke-linecap="round" stroke-linejoin="round"/>
<path d="M187.38,110.82 L189.66,109.62" fill="none" stroke="#000000" stroke-width="1.166" stroke-linecap="round" stroke-linejoin="round"/>
<path d="M189.66,109.62 L192.06,108.54" fill="none" stroke="#000000" stroke-width="1.166" stroke-linecap="round" stroke-linejoin="round"/>
<path d="M192.06,108.54 L194.34,107.34" fill="none" stroke="#000000" stroke-width="1.166" stroke-linecap="round" stroke-linejoin="round"/>
<path d="M194.34,107.34 L196.14,106.14" fill="none" stroke="#000000" stroke-width="1.166" stroke-linecap="round" stroke-linejoin="round"/>
<path d="M196.14,106.14 L198.42,105.06" fill="none" stroke="#000000" stroke-width="1.166" stroke-linecap="round" stroke-linejoin="round"/>
<path d="M198.42,105.06 L200.82,103.86" fill="none" stroke="#000000" stroke-width="1.166" stroke-linecap="round" stroke-linejoin="round"/>
<path d="M200.82,103.86 L203.10,102.66" fill="none" stroke="#000000" stroke-width="1.166" stroke-linecap="round" stroke-linejoin="round"/>
<path d="M203.10,102.66 L205.50,101.46" fill="none" stroke="#000000" stroke-width="1.166" stroke-linecap="round" stroke-linejoin="round"/>
<path d="M205.50,101.46 L207.78,100.38" fill="none" stroke="#000000" stroke-width="1.166" stroke-linecap="round" stroke-linejoin="round"/>
<path d="M207.78,100.38 L209.58,99.18" fill="none" stroke="#000000" stroke-width="1.166" stroke-linecap="round" stroke-linejoin="round"/>
<path d="M209.58,99.18 L211.86,98.58" fill="none" stroke="#000000" stroke-width="1.166" stroke-linecap="round" stroke-linejoin="round"/>
<path d="M211.86,98.58 L214.26,97.38" fill="none" stroke="#000000" stroke-width="1.166" stroke-linecap="round" stroke-linejoin="round"/>
<path d="M214.26,97.38 L216.54,96.30" fill="none" stroke="#000000" stroke-width="1.166" stroke-linecap="round" stroke-linejoin="round"/>
<path d="M216.54,96.30 L218.94,95.70" fill="none" stroke="#000000" stroke-width="1.166" stroke-linecap="round" stroke-linejoin="round"/>
<path d="M218.94,95.70 L220.62,94.50" fill="none" stroke="#000000" stroke-width="1.166" stroke-linecap="round" stroke-linejoin="round"/>
<path d="M220.62,94.50 L223.02,93.90" fill="none" stroke="#000000" stroke-width="1.166" stroke-linecap="round" stroke-linejoin="round"/>
<path d="M223.02,93.90 L225.30,92.82" fill="none" stroke="#000000" stroke-width="1.166" stroke-linecap="round" stroke-linejoin="round"/>
<path d="M225.30,92.82 L227.58,92.22" fill="none" stroke="#000000" stroke-width="1.166" stroke-linecap="round" stroke-linejoin="round"/>
<path d="M227.58,92.22 L229.98,91.02" fill="none" stroke="#000000" stroke-width="1.166" stroke-linecap="round" stroke-linejoin="round"/>
<path d="M229.98,91.02 L232.26,90.42" fill="none" stroke="#000000" stroke-width="1.166" stroke-linecap="round" stroke-linejoin="round"/>
<path d="M232.26,90.42 L234.06,89.82" fill="none" stroke="#000000" stroke-width="1.166" stroke-linecap="round" stroke-linejoin="round"/>
<path d="M234.06,89.82 L236.34,89.22" fill="none" stroke="#000000" stroke-width="1.166" stroke-linecap="round" stroke-linejoin="round"/>
<path d="M236.34,89.22 L238.74,88.14" fill="none" stroke="#000000" stroke-width="1.166" stroke-linecap="round" stroke-linejoin="round"/>
<path d="M238.74,88.14 L241.02,87.54" fill="none" stroke="#000000" stroke-width="1.166" stroke-linecap="round" stroke-linejoin="round"/>
<path d="M241.02,87.54 L243.42,86.94" fill="none" stroke="#000000" stroke-width="1.166" stroke-linecap="round" stroke-linejoin="round"/>
<path d="M243.42,86.94 L245.70,86.34" fill="none" stroke="#000000" stroke-width="1.166" stroke-linecap="round" stroke-linejoin="round"/>
<path d="M245.70,86.34 L247.50,85.74" fill="none" stroke="#000000" stroke-width="1.166" stroke-linecap="round" stroke-linejoin="round"/>
<path d="M247.50,85.74 L249.78,85.14" fill="none" stroke="#000000" stroke-width="1.166" stroke-linecap="round" stroke-linejoin="round"/>
<path d="M0.06,0.06 L283.62,0.06 L283.62,293.34 L0.06,293.34 Z" fill="none" stroke="#000000" stroke-width="0.120" stroke-linecap="round" stroke-linejoin="round"/>
<text x="46.74" y="14.70" font-family="Arial, Helvetica, sans-serif" font-size="7.58" font-weight="bold" fill="#000000">Вертикальное</text>
<text x="103.98" y="14.70" font-family="Arial, Helvetica, sans-serif" font-size="7.58" font-weight="bold" fill="#000000">смещение</text>
<text x="142.50" y="14.70" font-family="Arial, Helvetica, sans-serif" font-size="7.58" font-weight="bold" fill="#000000"> &quot;</text>
<text x="148.38" y="14.70" font-family="Arial, Helvetica, sans-serif" font-size="7.58" font-weight="bold" fill="#000000">треугольной</text>
<text x="196.14" y="14.70" font-family="Arial, Helvetica, sans-serif" font-size="7.58" font-weight="bold" fill="#000000">&quot; </text>
<text x="202.02" y="14.70" font-family="Arial, Helvetica, sans-serif" font-size="7.58" font-weight="bold" fill="#000000">пружины</text>
<text x="27.54" y="256.62" font-family="Arial, Helvetica, sans-serif" font-size="6.42" fill="#000000">0</text>
<text x="24.06" y="229.26" font-family="Arial, Helvetica, sans-serif" font-size="6.42" fill="#000000">10</text>
<text x="24.06" y="202.38" font-family="Arial, Helvetica, sans-serif" font-size="6.42" fill="#000000">20</text>
<text x="24.06" y="175.02" font-family="Arial, Helvetica, sans-serif" font-size="6.42" fill="#000000">30</text>
<text x="24.06" y="147.54" font-family="Arial, Helvetica, sans-serif" font-size="6.42" fill="#000000">40</text>
<text x="24.06" y="120.18" font-family="Arial, Helvetica, sans-serif" font-size="6.42" fill="#000000">50</text>
<text x="24.06" y="93.30" font-family="Arial, Helvetica, sans-serif" font-size="6.42" fill="#000000">60</text>
<text x="24.06" y="65.94" font-family="Arial, Helvetica, sans-serif" font-size="6.42" fill="#000000">70</text>
<text x="24.06" y="38.46" font-family="Arial, Helvetica, sans-serif" font-size="6.42" fill="#000000">80</text>
<text x="33.90" y="265.98" font-family="Arial, Helvetica, sans-serif" font-size="6.42" fill="#000000">0</text>
<text x="57.90" y="265.98" font-family="Arial, Helvetica, sans-serif" font-size="6.42" fill="#000000">1</text>
<text x="81.78" y="265.98" font-family="Arial, Helvetica, sans-serif" font-size="6.42" fill="#000000">2</text>
<text x="105.18" y="265.98" font-family="Arial, Helvetica, sans-serif" font-size="6.42" fill="#000000">3</text>
<text x="129.06" y="265.98" font-family="Arial, Helvetica, sans-serif" font-size="6.42" fill="#000000">4</text>
<text x="152.94" y="265.98" font-family="Arial, Helvetica, sans-serif" font-size="6.42" fill="#000000">5</text>
<text x="176.94" y="265.98" font-family="Arial, Helvetica, sans-serif" font-size="6.42" fill="#000000">6</text>
<text x="200.82" y="265.98" font-family="Arial, Helvetica, sans-serif" font-size="6.42" fill="#000000">7</text>
<text x="224.22" y="265.98" font-family="Arial, Helvetica, sans-serif" font-size="6.42" fill="#000000">8</text>
<text x="248.10" y="265.98" font-family="Arial, Helvetica, sans-serif" font-size="6.42" fill="#000000">9</text>
<text x="270.30" y="265.98" font-family="Arial, Helvetica, sans-serif" font-size="6.42" fill="#000000">10</text>
<text x="126.78" y="281.70" font-family="Arial, Helvetica, sans-serif" font-size="8.75" font-weight="bold" fill="#000000">число</text>
<text x="155.34" y="281.70" font-family="Arial, Helvetica, sans-serif" font-size="8.75" font-weight="bold" fill="#000000">грузов</text>
<text x="16.98" y="168.06" font-family="Arial, Helvetica, sans-serif" font-size="8.75" font-weight="bold" fill="#000000">смещение</text>
</g>
</svg>
