<?xml version="1.0" encoding="UTF-8"?>
<!-- Generator: Adobe Illustrator 28.0.0, SVG Export Plug-In . SVG Version: 6.00 Build 0)  -->
<svg version="1.1" id="Calque_1" xmlns="http://www.w3.org/2000/svg" xmlns:xlink="http://www.w3.org/1999/xlink" x="0px" y="0px" viewBox="0 0 303.7 343.8" style="enable-background:new 0 0 303.7 343.8;" xml:space="preserve">
<style type="text/css">
	.st0{fill:#FFFFFF;}
</style>
<g>
	<path class="st0" d="M14.2,320.4v2.5H4.1v7.8h8.2v2.5H4.1v10.5h-3v-23.2L14.2,320.4L14.2,320.4z"/>
	<path class="st0" d="M30.7,343.6l-5.5-9.5h-3.7v9.5h-3v-23.2h7.5c1.8,0,3.2,0.3,4.5,0.9c1.2,0.6,2.1,1.4,2.7,2.4   c0.6,1,0.9,2.2,0.9,3.5c0,1.6-0.5,3-1.4,4.2c-0.9,1.2-2.3,2-4.1,2.4l5.8,9.7L30.7,343.6L30.7,343.6z M21.5,331.7h4.5   c1.6,0,2.9-0.4,3.7-1.2c0.8-0.8,1.2-1.9,1.2-3.2s-0.4-2.5-1.2-3.2c-0.8-0.8-2-1.1-3.7-1.1h-4.5L21.5,331.7L21.5,331.7z"/>
	<path class="st0" d="M53,338.5H42.9l-1.9,5.2h-3.2l8.4-23.1h3.5l8.4,23.1h-3.2L53,338.5L53,338.5z M52.2,336L48,324.2L43.8,336   H52.2z"/>
	<path class="st0" d="M80.6,343.6h-3l-12.2-18.5v18.5h-3v-23.3h3l12.2,18.5v-18.5h3V343.6z"/>
	<path class="st0" d="M86.7,325.9c1-1.8,2.4-3.2,4.2-4.2c1.8-1,3.7-1.5,5.9-1.5c2.5,0,4.8,0.6,6.6,1.8s3.3,3,4.1,5.2H104   c-0.7-1.4-1.6-2.5-2.8-3.2c-1.2-0.8-2.7-1.1-4.3-1.1s-3.1,0.4-4.4,1.1s-2.3,1.8-3,3.2c-0.7,1.4-1.1,3-1.1,4.9s0.4,3.5,1.1,4.9   c0.7,1.4,1.8,2.5,3,3.2c1.3,0.8,2.8,1.1,4.4,1.1s3.1-0.4,4.3-1.1s2.1-1.8,2.8-3.2h3.6c-0.9,2.2-2.2,3.9-4.1,5.1   c-1.9,1.2-4.1,1.8-6.6,1.8c-2.2,0-4.1-0.5-5.9-1.5c-1.8-1-3.2-2.4-4.2-4.2c-1-1.8-1.5-3.8-1.5-6.1S85.7,327.7,86.7,325.9   L86.7,325.9z"/>
	<path class="st0" d="M115.7,322.9v7.8h8.5v2.5h-8.5v8h9.5v2.5h-12.5v-23.3h12.5v2.5L115.7,322.9L115.7,322.9z"/>
	<path class="st0" d="M145.6,335.6c1.6-1.5,2.9-3,4.1-4.6s1.6-3.1,1.6-4.7c0-1.4-0.4-2.6-1.1-3.4s-1.8-1.2-3.4-1.2s-2.7,0.5-3.5,1.4   c-0.8,1-1.3,2.2-1.4,3.8H139c0.1-2.5,0.8-4.4,2.3-5.8c1.4-1.4,3.3-2,5.5-2s4.1,0.6,5.4,1.9c1.4,1.3,2,3,2,5.2   c0,1.9-0.6,3.6-1.6,5.4c-1.1,1.8-2.4,3.3-3.8,4.6s-3.2,2.9-5.4,4.6H155v2.5h-16v-2.2C141.7,338.9,144,337.1,145.6,335.6   L145.6,335.6z"/>
	<path class="st0" d="M160.9,322.4c1.2-2.1,3.4-3.2,6.5-3.2s5.3,1.1,6.5,3.2s1.9,5.1,1.9,9s-0.6,6.9-1.9,9.1s-3.4,3.2-6.5,3.2   s-5.3-1.1-6.5-3.2c-1.2-2.2-1.9-5.2-1.9-9.1S159.6,324.5,160.9,322.4z M172.4,326.4c-0.3-1.3-0.8-2.4-1.6-3.2   c-0.8-0.8-1.9-1.2-3.4-1.2s-2.7,0.4-3.4,1.2s-1.3,1.9-1.6,3.2c-0.3,1.4-0.4,3-0.4,4.9s0.1,3.7,0.4,5c0.3,1.4,0.8,2.5,1.6,3.3   c0.8,0.8,1.9,1.2,3.4,1.2s2.6-0.4,3.4-1.2s1.3-1.9,1.6-3.3c0.3-1.4,0.4-3,0.4-5S172.7,327.8,172.4,326.4z"/>
	<path class="st0" d="M186.8,335.6c1.6-1.5,2.9-3,4.1-4.6s1.6-3.1,1.6-4.7c0-1.4-0.4-2.6-1.1-3.4s-1.8-1.2-3.4-1.2s-2.7,0.5-3.5,1.4   c-0.8,1-1.3,2.2-1.4,3.8h-2.9c0.1-2.5,0.8-4.4,2.3-5.8c1.4-1.4,3.3-2,5.5-2s4.1,0.6,5.4,1.9c1.4,1.3,2,3,2,5.2   c0,1.9-0.6,3.6-1.6,5.4c-1.1,1.8-2.4,3.3-3.8,4.6s-3.2,2.9-5.4,4.6h11.5v2.5h-16v-2.2C183,338.9,185.2,337.1,186.8,335.6   L186.8,335.6z"/>
	<path class="st0" d="M215.7,322.1H204v7.6c0.5-0.7,1.3-1.3,2.3-1.8s2.1-0.7,3.2-0.7c1.9,0,3.4,0.4,4.5,1.1c1.2,0.8,2,1.8,2.5,3   s0.8,2.5,0.8,3.9c0,1.6-0.3,3-0.9,4.3c-0.6,1.3-1.5,2.3-2.8,3s-2.8,1.1-4.6,1.1c-2.3,0-4.2-0.6-5.7-1.8c-1.4-1.2-2.3-2.8-2.6-4.8h3   c0.3,1.3,0.9,2.3,1.8,3c0.9,0.7,2.1,1.1,3.5,1.1c1.8,0,3.1-0.5,4-1.6c0.9-1.1,1.3-2.5,1.3-4.2s-0.4-3.1-1.3-4   c-0.9-0.9-2.2-1.4-3.9-1.4c-1.2,0-2.2,0.3-3.1,0.9c-0.9,0.6-1.5,1.3-1.9,2.3h-2.9v-13.6h14.5L215.7,322.1L215.7,322.1z"/>
	<path class="st0" d="M68.1,64.7c-3.6,3.8-7,7.2-10.3,10.3c0.3,1.5,0.7,3,1,4.6c0.5,2.3,1,4.5,1.5,6.8c0.3,1.3-0.3,2.7-1.3,3.5   c-0.4,0.3-0.8,0.5-1.3,0.5c-0.7,0.1-1.4,0-2-0.4c-4.9-2.9-8.7-5.1-12.2-7.1c-0.2-0.1-0.4-0.3-0.6-0.4c-5,0.5-9.7,1.7-14,3.5   c-1.3,0.6-2.8,0.3-3.7-0.7c-0.9-1-1.1-2.4-0.5-3.7c2.1-4.3,4.4-8.4,7-12.4c-1.1-1.7-2.2-3.4-3.4-5.1c-0.7-1-1.4-2.1-2-3.1   c-0.6-0.9-0.6-2-0.2-3c0.4-1,1.2-1.6,2.2-1.8c3.2-0.6,6.5-0.9,9.8-0.8c2.4-3.9,4.9-7.8,7.8-12c0.6-0.9,1.7-1.4,2.7-1.4   c1.2,0.1,2.2,0.7,2.8,1.8c2.2,4.1,3.6,8.4,4.2,13c3.6,0.8,7.4,1.8,11.2,3c1,0.3,1.8,1.2,2,2.2C69.1,62.9,68.8,64,68.1,64.7   L68.1,64.7z"/>
	<path class="st0" d="M99.5,119.6c0.2,6,0.9,68.6-0.2,74.2c-0.5,2.5-3.2,3-4.4,3c-4.4,0-14.3-5.8-15.9-11.8   c-0.5-1.6-0.9-59.2-1.2-62c-2.7-20.8-0.3-76.5,5.5-77.6c16.4-3,30.9-4.1,43.1-4.1c17.5,0,30.7,2.1,37.6,4.4   c10.1,3.4,17.9,10.4,18.9,17.8C185.5,85.1,113.2,115.7,99.5,119.6L99.5,119.6z M123.8,58.4c-7.6,0-16.1,0.2-25.1,0.9   c-0.5,7.4-1.2,27.9-0.3,41.2c16.4-6.7,61-26.8,66-35.3C156.6,63.1,141.5,58.4,123.8,58.4L123.8,58.4z"/>
	<path class="st0" d="M192.2,157.7c-0.4,11.8,0,39.1-1.6,41.7c-1.2,1.9-3.4,2.6-5.1,2.6c-4.2,0-14.5-5.7-15.4-10.8   c-0.7-4.1,0-8.1,0-12.2c0.2-3.2,0.4-6.7,0.5-9.7l-24.5,8.3c-0.4,4.1,0.4,8.1,0.5,12.4c0.2,3.4-0.9,6.4-5.7,6.4   c-3.9,0-9.5-2.5-12.4-7.1c-1.8-2.8-3-9.4-3.9-16.3c-0.5-3.9-0.9-8.6-1.3-13.4c-7.8,5.3-14,9.1-15.1,8.8c-0.7-0.2-1.4-0.6-2-1.3   c-1.5-2,0.1-6.8,1.2-8.8c0.5-0.8,8.8-7.6,15.2-12.7c-0.4-13.8,0.1-26.6,2.4-30c1.4-1.9,3.5-2.5,5.3-2.5c5.3,0,14.3,5.7,15,11.5   c0.1,0.5,0.1,1.1,0.1,1.9c7-5.5,13.7-10.4,14.9-10.6c1.8-0.4,3.4,1.4,4,2.2c1.2,1.6,3.1,5.3,1.5,8.1c-0.6,1.2-1.7,2.5-3.1,3.8   c-2.4,2.3-9.1,7.6-17.1,13.6c0,4.9,0,9.7,0.1,13.2c12.4-2.5,25.6-7.8,25.6-7.8S192.5,141.6,192.2,157.7L192.2,157.7z"/>
	<path class="st0" d="M263.8,197c-3.6,0-7.4-0.4-11.1-1.2c-23.4-4.9-47.1-27.8-52-44.2c-2.2-7.4-3.3-26.2-2.8-46.7   c0.5-21.1,2.6-38.2,5.3-43.5c0,0,0,0,0-0.1c3.2-6.7,9.5-15.3,21.2-18.5c2.8-0.7,6.2-1.1,9.7-1.1c2.4,0,4.8,0.2,6.5,0.6   c6.2,1.3,10.8,3.7,11.8,6.1c0.4,1,1.3,1.8,2.4,2c5.5,1.2,9.6,2.2,13,4.1c13.3,6.9,25.1,28,31.5,56.5c6,26.2,5.7,52.2-0.5,64.6   c-4.7,9.7-11.9,14.8-12.7,15.3C283.3,192.7,275.7,197,263.8,197L263.8,197z M226,64.7c-4.8,9.8-6.7,70.1-2.6,84.1   c4.4,15.7,16.3,34.1,36.7,38.4c1,0.2,2.1,0.3,3.1,0.3c8,0,11.6-7,13-9.6c5.3-10.7,4.5-36,2-56c-1.2-9.9-6-42.9-16.3-54   c-3.5-3.8-7-6.8-10.1-9.5c-1.4-1.2-2.7-2.3-3.9-3.4c-0.5-0.5-1.1-0.8-1.8-0.8c-1.9-0.2-3.6-0.3-5.1-0.3c-1.1,0-2.1,0.1-2.9,0.2   C232.4,54.8,228,60.2,226,64.7L226,64.7z"/>
	<path class="st0" d="M242,121.1c-1.2-2.6-1.1-5.2,0.3-7.8c1.1-2,2.8-3.7,5-5l0.9-0.4c0.4-0.2,1.1-0.3,2-0.4c2-0.1,3.6,0.5,4.9,1.8   c0.5,0.5,0.9,1,1.1,1.4s0.3,0.8,0.4,0.9c1.2,2.8,1.2,5.4,0,7.9c-1.2,2.3-3.1,4-5.8,5.2c-2,0.9-3.7,1-5.1,0.5   C244.2,124.8,243,123.4,242,121.1L242,121.1z"/>
	<path class="st0" d="M167.9,4l-0.7,8.7c-0.4,5.1-0.8,10.3-1.2,15.4c-0.1,1-0.5,1.8-1.1,2.4c-0.6,0.6-1.4,0.9-2.4,0.9   c-0.1,0-0.2,0-0.3,0c-2.1-0.2-4.1-1.9-3.9-4.4c0.4-4.5,0.7-9,1.1-13.5l0.8-9.8c0.1-1.4,0.9-2.6,2.2-3.2c1.3-0.6,2.9-0.5,4.1,0.3   C167.4,1.4,168,2.7,167.9,4L167.9,4z"/>
	<path class="st0" d="M187.4,6.7c-2.6,6.1-5.3,12.4-7.9,18.4c-1,2.4-2.1,4.8-3.1,7.2c-0.3,0.7-0.8,1.3-1.4,1.7   c-0.6,0.4-1.2,0.6-1.9,0.6c-0.5,0-1.1-0.1-1.6-0.3c-1.8-0.8-3.1-2.9-2.1-5.2c1-2.2,1.9-4.4,2.9-6.6c2.7-6.3,5.5-12.8,8.3-19.2   c0.8-1.9,2.8-2.7,4.7-1.9C187,2.1,188.3,4.3,187.4,6.7L187.4,6.7z"/>
	<path class="st0" d="M196.3,26.2c-3.1,2.7-6.2,5.5-9.2,8.3l-2.6,2.4c-0.8,0.7-1.6,1-2.6,1c-0.4,0-0.8-0.1-1.2-0.2   c-1.4-0.5-2.5-1.6-2.8-3c-0.3-1.3,0.2-2.5,1.2-3.4l2.1-1.9c3.2-2.9,6.6-5.9,9.8-8.8c1.1-1,2.4-1.3,3.7-0.8c1.4,0.5,2.5,1.7,2.8,3.1   C197.8,24,197.4,25.3,196.3,26.2L196.3,26.2z"/>
	<path class="st0" d="M200.3,46.4c-0.6,1.3-1.7,2.1-3.1,2.2c-3.3,0.4-6.6,0.7-9.9,1.1c-0.1,0-0.3,0-0.4,0c-1.8,0-3.2-1.3-3.5-3.2   c-0.2-2,1.1-4.3,3.6-4.6c3.2-0.4,6.3-0.7,9.5-1.1c1.4-0.2,2.6,0.4,3.4,1.4C200.7,43.4,200.8,45,200.3,46.4L200.3,46.4z"/>
	<path class="st0" d="M0.5,214.3c3.3-0.2,6.6-0.6,9.8-0.7c8.9-0.3,17.8-0.4,26.7-0.8c26.8-1,53.7-1.2,80.6-1.1   c14.7,0.1,29.4,0.4,44.1,0.7c11.6,0.3,23.1,0.6,34.7,1.1c10.8,0.4,21.5,1,32.3,1.6c7.7,0.4,15.3,0.8,23,1.2   c10.2,0.5,20.4,1.1,30.6,1.7c6.5,0.4,13.1,1,19.6,1.5c0.6,0.1,1.1,0.3,1.7,0.5c0,0.2-0.1,0.4-0.1,0.5c-3.6,0.1-7.2,0.2-10.8,0.2   c-13.7-0.1-27.4-0.1-41.1-0.4c-38.2-1.1-76.5-0.6-114.7-0.8c-10.9-0.1-21.8,0.4-32.7,0.1c-12.4,0.1-23.7-0.4-34.7-0.1   c-14.9-0.5-29.4,0.6-44.3,0c-7.8-0.3-15.7,0.6-23.5,0.2c-0.4,0-0.8-0.1-1.2-0.2C0.5,219.3,0.5,214.5,0.5,214.3L0.5,214.3z"/>
	<path class="st0" d="M65.6,188.4c0.3,0.7,1.5,2.7,0.3,4.1c-2,2.4-5.8,3.4-10.6,4.4c-1.9,0.4-7,0.5-8.4-0.2   c-5.7-3.3,8.3-21.3-11.2-23.1c-18.2-1.7-10.5,18.6-15.7,20.8c-1.4,0.6-8.5-0.9-10.3-1.6c-4.7-1.6-8.7-3.2-9.6-6.2   c-0.4-1.4,1-2.8,1.4-3.4c15.3-19.2,17.1-24.2,24-41.1c7.4-18.1,9.1-34.1,11.3-49.9c0.3-2.5,2.9-4,5.2-3c1.3,0.6,2.8,1.4,4.1,2.3   c1.8,1.2,2.8,3.3,2.6,5.5c-1.1,12.5-1,28.3,1.2,43.5C53.9,169.4,61.3,179.4,65.6,188.4L65.6,188.4z"/>
	<path class="st0" d="M5.5,239.5v23.6H0.8v-23.6L5.5,239.5L5.5,239.5z"/>
	<path class="st0" d="M25.9,246.2c1.4,1.4,2.1,3.4,2.1,5.9v11h-4.7v-10.3c0-1.5-0.4-2.6-1.1-3.4c-0.7-0.8-1.8-1.2-3-1.2   s-2.3,0.4-3.1,1.2c-0.8,0.8-1.1,1.9-1.1,3.4v10.3h-4.7v-18.7h4.7v2.3c0.6-0.8,1.4-1.4,2.4-1.9s2-0.7,3.2-0.7   C22.8,244.1,24.6,244.8,25.9,246.2L25.9,246.2z"/>
	<path class="st0" d="M38,248.3v9.1c0,0.6,0.2,1.1,0.5,1.4c0.3,0.3,0.8,0.4,1.5,0.4h2.2v4h-3c-4,0-6-1.9-6-5.8v-9H31v-3.9h2.2v-4.6   H38v4.6h4.2v3.9L38,248.3L38,248.3z"/>
	<path class="st0" d="M62.8,255.2H49.2c0.1,1.3,0.6,2.4,1.4,3.2c0.8,0.8,1.9,1.1,3.1,1.1c1.8,0,3-0.8,3.8-2.3h5.1   c-0.5,1.8-1.6,3.3-3.1,4.4s-3.4,1.7-5.6,1.7c-1.8,0-3.4-0.4-4.8-1.2c-1.4-0.8-2.5-1.9-3.3-3.4c-0.8-1.5-1.2-3.1-1.2-5.1   s0.4-3.6,1.2-5.1c0.8-1.5,1.9-2.6,3.3-3.4c1.4-0.8,3-1.2,4.9-1.2s3.4,0.4,4.8,1.1c1.4,0.8,2.5,1.9,3.3,3.3c0.8,1.4,1.2,3,1.2,4.8   C63,254,62.9,254.6,62.8,255.2L62.8,255.2z M58.1,252c0-1.2-0.5-2.2-1.3-2.9s-1.9-1.1-3.1-1.1c-1.2,0-2.2,0.4-3,1.1   c-0.8,0.7-1.3,1.7-1.5,2.9L58.1,252L58.1,252z"/>
	<path class="st0" d="M73.5,245c1-0.6,2.1-0.8,3.4-0.8v5h-1.2c-1.5,0-2.6,0.4-3.4,1.1c-0.8,0.7-1.1,1.9-1.1,3.6v9.3h-4.7v-18.7h4.7   v2.9C71.8,246.3,72.5,245.5,73.5,245L73.5,245z"/>
	<path class="st0" d="M95.8,246.2c1.4,1.4,2.1,3.4,2.1,5.9v11h-4.7v-10.3c0-1.5-0.4-2.6-1.1-3.4c-0.7-0.8-1.8-1.2-3-1.2   s-2.3,0.4-3.1,1.2c-0.8,0.8-1.1,1.9-1.1,3.4v10.3H80v-18.7h4.7v2.3c0.6-0.8,1.4-1.4,2.4-1.9s2.1-0.7,3.2-0.7   C92.6,244.1,94.4,244.8,95.8,246.2L95.8,246.2z"/>
	<path class="st0" d="M102.3,248.7c0.8-1.5,1.8-2.6,3.1-3.4c1.3-0.8,2.7-1.2,4.3-1.2c1.4,0,2.6,0.3,3.7,0.8c1.1,0.6,1.9,1.3,2.5,2.1   v-2.7h4.8v18.7h-4.8v-2.7c-0.6,0.9-1.4,1.6-2.5,2.2c-1.1,0.6-2.3,0.9-3.7,0.9c-1.6,0-3-0.4-4.3-1.2c-1.3-0.8-2.3-2-3.1-3.4   c-0.8-1.5-1.1-3.2-1.1-5.1S101.5,250.1,102.3,248.7L102.3,248.7z M115.2,250.8c-0.4-0.8-1.1-1.4-1.8-1.9c-0.8-0.4-1.6-0.7-2.5-0.7   s-1.7,0.2-2.4,0.6s-1.3,1.1-1.8,1.9c-0.5,0.8-0.7,1.8-0.7,2.9s0.2,2.1,0.7,3c0.5,0.8,1.1,1.5,1.8,1.9s1.6,0.7,2.4,0.7   s1.7-0.2,2.5-0.7s1.4-1.1,1.8-1.9s0.7-1.8,0.7-2.9S115.6,251.6,115.2,250.8L115.2,250.8z"/>
	<path class="st0" d="M130.8,248.3v9.1c0,0.6,0.1,1.1,0.5,1.4c0.3,0.3,0.8,0.4,1.5,0.4h2.2v4h-3c-4,0-6-1.9-6-5.8v-9h-2.2v-3.9h2.2   v-4.6h4.8v4.6h4.2v3.9L130.8,248.3L130.8,248.3z"/>
	<path class="st0" d="M138.7,241.4c-0.6-0.5-0.8-1.2-0.8-2s0.3-1.4,0.8-2c0.6-0.5,1.2-0.8,2.1-0.8s1.5,0.3,2.1,0.8   c0.6,0.5,0.8,1.2,0.8,2s-0.3,1.4-0.8,2c-0.6,0.5-1.2,0.8-2.1,0.8S139.2,241.9,138.7,241.4z M143.1,244.4v18.7h-4.7v-18.7H143.1z"/>
	<path class="st0" d="M151.2,262.2c-1.4-0.8-2.6-1.9-3.4-3.4c-0.8-1.5-1.2-3.1-1.2-5.1s0.4-3.6,1.3-5.1c0.8-1.5,2-2.6,3.5-3.4   s3.1-1.2,4.9-1.2s3.4,0.4,4.9,1.2s2.6,1.9,3.5,3.4c0.8,1.5,1.3,3.1,1.3,5.1s-0.4,3.6-1.3,5.1c-0.9,1.5-2,2.6-3.5,3.4   c-1.5,0.8-3.1,1.2-4.9,1.2S152.6,263,151.2,262.2L151.2,262.2z M158.4,258.7c0.8-0.4,1.4-1,1.8-1.9c0.4-0.8,0.7-1.8,0.7-3   c0-1.8-0.5-3.1-1.4-4.1s-2.1-1.4-3.4-1.4s-2.5,0.5-3.4,1.4c-0.9,1-1.4,2.3-1.4,4.1s0.4,3.1,1.3,4.1s2,1.4,3.4,1.4   C156.9,259.3,157.7,259.1,158.4,258.7L158.4,258.7z"/>
	<path class="st0" d="M185,246.2c1.4,1.4,2.1,3.4,2.1,5.9v11h-4.7v-10.3c0-1.5-0.4-2.6-1.1-3.4c-0.7-0.8-1.8-1.2-3-1.2   s-2.3,0.4-3.1,1.2c-0.8,0.8-1.1,1.9-1.1,3.4v10.3h-4.7v-18.7h4.7v2.3c0.6-0.8,1.4-1.4,2.4-1.9c1-0.5,2.1-0.7,3.2-0.7   C181.8,244.1,183.6,244.8,185,246.2L185,246.2z"/>
	<path class="st0" d="M191.5,248.7c0.8-1.5,1.8-2.6,3.1-3.4c1.3-0.8,2.7-1.2,4.3-1.2c1.4,0,2.6,0.3,3.7,0.8c1.1,0.6,1.9,1.3,2.5,2.1   v-2.7h4.8v18.7h-4.8v-2.7c-0.6,0.9-1.4,1.6-2.5,2.2c-1.1,0.6-2.3,0.9-3.7,0.9c-1.6,0-3-0.4-4.3-1.2c-1.3-0.8-2.3-2-3.1-3.4   s-1.1-3.2-1.1-5.1S190.7,250.1,191.5,248.7L191.5,248.7z M204.4,250.8c-0.4-0.8-1.1-1.4-1.8-1.9c-0.8-0.4-1.6-0.7-2.5-0.7   s-1.7,0.2-2.4,0.6c-0.7,0.4-1.3,1.1-1.8,1.9c-0.5,0.8-0.7,1.8-0.7,2.9s0.2,2.1,0.7,3c0.5,0.8,1.1,1.5,1.8,1.9s1.6,0.7,2.4,0.7   s1.7-0.2,2.5-0.7c0.8-0.4,1.4-1.1,1.8-1.9c0.4-0.8,0.7-1.8,0.7-2.9S204.8,251.6,204.4,250.8L204.4,250.8z"/>
	<path class="st0" d="M219.2,238.1v25h-4.7v-25L219.2,238.1L219.2,238.1z"/>
	<path class="st0" d="M17.1,287.6c-0.6,1.1-1.5,2-2.8,2.7c-1.3,0.7-2.9,1-4.8,1H5.5v9H0.8v-23.6h8.7c1.8,0,3.4,0.3,4.7,1   s2.2,1.5,2.9,2.6c0.6,1.1,1,2.4,1,3.8C18,285.3,17.7,286.5,17.1,287.6L17.1,287.6z M12.2,286.6c0.6-0.6,0.9-1.4,0.9-2.5   c0-2.3-1.3-3.4-3.8-3.4H5.5v6.9h3.8C10.6,287.5,11.5,287.2,12.2,286.6L12.2,286.6z"/>
	<path class="st0" d="M35.6,282.3c1.1,0.6,2,1.5,2.6,2.7s0.9,2.6,0.9,4.3v11h-4.7V290c0-1.5-0.4-2.6-1.1-3.4s-1.8-1.2-3-1.2   s-2.3,0.4-3.1,1.2c-0.8,0.8-1.1,1.9-1.1,3.4v10.3h-4.7v-25H26v8.6c0.6-0.8,1.4-1.5,2.4-1.9s2.1-0.7,3.4-0.7   C33.3,281.3,34.5,281.6,35.6,282.3L35.6,282.3z"/>
	<path class="st0" d="M61.5,281.6l-11.6,27.5h-5l4-9.3l-7.5-18.2h5.3l4.8,13.1l4.9-13.1L61.5,281.6L61.5,281.6z"/>
	<path class="st0" d="M67.1,299.8c-1.2-0.5-2.2-1.3-2.9-2.2c-0.7-1-1.1-2-1.2-3.1h4.8c0.1,0.7,0.4,1.3,1.1,1.8   c0.6,0.5,1.4,0.7,2.3,0.7s1.6-0.2,2.1-0.5c0.5-0.4,0.8-0.8,0.8-1.4c0-0.6-0.3-1.1-0.9-1.4c-0.6-0.3-1.6-0.6-2.9-1   c-1.4-0.3-2.5-0.7-3.4-1s-1.7-0.9-2.3-1.6c-0.6-0.7-1-1.7-1-3c0-1,0.3-2,0.9-2.8c0.6-0.9,1.4-1.5,2.6-2c1.1-0.5,2.4-0.7,3.9-0.7   c2.2,0,4,0.6,5.3,1.7c1.3,1.1,2.1,2.6,2.2,4.5h-4.5c-0.1-0.7-0.4-1.3-0.9-1.8s-1.3-0.7-2.2-0.7c-0.9,0-1.5,0.2-2,0.5   c-0.5,0.3-0.7,0.8-0.7,1.3c0,0.6,0.3,1.1,0.9,1.4c0.6,0.3,1.6,0.7,2.9,1c1.3,0.3,2.5,0.7,3.3,1s1.6,0.9,2.3,1.7s1,1.8,1,3   c0,1.1-0.3,2-0.9,2.9c-0.6,0.9-1.4,1.5-2.6,2c-1.1,0.5-2.4,0.7-3.9,0.7S68.3,300.4,67.1,299.8L67.1,299.8z"/>
	<path class="st0" d="M82.8,278.6c-0.6-0.5-0.8-1.2-0.8-2s0.3-1.5,0.8-2c0.6-0.5,1.2-0.8,2.1-0.8s1.5,0.3,2.1,0.8   c0.6,0.5,0.8,1.2,0.8,2s-0.3,1.5-0.8,2c-0.6,0.5-1.2,0.8-2.1,0.8S83.3,279.1,82.8,278.6z M87.2,281.6v18.7h-4.7v-18.7H87.2z"/>
	<path class="st0" d="M91.8,285.9c0.8-1.5,1.9-2.6,3.3-3.4c1.4-0.8,3-1.2,4.8-1.2c2.3,0,4.2,0.6,5.8,1.7c1.5,1.2,2.5,2.8,3.1,4.9   h-5.1c-0.3-0.8-0.7-1.5-1.4-1.9s-1.4-0.7-2.4-0.7c-1.3,0-2.4,0.5-3.2,1.5s-1.2,2.4-1.2,4.2s0.4,3.2,1.2,4.1s1.9,1.5,3.2,1.5   c1.9,0,3.2-0.9,3.8-2.6h5.1c-0.5,2-1.5,3.6-3.1,4.8c-1.5,1.2-3.4,1.8-5.7,1.8c-1.8,0-3.4-0.4-4.8-1.2c-1.4-0.8-2.5-1.9-3.3-3.4   c-0.8-1.5-1.2-3.1-1.2-5.1S91,287.3,91.8,285.9z"/>
	<path class="st0" d="M115.2,299.8c-1.2-0.5-2.2-1.3-2.9-2.2c-0.7-1-1.1-2-1.2-3.1h4.8c0.1,0.7,0.4,1.3,1.1,1.8   c0.6,0.5,1.4,0.7,2.3,0.7s1.6-0.2,2.1-0.5c0.5-0.4,0.8-0.8,0.8-1.4c0-0.6-0.3-1.1-0.9-1.4c-0.6-0.3-1.6-0.6-2.9-1   c-1.4-0.3-2.5-0.7-3.4-1s-1.7-0.9-2.3-1.6c-0.6-0.7-1-1.7-1-3c0-1,0.3-2,0.9-2.8c0.6-0.9,1.4-1.5,2.6-2c1.1-0.5,2.4-0.7,3.9-0.7   c2.2,0,4,0.6,5.3,1.7c1.3,1.1,2.1,2.6,2.2,4.5H122c-0.1-0.7-0.4-1.3-0.9-1.8s-1.3-0.7-2.2-0.7c-0.9,0-1.5,0.2-2,0.5   c-0.5,0.3-0.7,0.8-0.7,1.3c0,0.6,0.3,1.1,0.9,1.4c0.6,0.3,1.6,0.7,2.9,1c1.3,0.3,2.5,0.7,3.3,1s1.6,0.9,2.3,1.7s1,1.8,1,3   c0,1.1-0.3,2-0.9,2.9c-0.6,0.9-1.4,1.5-2.6,2c-1.1,0.5-2.4,0.7-3.9,0.7S116.4,300.4,115.2,299.8L115.2,299.8z"/>
	<path class="st0" d="M143.4,299c-1.9-1-3.3-2.5-4.4-4.3s-1.6-3.9-1.6-6.2s0.5-4.4,1.6-6.2c1.1-1.8,2.5-3.3,4.4-4.3   c1.8-1,3.9-1.5,6.1-1.5s4.3,0.5,6.1,1.5c1.8,1,3.3,2.5,4.4,4.3c1.1,1.8,1.6,3.9,1.6,6.2s-0.5,4.4-1.6,6.2c-1.1,1.8-2.5,3.3-4.4,4.3   c-1.9,1-3.9,1.5-6.1,1.5S145.3,300,143.4,299L143.4,299z M153.3,295.4c1.1-0.6,1.9-1.6,2.5-2.8s0.9-2.6,0.9-4.1s-0.3-3-0.9-4.1   c-0.6-1.2-1.4-2.1-2.5-2.7s-2.3-1-3.8-1s-2.7,0.3-3.8,1s-1.9,1.5-2.6,2.7s-0.9,2.6-0.9,4.1s0.3,3,0.9,4.1s1.5,2.1,2.6,2.8   s2.4,1,3.8,1S152.2,296,153.3,295.4z"/>
	<path class="st0" d="M169.8,275.3v25h-4.7v-25H169.8z"/>
	<path class="st0" d="M192.4,281.6l-11.6,27.5h-5l4.1-9.3l-7.5-18.2h5.3l4.8,13.1l4.9-13.1L192.4,281.6L192.4,281.6z"/>
	<path class="st0" d="M223.7,283.5c1.4,1.4,2.1,3.4,2.1,5.9v11H221V290c0-1.5-0.4-2.6-1.1-3.4s-1.8-1.2-3-1.2s-2.3,0.4-3.1,1.2   c-0.8,0.8-1.1,1.9-1.1,3.4v10.3H208V290c0-1.5-0.4-2.6-1.1-3.4s-1.8-1.2-3-1.2s-2.3,0.4-3.1,1.2c-0.8,0.8-1.1,1.9-1.1,3.4v10.3   h-4.7v-18.7h4.7v2.3c0.6-0.8,1.4-1.4,2.4-1.9c1-0.5,2-0.7,3.2-0.7c1.5,0,2.8,0.3,3.9,0.9s2,1.5,2.7,2.6c0.6-1.1,1.5-2,2.6-2.6   c1.2-0.6,2.4-1,3.8-1C220.4,281.3,222.3,282,223.7,283.5L223.7,283.5z"/>
	<path class="st0" d="M237.5,282.2c1.1-0.6,2.3-0.9,3.7-0.9c1.6,0,3,0.4,4.3,1.2c1.3,0.8,2.3,1.9,3.1,3.4c0.8,1.5,1.1,3.1,1.1,5   s-0.4,3.6-1.1,5.1s-1.8,2.6-3.1,3.4c-1.3,0.8-2.7,1.2-4.3,1.2c-1.4,0-2.6-0.3-3.6-0.8s-1.9-1.3-2.6-2.1v11.6h-4.7v-27.6h4.7v2.7   C235.6,283.5,236.4,282.8,237.5,282.2L237.5,282.2z M244.2,288c-0.5-0.8-1.1-1.5-1.8-1.9c-0.8-0.4-1.6-0.6-2.4-0.6   s-1.7,0.2-2.4,0.7s-1.4,1.1-1.8,1.9c-0.5,0.8-0.7,1.8-0.7,2.9s0.2,2.1,0.7,2.9s1.1,1.5,1.8,1.9s1.6,0.7,2.4,0.7s1.7-0.2,2.4-0.7   c0.8-0.5,1.4-1.1,1.8-1.9c0.5-0.8,0.7-1.8,0.7-3S244.6,288.8,244.2,288L244.2,288z"/>
	<path class="st0" d="M253.5,278.6c-0.6-0.5-0.8-1.2-0.8-2s0.3-1.5,0.8-2c0.6-0.5,1.2-0.8,2.1-0.8s1.5,0.3,2.1,0.8   c0.5,0.5,0.8,1.2,0.8,2s-0.3,1.5-0.8,2c-0.5,0.5-1.2,0.8-2.1,0.8S254,279.1,253.5,278.6L253.5,278.6z M257.9,281.6v18.7h-4.7v-18.7   H257.9z"/>
	<path class="st0" d="M262.4,285.9c0.8-1.5,1.8-2.6,3.1-3.4s2.7-1.2,4.3-1.2c1.4,0,2.6,0.3,3.7,0.8c1,0.6,1.9,1.3,2.5,2.1v-2.7h4.8   v18.7H276v-2.7c-0.6,0.9-1.5,1.6-2.5,2.2c-1.1,0.6-2.3,0.9-3.7,0.9c-1.6,0-3-0.4-4.3-1.2c-1.3-0.8-2.3-2-3.1-3.4s-1.1-3.2-1.1-5.1   S261.7,287.3,262.4,285.9L262.4,285.9z M275.4,288c-0.5-0.8-1.1-1.5-1.8-1.9c-0.8-0.4-1.6-0.7-2.5-0.7s-1.7,0.2-2.4,0.6   c-0.7,0.4-1.3,1-1.8,1.9c-0.5,0.8-0.7,1.8-0.7,2.9s0.2,2.1,0.7,3c0.5,0.8,1.1,1.5,1.8,1.9s1.6,0.7,2.4,0.7s1.7-0.2,2.5-0.7   c0.8-0.4,1.4-1.1,1.8-1.9s0.7-1.8,0.7-3S275.8,288.8,275.4,288L275.4,288z"/>
	<path class="st0" d="M285.3,285.9c0.8-1.5,1.8-2.6,3.1-3.4c1.3-0.8,2.8-1.2,4.4-1.2c1.2,0,2.4,0.3,3.5,0.8c1.1,0.5,2,1.2,2.6,2.1   v-8.9h4.8v25h-4.8v-2.8c-0.6,0.9-1.4,1.7-2.5,2.2c-1.1,0.6-2.3,0.8-3.7,0.8c-1.6,0-3-0.4-4.3-1.2c-1.3-0.8-2.3-2-3.1-3.4   s-1.1-3.2-1.1-5.1S284.6,287.3,285.3,285.9L285.3,285.9z M298.2,288c-0.5-0.8-1.1-1.5-1.8-1.9c-0.8-0.4-1.6-0.7-2.5-0.7   s-1.7,0.2-2.4,0.6c-0.7,0.4-1.3,1-1.8,1.9c-0.5,0.8-0.7,1.8-0.7,2.9s0.2,2.1,0.7,3c0.5,0.8,1.1,1.5,1.8,1.9s1.6,0.7,2.4,0.7   s1.7-0.2,2.5-0.7c0.8-0.4,1.4-1.1,1.8-1.9s0.7-1.8,0.7-3S298.7,288.8,298.2,288L298.2,288z"/>
</g>
</svg>