<svg xmlns="http://www.w3.org/2000/svg" xmlns:xlink="http://www.w3.org/1999/xlink" width="293.70pt" height="247.55pt" viewBox="0 0 293.70 247.55">
<defs><clipPath id="figbox"><rect x="0" y="0" width="293.70" height="247.55"/></clipPath><clipPath id="c0"><rect x="19.39" y="21.63" width="252.72" height="207.43"/></clipPath><clipPath id="c1"><rect x="19.39" y="21.63" width="252.72" height="207.43"/></clipPath><clipPath id="c2"><rect x="19.39" y="21.63" width="252.72" height="207.43"/></clipPath><clipPath id="c3"><rect x="19.39" y="21.63" width="252.72" height="207.43"/></clipPath><clipPath id="c4"><rect x="19.39" y="21.63" width="252.72" height="207.43"/></clipPath><clipPath id="c5"><rect x="19.39" y="21.63" width="252.72" height="207.43"/></clipPath><clipPath id="c6"><rect x="19.39" y="21.63" width="252.72" height="207.43"/></clipPath><clipPath id="c7"><rect x="16.90" y="24.14" width="257.73" height="202.43"/></clipPath><clipPath id="c8"><rect x="16.90" y="24.14" width="257.73" height="202.43"/></clipPath><clipPath id="c9"><rect x="16.90" y="24.14" width="257.73" height="202.43"/></clipPath><clipPath id="c10"><rect x="16.90" y="24.14" width="257.73" height="202.43"/></clipPath><clipPath id="c11"><rect x="16.90" y="24.14" width="257.73" height="202.43"/></clipPath><clipPath id="c12"><rect x="16.27" y="21.01" width="259.61" height="208.68"/></clipPath><clipPath id="c13"><rect x="16.27" y="21.01" width="259.61" height="208.68"/></clipPath><clipPath id="c14"><rect x="16.27" y="21.01" width="259.61" height="208.68"/></clipPath><clipPath id="c15"><rect x="16.27" y="21.01" width="259.61" height="208.68"/></clipPath><clipPath id="c16"><rect x="16.27" y="21.01" width="259.61" height="208.68"/></clipPath><clipPath id="c17"><rect x="16.27" y="21.01" width="259.61" height="208.68"/></clipPath><clipPath id="c18"><rect x="16.27" y="21.01" width="259.61" height="208.68"/></clipPath><clipPath id="c19"><rect x="16.27" y="21.01" width="259.61" height="208.68"/></clipPath><clipPath id="c20"><rect x="16.27" y="21.01" width="259.61" height="208.68"/></clipPath><clipPath id="c21"><rect x="16.27" y="21.01" width="259.61" height="208.68"/></clipPath><clipPath id="c22"><rect x="16.27" y="21.01" width="259.61" height="208.68"/></clipPath><clipPath id="c23"><rect x="16.27" y="21.01" width="259.61" height="208.68"/></clipPath><clipPath id="c24"><rect x="16.27" y="21.01" width="259.61" height="208.68"/></clipPath><clipPath id="c25"><rect x="16.27" y="21.01" width="259.61" height="208.68"/></clipPath><clipPath id="c26"><rect x="19.39" y="24.14" width="253.35" height="202.43"/></clipPath></defs>
<g clip-path="url(#figbox)">
<path d="M0.62,247.24 L293.38,247.24 L293.38,0.31 L0.62,0.31 L0.62,247.24" fill="#ffffff" stroke="#808080" fill-rule="evenodd" stroke-width="0.625" stroke-linecap="butt" stroke-linejoin="round"/>
<path d="M19.71,198.06 L271.80,198.06" fill="none" stroke="#808080" stroke-width="0.625" stroke-linecap="square" stroke-linejoin="round" clip-path="url(#c0)"/>
<path d="M19.71,169.22 L271.80,169.22" fill="none" stroke="#808080" stroke-width="0.625" stroke-linecap="square" stroke-linejoin="round" clip-path="url(#c1)"/>
<path d="M19.71,140.39 L271.80,140.39" fill="none" stroke="#808080" stroke-width="0.625" stroke-linecap="square" stroke-linejoin="round" clip-path="url(#c2)"/>
<path d="M19.71,110.93 L271.80,110.93" fill="none" stroke="#808080" stroke-width="0.625" stroke-linecap="square" stroke-linejoin="round" clip-path="url(#c3)"/>
<path d="M19.71,82.11 L271.80,82.11" fill="none" stroke="#808080" stroke-width="0.625" stroke-linecap="square" stroke-linejoin="round" clip-path="url(#c4)"/>
<path d="M19.71,53.29 L271.80,53.29" fill="none" stroke="#808080" stroke-width="0.625" stroke-linecap="square" stroke-linejoin="round" clip-path="url(#c5)"/>
<path d="M19.71,24.44 L271.80,24.44" fill="none" stroke="#808080" stroke-width="0.625" stroke-linecap="square" stroke-linejoin="round" clip-path="url(#c6)"/>
<path d="M70.37,24.44 L70.37,226.25" fill="none" stroke="#808080" stroke-width="0.625" stroke-linecap="square" stroke-linejoin="round" clip-path="url(#c7)"/>
<path d="M121.05,24.44 L121.05,226.25" fill="none" stroke="#808080" stroke-width="0.625" stroke-linecap="square" stroke-linejoin="round" clip-path="url(#c8)"/>
<path d="M171.09,24.44 L171.09,226.25" fill="none" stroke="#808080" stroke-width="0.625" stroke-linecap="square" stroke-linejoin="round" clip-path="url(#c9)"/>
<path d="M221.76,24.44 L221.76,226.25" fill="none" stroke="#808080" stroke-width="0.625" stroke-linecap="square" stroke-linejoin="round" clip-path="url(#c10)"/>
<path d="M272.42,24.44 L272.42,226.25" fill="none" stroke="#808080" stroke-width="0.625" stroke-linecap="square" stroke-linejoin="round" clip-path="url(#c11)"/>
<path d="M19.39,24.14 L19.39,226.57" fill="none" stroke="#000000" stroke-width="1.874" stroke-linecap="butt" stroke-linejoin="round"/>
<path d="M16.90,226.57 L19.39,226.57" fill="none" stroke="#000000" stroke-width="1.874" stroke-linecap="butt" stroke-linejoin="round"/>
<path d="M16.90,197.75 L19.39,197.75" fill="none" stroke="#000000" stroke-width="1.874" stroke-linecap="butt" stroke-linejoin="round"/>
<path d="M16.90,168.90 L19.39,168.90" fill="none" stroke="#000000" stroke-width="1.874" stroke-linecap="butt" stroke-linejoin="round"/>
<path d="M16.90,140.08 L19.39,140.08" fill="none" stroke="#000000" stroke-width="1.874" stroke-linecap="butt" stroke-linejoin="round"/>
<path d="M16.90,110.62 L19.39,110.62" fill="none" stroke="#000000" stroke-width="1.874" stroke-linecap="butt" stroke-linejoin="round"/>
<path d="M16.90,81.79 L19.39,81.79" fill="none" stroke="#000000" stroke-width="1.874" stroke-linecap="butt" stroke-linejoin="round"/>
<path d="M16.90,52.98 L19.39,52.98" fill="none" stroke="#000000" stroke-width="1.874" stroke-linecap="butt" stroke-linejoin="round"/>
<path d="M16.90,24.14 L19.39,24.14" fill="none" stroke="#000000" stroke-width="1.874" stroke-linecap="butt" stroke-linejoin="round"/>
<path d="M19.39,226.57 L272.12,226.57" fill="none" stroke="#000000" stroke-width="1.874" stroke-linecap="butt" stroke-linejoin="round"/>
<path d="M19.39,229.07 L19.39,226.57" fill="none" stroke="#000000" stroke-width="1.874" stroke-linecap="butt" stroke-linejoin="round"/>
<path d="M70.06,229.07 L70.06,226.57" fill="none" stroke="#000000" stroke-width="1.874" stroke-linecap="butt" stroke-linejoin="round"/>
<path d="M120.73,229.07 L120.73,226.57" fill="none" stroke="#000000" stroke-width="1.874" stroke-linecap="butt" stroke-linejoin="round"/>
<path d="M170.78,229.07 L170.78,226.57" fill="none" stroke="#000000" stroke-width="1.874" stroke-linecap="butt" stroke-linejoin="round"/>
<path d="M221.44,229.07 L221.44,226.57" fill="none" stroke="#000000" stroke-width="1.874" stroke-linecap="butt" stroke-linejoin="round"/>
<path d="M272.12,229.07 L272.12,226.57" fill="none" stroke="#000000" stroke-width="1.874" stroke-linecap="butt" stroke-linejoin="round"/>
<path d="M44.74,223.75 L47.86,226.88 L44.74,230.00 L41.60,226.88 L44.74,223.75" fill="#666699" stroke="none" fill-rule="evenodd" clip-path="url(#c12)"/>
<path d="M44.74,223.75 L41.60,226.88 L44.74,230.00 L47.86,226.88 Z" fill="none" stroke="#666699" stroke-width="0.625" stroke-linecap="butt" stroke-linejoin="round" clip-path="url(#c13)"/>
<path d="M78.51,194.91 L81.64,198.06 L78.51,201.18 L75.39,198.06 L78.51,194.91" fill="#666699" stroke="none" fill-rule="evenodd" clip-path="url(#c14)"/>
<path d="M78.51,194.91 L75.39,198.06 L78.51,201.18 L81.64,198.06 Z" fill="none" stroke="#666699" stroke-width="0.625" stroke-linecap="butt" stroke-linejoin="round" clip-path="url(#c15)"/>
<path d="M104.17,166.09 L107.29,169.22 L104.17,172.36 L101.02,169.22 L104.17,166.09" fill="#666699" stroke="none" fill-rule="evenodd" clip-path="url(#c16)"/>
<path d="M104.17,166.09 L101.02,169.22 L104.17,172.36 L107.29,169.22 Z" fill="none" stroke="#666699" stroke-width="0.625" stroke-linecap="butt" stroke-linejoin="round" clip-path="url(#c17)"/>
<path d="M129.18,137.25 L132.30,140.39 L129.18,143.52 L126.06,140.39 L129.18,137.25" fill="#666699" stroke="none" fill-rule="evenodd" clip-path="url(#c18)"/>
<path d="M129.18,137.25 L126.06,140.39 L129.18,143.52 L132.30,140.39 Z" fill="none" stroke="#666699" stroke-width="0.625" stroke-linecap="butt" stroke-linejoin="round" clip-path="url(#c19)"/>
<path d="M154.22,107.80 L157.34,110.93 L154.22,114.08 L151.07,110.93 L154.22,107.80" fill="#666699" stroke="none" fill-rule="evenodd" clip-path="url(#c20)"/>
<path d="M154.22,107.80 L151.07,110.93 L154.22,114.08 L157.34,110.93 Z" fill="none" stroke="#666699" stroke-width="0.625" stroke-linecap="butt" stroke-linejoin="round" clip-path="url(#c21)"/>
<path d="M196.75,78.98 L199.87,82.11 L196.75,85.24 L193.60,82.11 L196.75,78.98" fill="#666699" stroke="none" fill-rule="evenodd" clip-path="url(#c22)"/>
<path d="M196.75,78.98 L193.60,82.11 L196.75,85.24 L199.87,82.11 Z" fill="none" stroke="#666699" stroke-width="0.625" stroke-linecap="butt" stroke-linejoin="round" clip-path="url(#c23)"/>
<path d="M221.76,50.14 L224.90,53.29 L221.76,56.41 L218.64,53.29 L221.76,50.14" fill="#666699" stroke="none" fill-rule="evenodd" clip-path="url(#c24)"/>
<path d="M221.76,50.14 L218.64,53.29 L221.76,56.41 L224.90,53.29 Z" fill="none" stroke="#666699" stroke-width="0.625" stroke-linecap="butt" stroke-linejoin="round" clip-path="url(#c25)"/>
<path d="M44.43,226.57 L221.44,51.70" fill="none" stroke="#000000" stroke-width="1.874" stroke-linecap="butt" stroke-linejoin="round" clip-path="url(#c26)"/>
<path d="M0.62,247.24 L293.38,247.24 L293.38,0.31 L0.62,0.31 L0.62,247.24" fill="none" stroke="#808080" stroke-width="0.625" stroke-linecap="butt" stroke-linejoin="round"/>
<text x="88.83" y="18.51" font-family="Arial, Helvetica, sans-serif" font-size="15.03" font-weight="bold" fill="#000000">Зависимость m(V)</text>
<text x="8.76" y="229.69" font-family="Arial, Helvetica, sans-serif" font-size="8.14" fill="#000000">0</text>
<text x="0.00" y="200.87" font-family="Arial, Helvetica, sans-serif" font-size="8.14" fill="#000000">100</text>
<text x="0.00" y="172.05" font-family="Arial, Helvetica, sans-serif" font-size="8.14" fill="#000000">200</text>
<text x="0.00" y="143.21" font-family="Arial, Helvetica, sans-serif" font-size="8.14" fill="#000000">300</text>
<text x="0.00" y="113.76" font-family="Arial, Helvetica, sans-serif" font-size="8.14" fill="#000000">400</text>
<text x="0.00" y="84.92" font-family="Arial, Helvetica, sans-serif" font-size="8.14" fill="#000000">500</text>
<text x="0.00" y="56.10" font-family="Arial, Helvetica, sans-serif" font-size="8.14" fill="#000000">600</text>
<text x="0.00" y="27.28" font-family="Arial, Helvetica, sans-serif" font-size="8.14" fill="#000000">700</text>
<text x="14.40" y="241.61" font-family="Arial, Helvetica, sans-serif" font-size="8.14" fill="#000000">5,0</text>
<text x="65.07" y="241.61" font-family="Arial, Helvetica, sans-serif" font-size="8.14" fill="#000000">6,0</text>
<text x="115.74" y="241.61" font-family="Arial, Helvetica, sans-serif" font-size="8.14" fill="#000000">7,0</text>
<text x="165.78" y="241.61" font-family="Arial, Helvetica, sans-serif" font-size="8.14" fill="#000000">8,0</text>
<text x="216.45" y="241.61" font-family="Arial, Helvetica, sans-serif" font-size="8.14" fill="#000000">9,0</text>
<text x="264.62" y="241.61" font-family="Arial, Helvetica, sans-serif" font-size="8.14" fill="#000000">10,0</text>
<text x="269.62" y="235.96" font-family="Arial, Helvetica, sans-serif" font-size="8.14" font-weight="bold" fill="#000000">V, мл</text>
<text x="1.25" y="15.36" font-family="Arial, Helvetica, sans-serif" font-size="8.14" font-weight="bold" fill="#000000">m, г</text>
</g>
</svg>
