<?xml version="1.0" encoding="UTF-8" standalone="no"?>
<!-- Created with Inkscape (http://www.inkscape.org/) -->
<svg xmlns:svg="http://www.w3.org/2000/svg" xmlns="http://www.w3.org/2000/svg" xmlns:xlink="http://www.w3.org/1999/xlink" version="1.0" width="600" height="600" id="svg2">
  <defs id="defs4">
    <linearGradient id="linearGradient14142">
      <stop style="stop-color:#15173a;stop-opacity:1" offset="0" id="stop14144"/>
      <stop style="stop-color:#4f5cb9;stop-opacity:1" offset="1" id="stop14146"/>
    </linearGradient>
    <linearGradient id="linearGradient13163">
      <stop style="stop-color:#1b3499;stop-opacity:1" offset="0" id="stop13165"/>
      <stop style="stop-color:#2d4c6f;stop-opacity:1" offset="1" id="stop13167"/>
    </linearGradient>
    <linearGradient id="linearGradient8041">
      <stop style="stop-color:#5a991b;stop-opacity:1" offset="0" id="stop8043"/>
      <stop style="stop-color:#4e6f2d;stop-opacity:1" offset="1" id="stop8045"/>
    </linearGradient>
    <linearGradient id="linearGradient7034">
      <stop style="stop-color:#002c00;stop-opacity:1" offset="0" id="stop7036"/>
      <stop style="stop-color:#0c661a;stop-opacity:1" offset="1" id="stop7038"/>
    </linearGradient>
    <linearGradient x1="0" y1="35" x2="0" y2="322" id="a" gradientUnits="userSpaceOnUse">
      <stop style="stop-color:#006699;stop-opacity:1" offset="0" id="stop8790"/>
      <stop style="stop-color:#0080ce;stop-opacity:1" offset="1" id="stop8792"/>
    </linearGradient>
    <linearGradient x1="21.384554" y1="212551.17" x2="646.88275" y2="474009.41" id="linearGradient8901" xlink:href="#a" gradientUnits="userSpaceOnUse" gradientTransform="scale(1.4964072,0.6682673)"/>
    <linearGradient x1="21.384554" y1="212551.17" x2="646.88275" y2="474009.41" id="linearGradient9055" xlink:href="#a" gradientUnits="userSpaceOnUse" gradientTransform="scale(1.4964072,0.6682673)"/>
    <linearGradient x1="21.384554" y1="212551.17" x2="646.88275" y2="474009.41" id="linearGradient9090" xlink:href="#a" gradientUnits="userSpaceOnUse" gradientTransform="scale(1.4964072,0.6682673)"/>
    <linearGradient x1="21.384554" y1="212551.17" x2="646.88275" y2="474009.41" id="linearGradient9114" xlink:href="#a" gradientUnits="userSpaceOnUse" gradientTransform="scale(1.4964072,0.6682673)"/>
    <linearGradient x1="160" y1="423.27274" x2="298.66666" y2="423.27274" id="linearGradient12180" xlink:href="#linearGradient8041" gradientUnits="userSpaceOnUse" spreadMethod="pad"/>
    <linearGradient x1="176" y1="313" x2="185" y2="321" id="linearGradient12184" xlink:href="#linearGradient7034" gradientUnits="userSpaceOnUse" gradientTransform="matrix(0.8666667,-1.0234846,1.5011107,0.5909091,-335.58207,374.89085)"/>
    <linearGradient x1="160" y1="423.27274" x2="298.66666" y2="423.27274" id="linearGradient12192" xlink:href="#linearGradient13163" gradientUnits="userSpaceOnUse" gradientTransform="matrix(0.9995738,-2.9191904e-2,2.9191904e-2,0.9995738,-62.386655,-42.719729)" spreadMethod="pad"/>
    <linearGradient x1="208.88843" y1="215.58144" x2="157.88068" y2="231.58632" id="linearGradient14148" xlink:href="#linearGradient14142" gradientUnits="userSpaceOnUse"/>
    <linearGradient x1="160" y1="423.27274" x2="298.66666" y2="423.27274" id="linearGradient15141" xlink:href="#linearGradient13163" gradientUnits="userSpaceOnUse" gradientTransform="matrix(0.9995738,-2.9191904e-2,2.9191904e-2,0.9995738,-102.99133,-110.34366)" spreadMethod="pad"/>
    <linearGradient x1="208.88843" y1="215.58144" x2="157.88068" y2="231.58632" id="linearGradient15147" xlink:href="#linearGradient14142" gradientUnits="userSpaceOnUse" gradientTransform="translate(-40.604675,-67.62393)"/>
    <linearGradient x1="160" y1="423.27274" x2="298.66666" y2="423.27274" id="linearGradient15156" xlink:href="#linearGradient8041" gradientUnits="userSpaceOnUse" gradientTransform="translate(-40.604675,-67.62393)" spreadMethod="pad"/>
    <linearGradient x1="176" y1="313" x2="185" y2="321" id="linearGradient15160" xlink:href="#linearGradient7034" gradientUnits="userSpaceOnUse" gradientTransform="matrix(0.8666667,-1.0234846,1.5011107,0.5909091,-376.18674,307.26692)"/>
  </defs>
  <g id="g15163">
    <path d="M 211.26209,426.80638 L 212.60181,464.5864 L 231.42034,464.5493 L 211.26209,426.80638 z " style="color:#000000;fill:#808080;fill-opacity:1;fill-rule:nonzero;stroke:none;stroke-width:1;stroke-linecap:butt;stroke-linejoin:round;marker:none;marker-start:none;marker-mid:none;marker-end:none;stroke-miterlimit:4;stroke-dasharray:none;stroke-dashoffset:0;stroke-opacity:1;visibility:visible;display:inline;overflow:visible;enable-background:accumulate" id="path13169"/>
    <path d="M 119.39532,194.92152 L 258.06198,478.55789 L 535.39531,384.01243 L 396.72866,100.37606 L 119.39532,194.92152 z " style="color:#000000;fill:url(#linearGradient15160);fill-opacity:1;fill-rule:nonzero;stroke:none;stroke-width:1;stroke-linecap:butt;stroke-linejoin:round;marker:none;marker-start:none;marker-mid:none;marker-end:none;stroke-miterlimit:4;stroke-dasharray:none;stroke-dashoffset:0;stroke-opacity:1;visibility:visible;display:inline;overflow:visible;enable-background:accumulate" id="path6063"/>
    <path d="M 262.24842,243.036 C 262.24842,243.036 288.76054,281.61911 288.76054,281.61911 C 288.76054,281.61911 295.37565,290.51094 301.97482,286.44673 C 307.33661,283.1446 299.1847,275.19868 303.7914,273.18084 C 304.85446,272.71519 306.60162,272.56938 309.34552,272.86397 C 316.09435,275.05497 322.74054,281.17576 327.10867,287.15463 C 328.7212,289.36179 329.97022,291.52727 330.85126,293.49053 C 330.89742,293.57527 330.93967,293.66666 330.98522,293.75169 C 333.90297,299.19586 335.55294,305.15769 334.04813,309.42158 C 326.63705,318.38581 322.95322,303.88246 314.2904,304.93651 C 307.97867,305.70444 309.32746,310.75305 310.52549,313.45335 L 338.61813,354.42953 L 378.34545,341.10672 C 381.10295,340.77861 386.97692,340.90033 389.86389,347.09997 C 393.71318,355.36617 377.60558,354.39404 390.47382,363.88326 C 395.98885,366.54278 402.57449,366.81618 408.16522,365.77087 C 408.25256,365.75454 408.3484,365.74319 408.43521,365.72622 C 410.5026,365.50638 412.69987,365.00941 414.83759,364.19135 C 420.62841,361.9753 425.9048,357.71123 426.48324,352.17457 C 423.96138,339.21566 414.94744,348.61241 408.14207,341.33756 C 401.33669,334.06275 409.91322,330.65802 409.91322,330.65802 L 447.84072,317.80106 L 419.96993,277.14836 C 418.77796,274.43722 417.47349,269.43641 423.74816,268.67296 C 432.41104,267.61892 436.09484,282.12229 443.50593,273.15804 C 445.01073,268.89417 443.35223,262.91983 440.43448,257.47572 C 440.38892,257.3907 440.35522,257.31174 440.30904,257.22698 C 439.42801,255.26375 438.17898,253.09825 436.56648,250.89113 C 432.19832,244.91223 425.55214,238.79143 418.80328,236.60042 C 404.16928,235.02918 418.03175,246.11903 411.4326,250.18324 C 404.83343,254.24739 398.21833,245.35558 398.21833,245.35558 L 371.47103,206.40749 C 371.47103,206.40749 333.60184,219.45914 333.60184,219.45914 C 333.60184,219.45914 325.02529,222.8639 331.8307,230.13869 C 338.63605,237.41356 347.65,228.0168 350.17189,240.97571 C 349.59344,246.51238 344.31706,250.77645 338.52622,252.99247 C 336.38848,253.81053 334.19123,254.30749 332.12382,254.52737 C 332.03702,254.54435 331.94114,254.55569 331.85385,254.572 C 326.26314,255.6173 319.67749,255.3439 314.16243,252.68438 C 301.29423,243.1952 317.40181,244.16727 313.55253,235.90111 C 309.76399,227.76539 300.92456,230.08419 300.64376,230.15989 L 262.24842,243.036 z " style="fill:#002c00;fill-opacity:1;fill-rule:evenodd;stroke:none;stroke-width:1.78499997;stroke-miterlimit:4;stroke-dasharray:none;stroke-opacity:1" id="path1412"/>
    <path d="M 119.39532,194.92152 L 119.39532,251.64879 L 258.06198,516.37607 L 258.06198,478.55789 L 119.39532,194.92152 z " style="color:#000000;fill:url(#linearGradient15156);fill-opacity:1;fill-rule:nonzero;stroke:none;stroke-width:1;stroke-linecap:butt;stroke-linejoin:round;marker:none;marker-start:none;marker-mid:none;marker-end:none;stroke-miterlimit:4;stroke-dasharray:none;stroke-dashoffset:0;stroke-opacity:1;visibility:visible;display:inline;overflow:visible;enable-background:accumulate" id="path7052"/>
    <path d="M 535.39531,384.01243 L 535.39531,421.83061 L 258.06198,516.37607 L 258.06198,478.55789 L 535.39531,384.01243 z " style="color:#000000;fill:#92a47e;fill-opacity:1;fill-rule:nonzero;stroke:none;stroke-width:1;stroke-linecap:butt;stroke-linejoin:round;marker:none;marker-start:none;marker-mid:none;marker-end:none;stroke-miterlimit:4;stroke-dasharray:none;stroke-dashoffset:0;stroke-opacity:1;visibility:visible;display:inline;overflow:visible;enable-background:accumulate" id="path7054"/>
    <path d="M 135.49149,228.11092 L 135.39533,282.39744 L 151.39533,312.83582 L 151.39533,260.37607 L 135.49149,228.11092 z " style="color:#000000;fill:#0b6519;fill-opacity:1;fill-rule:nonzero;stroke:none;stroke-width:1;stroke-linecap:butt;stroke-linejoin:round;marker:none;marker-start:none;marker-mid:none;marker-end:none;stroke-miterlimit:4;stroke-dasharray:none;stroke-dashoffset:0;stroke-opacity:1;visibility:visible;display:inline;overflow:visible;enable-background:accumulate" id="path7063"/>
    <path d="M 221.36586,403.0096 L 222.0808,447.52199 L 241.90086,485.45799 L 241.6218,444.55396 L 221.36586,403.0096 z " style="color:#000000;fill:#0b6519;fill-opacity:1;fill-rule:nonzero;stroke:none;stroke-width:1;stroke-linecap:butt;stroke-linejoin:round;marker:none;marker-start:none;marker-mid:none;marker-end:none;stroke-miterlimit:4;stroke-dasharray:none;stroke-dashoffset:0;stroke-opacity:1;visibility:visible;display:inline;overflow:visible;enable-background:accumulate" id="path7065"/>
    <path d="M 217.16266,342.41911 C 216.35665,341.22306 216.25645,339.2443 216.95168,338.25172 C 218.52838,336.00067 222.8038,336.38491 222.8038,338.77766 C 222.8038,339.91941 222.11376,340.71397 221.10764,340.73085 C 220.35311,340.74351 220.24489,340.8585 220.24489,341.64787 C 220.24489,342.37942 220.40636,342.78262 221.35219,343.1439 C 222.69112,343.65532 224.33819,343.16668 224.85583,341.7095 C 225.15711,340.61838 224.86329,338.01939 224.27926,336.60948 C 223.94069,335.7921 223.89098,335.77811 221.32529,335.77811 C 216.61372,335.77811 212.96843,334.36599 209.92698,331.36263 C 207.76668,329.22938 206.75077,327.27373 206.22996,324.24556 C 205.36525,319.2185 210.87935,308.26362 212.84897,306.42635 L 213.76461,305.22218 C 212.26022,299.63834 209.08531,294.36251 208.18032,288.61572 C 211.50221,287.28426 215.75776,291.68816 217.31795,293.7689 C 218.63218,295.76222 219.19164,297.78464 219.18957,300.53538 C 219.18749,303.38969 218.84598,304.62959 217.51848,306.60222 L 216.46742,308.16406 L 217.42115,310.69099 C 217.94569,312.0808 218.46974,313.27657 218.58578,313.34825 C 221.80924,312.40657 224.73471,311.99312 228.00585,313.17861 C 230.26636,314.27529 232.29192,316.29278 233.40636,318.55762 C 234.70153,321.16245 234.78957,324.45218 233.70514,327.15811 C 232.72984,329.31325 230.29339,332.14818 228.23732,333.52028 C 227.2449,334.18257 226.42916,334.87675 226.42458,335.06291 C 227.17777,337.73657 227.80392,340.35691 226.63495,343.02673 C 223.85601,346.60713 219.61324,345.63726 217.16266,342.41911 z M 223.24857,332.47766 C 223.1247,331.19618 222.48889,329.53315 221.14805,329.1342 C 216.59758,328.22057 213.7355,323.21075 215.09407,318.53732 C 215.30113,317.04883 216.55326,316.06492 217.08391,314.75408 C 217.08391,313.92997 215.4626,310.1894 215.10537,310.1894 C 212.22379,313.53451 210.7833,318.52103 211.32063,322.90951 C 212.01079,327.7897 214.21787,330.57714 218.65645,332.17435 C 220.35286,332.78479 222.95261,332.9565 223.24857,332.47766 z M 229.07677,317.82445 C 226.8625,315.70073 222.40568,314.89266 220.2115,317.54343 C 220.2115,317.54343 221.21904,320.05922 221.21904,320.05922 C 224.19697,318.21419 226.98989,319.42647 228.10264,322.73985 C 229.05018,326.95693 225.42365,327.61053 224.61005,329.74537 C 224.61005,329.74537 225.40624,331.9398 225.40624,331.9398 C 230.97066,328.93505 233.54025,324.01673 229.07677,317.82445 z M 226.32999,323.98089 C 225.69468,317.92391 220.31086,322.50221 223.45924,326.64046 C 224.86109,327.74416 226.45686,325.19024 226.32999,323.98089 z M 220.97798,325.76841 C 220.97798,325.76841 219.01961,319.97332 218.73967,319.97332 C 218.3888,319.97332 218.32339,322.80207 218.57373,323.81959 C 218.70848,324.36729 220.58273,327.03118 220.97798,325.76841 z M 215.26072,293.7216 C 214.10573,291.88064 210.16773,289.65997 210.15549,290.69683 C 210.14774,291.36075 214.75495,303.56644 215.01331,303.56644 C 217.95835,300.90026 216.9359,296.39171 215.26072,293.7216 z " style="fill:#808000" id="path3421"/>
    <path d="M 192.81531,198.49247 C 192.81531,198.49247 155.7987,215.72274 155.7987,215.72274 C 155.7987,215.72274 159.6936,236.81644 159.6936,236.81644 C 159.6936,236.81644 151.11937,236.04858 151.77551,242.69805 C 152.17841,246.78125 156.06799,246.66292 158.93203,244.99823 C 163.53434,242.32319 161.64306,235.14539 161.64306,235.14539 C 161.64306,235.14539 159.9402,223.08105 159.9402,223.08105 C 159.9402,223.08105 172.99793,213.56417 172.99793,213.56417 C 172.99793,213.56417 175.31072,230.31409 175.31072,230.31409 C 175.31072,230.31409 175.40611,228.63443 171.17313,229.90726 C 165.88173,231.49834 168.24358,239.48085 173.24135,237.51084 C 178.4051,235.47543 177.11816,233.75497 176.95436,229.72846 C 176.71177,223.76436 175.38696,211.91159 175.38696,211.91159 C 175.38696,211.91159 186.71155,205.18157 186.71155,205.18157 C 186.71155,205.18157 191.40767,221.19032 191.40767,221.19032 C 191.40767,221.19032 187.88281,220.62135 185.62885,221.50663 C 180.57074,223.49331 182.67428,230.31635 187.64108,230.17161 C 191.31315,230.0677 193.36003,227.71747 192.3519,219.7772 C 192.00954,217.08054 190.97676,202.90162 190.97676,202.90162 C 190.97676,202.90162 193.78084,200.91378 193.78084,200.91378 C 193.78084,200.91378 192.81531,198.49247 192.81531,198.49247 z " style="fill:#808000;fill-opacity:1;stroke:none" id="path3416"/>
    <path d="M 273.07278,398.05187 C 273.07278,398.05187 270.66854,398.03391 270.66854,398.03391 L 267.98953,422.45407 C 265.25484,417.74809 258.18689,418.15223 255.08683,422.28234 C 252.58107,430.62151 261.9719,433.40576 267.77203,429.30042 C 272.66861,426.00966 271.19281,409.14351 274.34357,407.87982 C 277.9481,412.22393 275.60719,417.12142 272.90107,421.2634 C 271.47483,423.22032 271.38251,424.5832 272.67209,424.76671 C 273.87167,424.93742 278.24725,420.47016 279.59856,417.69139 C 281.91418,413.09258 280.23673,408.43777 277.05694,404.76577 C 275.08742,402.69241 275.06992,402.64933 275.32819,400.97624 C 275.74622,398.26812 275.36363,398.04523 273.07278,398.05187 z " style="fill:#808000" id="path3378"/>
    <path d="M 119.53563,254.15001 L 119.53563,195.22557 L 305.02552,132.40211 L 267.18142,83.62393 L 64.867615,147.65621 L 119.53563,254.15001 z " style="color:#000000;fill:url(#linearGradient15147);fill-opacity:1;fill-rule:nonzero;stroke:none;stroke-width:1;stroke-linecap:butt;stroke-linejoin:round;marker:none;marker-start:none;marker-mid:none;marker-end:none;stroke-miterlimit:4;stroke-dasharray:none;stroke-dashoffset:0;stroke-opacity:1;visibility:visible;display:inline;overflow:visible;enable-background:accumulate" id="path13171"/>
    <path d="M 168.3623,128.35625 C 170.16386,125.41553 172.37466,123.45183 176.36505,122.04946 C 173.68799,124.37482 172.25601,127.05378 171.18712,129.07766 C 170.08321,128.93818 169.29339,128.75424 168.3623,128.35625 z M 188.43178,121.30304 C 185.18658,120.13599 182.23334,119.98709 178.24297,121.3895 C 181.78618,121.52879 184.57932,122.7229 186.67933,123.63306 C 187.45333,122.83367 187.95445,122.19603 188.43178,121.30304 z M 179.02378,128.30143 C 176.91123,129.04389 174.86842,129.23441 172.38783,129.11725 C 173.85789,126.35894 175.1091,124.66654 177.08524,122.78534 L 179.02378,128.30143 z M 180.08008,127.93022 C 182.19265,127.18779 183.90551,126.05841 185.76743,124.41511 C 182.89495,123.183 180.86005,122.64547 178.14152,122.41414 L 180.08008,127.93022 z M 170.83038,130.12606 C 169.72647,129.98661 168.71925,129.74718 167.72953,129.3698 C 166.73683,131.23506 165.95819,132.9592 165.65544,134.91166 C 166.96244,135.44127 167.99016,135.73934 169.42874,135.89313 C 169.6522,133.90263 170.01682,132.12616 170.83038,130.12606 z M 187.61354,124.22782 C 188.38752,123.42834 189.02342,122.61149 189.5595,121.69784 C 191.5009,122.53195 193.18696,123.38991 194.64465,124.72372 C 193.95634,125.95454 193.34103,126.83006 192.31491,127.85003 C 190.89535,126.4369 189.49951,125.27921 187.61354,124.22782 z M 179.39506,129.35774 C 177.1064,130.16206 174.29755,130.424 171.93426,130.26556 C 171.06207,132.28628 170.62135,134.2213 170.47395,136.05318 C 174.53433,136.53825 177.97127,136.18741 181.37489,134.9913 L 179.39506,129.35774 z M 180.4513,128.98653 C 182.73996,128.18219 185.0951,126.62931 186.83965,125.02723 C 188.78425,126.05801 190.33868,127.29185 191.59974,128.6288 C 188.7355,131.54737 185.83472,133.42391 182.43113,134.62006 L 180.4513,128.98653 z M 165.39857,136.05675 C 166.70551,136.5864 167.92996,136.88137 169.40981,137.15251 C 169.27666,138.64971 169.50203,140.41656 169.82419,142.08348 C 168.36496,141.87107 166.86449,141.54127 165.46083,141.11159 C 165.15611,139.30663 165.14814,137.59529 165.39857,136.05675 z M 195.56138,125.4564 C 194.87318,126.68719 194.10246,127.6833 193.11759,128.82062 C 194.15814,129.90536 195.08769,131.42475 195.87923,132.92671 C 196.88473,131.84813 197.84891,130.65212 198.67519,129.43877 C 197.7837,127.84002 196.71929,126.49995 195.56138,125.4564 z M 182.69477,138.74698 L 172.95342,142.17045 C 172.22546,142.16257 171.65609,142.23081 170.90744,142.16429 C 170.50284,140.26261 170.42179,138.90656 170.43442,137.25394 C 174.26006,137.82141 177.93176,137.38808 181.74611,136.04757 L 182.69477,138.74698 z M 183.75104,138.37575 L 193.49237,134.95224 C 194.05539,134.49066 194.54226,134.18774 195.08463,133.66747 C 194.21064,131.93076 193.42545,130.82218 192.38171,129.54076 C 189.75225,132.37683 186.61671,134.33582 182.80235,135.67634 L 183.75104,138.37575 z M 166.20495,144.54212 C 165.93687,143.77925 165.76864,143.11314 165.61789,142.30901 C 167.2976,142.77359 168.06687,142.89882 170.07799,143.181 L 166.20495,144.54212 z M 200.24081,132.5806 C 199.97273,131.81774 199.68728,131.19284 199.30172,130.4712 C 198.28206,131.88447 197.76027,132.46339 196.36777,133.94175 L 200.24081,132.5806 z M 158.97784,151.36758 L 166.31311,148.78965 L 172.95382,167.6854 L 165.61856,170.26331 L 158.97784,151.36758 z M 173.58979,146.23234 L 180.92516,143.65443 L 187.56583,162.55015 L 180.2305,165.12814 L 173.58979,146.23234 z M 188.20173,141.0971 L 195.53708,138.51921 L 202.17782,157.41494 L 194.84247,159.99288 L 188.20173,141.0971 z M 202.81378,135.96189 L 210.14907,133.38402 L 216.78976,152.27972 L 209.4545,154.85762 L 202.81378,135.96189 z M 156.11007,149.21068 L 211.03697,129.90721 L 211.67627,131.72638 L 156.74939,151.02986 L 156.11007,149.21068 z M 164.09132,171.92091 L 219.01823,152.61747 L 219.65751,154.43658 L 164.73066,173.74004 L 164.09132,171.92091 z " style="fill:#808080;fill-opacity:1" id="path8795"/>
    <path d="M -95.255477,228.83211 L -159.93002,223.13788 L -108.71143,190.41834 L -123.28143,127.14958 L -76.335889,165.75046 L -20.6661,132.34245 L -42.870744,188.91864 L 6.1050745,231.54011 L -54.563692,227.90524 L -79.964761,287.65477 L -95.255477,228.83211 z " transform="matrix(0.1644993,0,0,0.1644993,207.13729,232.67532)" style="fill:#808000;fill-opacity:1;stroke:none;stroke-width:1;stroke-linecap:butt;stroke-linejoin:round;stroke-miterlimit:4;stroke-dasharray:none;stroke-dashoffset:0;stroke-opacity:1" id="path2274"/>
    <use transform="translate(50.14599,101.86131)" id="use3247" x="0" y="0" width="600" height="600" xlink:href="#path2274"/>
    <path d="M 64.604685,147.4192 L 66.260665,204.12229 L 212.59612,464.68881 L 211.49214,426.88675 L 64.604685,147.4192 z " style="color:#000000;fill:url(#linearGradient15141);fill-opacity:1;fill-rule:nonzero;stroke:none;stroke-width:1;stroke-linecap:butt;stroke-linejoin:round;marker:none;marker-start:none;marker-mid:none;marker-end:none;stroke-miterlimit:4;stroke-dasharray:none;stroke-dashoffset:0;stroke-opacity:1;visibility:visible;display:inline;overflow:visible;enable-background:accumulate" id="path12186"/>
    <path d="M 82.491495,181.68741 L 82.395325,232.74218 L 98.395325,261.21842 L 98.395325,211.875 L 82.491495,181.68741 z " style="color:#000000;fill:#0b2865;fill-opacity:1;fill-rule:nonzero;stroke:none;stroke-width:1;stroke-linecap:butt;stroke-linejoin:round;marker:none;marker-start:none;marker-mid:none;marker-end:none;stroke-miterlimit:4;stroke-dasharray:none;stroke-dashoffset:0;stroke-opacity:1;visibility:visible;display:inline;overflow:visible;enable-background:accumulate" id="path12188"/>
    <path d="M 172.50171,352.84871 L 173.48016,394.91332 L 194.14497,431.85785 L 193.26691,392.20589 L 172.50171,352.84871 z " style="color:#000000;fill:#0b2865;fill-opacity:1;fill-rule:nonzero;stroke:none;stroke-width:1;stroke-linecap:butt;stroke-linejoin:round;marker:none;marker-start:none;marker-mid:none;marker-end:none;stroke-miterlimit:4;stroke-dasharray:none;stroke-dashoffset:0;stroke-opacity:1;visibility:visible;display:inline;overflow:visible;enable-background:accumulate" id="path12190"/>
  </g>
</svg>