<?xml version="1.0" encoding="UTF-8" standalone="no"?>
<svg id="svg8610" viewBox="0 0 21000 29700" height="709.43671" width="651.18506" version="1.0" sodipodi:docname="Electromagnetism 1.svg" inkscape:version="1.4.2 (f4327f4, 2025-05-13)" xmlns:inkscape="http://www.inkscape.org/namespaces/inkscape" xmlns:sodipodi="http://sodipodi.sourceforge.net/DTD/sodipodi-0.dtd" xmlns="http://www.w3.org/2000/svg" xmlns:svg="http://www.w3.org/2000/svg" xmlns:rdf="http://www.w3.org/1999/02/22-rdf-syntax-ns#" xmlns:cc="http://creativecommons.org/ns#" xmlns:dc="http://purl.org/dc/elements/1.1/">
  <sodipodi:namedview id="namedview1" pagecolor="#ffffff" bordercolor="#666666" borderopacity="1.0" inkscape:showpageshadow="2" inkscape:pageopacity="0.0" inkscape:pagecheckerboard="0" inkscape:deskcolor="#d1d1d1" showguides="false" inkscape:zoom="0.8123234" inkscape:cx="325.6092" inkscape:cy="267.7505" inkscape:window-width="1920" inkscape:window-height="1017" inkscape:window-x="-8" inkscape:window-y="-8" inkscape:window-maximized="1" inkscape:current-layer="svg8610">
    <sodipodi:guide position="3256.334,2806.012" orientation="-0.7413279,0.671143" id="guide2" inkscape:locked="false"/>
    <sodipodi:guide position="9404.067,15560.61" orientation="0,-1" id="guide3" inkscape:locked="false"/>
    <sodipodi:guide position="12295.47,11296.93" orientation="1,0" id="guide4" inkscape:locked="false"/>
    <sodipodi:guide position="12267.17,15630.57" orientation="0.8251249,0.5649504" id="guide5" inkscape:locked="false"/>
  </sodipodi:namedview>
  <metadata id="metadata164">
    <rdf:RDF>
      <cc:Work rdf:about="">
        <dc:format>image/svg+xml</dc:format>
        <dc:type rdf:resource="http://purl.org/dc/dcmitype/StillImage"/>
      </cc:Work>
    </rdf:RDF>
  </metadata>
  <defs id="defs8931">
    <desc id="desc8616">Slide</desc>
    <desc id="desc8836">Drawing</desc>
  </defs>
  <path style="fill:none;fill-rule:evenodd;stroke:#ff0000;stroke-width:376.778;stroke-linecap:square;stroke-linejoin:round;stroke-dasharray:none;paint-order:fill markers stroke" id="path5" sodipodi:type="arc" sodipodi:cx="18793.24" sodipodi:cy="2628.806" sodipodi:rx="9775.052" sodipodi:ry="7188.262" sodipodi:start="0.2755636" sodipodi:end="1.970099" sodipodi:open="true" sodipodi:arc-type="arc" d="m 28199.5,4584.655 a 9775.052,7188.262 0 0 1 -5172.37,4523.15 9775.052,7188.262 0 0 1 -8034.19,143.779" transform="matrix(0.7580877,0.6521526,-0.65228,0.7579781,0,0)"/>
  <g id="Default" style="visibility:visible" transform="translate(-1249.6991,-4651.7635)">
    <desc id="desc8613">Master slide</desc>
  </g>
  <g id="g8618" style="visibility:visible" transform="matrix(1.2948133,0,0,1.2948133,-2961.6039,-4123.5267)">
    <desc id="desc8620">Drawing</desc>
    <g id="g8622">
      <g id="g8624" style="fill:#ff0000;stroke:none"/>
      <g id="g8628"/>
    </g>
  </g>
  <g id="g8630" style="visibility:visible" transform="matrix(1.2948133,0,0,1.2948133,-2961.6039,-4123.5267)">
    <desc id="desc8632">Drawing</desc>
    <g id="g8634">
      <g id="g8636" style="fill:#ff0000;stroke:none">
        <path id="path8638" d="m 8227,15335 290,-66 142,211 167,230 164,207 73,82 62,61 -177,197 -78,-70 -79,-82 -82,-95 -85,-108 -186,-256 z"/>
      </g>
      <g id="g8640"/>
    </g>
  </g>
  <g id="g8642" style="visibility:visible" transform="matrix(1.294813,0,0,1.294813,-3580.04,-3659.699)">
    <desc id="desc8644">Drawing</desc>
    <g id="g8646">
      <g id="g8648" style="fill:#2323dc;stroke:none">
        <path id="path8650" d="m 10012,19743 -2356,2630 -668,-201 -96,1560 2075,-877 -603,-225 2364,-2621 z"/>
      </g>
      <g id="g8652"/>
    </g>
  </g>
  <g id="g8654" style="visibility:visible" transform="matrix(1.294813,0,0,1.294813,-3837.722,-3917.381)">
    <desc id="desc8656">Drawing</desc>
    <g id="g8658">
      <g id="g8660" style="fill:#2323dc;stroke:none">
        <path id="path8662" d="m 10406,21746 h 419 v 1994 h -419 z"/>
      </g>
      <g id="g8664"/>
    </g>
  </g>
  <g id="g8678" style="visibility:visible" transform="matrix(1.2948133,0,0,1.2948133,-2961.6039,-4123.5267)">
    <desc id="desc8680">Drawing</desc>
    <g id="g8682">
      <g id="g8684" style="fill:#000000;stroke:none">
        <path id="path8686" d="m 16465,4641 h 344 v 488 h 490 v 331 h -490 v 487 h -345 v -487 h -482 v -331 h 482 z"/>
      </g>
      <g id="g8688"/>
    </g>
  </g>
  <g id="g8690" style="visibility:visible" transform="matrix(1.2948133,0,0,1.2948133,-2961.6039,-4123.5267)">
    <desc id="desc8692">Drawing</desc>
    <g id="g8694">
      <g id="g8696" style="fill:#868452;stroke:none">
        <path id="path8698" d="m 18271,6024 -993,1103 114,17 113,25 110,32 108,40 104,48 100,55 96,62 90,69 84,75 78,82 70,88 62,95 54,100 45,107 35,112 24,117 977,-1069 19,-56 13,-58 8,-58 3,-59 -2,-60 -8,-60 -28,-118 -46,-117 -62,-112 -76,-106 -89,-97 -100,-88 -111,-76 -119,-62 -126,-46 -132,-28 -136,-8 -139,14 -70,15 z"/>
      </g>
      <g id="g8700"/>
    </g>
  </g>
  <g id="g8702" style="visibility:visible" transform="matrix(1.2948133,0,0,1.2948133,-2961.6039,-4123.5267)">
    <desc id="desc8704">Drawing</desc>
    <g id="g8706">
      <g id="g8708" style="fill:#8d8f56;stroke:none">
        <path id="path8710" d="m 17444,7149 86,12 88,23 90,33 91,43 91,52 89,59 87,67 83,73 79,79 73,84 67,88 60,92 51,95 41,96 30,98 19,98 957,-1059 21,-63 14,-63 9,-63 3,-62 -3,-62 -8,-61 -31,-118 -48,-114 -63,-107 -77,-100 -87,-91 -97,-82 -103,-71 -107,-58 -110,-45 -109,-31 -107,-14 -52,-1 -51,3 -49,8 -47,13 z"/>
      </g>
      <g id="g8712"/>
    </g>
  </g>
  <g id="g8714" style="visibility:visible" transform="matrix(1.2948133,0,0,1.2948133,-2961.6039,-4123.5267)">
    <desc id="desc8716">Drawing</desc>
    <g id="g8718">
      <g id="g8720" style="fill:#bbb76e;stroke:none">
        <path id="path8722" d="m 17665,7211 67,22 72,32 75,41 77,49 77,56 76,62 75,67 72,73 67,76 62,78 55,81 47,83 37,82 27,82 16,81 3,40 -1,39 958,-1073 28,-118 9,-114 -7,-111 -22,-107 -36,-102 -47,-96 -57,-91 -66,-83 -72,-76 -78,-68 -81,-60 -83,-50 -83,-41 -82,-30 -78,-19 -74,-8 z"/>
      </g>
      <g id="g8724"/>
    </g>
  </g>
  <g id="g8726" style="visibility:visible" transform="matrix(1.2948133,0,0,1.2948133,-2961.6039,-4123.5267)">
    <desc id="desc8728">Drawing</desc>
    <g id="g8730">
      <g id="g8732" style="fill:#ffffa5;stroke:none">
        <path id="path8734" d="m 17939,7356 93,63 97,78 96,94 92,107 43,59 41,62 37,64 34,68 31,70 25,72 21,76 16,77 963,-1064 19,-107 8,-103 -2,-96 -12,-92 -20,-86 -28,-81 -35,-75 -40,-70 -45,-65 -49,-59 -51,-54 -53,-49 -55,-43 -54,-38 -53,-32 -51,-27 z"/>
      </g>
      <g id="g8736"/>
    </g>
  </g>
  <g id="g8738" style="visibility:visible" transform="matrix(1.2948133,0,0,1.2948133,-2961.6039,-4123.5267)">
    <desc id="desc8740">Drawing</desc>
    <g id="g8742">
      <g id="g8744" style="fill:#f0f17c;stroke:none">
        <path id="path8746" d="m 18266,7625 54,70 48,70 43,71 38,74 33,76 29,79 26,83 23,88 968,-1053 14,-66 10,-63 6,-59 2,-56 -1,-54 -5,-52 -8,-49 -11,-47 -14,-47 -16,-44 -20,-44 -21,-44 -50,-85 -57,-87 z"/>
      </g>
      <g id="g8748"/>
    </g>
  </g>
  <g id="g8750" style="visibility:visible" transform="matrix(1.294813,0,0,1.294813,-2497.777,-4484.281)">
    <desc id="desc8752">Drawing</desc>
    <g id="g8754">
      <g id="g8756" style="fill:#ff0000;stroke:none">
        <path id="path8758" d="m 6563,11239 v 459 h 263 l 190,-1 61,-2 23,-1 16,-1 25,-4 24,-5 22,-7 21,-8 20,-10 18,-11 17,-12 8,-7 7,-7 7,-7 7,-8 6,-8 6,-9 6,-9 5,-9 4,-9 4,-9 4,-10 3,-11 4,-21 3,-22 1,-23 -1,-23 -2,-21 -4,-20 -6,-20 -8,-18 -9,-17 -10,-17 -12,-15 -7,-7 -6,-7 -8,-6 -7,-6 -8,-5 -9,-5 -18,-9 -19,-8 -21,-7 -23,-5 -24,-4 -44,-3 -72,-2 -227,-3 z m 0,790 v 532 h 372 l 98,-1 79,-2 58,-5 22,-3 17,-3 22,-4 20,-6 20,-8 19,-9 18,-11 16,-12 16,-13 15,-15 13,-16 11,-18 10,-19 8,-20 6,-22 4,-23 3,-24 1,-25 -1,-22 -2,-22 -3,-20 -5,-20 -6,-19 -7,-17 -9,-17 -10,-16 -12,-15 -13,-14 -14,-13 -15,-12 -16,-11 -17,-10 -19,-8 -20,-8 -24,-7 -29,-6 -36,-5 -41,-4 -100,-5 -124,-2 z m -401,-1119 h 794 l 110,1 96,4 80,7 35,4 31,5 28,5 27,7 27,8 27,9 25,11 25,12 23,14 23,15 23,16 21,18 21,18 20,20 18,22 18,22 16,24 16,25 14,26 13,27 10,28 9,29 7,29 4,30 3,31 1,31 -1,35 -4,34 -5,33 -9,33 -10,32 -13,31 -15,30 -17,29 -20,28 -21,27 -24,24 -24,23 -27,21 -28,19 -30,17 -31,16 44,15 42,16 38,19 37,21 33,24 31,26 28,29 26,31 23,33 20,33 17,36 13,36 11,38 8,39 4,40 2,42 -1,34 -3,34 -5,34 -7,33 -9,33 -11,32 -13,33 -15,32 -16,31 -17,29 -20,28 -20,26 -23,25 -24,23 -25,22 -26,20 -28,18 -30,17 -31,14 -33,13 -34,10 -36,9 -38,8 -39,5 -68,5 -103,4 -312,5 h -676 z"/>
      </g>
      <g id="g8760"/>
    </g>
  </g>
  <g id="g8762" style="visibility:visible" transform="matrix(1.2948133,0,0,1.2948133,-2961.6039,-4123.5267)">
    <desc id="desc8764">Drawing</desc>
    <g id="g8766">
      <g id="g8768" style="fill:#40884a;stroke:none">
        <path id="path8770" d="m 3581,21778 13197,-14552 58,-36 65,-28 71,-21 76,-14 80,-7 83,-1 87,6 87,11 89,17 89,23 87,27 86,33 83,36 79,42 75,45 70,49 78,65 74,72 68,78 62,83 56,86 50,89 44,91 37,92 30,92 23,91 16,89 8,86 1,83 -7,77 -16,72 -24,65 -13059,14538 -78,82 -83,68 -87,54 -92,40 -94,29 -97,16 -99,5 -101,-6 -101,-16 -101,-25 -200,-76 -193,-107 -180,-133 -164,-154 -140,-170 -114,-181 -45,-94 -36,-94 -26,-95 -17,-94 -6,-94 5,-92 17,-90 30,-87 42,-85 z"/>
      </g>
      <g id="g8772"/>
    </g>
  </g>
  <g id="g8774" style="visibility:visible" transform="matrix(1.2948133,0,0,1.2948133,-2961.6039,-4123.5267)">
    <desc id="desc8776">Drawing</desc>
    <g id="g8778">
      <g id="g8780" style="fill:#4b914d;stroke:none">
        <path id="path8782" d="m 4039,21548 13210,-14398 236,25 89,12 40,7 40,10 38,12 39,16 41,19 44,23 98,63 120,88 78,65 73,72 68,78 62,83 55,86 50,88 43,91 36,91 30,90 22,89 16,87 7,83 1,79 -8,73 -16,67 -11,30 -13,29 -13043,14517 29,-80 21,-79 13,-79 6,-79 -1,-78 -8,-78 -34,-152 -58,-148 -78,-141 -96,-133 -111,-124 -124,-114 -134,-102 -141,-89 -147,-74 -148,-59 -149,-41 -145,-22 z"/>
      </g>
      <g id="g8784"/>
    </g>
  </g>
  <g id="g8786" style="visibility:visible" transform="matrix(1.2948133,0,0,1.2948133,-2961.6039,-4123.5267)">
    <desc id="desc8788">Drawing</desc>
    <g id="g8790">
      <g id="g8792" style="fill:#58b25a;stroke:none">
        <path id="path8794" d="m 4395,21583 13125,-14401 113,29 52,17 54,21 59,28 66,37 78,49 92,62 81,62 74,70 69,76 62,82 56,85 49,89 43,91 36,92 29,91 22,90 14,88 7,84 v 80 l -9,74 -16,68 -11,30 -13,29 -13043,14526 43,-139 21,-137 1,-135 -17,-130 -35,-127 -50,-122 -65,-117 -78,-112 -89,-105 -98,-99 -108,-92 -114,-84 -120,-76 -125,-68 -127,-58 z"/>
      </g>
      <g id="g8796"/>
    </g>
  </g>
  <g id="g8798" style="visibility:visible" transform="matrix(1.2948133,0,0,1.2948133,-2961.6039,-4123.5267)">
    <desc id="desc8800">Drawing</desc>
    <g id="g8802">
      <g id="g8804" style="fill:#94fb8e;stroke:none">
        <path id="path8806" d="m 4760,21740 13059,-14456 93,45 90,59 87,70 81,80 77,88 70,95 64,101 56,104 47,106 39,107 29,106 19,103 8,100 -5,93 -6,45 -11,42 -13,40 -17,38 -13043,14526 36,-129 20,-124 6,-118 -7,-113 -21,-108 -31,-102 -42,-99 -51,-93 -60,-89 -68,-86 -74,-81 -79,-77 -172,-143 z"/>
      </g>
      <g id="g8808"/>
    </g>
  </g>
  <g id="g8810" style="visibility:visible" transform="matrix(1.2948133,0,0,1.2948133,-2961.6039,-4123.5267)">
    <desc id="desc8812">Drawing</desc>
    <g id="g8814">
      <g id="g8816" style="fill:#6cf36e;stroke:none">
        <path id="path8818" d="m 5234,22127 13054,-14449 72,112 66,119 58,125 25,65 21,65 17,67 14,67 8,67 4,68 -2,68 -8,69 -14,68 -21,68 -13044,14527 26,-114 18,-104 10,-94 4,-86 -3,-78 -8,-72 -14,-65 -19,-61 -23,-58 -27,-54 -63,-104 z"/>
      </g>
      <g id="g8820"/>
    </g>
  </g>
  <g id="g8822" style="visibility:visible" transform="matrix(1.2948133,0,0,1.2948133,-2961.6039,-4123.5267)">
    <desc id="desc8824">Drawing</desc>
    <g id="g8826">
      <g id="g8828" style="fill:#62cb60;stroke:none">
        <path id="path8830" d="m 5535,22922 13042,-14510 3,37 1,34 -2,33 -4,32 -7,33 -9,34 -25,78 -13047,14540 27,-111 7,-40 5,-33 z"/>
      </g>
      <g id="g8832"/>
    </g>
  </g>
  <g id="g8838" style="visibility:visible" transform="matrix(1.2948133,0,0,1.2948133,-2961.6039,-4123.5267)">
    <g id="g8840" style="fill:#ff0000;stroke:none">
      <path id="path8842" d="m 11878.159,16136 192.841,97 270,81 134,31 134,23 133,13 132,3 130,-10 130,-22 129,-38 128,-53 126,-70 125,-89 124,-108 122,-130 57,-73 50,-77 44,-82 36,-85 55,-182 29,-193 6,-203 -16,-210 -38,-214 -57,-215 -75,-215 -93,-211 -109,-205 -123,-197 -137,-185 -150,-171 -160,-155 -170,-136 -336,-226 -314,-176 -149,-71 -144,-59 -140,-49 -136,-38 -134,-28 -130,-18 -128,-9 h -125 l -124,8 -123,18 -122,24 -121,33 147,318 -1022,-272 421,-738 284,352 134,-41 141,-29 148,-17 154,-5 161,8 165,20 171,33 174,47 179,59 181,72 185,87 186,100 188,113 190,128 379,299 183,171 168,183 153,195 138,203 121,211 103,216 86,221 67,222 48,223 27,222 7,218 -15,214 -37,207 -61,199 -84,188 -109,177 -108,131 -123,113 -137,96 -148,80 -158,64 -165,48 -172,34 -176,20 -178,7 -179,-7 -177,-19 -174,-31 -169,-42 -162,-52 -153,-63 -120.411,-79.196 z"/>
    </g>
    <g id="g8844"/>
  </g>
  <g id="g8846" style="visibility:visible" transform="matrix(1.2948133,0,0,1.2948133,-2961.6039,-4123.5267)">
    <desc id="desc8848">Drawing</desc>
    <g id="g8850">
      <g id="g8852" style="fill:#ff0000;stroke:none">
        <path style="stroke-width:1" id="path8854" d="m 10797.19,17288.85 531.56,278.83 305.33,134.54 311.06,117.36 315.83,99.23 317.74,77.29 319.65,55.34 316.78,29.58 314.88,1.91 310.11,-26.72 303.43,-59.15 294.83,-93.51 285.3,-128.82 272.9,-166.98 259.53,-208.01 244.27,-249.99 110.68,-139.31 95.42,-146.94 82.06,-152.67 68.7,-158.39 99.23,-333.01 50.57,-349.23 5.73,-360.67 -33.4,-370.22 -70.6,-373.08 -103.06,-373.08 -132.63,-368.32 -156.48,-359.72 -178.43,-346.36 -195.61,-328.24 -208.01,-307.24 -218.5,-280.53 -224.23,-249.99 -226.14,-215.65 -306.29,-253.81 -309.15,-229 -309.15,-204.19 -309.16,-181.29 -307.24,-158.4 -305.34,-135.49 -299.61,-113.55 -294.83,-91.6 -288.17,-70.6 -279.57,-50.58 -270.03,-30.53 -259.53,-10.5 -248.09,8.59 -233.77,27.67 -219.46,44.85 -203.24,62.98 140.264,303.42 -975.165,-259.53 401.707,-704.183 270.985,335.873 220.414,-72.52 244.265,-48.66 266.22,-24.81 284.34,-1.91 301.52,20.99 313.92,44.85 325.38,67.74 333.96,92.56 338.73,114.5 341.59,138.35 342.55,162.21 338.73,185.11 333.96,208.97 326.33,232.82 314.88,255.71 302.47,279.58 186.06,195.6 197.52,229 404.56,550.56 196.56,313.92 185.11,335.87 168.89,354 145.99,370.22 118.32,380.71 83.97,390.26 45.8,395.03 0.95,397.89 -48.66,396.94 -104.96,392.16 -166.03,385.49 -232.82,374.03 -215.64,251.9 -248.08,213.74 -277.67,176.52 -302.47,141.22 -323.47,105.91 -339.68,73.47 -354,41.99 -361.63,10.49 -367.36,-19.08 -369.26,-46.76 -365.45,-74.42 -358.77,-100.19 -347.32,-124.04 -333,-147.9 -313.93,-170.8 -279.98,-183.47 z"/>
      </g>
      <g id="g8856"/>
    </g>
  </g>
  <g id="g8870" style="visibility:visible" transform="matrix(1.2948133,0,0,1.2948133,-2961.6039,-4123.5267)">
    <desc id="desc8872">Drawing</desc>
    <g id="g8874">
      <g id="g8876" style="fill:#868452;stroke:none">
        <path id="path8878" d="m 3940,21898 -1383,1544 -28,68 -20,68 -13,69 -4,68 2,67 9,67 15,66 21,65 58,124 78,117 94,107 107,96 117,83 125,66 129,50 130,30 65,8 64,2 62,-4 62,-10 59,-17 57,-22 55,-30 51,-36 1359,-1488 19,-56 13,-58 8,-58 3,-59 -2,-60 -8,-60 -28,-118 -46,-117 -62,-112 -76,-106 -89,-97 -100,-88 -111,-76 -119,-62 -126,-46 -132,-28 -136,-8 -139,14 -70,15 z"/>
      </g>
      <g id="g8880"/>
    </g>
  </g>
  <g id="g8882" style="visibility:visible" transform="matrix(1.2948133,0,0,1.2948133,-2961.6039,-4123.5267)">
    <desc id="desc8884">Drawing</desc>
    <g id="g8886">
      <g id="g8888" style="fill:#8d8f56;stroke:none">
        <path id="path8890" d="m 2911,23225 95,6 101,19 104,30 104,41 104,51 100,62 95,71 87,80 78,89 66,96 52,104 36,111 12,58 7,60 1,61 -4,62 -9,64 -15,65 -49,133 1319,-1432 21,-63 14,-63 9,-63 3,-62 -3,-62 -8,-61 -31,-118 -48,-114 -63,-107 -77,-100 -87,-91 -97,-82 -103,-71 -107,-58 -110,-45 -109,-31 -107,-14 -52,-1 -51,3 -49,8 -47,13 z"/>
      </g>
      <g id="g8892"/>
    </g>
  </g>
  <g id="g8894" style="visibility:visible" transform="matrix(1.2948133,0,0,1.2948133,-2961.6039,-4123.5267)">
    <desc id="desc8896">Drawing</desc>
    <g id="g8898">
      <g id="g8900" style="fill:#bbb76e;stroke:none">
        <path id="path8902" d="m 3152,23258 70,20 75,28 79,38 82,46 80,54 79,62 75,70 70,77 61,83 52,90 40,97 27,102 12,108 -6,114 -25,118 -46,123 1319,-1432 28,-118 9,-114 -7,-111 -22,-107 -36,-102 -47,-96 -57,-91 -66,-83 -72,-76 -78,-68 -81,-60 -83,-50 -83,-41 -82,-30 -78,-19 -74,-8 z"/>
      </g>
      <g id="g8904"/>
    </g>
  </g>
  <g id="g8906" style="visibility:visible" transform="matrix(1.2948133,0,0,1.2948133,-2961.6039,-4123.5267)">
    <desc id="desc8908">Drawing</desc>
    <g id="g8910">
      <g id="g8912" style="fill:#ffffa5;stroke:none">
        <path id="path8914" d="m 3418,23354 99,66 55,42 55,47 56,52 54,59 51,63 46,69 41,75 33,79 25,85 15,89 3,95 -10,99 -23,105 -40,109 1319,-1432 19,-107 8,-102 -3,-97 -12,-91 -20,-85 -29,-80 -35,-75 -40,-69 -45,-64 -49,-59 -52,-53 -54,-48 -54,-43 -55,-37 -53,-32 -51,-27 z"/>
      </g>
      <g id="g8916"/>
    </g>
  </g>
  <g id="g8918" style="visibility:visible" transform="matrix(1.2948133,0,0,1.2948133,-2961.6039,-4123.5267)">
    <desc id="desc8920">Drawing</desc>
    <g id="g8922">
      <g id="g8924" style="fill:#f0f17c;stroke:none">
        <path id="path8926" d="m 3763,23644 55,73 26,40 24,42 21,43 20,47 16,48 13,51 9,53 5,56 1,58 -4,61 -9,64 -15,67 -20,69 -27,73 1319,-1432 14,-66 10,-63 6,-59 2,-56 -1,-54 -5,-52 -8,-49 -11,-47 -14,-47 -16,-44 -20,-44 -21,-44 -50,-85 -57,-87 z"/>
      </g>
      <g id="g8928"/>
    </g>
  </g>
  <text id="text971" y="26153.27" x="-2124.307" style="font-style:italic;font-variant:normal;font-weight:normal;font-stretch:normal;font-size:1786.2059326px;line-height:1.25;font-family:Arial;-inkscape-font-specification:'Arial, Italic';font-variant-ligatures:normal;font-variant-caps:normal;font-variant-numeric:normal;font-feature-settings:normal;text-align:start;letter-spacing:0px;word-spacing:0px;writing-mode:lr-tb;text-anchor:start;fill:#000000;fill-opacity:1;stroke:none;stroke-width:41.8642006" xml:space="preserve"><tspan style="font-style:normal;font-variant:normal;font-weight:bold;font-stretch:normal;font-size:3572.4116211px;font-family:Arial;-inkscape-font-specification:'Arial, Bold';font-variant-ligatures:normal;font-variant-caps:normal;font-variant-numeric:normal;font-feature-settings:normal;text-align:start;writing-mode:lr-tb;text-anchor:start;stroke-width:41.8642006" y="26153.27" x="-2124.307" id="tspan969">−</tspan></text>
  <text id="text975" y="24397.71" x="-1114.592" style="font-style:italic;font-variant:normal;font-weight:normal;font-stretch:normal;font-size:1786.2059326px;line-height:1.25;font-family:Arial;-inkscape-font-specification:'Arial, Italic';font-variant-ligatures:normal;font-variant-caps:normal;font-variant-numeric:normal;font-feature-settings:normal;text-align:start;letter-spacing:0px;word-spacing:0px;writing-mode:lr-tb;text-anchor:start;fill:#000000;fill-opacity:1;stroke:none;stroke-width:41.8642006" xml:space="preserve"><tspan style="stroke-width:41.8642006" y="26010.98" x="-1114.592" id="tspan973"/></text>
  <flowRoot style="fill:black;fill-opacity:1;stroke:none;font-family:Arial;font-style:italic;font-weight:normal;font-size:42.6666667px;line-height:1.25;letter-spacing:0px;word-spacing:0px;-inkscape-font-specification:'Arial, Italic';font-stretch:normal;font-variant:normal;text-anchor:start;text-align:start;writing-mode:lr;font-variant-ligatures:normal;font-variant-caps:normal;font-variant-numeric:normal;font-feature-settings:normal" id="flowRoot977" xml:space="preserve"><flowRegion id="flowRegion979"><rect y="576.8037" x="25.87995" height="44.0963" width="38.59356" id="rect981"/></flowRegion><flowPara id="flowPara983"/></flowRoot>
  <path style="fill:none;fill-rule:evenodd;stroke:#ff0000;stroke-width:376.778;stroke-linecap:square;stroke-linejoin:round;stroke-dasharray:none;paint-order:fill markers stroke" id="path1" sodipodi:type="arc" sodipodi:cx="18793.24" sodipodi:cy="2628.806" sodipodi:rx="9775.052" sodipodi:ry="7188.262" sodipodi:start="3.561214" sodipodi:end="0.3640444" sodipodi:open="true" sodipodi:arc-type="arc" d="M 9866.24,-299.7976 A 9775.052,7188.262 0 0 1 22526.17,-4014.663 9775.052,7188.262 0 0 1 27927.68,5188.233" transform="matrix(0.7580877,0.6521526,-0.65228,0.7579781,0,0)"/>
  <path style="fill:#ff0000;fill-opacity:1;stroke:none;stroke-width:41.8642px;stroke-linecap:butt;stroke-linejoin:miter;stroke-opacity:1" d="M 6725.661,6545.117 8026.956,6880.106 7253.908,5630.347 Z" id="path4"/>
</svg>